%FSLAX34Y34*%
G04 Gerber Fmt 3.4, Leading zero omitted, Abs format*
G04 (created by PCBNEW (2014-05-21 BZR 4876)-product) date Wed 21 May 2014 11:11:25 PM CEST*
%MOIN*%
G01*
G70*
G90*
G04 APERTURE LIST*
%ADD10C,0.005906*%
%ADD11R,0.038104X0.034584*%
%ADD12R,0.051969X0.041575*%
G04 APERTURE END LIST*
G54D10*
G54D11*
X118307Y-53957D03*
X118307Y-54625D03*
X118307Y-65768D03*
X118307Y-66436D03*
X118307Y-42146D03*
X118307Y-42814D03*
G54D12*
X118307Y-36201D03*
X118307Y-37027D03*
X118307Y-48012D03*
X118307Y-48838D03*
X118307Y-51949D03*
X118307Y-52775D03*
X118307Y-55886D03*
X118307Y-56712D03*
X118307Y-59823D03*
X118307Y-60649D03*
X118307Y-63760D03*
X118307Y-64586D03*
X118307Y-67697D03*
X118307Y-68523D03*
X118307Y-40138D03*
X118307Y-40964D03*
X118307Y-44075D03*
X118307Y-44901D03*
X119881Y-44075D03*
X119881Y-44901D03*
X119881Y-40138D03*
X119881Y-40964D03*
X119881Y-67697D03*
X119881Y-68523D03*
X119881Y-63760D03*
X119881Y-64586D03*
X119881Y-59823D03*
X119881Y-60649D03*
X119881Y-55886D03*
X119881Y-56712D03*
X119881Y-51949D03*
X119881Y-52775D03*
X119881Y-48012D03*
X119881Y-48838D03*
X119881Y-36201D03*
X119881Y-37027D03*
G54D11*
X119881Y-42146D03*
X119881Y-42814D03*
X119881Y-65768D03*
X119881Y-66436D03*
X119881Y-53957D03*
X119881Y-54625D03*
X116732Y-53957D03*
X116732Y-54625D03*
X116732Y-65768D03*
X116732Y-66436D03*
X116732Y-42146D03*
X116732Y-42814D03*
G54D12*
X116732Y-36201D03*
X116732Y-37027D03*
X116732Y-48012D03*
X116732Y-48838D03*
X116732Y-51949D03*
X116732Y-52775D03*
X116732Y-55886D03*
X116732Y-56712D03*
X116732Y-59823D03*
X116732Y-60649D03*
X116732Y-63760D03*
X116732Y-64586D03*
X116732Y-67697D03*
X116732Y-68523D03*
X116732Y-40138D03*
X116732Y-40964D03*
X116732Y-44075D03*
X116732Y-44901D03*
X115157Y-44075D03*
X115157Y-44901D03*
X115157Y-40138D03*
X115157Y-40964D03*
X115157Y-67697D03*
X115157Y-68523D03*
X115157Y-63760D03*
X115157Y-64586D03*
X115157Y-59823D03*
X115157Y-60649D03*
X115157Y-55886D03*
X115157Y-56712D03*
X115157Y-51949D03*
X115157Y-52775D03*
X115157Y-48012D03*
X115157Y-48838D03*
X115157Y-36201D03*
X115157Y-37027D03*
G54D11*
X115157Y-42146D03*
X115157Y-42814D03*
X115157Y-65768D03*
X115157Y-66436D03*
X115157Y-53957D03*
X115157Y-54625D03*
X121456Y-53957D03*
X121456Y-54625D03*
X121456Y-65768D03*
X121456Y-66436D03*
X121456Y-42146D03*
X121456Y-42814D03*
G54D12*
X121456Y-36201D03*
X121456Y-37027D03*
X121456Y-48012D03*
X121456Y-48838D03*
X121456Y-51949D03*
X121456Y-52775D03*
X121456Y-55886D03*
X121456Y-56712D03*
X121456Y-59823D03*
X121456Y-60649D03*
X121456Y-63760D03*
X121456Y-64586D03*
X121456Y-67697D03*
X121456Y-68523D03*
X121456Y-40138D03*
X121456Y-40964D03*
X121456Y-44075D03*
X121456Y-44901D03*
X129330Y-44075D03*
X129330Y-44901D03*
X129330Y-40138D03*
X129330Y-40964D03*
X129330Y-67697D03*
X129330Y-68523D03*
X129330Y-63760D03*
X129330Y-64586D03*
X129330Y-59823D03*
X129330Y-60649D03*
X129330Y-55886D03*
X129330Y-56712D03*
X129330Y-51949D03*
X129330Y-52775D03*
X129330Y-48012D03*
X129330Y-48838D03*
X129330Y-36201D03*
X129330Y-37027D03*
G54D11*
X129330Y-42146D03*
X129330Y-42814D03*
X129330Y-65768D03*
X129330Y-66436D03*
X129330Y-53957D03*
X129330Y-54625D03*
X123031Y-53957D03*
X123031Y-54625D03*
X123031Y-65768D03*
X123031Y-66436D03*
X123031Y-42146D03*
X123031Y-42814D03*
G54D12*
X123031Y-36201D03*
X123031Y-37027D03*
X123031Y-48012D03*
X123031Y-48838D03*
X123031Y-51949D03*
X123031Y-52775D03*
X123031Y-55886D03*
X123031Y-56712D03*
X123031Y-59823D03*
X123031Y-60649D03*
X123031Y-63760D03*
X123031Y-64586D03*
X123031Y-67697D03*
X123031Y-68523D03*
X123031Y-40138D03*
X123031Y-40964D03*
X123031Y-44075D03*
X123031Y-44901D03*
X124606Y-44075D03*
X124606Y-44901D03*
X124606Y-40138D03*
X124606Y-40964D03*
X124606Y-67697D03*
X124606Y-68523D03*
X124606Y-63760D03*
X124606Y-64586D03*
X124606Y-59823D03*
X124606Y-60649D03*
X124606Y-55886D03*
X124606Y-56712D03*
X124606Y-51949D03*
X124606Y-52775D03*
X124606Y-48012D03*
X124606Y-48838D03*
X124606Y-36201D03*
X124606Y-37027D03*
G54D11*
X124606Y-42146D03*
X124606Y-42814D03*
X124606Y-65768D03*
X124606Y-66436D03*
X124606Y-53957D03*
X124606Y-54625D03*
X127755Y-53957D03*
X127755Y-54625D03*
X127755Y-65768D03*
X127755Y-66436D03*
X127755Y-42146D03*
X127755Y-42814D03*
G54D12*
X127755Y-36201D03*
X127755Y-37027D03*
X127755Y-48012D03*
X127755Y-48838D03*
X127755Y-51949D03*
X127755Y-52775D03*
X127755Y-55886D03*
X127755Y-56712D03*
X127755Y-59823D03*
X127755Y-60649D03*
X127755Y-63760D03*
X127755Y-64586D03*
X127755Y-67697D03*
X127755Y-68523D03*
X127755Y-40138D03*
X127755Y-40964D03*
X127755Y-44075D03*
X127755Y-44901D03*
X126181Y-44075D03*
X126181Y-44901D03*
X126181Y-40138D03*
X126181Y-40964D03*
X126181Y-67697D03*
X126181Y-68523D03*
X126181Y-63760D03*
X126181Y-64586D03*
X126181Y-59823D03*
X126181Y-60649D03*
X126181Y-55886D03*
X126181Y-56712D03*
X126181Y-51949D03*
X126181Y-52775D03*
X126181Y-48012D03*
X126181Y-48838D03*
X126181Y-36201D03*
X126181Y-37027D03*
G54D11*
X126181Y-42146D03*
X126181Y-42814D03*
X126181Y-65768D03*
X126181Y-66436D03*
X126181Y-53957D03*
X126181Y-54625D03*
X141929Y-53957D03*
X141929Y-54625D03*
X141929Y-65768D03*
X141929Y-66436D03*
X141929Y-42146D03*
X141929Y-42814D03*
G54D12*
X141929Y-36201D03*
X141929Y-37027D03*
X141929Y-48012D03*
X141929Y-48838D03*
X141929Y-51949D03*
X141929Y-52775D03*
X141929Y-55886D03*
X141929Y-56712D03*
X141929Y-59823D03*
X141929Y-60649D03*
X141929Y-63760D03*
X141929Y-64586D03*
X141929Y-67697D03*
X141929Y-68523D03*
X141929Y-40138D03*
X141929Y-40964D03*
X141929Y-44075D03*
X141929Y-44901D03*
X143503Y-44075D03*
X143503Y-44901D03*
X143503Y-40138D03*
X143503Y-40964D03*
X143503Y-67697D03*
X143503Y-68523D03*
X143503Y-63760D03*
X143503Y-64586D03*
X143503Y-59823D03*
X143503Y-60649D03*
X143503Y-55886D03*
X143503Y-56712D03*
X143503Y-51949D03*
X143503Y-52775D03*
X143503Y-48012D03*
X143503Y-48838D03*
X143503Y-36201D03*
X143503Y-37027D03*
G54D11*
X143503Y-42146D03*
X143503Y-42814D03*
X143503Y-65768D03*
X143503Y-66436D03*
X143503Y-53957D03*
X143503Y-54625D03*
X140354Y-53957D03*
X140354Y-54625D03*
X140354Y-65768D03*
X140354Y-66436D03*
X140354Y-42146D03*
X140354Y-42814D03*
G54D12*
X140354Y-36201D03*
X140354Y-37027D03*
X140354Y-48012D03*
X140354Y-48838D03*
X140354Y-51949D03*
X140354Y-52775D03*
X140354Y-55886D03*
X140354Y-56712D03*
X140354Y-59823D03*
X140354Y-60649D03*
X140354Y-63760D03*
X140354Y-64586D03*
X140354Y-67697D03*
X140354Y-68523D03*
X140354Y-40138D03*
X140354Y-40964D03*
X140354Y-44075D03*
X140354Y-44901D03*
X138779Y-44075D03*
X138779Y-44901D03*
X138779Y-40138D03*
X138779Y-40964D03*
X138779Y-67697D03*
X138779Y-68523D03*
X138779Y-63760D03*
X138779Y-64586D03*
X138779Y-59823D03*
X138779Y-60649D03*
X138779Y-55886D03*
X138779Y-56712D03*
X138779Y-51949D03*
X138779Y-52775D03*
X138779Y-48012D03*
X138779Y-48838D03*
X138779Y-36201D03*
X138779Y-37027D03*
G54D11*
X138779Y-42146D03*
X138779Y-42814D03*
X138779Y-65768D03*
X138779Y-66436D03*
X138779Y-53957D03*
X138779Y-54625D03*
X145078Y-53957D03*
X145078Y-54625D03*
X145078Y-65768D03*
X145078Y-66436D03*
X145078Y-42146D03*
X145078Y-42814D03*
G54D12*
X145078Y-36201D03*
X145078Y-37027D03*
X145078Y-48012D03*
X145078Y-48838D03*
X145078Y-51949D03*
X145078Y-52775D03*
X145078Y-55886D03*
X145078Y-56712D03*
X145078Y-59823D03*
X145078Y-60649D03*
X145078Y-63760D03*
X145078Y-64586D03*
X145078Y-67697D03*
X145078Y-68523D03*
X145078Y-40138D03*
X145078Y-40964D03*
X145078Y-44075D03*
X145078Y-44901D03*
X137204Y-44075D03*
X137204Y-44901D03*
X137204Y-40138D03*
X137204Y-40964D03*
X137204Y-67697D03*
X137204Y-68523D03*
X137204Y-63760D03*
X137204Y-64586D03*
X137204Y-59823D03*
X137204Y-60649D03*
X137204Y-55886D03*
X137204Y-56712D03*
X137204Y-51949D03*
X137204Y-52775D03*
X137204Y-48012D03*
X137204Y-48838D03*
X137204Y-36201D03*
X137204Y-37027D03*
G54D11*
X137204Y-42146D03*
X137204Y-42814D03*
X137204Y-65768D03*
X137204Y-66436D03*
X137204Y-53957D03*
X137204Y-54625D03*
X130905Y-53957D03*
X130905Y-54625D03*
X130905Y-65768D03*
X130905Y-66436D03*
X130905Y-42146D03*
X130905Y-42814D03*
G54D12*
X130905Y-36201D03*
X130905Y-37027D03*
X130905Y-48012D03*
X130905Y-48838D03*
X130905Y-51949D03*
X130905Y-52775D03*
X130905Y-55886D03*
X130905Y-56712D03*
X130905Y-59823D03*
X130905Y-60649D03*
X130905Y-63760D03*
X130905Y-64586D03*
X130905Y-67697D03*
X130905Y-68523D03*
X130905Y-40138D03*
X130905Y-40964D03*
X130905Y-44075D03*
X130905Y-44901D03*
X132480Y-44075D03*
X132480Y-44901D03*
X132480Y-40138D03*
X132480Y-40964D03*
X132480Y-67697D03*
X132480Y-68523D03*
X132480Y-63760D03*
X132480Y-64586D03*
X132480Y-59823D03*
X132480Y-60649D03*
X132480Y-55886D03*
X132480Y-56712D03*
X132480Y-51949D03*
X132480Y-52775D03*
X132480Y-48012D03*
X132480Y-48838D03*
X132480Y-36201D03*
X132480Y-37027D03*
G54D11*
X132480Y-42146D03*
X132480Y-42814D03*
X132480Y-65768D03*
X132480Y-66436D03*
X132480Y-53957D03*
X132480Y-54625D03*
X135629Y-53957D03*
X135629Y-54625D03*
X135629Y-65768D03*
X135629Y-66436D03*
X135629Y-42146D03*
X135629Y-42814D03*
G54D12*
X135629Y-36201D03*
X135629Y-37027D03*
X135629Y-48012D03*
X135629Y-48838D03*
X135629Y-51949D03*
X135629Y-52775D03*
X135629Y-55886D03*
X135629Y-56712D03*
X135629Y-59823D03*
X135629Y-60649D03*
X135629Y-63760D03*
X135629Y-64586D03*
X135629Y-67697D03*
X135629Y-68523D03*
X135629Y-40138D03*
X135629Y-40964D03*
X135629Y-44075D03*
X135629Y-44901D03*
X134055Y-44075D03*
X134055Y-44901D03*
X134055Y-40138D03*
X134055Y-40964D03*
X134055Y-67697D03*
X134055Y-68523D03*
X134055Y-63760D03*
X134055Y-64586D03*
X134055Y-59823D03*
X134055Y-60649D03*
X134055Y-55886D03*
X134055Y-56712D03*
X134055Y-51949D03*
X134055Y-52775D03*
X134055Y-48012D03*
X134055Y-48838D03*
X134055Y-36201D03*
X134055Y-37027D03*
G54D11*
X134055Y-42146D03*
X134055Y-42814D03*
X134055Y-65768D03*
X134055Y-66436D03*
X134055Y-53957D03*
X134055Y-54625D03*
M02*
