%FSLAX34Y34*%
G04 Gerber Fmt 3.4, Leading zero omitted, Abs format*
G04 (created by PCBNEW (2014-05-18 BZR 4871)-product) date Mon 19 May 2014 03:24:51 PM CEST*
%MOIN*%
G01*
G70*
G90*
G04 APERTURE LIST*
%ADD10C,0.005906*%
%ADD11R,0.059055X0.047244*%
%ADD12R,0.043300X0.039300*%
%ADD13R,0.039370X0.098425*%
%ADD14C,0.039370*%
%ADD15C,0.012000*%
%ADD16C,0.020000*%
%ADD17C,0.030000*%
%ADD18C,0.006000*%
G04 APERTURE END LIST*
G54D10*
G54D11*
X119881Y-67697D03*
X119881Y-68523D03*
G54D12*
X119881Y-65768D03*
X119881Y-66436D03*
G54D11*
X119881Y-63760D03*
X119881Y-64586D03*
X119881Y-59823D03*
X119881Y-60649D03*
X119881Y-55886D03*
X119881Y-56712D03*
G54D12*
X119881Y-53957D03*
X119881Y-54625D03*
G54D11*
X119881Y-51949D03*
X119881Y-52775D03*
X119881Y-48012D03*
X119881Y-48838D03*
G54D12*
X119881Y-42146D03*
X119881Y-42814D03*
G54D11*
X119881Y-44075D03*
X119881Y-44901D03*
X119881Y-40138D03*
X119881Y-40964D03*
X119881Y-36201D03*
X119881Y-37027D03*
G54D13*
X120196Y-45866D03*
X119566Y-45866D03*
X120196Y-35236D03*
X119566Y-35236D03*
X120196Y-47047D03*
X119566Y-47047D03*
X120196Y-58858D03*
X119566Y-58858D03*
X120196Y-69488D03*
X119566Y-69488D03*
X120196Y-57677D03*
X119566Y-57677D03*
X121771Y-57677D03*
X121141Y-57677D03*
X121771Y-69488D03*
X121141Y-69488D03*
X121771Y-58858D03*
X121141Y-58858D03*
X121771Y-47047D03*
X121141Y-47047D03*
X121771Y-35236D03*
X121141Y-35236D03*
X121771Y-45866D03*
X121141Y-45866D03*
G54D11*
X121456Y-36201D03*
X121456Y-37027D03*
X121456Y-40138D03*
X121456Y-40964D03*
X121456Y-44075D03*
X121456Y-44901D03*
G54D12*
X121456Y-42146D03*
X121456Y-42814D03*
G54D11*
X121456Y-48012D03*
X121456Y-48838D03*
X121456Y-51949D03*
X121456Y-52775D03*
G54D12*
X121456Y-53957D03*
X121456Y-54625D03*
G54D11*
X121456Y-55886D03*
X121456Y-56712D03*
X121456Y-59823D03*
X121456Y-60649D03*
X121456Y-63760D03*
X121456Y-64586D03*
G54D12*
X121456Y-65768D03*
X121456Y-66436D03*
G54D11*
X121456Y-67697D03*
X121456Y-68523D03*
X118307Y-67697D03*
X118307Y-68523D03*
G54D12*
X118307Y-65768D03*
X118307Y-66436D03*
G54D11*
X118307Y-63760D03*
X118307Y-64586D03*
X118307Y-59823D03*
X118307Y-60649D03*
X118307Y-55886D03*
X118307Y-56712D03*
G54D12*
X118307Y-53957D03*
X118307Y-54625D03*
G54D11*
X118307Y-51949D03*
X118307Y-52775D03*
X118307Y-48012D03*
X118307Y-48838D03*
G54D12*
X118307Y-42146D03*
X118307Y-42814D03*
G54D11*
X118307Y-44075D03*
X118307Y-44901D03*
X118307Y-40138D03*
X118307Y-40964D03*
X118307Y-36201D03*
X118307Y-37027D03*
G54D13*
X118622Y-45866D03*
X117992Y-45866D03*
X118622Y-35236D03*
X117992Y-35236D03*
X118622Y-47047D03*
X117992Y-47047D03*
X118622Y-58858D03*
X117992Y-58858D03*
X118622Y-69488D03*
X117992Y-69488D03*
X118622Y-57677D03*
X117992Y-57677D03*
X117047Y-57677D03*
X116417Y-57677D03*
X117047Y-69488D03*
X116417Y-69488D03*
X117047Y-58858D03*
X116417Y-58858D03*
X117047Y-47047D03*
X116417Y-47047D03*
X117047Y-35236D03*
X116417Y-35236D03*
X117047Y-45866D03*
X116417Y-45866D03*
G54D11*
X116732Y-36201D03*
X116732Y-37027D03*
X116732Y-40138D03*
X116732Y-40964D03*
X116732Y-44075D03*
X116732Y-44901D03*
G54D12*
X116732Y-42146D03*
X116732Y-42814D03*
G54D11*
X116732Y-48012D03*
X116732Y-48838D03*
X116732Y-51949D03*
X116732Y-52775D03*
G54D12*
X116732Y-53957D03*
X116732Y-54625D03*
G54D11*
X116732Y-55886D03*
X116732Y-56712D03*
X116732Y-59823D03*
X116732Y-60649D03*
X116732Y-63760D03*
X116732Y-64586D03*
G54D12*
X116732Y-65768D03*
X116732Y-66436D03*
G54D11*
X116732Y-67697D03*
X116732Y-68523D03*
X115157Y-67697D03*
X115157Y-68523D03*
G54D12*
X115157Y-65768D03*
X115157Y-66436D03*
G54D11*
X115157Y-63760D03*
X115157Y-64586D03*
X115157Y-59823D03*
X115157Y-60649D03*
X115157Y-55886D03*
X115157Y-56712D03*
G54D12*
X115157Y-53957D03*
X115157Y-54625D03*
G54D11*
X115157Y-51949D03*
X115157Y-52775D03*
X115157Y-48012D03*
X115157Y-48838D03*
G54D12*
X115157Y-42146D03*
X115157Y-42814D03*
G54D11*
X115157Y-44075D03*
X115157Y-44901D03*
X115157Y-40138D03*
X115157Y-40964D03*
X115157Y-36201D03*
X115157Y-37027D03*
G54D13*
X115472Y-45866D03*
X114842Y-45866D03*
X115472Y-35236D03*
X114842Y-35236D03*
X115472Y-47047D03*
X114842Y-47047D03*
X115472Y-58858D03*
X114842Y-58858D03*
X115472Y-69488D03*
X114842Y-69488D03*
X115472Y-57677D03*
X114842Y-57677D03*
X123346Y-57677D03*
X122716Y-57677D03*
X123346Y-69488D03*
X122716Y-69488D03*
X123346Y-58858D03*
X122716Y-58858D03*
X123346Y-47047D03*
X122716Y-47047D03*
X123346Y-35236D03*
X122716Y-35236D03*
X123346Y-45866D03*
X122716Y-45866D03*
G54D11*
X123031Y-36201D03*
X123031Y-37027D03*
X123031Y-40138D03*
X123031Y-40964D03*
X123031Y-44075D03*
X123031Y-44901D03*
G54D12*
X123031Y-42146D03*
X123031Y-42814D03*
G54D11*
X123031Y-48012D03*
X123031Y-48838D03*
X123031Y-51949D03*
X123031Y-52775D03*
G54D12*
X123031Y-53957D03*
X123031Y-54625D03*
G54D11*
X123031Y-55886D03*
X123031Y-56712D03*
X123031Y-59823D03*
X123031Y-60649D03*
X123031Y-63760D03*
X123031Y-64586D03*
G54D12*
X123031Y-65768D03*
X123031Y-66436D03*
G54D11*
X123031Y-67697D03*
X123031Y-68523D03*
X124606Y-67697D03*
X124606Y-68523D03*
G54D12*
X124606Y-65768D03*
X124606Y-66436D03*
G54D11*
X124606Y-63760D03*
X124606Y-64586D03*
X124606Y-59823D03*
X124606Y-60649D03*
X124606Y-55886D03*
X124606Y-56712D03*
G54D12*
X124606Y-53957D03*
X124606Y-54625D03*
G54D11*
X124606Y-51949D03*
X124606Y-52775D03*
X124606Y-48012D03*
X124606Y-48838D03*
G54D12*
X124606Y-42146D03*
X124606Y-42814D03*
G54D11*
X124606Y-44075D03*
X124606Y-44901D03*
X124606Y-40138D03*
X124606Y-40964D03*
X124606Y-36201D03*
X124606Y-37027D03*
G54D13*
X124921Y-45866D03*
X124291Y-45866D03*
X124921Y-35236D03*
X124291Y-35236D03*
X124921Y-47047D03*
X124291Y-47047D03*
X124921Y-58858D03*
X124291Y-58858D03*
X124921Y-69488D03*
X124291Y-69488D03*
X124921Y-57677D03*
X124291Y-57677D03*
X126496Y-57677D03*
X125866Y-57677D03*
X126496Y-69488D03*
X125866Y-69488D03*
X126496Y-58858D03*
X125866Y-58858D03*
X126496Y-47047D03*
X125866Y-47047D03*
X126496Y-35236D03*
X125866Y-35236D03*
X126496Y-45866D03*
X125866Y-45866D03*
G54D11*
X126181Y-36201D03*
X126181Y-37027D03*
X126181Y-40138D03*
X126181Y-40964D03*
X126181Y-44075D03*
X126181Y-44901D03*
G54D12*
X126181Y-42146D03*
X126181Y-42814D03*
G54D11*
X126181Y-48012D03*
X126181Y-48838D03*
X126181Y-51949D03*
X126181Y-52775D03*
G54D12*
X126181Y-53957D03*
X126181Y-54625D03*
G54D11*
X126181Y-55886D03*
X126181Y-56712D03*
X126181Y-59823D03*
X126181Y-60649D03*
X126181Y-63760D03*
X126181Y-64586D03*
G54D12*
X126181Y-65768D03*
X126181Y-66436D03*
G54D11*
X126181Y-67697D03*
X126181Y-68523D03*
X129330Y-67697D03*
X129330Y-68523D03*
G54D12*
X129330Y-65768D03*
X129330Y-66436D03*
G54D11*
X129330Y-63760D03*
X129330Y-64586D03*
X129330Y-59823D03*
X129330Y-60649D03*
X129330Y-55886D03*
X129330Y-56712D03*
G54D12*
X129330Y-53957D03*
X129330Y-54625D03*
G54D11*
X129330Y-51949D03*
X129330Y-52775D03*
X129330Y-48012D03*
X129330Y-48838D03*
G54D12*
X129330Y-42146D03*
X129330Y-42814D03*
G54D11*
X129330Y-44075D03*
X129330Y-44901D03*
X129330Y-40138D03*
X129330Y-40964D03*
X129330Y-36201D03*
X129330Y-37027D03*
G54D13*
X129645Y-45866D03*
X129015Y-45866D03*
X129645Y-35236D03*
X129015Y-35236D03*
X129645Y-47047D03*
X129015Y-47047D03*
X129645Y-58858D03*
X129015Y-58858D03*
X129645Y-69488D03*
X129015Y-69488D03*
X129645Y-57677D03*
X129015Y-57677D03*
X128070Y-57677D03*
X127440Y-57677D03*
X128070Y-69488D03*
X127440Y-69488D03*
X128070Y-58858D03*
X127440Y-58858D03*
X128070Y-47047D03*
X127440Y-47047D03*
X128070Y-35236D03*
X127440Y-35236D03*
X128070Y-45866D03*
X127440Y-45866D03*
G54D11*
X127755Y-36201D03*
X127755Y-37027D03*
X127755Y-40138D03*
X127755Y-40964D03*
X127755Y-44075D03*
X127755Y-44901D03*
G54D12*
X127755Y-42146D03*
X127755Y-42814D03*
G54D11*
X127755Y-48012D03*
X127755Y-48838D03*
X127755Y-51949D03*
X127755Y-52775D03*
G54D12*
X127755Y-53957D03*
X127755Y-54625D03*
G54D11*
X127755Y-55886D03*
X127755Y-56712D03*
X127755Y-59823D03*
X127755Y-60649D03*
X127755Y-63760D03*
X127755Y-64586D03*
G54D12*
X127755Y-65768D03*
X127755Y-66436D03*
G54D11*
X127755Y-67697D03*
X127755Y-68523D03*
X143503Y-67697D03*
X143503Y-68523D03*
G54D12*
X143503Y-65768D03*
X143503Y-66436D03*
G54D11*
X143503Y-63760D03*
X143503Y-64586D03*
X143503Y-59823D03*
X143503Y-60649D03*
X143503Y-55886D03*
X143503Y-56712D03*
G54D12*
X143503Y-53957D03*
X143503Y-54625D03*
G54D11*
X143503Y-51949D03*
X143503Y-52775D03*
X143503Y-48012D03*
X143503Y-48838D03*
G54D12*
X143503Y-42146D03*
X143503Y-42814D03*
G54D11*
X143503Y-44075D03*
X143503Y-44901D03*
X143503Y-40138D03*
X143503Y-40964D03*
X143503Y-36201D03*
X143503Y-37027D03*
G54D13*
X143818Y-45866D03*
X143188Y-45866D03*
X143818Y-35236D03*
X143188Y-35236D03*
X143818Y-47047D03*
X143188Y-47047D03*
X143818Y-58858D03*
X143188Y-58858D03*
X143818Y-69488D03*
X143188Y-69488D03*
X143818Y-57677D03*
X143188Y-57677D03*
X145393Y-57677D03*
X144763Y-57677D03*
X145393Y-69488D03*
X144763Y-69488D03*
X145393Y-58858D03*
X144763Y-58858D03*
X145393Y-47047D03*
X144763Y-47047D03*
X145393Y-35236D03*
X144763Y-35236D03*
X145393Y-45866D03*
X144763Y-45866D03*
G54D11*
X145078Y-36201D03*
X145078Y-37027D03*
X145078Y-40138D03*
X145078Y-40964D03*
X145078Y-44075D03*
X145078Y-44901D03*
G54D12*
X145078Y-42146D03*
X145078Y-42814D03*
G54D11*
X145078Y-48012D03*
X145078Y-48838D03*
X145078Y-51949D03*
X145078Y-52775D03*
G54D12*
X145078Y-53957D03*
X145078Y-54625D03*
G54D11*
X145078Y-55886D03*
X145078Y-56712D03*
X145078Y-59823D03*
X145078Y-60649D03*
X145078Y-63760D03*
X145078Y-64586D03*
G54D12*
X145078Y-65768D03*
X145078Y-66436D03*
G54D11*
X145078Y-67697D03*
X145078Y-68523D03*
X141929Y-67697D03*
X141929Y-68523D03*
G54D12*
X141929Y-65768D03*
X141929Y-66436D03*
G54D11*
X141929Y-63760D03*
X141929Y-64586D03*
X141929Y-59823D03*
X141929Y-60649D03*
X141929Y-55886D03*
X141929Y-56712D03*
G54D12*
X141929Y-53957D03*
X141929Y-54625D03*
G54D11*
X141929Y-51949D03*
X141929Y-52775D03*
X141929Y-48012D03*
X141929Y-48838D03*
G54D12*
X141929Y-42146D03*
X141929Y-42814D03*
G54D11*
X141929Y-44075D03*
X141929Y-44901D03*
X141929Y-40138D03*
X141929Y-40964D03*
X141929Y-36201D03*
X141929Y-37027D03*
G54D13*
X142244Y-45866D03*
X141614Y-45866D03*
X142244Y-35236D03*
X141614Y-35236D03*
X142244Y-47047D03*
X141614Y-47047D03*
X142244Y-58858D03*
X141614Y-58858D03*
X142244Y-69488D03*
X141614Y-69488D03*
X142244Y-57677D03*
X141614Y-57677D03*
X140669Y-57677D03*
X140039Y-57677D03*
X140669Y-69488D03*
X140039Y-69488D03*
X140669Y-58858D03*
X140039Y-58858D03*
X140669Y-47047D03*
X140039Y-47047D03*
X140669Y-35236D03*
X140039Y-35236D03*
X140669Y-45866D03*
X140039Y-45866D03*
G54D11*
X140354Y-36201D03*
X140354Y-37027D03*
X140354Y-40138D03*
X140354Y-40964D03*
X140354Y-44075D03*
X140354Y-44901D03*
G54D12*
X140354Y-42146D03*
X140354Y-42814D03*
G54D11*
X140354Y-48012D03*
X140354Y-48838D03*
X140354Y-51949D03*
X140354Y-52775D03*
G54D12*
X140354Y-53957D03*
X140354Y-54625D03*
G54D11*
X140354Y-55886D03*
X140354Y-56712D03*
X140354Y-59823D03*
X140354Y-60649D03*
X140354Y-63760D03*
X140354Y-64586D03*
G54D12*
X140354Y-65768D03*
X140354Y-66436D03*
G54D11*
X140354Y-67697D03*
X140354Y-68523D03*
X138779Y-67697D03*
X138779Y-68523D03*
G54D12*
X138779Y-65768D03*
X138779Y-66436D03*
G54D11*
X138779Y-63760D03*
X138779Y-64586D03*
X138779Y-59823D03*
X138779Y-60649D03*
X138779Y-55886D03*
X138779Y-56712D03*
G54D12*
X138779Y-53957D03*
X138779Y-54625D03*
G54D11*
X138779Y-51949D03*
X138779Y-52775D03*
X138779Y-48012D03*
X138779Y-48838D03*
G54D12*
X138779Y-42146D03*
X138779Y-42814D03*
G54D11*
X138779Y-44075D03*
X138779Y-44901D03*
X138779Y-40138D03*
X138779Y-40964D03*
X138779Y-36201D03*
X138779Y-37027D03*
G54D13*
X139094Y-45866D03*
X138464Y-45866D03*
X139094Y-35236D03*
X138464Y-35236D03*
X139094Y-47047D03*
X138464Y-47047D03*
X139094Y-58858D03*
X138464Y-58858D03*
X139094Y-69488D03*
X138464Y-69488D03*
X139094Y-57677D03*
X138464Y-57677D03*
X131220Y-57677D03*
X130590Y-57677D03*
X131220Y-69488D03*
X130590Y-69488D03*
X131220Y-58858D03*
X130590Y-58858D03*
X131220Y-47047D03*
X130590Y-47047D03*
X131220Y-35236D03*
X130590Y-35236D03*
X131220Y-45866D03*
X130590Y-45866D03*
G54D11*
X130905Y-36201D03*
X130905Y-37027D03*
X130905Y-40138D03*
X130905Y-40964D03*
X130905Y-44075D03*
X130905Y-44901D03*
G54D12*
X130905Y-42146D03*
X130905Y-42814D03*
G54D11*
X130905Y-48012D03*
X130905Y-48838D03*
X130905Y-51949D03*
X130905Y-52775D03*
G54D12*
X130905Y-53957D03*
X130905Y-54625D03*
G54D11*
X130905Y-55886D03*
X130905Y-56712D03*
X130905Y-59823D03*
X130905Y-60649D03*
X130905Y-63760D03*
X130905Y-64586D03*
G54D12*
X130905Y-65768D03*
X130905Y-66436D03*
G54D11*
X130905Y-67697D03*
X130905Y-68523D03*
X132480Y-67697D03*
X132480Y-68523D03*
G54D12*
X132480Y-65768D03*
X132480Y-66436D03*
G54D11*
X132480Y-63760D03*
X132480Y-64586D03*
X132480Y-59823D03*
X132480Y-60649D03*
X132480Y-55886D03*
X132480Y-56712D03*
G54D12*
X132480Y-53957D03*
X132480Y-54625D03*
G54D11*
X132480Y-51949D03*
X132480Y-52775D03*
X132480Y-48012D03*
X132480Y-48838D03*
G54D12*
X132480Y-42146D03*
X132480Y-42814D03*
G54D11*
X132480Y-44075D03*
X132480Y-44901D03*
X132480Y-40138D03*
X132480Y-40964D03*
X132480Y-36201D03*
X132480Y-37027D03*
G54D13*
X132795Y-45866D03*
X132165Y-45866D03*
X132795Y-35236D03*
X132165Y-35236D03*
X132795Y-47047D03*
X132165Y-47047D03*
X132795Y-58858D03*
X132165Y-58858D03*
X132795Y-69488D03*
X132165Y-69488D03*
X132795Y-57677D03*
X132165Y-57677D03*
X134370Y-57677D03*
X133740Y-57677D03*
X134370Y-69488D03*
X133740Y-69488D03*
X134370Y-58858D03*
X133740Y-58858D03*
X134370Y-47047D03*
X133740Y-47047D03*
X134370Y-35236D03*
X133740Y-35236D03*
X134370Y-45866D03*
X133740Y-45866D03*
G54D11*
X134055Y-36201D03*
X134055Y-37027D03*
X134055Y-40138D03*
X134055Y-40964D03*
X134055Y-44075D03*
X134055Y-44901D03*
G54D12*
X134055Y-42146D03*
X134055Y-42814D03*
G54D11*
X134055Y-48012D03*
X134055Y-48838D03*
X134055Y-51949D03*
X134055Y-52775D03*
G54D12*
X134055Y-53957D03*
X134055Y-54625D03*
G54D11*
X134055Y-55886D03*
X134055Y-56712D03*
X134055Y-59823D03*
X134055Y-60649D03*
X134055Y-63760D03*
X134055Y-64586D03*
G54D12*
X134055Y-65768D03*
X134055Y-66436D03*
G54D11*
X134055Y-67697D03*
X134055Y-68523D03*
X137204Y-67697D03*
X137204Y-68523D03*
G54D12*
X137204Y-65768D03*
X137204Y-66436D03*
G54D11*
X137204Y-63760D03*
X137204Y-64586D03*
X137204Y-59823D03*
X137204Y-60649D03*
X137204Y-55886D03*
X137204Y-56712D03*
G54D12*
X137204Y-53957D03*
X137204Y-54625D03*
G54D11*
X137204Y-51949D03*
X137204Y-52775D03*
X137204Y-48012D03*
X137204Y-48838D03*
G54D12*
X137204Y-42146D03*
X137204Y-42814D03*
G54D11*
X137204Y-44075D03*
X137204Y-44901D03*
X137204Y-40138D03*
X137204Y-40964D03*
X137204Y-36201D03*
X137204Y-37027D03*
G54D13*
X137519Y-45866D03*
X136889Y-45866D03*
X137519Y-35236D03*
X136889Y-35236D03*
X137519Y-47047D03*
X136889Y-47047D03*
X137519Y-58858D03*
X136889Y-58858D03*
X137519Y-69488D03*
X136889Y-69488D03*
X137519Y-57677D03*
X136889Y-57677D03*
G54D14*
X147834Y-71259D03*
X147834Y-33464D03*
X112401Y-33464D03*
X112401Y-71259D03*
G54D13*
X135944Y-57677D03*
X135314Y-57677D03*
X135944Y-69488D03*
X135314Y-69488D03*
X135944Y-58858D03*
X135314Y-58858D03*
X135944Y-47047D03*
X135314Y-47047D03*
X135944Y-35236D03*
X135314Y-35236D03*
X135944Y-45866D03*
X135314Y-45866D03*
G54D11*
X135629Y-36201D03*
X135629Y-37027D03*
X135629Y-40138D03*
X135629Y-40964D03*
X135629Y-44075D03*
X135629Y-44901D03*
G54D12*
X135629Y-42146D03*
X135629Y-42814D03*
G54D11*
X135629Y-48012D03*
X135629Y-48838D03*
X135629Y-51949D03*
X135629Y-52775D03*
G54D12*
X135629Y-53957D03*
X135629Y-54625D03*
G54D11*
X135629Y-55886D03*
X135629Y-56712D03*
X135629Y-59823D03*
X135629Y-60649D03*
X135629Y-63760D03*
X135629Y-64586D03*
G54D12*
X135629Y-65768D03*
X135629Y-66436D03*
G54D11*
X135629Y-67697D03*
X135629Y-68523D03*
G54D15*
X119881Y-63760D02*
X119881Y-60649D01*
X121456Y-63760D02*
X121456Y-60649D01*
X118307Y-63760D02*
X118307Y-60649D01*
X116732Y-63760D02*
X116732Y-60649D01*
X115157Y-63760D02*
X115157Y-60649D01*
X123031Y-63760D02*
X123031Y-60649D01*
X124606Y-63760D02*
X124606Y-60649D01*
X126181Y-63760D02*
X126181Y-60649D01*
X129330Y-63760D02*
X129330Y-60649D01*
X127755Y-63760D02*
X127755Y-60649D01*
X143503Y-63760D02*
X143503Y-60649D01*
X145078Y-63760D02*
X145078Y-60649D01*
X141929Y-63760D02*
X141929Y-60649D01*
X140354Y-63760D02*
X140354Y-60649D01*
X138779Y-63760D02*
X138779Y-60649D01*
X130905Y-63760D02*
X130905Y-60649D01*
X132480Y-63760D02*
X132480Y-60649D01*
X134055Y-63760D02*
X134055Y-60649D01*
X137204Y-63760D02*
X137204Y-60649D01*
X135629Y-63760D02*
X135629Y-60649D01*
X119881Y-64586D02*
X119881Y-65768D01*
X121456Y-64586D02*
X121456Y-65768D01*
X118307Y-64586D02*
X118307Y-65768D01*
X116732Y-64586D02*
X116732Y-65768D01*
X115157Y-64586D02*
X115157Y-65768D01*
X123031Y-64586D02*
X123031Y-65768D01*
X124606Y-64586D02*
X124606Y-65768D01*
X126181Y-64586D02*
X126181Y-65768D01*
X129330Y-64586D02*
X129330Y-65768D01*
X127755Y-64586D02*
X127755Y-65768D01*
X143503Y-64586D02*
X143503Y-65768D01*
X145078Y-64586D02*
X145078Y-65768D01*
X141929Y-64586D02*
X141929Y-65768D01*
X140354Y-64586D02*
X140354Y-65768D01*
X138779Y-64586D02*
X138779Y-65768D01*
X130905Y-64586D02*
X130905Y-65768D01*
X132480Y-64586D02*
X132480Y-65768D01*
X134055Y-64586D02*
X134055Y-65768D01*
X137204Y-64586D02*
X137204Y-65768D01*
X135629Y-64586D02*
X135629Y-65768D01*
G54D16*
X119881Y-36201D02*
X119370Y-36201D01*
X119370Y-36201D02*
X119370Y-36220D01*
X119881Y-48012D02*
X119370Y-48012D01*
X119409Y-48031D02*
X119370Y-48031D01*
X119389Y-48031D02*
X119409Y-48031D01*
X119370Y-48012D02*
X119389Y-48031D01*
X119881Y-59823D02*
X119370Y-59823D01*
X119370Y-59823D02*
X119370Y-59842D01*
X119566Y-45866D02*
X119566Y-45393D01*
X119566Y-45393D02*
X119370Y-45196D01*
X119370Y-45196D02*
X119370Y-36220D01*
X119370Y-36220D02*
X119370Y-35433D01*
X119370Y-35433D02*
X119566Y-35236D01*
X119566Y-45866D02*
X119566Y-47047D01*
X119566Y-57677D02*
X119566Y-57204D01*
X119566Y-57204D02*
X119370Y-57007D01*
X119370Y-57007D02*
X119370Y-48031D01*
X119370Y-48031D02*
X119370Y-47244D01*
X119370Y-47244D02*
X119566Y-47047D01*
X119566Y-58858D02*
X119566Y-57677D01*
X119566Y-69488D02*
X119566Y-69094D01*
X119566Y-69094D02*
X119370Y-68897D01*
X119370Y-68897D02*
X119370Y-59842D01*
X119370Y-59842D02*
X119370Y-59055D01*
X119370Y-59055D02*
X119566Y-58858D01*
X119566Y-45866D02*
X119566Y-45472D01*
G54D17*
X119566Y-45570D02*
X119566Y-45866D01*
X119739Y-59823D02*
X119881Y-59823D01*
X119739Y-36201D02*
X119881Y-36201D01*
X119739Y-48012D02*
X119881Y-48012D01*
G54D18*
X119566Y-59153D02*
X119566Y-58858D01*
X121141Y-59153D02*
X121141Y-58858D01*
G54D17*
X121314Y-48012D02*
X121456Y-48012D01*
X121314Y-36201D02*
X121456Y-36201D01*
X121314Y-59823D02*
X121456Y-59823D01*
X121141Y-45570D02*
X121141Y-45866D01*
G54D16*
X121141Y-45866D02*
X121141Y-45472D01*
X120944Y-59055D02*
X121141Y-58858D01*
X120944Y-59842D02*
X120944Y-59055D01*
X120944Y-68897D02*
X120944Y-59842D01*
X121141Y-69094D02*
X120944Y-68897D01*
X121141Y-69488D02*
X121141Y-69094D01*
X121141Y-58858D02*
X121141Y-57677D01*
X120944Y-47244D02*
X121141Y-47047D01*
X120944Y-48031D02*
X120944Y-47244D01*
X120944Y-57007D02*
X120944Y-48031D01*
X121141Y-57204D02*
X120944Y-57007D01*
X121141Y-57677D02*
X121141Y-57204D01*
X121141Y-45866D02*
X121141Y-47047D01*
X120944Y-35433D02*
X121141Y-35236D01*
X120944Y-36220D02*
X120944Y-35433D01*
X120944Y-45196D02*
X120944Y-36220D01*
X121141Y-45393D02*
X120944Y-45196D01*
X121141Y-45866D02*
X121141Y-45393D01*
X120944Y-59823D02*
X120944Y-59842D01*
X121456Y-59823D02*
X120944Y-59823D01*
X120944Y-48012D02*
X120964Y-48031D01*
X120964Y-48031D02*
X120984Y-48031D01*
X120984Y-48031D02*
X120944Y-48031D01*
X121456Y-48012D02*
X120944Y-48012D01*
X120944Y-36201D02*
X120944Y-36220D01*
X121456Y-36201D02*
X120944Y-36201D01*
X118307Y-36201D02*
X117795Y-36201D01*
X117795Y-36201D02*
X117795Y-36220D01*
X118307Y-48012D02*
X117795Y-48012D01*
X117834Y-48031D02*
X117795Y-48031D01*
X117814Y-48031D02*
X117834Y-48031D01*
X117795Y-48012D02*
X117814Y-48031D01*
X118307Y-59823D02*
X117795Y-59823D01*
X117795Y-59823D02*
X117795Y-59842D01*
X117992Y-45866D02*
X117992Y-45393D01*
X117992Y-45393D02*
X117795Y-45196D01*
X117795Y-45196D02*
X117795Y-36220D01*
X117795Y-36220D02*
X117795Y-35433D01*
X117795Y-35433D02*
X117992Y-35236D01*
X117992Y-45866D02*
X117992Y-47047D01*
X117992Y-57677D02*
X117992Y-57204D01*
X117992Y-57204D02*
X117795Y-57007D01*
X117795Y-57007D02*
X117795Y-48031D01*
X117795Y-48031D02*
X117795Y-47244D01*
X117795Y-47244D02*
X117992Y-47047D01*
X117992Y-58858D02*
X117992Y-57677D01*
X117992Y-69488D02*
X117992Y-69094D01*
X117992Y-69094D02*
X117795Y-68897D01*
X117795Y-68897D02*
X117795Y-59842D01*
X117795Y-59842D02*
X117795Y-59055D01*
X117795Y-59055D02*
X117992Y-58858D01*
X117992Y-45866D02*
X117992Y-45472D01*
G54D17*
X117992Y-45570D02*
X117992Y-45866D01*
X118164Y-59823D02*
X118307Y-59823D01*
X118164Y-36201D02*
X118307Y-36201D01*
X118164Y-48012D02*
X118307Y-48012D01*
G54D18*
X117992Y-59153D02*
X117992Y-58858D01*
X116417Y-59153D02*
X116417Y-58858D01*
G54D17*
X116590Y-48012D02*
X116732Y-48012D01*
X116590Y-36201D02*
X116732Y-36201D01*
X116590Y-59823D02*
X116732Y-59823D01*
X116417Y-45570D02*
X116417Y-45866D01*
G54D16*
X116417Y-45866D02*
X116417Y-45472D01*
X116220Y-59055D02*
X116417Y-58858D01*
X116220Y-59842D02*
X116220Y-59055D01*
X116220Y-68897D02*
X116220Y-59842D01*
X116417Y-69094D02*
X116220Y-68897D01*
X116417Y-69488D02*
X116417Y-69094D01*
X116417Y-58858D02*
X116417Y-57677D01*
X116220Y-47244D02*
X116417Y-47047D01*
X116220Y-48031D02*
X116220Y-47244D01*
X116220Y-57007D02*
X116220Y-48031D01*
X116417Y-57204D02*
X116220Y-57007D01*
X116417Y-57677D02*
X116417Y-57204D01*
X116417Y-45866D02*
X116417Y-47047D01*
X116220Y-35433D02*
X116417Y-35236D01*
X116220Y-36220D02*
X116220Y-35433D01*
X116220Y-45196D02*
X116220Y-36220D01*
X116417Y-45393D02*
X116220Y-45196D01*
X116417Y-45866D02*
X116417Y-45393D01*
X116220Y-59823D02*
X116220Y-59842D01*
X116732Y-59823D02*
X116220Y-59823D01*
X116220Y-48012D02*
X116239Y-48031D01*
X116239Y-48031D02*
X116259Y-48031D01*
X116259Y-48031D02*
X116220Y-48031D01*
X116732Y-48012D02*
X116220Y-48012D01*
X116220Y-36201D02*
X116220Y-36220D01*
X116732Y-36201D02*
X116220Y-36201D01*
X115157Y-36201D02*
X114645Y-36201D01*
X114645Y-36201D02*
X114645Y-36220D01*
X115157Y-48012D02*
X114645Y-48012D01*
X114685Y-48031D02*
X114645Y-48031D01*
X114664Y-48031D02*
X114685Y-48031D01*
X114645Y-48012D02*
X114664Y-48031D01*
X115157Y-59823D02*
X114645Y-59823D01*
X114645Y-59823D02*
X114645Y-59842D01*
X114842Y-45866D02*
X114842Y-45393D01*
X114842Y-45393D02*
X114645Y-45196D01*
X114645Y-45196D02*
X114645Y-36220D01*
X114645Y-36220D02*
X114645Y-35433D01*
X114645Y-35433D02*
X114842Y-35236D01*
X114842Y-45866D02*
X114842Y-47047D01*
X114842Y-57677D02*
X114842Y-57204D01*
X114842Y-57204D02*
X114645Y-57007D01*
X114645Y-57007D02*
X114645Y-48031D01*
X114645Y-48031D02*
X114645Y-47244D01*
X114645Y-47244D02*
X114842Y-47047D01*
X114842Y-58858D02*
X114842Y-57677D01*
X114842Y-69488D02*
X114842Y-69094D01*
X114842Y-69094D02*
X114645Y-68897D01*
X114645Y-68897D02*
X114645Y-59842D01*
X114645Y-59842D02*
X114645Y-59055D01*
X114645Y-59055D02*
X114842Y-58858D01*
X114842Y-45866D02*
X114842Y-45472D01*
G54D17*
X114842Y-45570D02*
X114842Y-45866D01*
X115015Y-59823D02*
X115157Y-59823D01*
X115015Y-36201D02*
X115157Y-36201D01*
X115015Y-48012D02*
X115157Y-48012D01*
G54D18*
X114842Y-59153D02*
X114842Y-58858D01*
X122716Y-59153D02*
X122716Y-58858D01*
G54D17*
X122889Y-48012D02*
X123031Y-48012D01*
X122889Y-36201D02*
X123031Y-36201D01*
X122889Y-59823D02*
X123031Y-59823D01*
X122716Y-45570D02*
X122716Y-45866D01*
G54D16*
X122716Y-45866D02*
X122716Y-45472D01*
X122519Y-59055D02*
X122716Y-58858D01*
X122519Y-59842D02*
X122519Y-59055D01*
X122519Y-68897D02*
X122519Y-59842D01*
X122716Y-69094D02*
X122519Y-68897D01*
X122716Y-69488D02*
X122716Y-69094D01*
X122716Y-58858D02*
X122716Y-57677D01*
X122519Y-47244D02*
X122716Y-47047D01*
X122519Y-48031D02*
X122519Y-47244D01*
X122519Y-57007D02*
X122519Y-48031D01*
X122716Y-57204D02*
X122519Y-57007D01*
X122716Y-57677D02*
X122716Y-57204D01*
X122716Y-45866D02*
X122716Y-47047D01*
X122519Y-35433D02*
X122716Y-35236D01*
X122519Y-36220D02*
X122519Y-35433D01*
X122519Y-45196D02*
X122519Y-36220D01*
X122716Y-45393D02*
X122519Y-45196D01*
X122716Y-45866D02*
X122716Y-45393D01*
X122519Y-59823D02*
X122519Y-59842D01*
X123031Y-59823D02*
X122519Y-59823D01*
X122519Y-48012D02*
X122538Y-48031D01*
X122538Y-48031D02*
X122559Y-48031D01*
X122559Y-48031D02*
X122519Y-48031D01*
X123031Y-48012D02*
X122519Y-48012D01*
X122519Y-36201D02*
X122519Y-36220D01*
X123031Y-36201D02*
X122519Y-36201D01*
X124606Y-36201D02*
X124094Y-36201D01*
X124094Y-36201D02*
X124094Y-36220D01*
X124606Y-48012D02*
X124094Y-48012D01*
X124133Y-48031D02*
X124094Y-48031D01*
X124113Y-48031D02*
X124133Y-48031D01*
X124094Y-48012D02*
X124113Y-48031D01*
X124606Y-59823D02*
X124094Y-59823D01*
X124094Y-59823D02*
X124094Y-59842D01*
X124291Y-45866D02*
X124291Y-45393D01*
X124291Y-45393D02*
X124094Y-45196D01*
X124094Y-45196D02*
X124094Y-36220D01*
X124094Y-36220D02*
X124094Y-35433D01*
X124094Y-35433D02*
X124291Y-35236D01*
X124291Y-45866D02*
X124291Y-47047D01*
X124291Y-57677D02*
X124291Y-57204D01*
X124291Y-57204D02*
X124094Y-57007D01*
X124094Y-57007D02*
X124094Y-48031D01*
X124094Y-48031D02*
X124094Y-47244D01*
X124094Y-47244D02*
X124291Y-47047D01*
X124291Y-58858D02*
X124291Y-57677D01*
X124291Y-69488D02*
X124291Y-69094D01*
X124291Y-69094D02*
X124094Y-68897D01*
X124094Y-68897D02*
X124094Y-59842D01*
X124094Y-59842D02*
X124094Y-59055D01*
X124094Y-59055D02*
X124291Y-58858D01*
X124291Y-45866D02*
X124291Y-45472D01*
G54D17*
X124291Y-45570D02*
X124291Y-45866D01*
X124464Y-59823D02*
X124606Y-59823D01*
X124464Y-36201D02*
X124606Y-36201D01*
X124464Y-48012D02*
X124606Y-48012D01*
G54D18*
X124291Y-59153D02*
X124291Y-58858D01*
X125866Y-59153D02*
X125866Y-58858D01*
G54D17*
X126038Y-48012D02*
X126181Y-48012D01*
X126038Y-36201D02*
X126181Y-36201D01*
X126038Y-59823D02*
X126181Y-59823D01*
X125866Y-45570D02*
X125866Y-45866D01*
G54D16*
X125866Y-45866D02*
X125866Y-45472D01*
X125669Y-59055D02*
X125866Y-58858D01*
X125669Y-59842D02*
X125669Y-59055D01*
X125669Y-68897D02*
X125669Y-59842D01*
X125866Y-69094D02*
X125669Y-68897D01*
X125866Y-69488D02*
X125866Y-69094D01*
X125866Y-58858D02*
X125866Y-57677D01*
X125669Y-47244D02*
X125866Y-47047D01*
X125669Y-48031D02*
X125669Y-47244D01*
X125669Y-57007D02*
X125669Y-48031D01*
X125866Y-57204D02*
X125669Y-57007D01*
X125866Y-57677D02*
X125866Y-57204D01*
X125866Y-45866D02*
X125866Y-47047D01*
X125669Y-35433D02*
X125866Y-35236D01*
X125669Y-36220D02*
X125669Y-35433D01*
X125669Y-45196D02*
X125669Y-36220D01*
X125866Y-45393D02*
X125669Y-45196D01*
X125866Y-45866D02*
X125866Y-45393D01*
X125669Y-59823D02*
X125669Y-59842D01*
X126181Y-59823D02*
X125669Y-59823D01*
X125669Y-48012D02*
X125688Y-48031D01*
X125688Y-48031D02*
X125708Y-48031D01*
X125708Y-48031D02*
X125669Y-48031D01*
X126181Y-48012D02*
X125669Y-48012D01*
X125669Y-36201D02*
X125669Y-36220D01*
X126181Y-36201D02*
X125669Y-36201D01*
X129330Y-36201D02*
X128818Y-36201D01*
X128818Y-36201D02*
X128818Y-36220D01*
X129330Y-48012D02*
X128818Y-48012D01*
X128858Y-48031D02*
X128818Y-48031D01*
X128838Y-48031D02*
X128858Y-48031D01*
X128818Y-48012D02*
X128838Y-48031D01*
X129330Y-59823D02*
X128818Y-59823D01*
X128818Y-59823D02*
X128818Y-59842D01*
X129015Y-45866D02*
X129015Y-45393D01*
X129015Y-45393D02*
X128818Y-45196D01*
X128818Y-45196D02*
X128818Y-36220D01*
X128818Y-36220D02*
X128818Y-35433D01*
X128818Y-35433D02*
X129015Y-35236D01*
X129015Y-45866D02*
X129015Y-47047D01*
X129015Y-57677D02*
X129015Y-57204D01*
X129015Y-57204D02*
X128818Y-57007D01*
X128818Y-57007D02*
X128818Y-48031D01*
X128818Y-48031D02*
X128818Y-47244D01*
X128818Y-47244D02*
X129015Y-47047D01*
X129015Y-58858D02*
X129015Y-57677D01*
X129015Y-69488D02*
X129015Y-69094D01*
X129015Y-69094D02*
X128818Y-68897D01*
X128818Y-68897D02*
X128818Y-59842D01*
X128818Y-59842D02*
X128818Y-59055D01*
X128818Y-59055D02*
X129015Y-58858D01*
X129015Y-45866D02*
X129015Y-45472D01*
G54D17*
X129015Y-45570D02*
X129015Y-45866D01*
X129188Y-59823D02*
X129330Y-59823D01*
X129188Y-36201D02*
X129330Y-36201D01*
X129188Y-48012D02*
X129330Y-48012D01*
G54D18*
X129015Y-59153D02*
X129015Y-58858D01*
X127440Y-59153D02*
X127440Y-58858D01*
G54D17*
X127613Y-48012D02*
X127755Y-48012D01*
X127613Y-36201D02*
X127755Y-36201D01*
X127613Y-59823D02*
X127755Y-59823D01*
X127440Y-45570D02*
X127440Y-45866D01*
G54D16*
X127440Y-45866D02*
X127440Y-45472D01*
X127244Y-59055D02*
X127440Y-58858D01*
X127244Y-59842D02*
X127244Y-59055D01*
X127244Y-68897D02*
X127244Y-59842D01*
X127440Y-69094D02*
X127244Y-68897D01*
X127440Y-69488D02*
X127440Y-69094D01*
X127440Y-58858D02*
X127440Y-57677D01*
X127244Y-47244D02*
X127440Y-47047D01*
X127244Y-48031D02*
X127244Y-47244D01*
X127244Y-57007D02*
X127244Y-48031D01*
X127440Y-57204D02*
X127244Y-57007D01*
X127440Y-57677D02*
X127440Y-57204D01*
X127440Y-45866D02*
X127440Y-47047D01*
X127244Y-35433D02*
X127440Y-35236D01*
X127244Y-36220D02*
X127244Y-35433D01*
X127244Y-45196D02*
X127244Y-36220D01*
X127440Y-45393D02*
X127244Y-45196D01*
X127440Y-45866D02*
X127440Y-45393D01*
X127244Y-59823D02*
X127244Y-59842D01*
X127755Y-59823D02*
X127244Y-59823D01*
X127244Y-48012D02*
X127263Y-48031D01*
X127263Y-48031D02*
X127283Y-48031D01*
X127283Y-48031D02*
X127244Y-48031D01*
X127755Y-48012D02*
X127244Y-48012D01*
X127244Y-36201D02*
X127244Y-36220D01*
X127755Y-36201D02*
X127244Y-36201D01*
X143503Y-36201D02*
X142992Y-36201D01*
X142992Y-36201D02*
X142992Y-36220D01*
X143503Y-48012D02*
X142992Y-48012D01*
X143031Y-48031D02*
X142992Y-48031D01*
X143011Y-48031D02*
X143031Y-48031D01*
X142992Y-48012D02*
X143011Y-48031D01*
X143503Y-59823D02*
X142992Y-59823D01*
X142992Y-59823D02*
X142992Y-59842D01*
X143188Y-45866D02*
X143188Y-45393D01*
X143188Y-45393D02*
X142992Y-45196D01*
X142992Y-45196D02*
X142992Y-36220D01*
X142992Y-36220D02*
X142992Y-35433D01*
X142992Y-35433D02*
X143188Y-35236D01*
X143188Y-45866D02*
X143188Y-47047D01*
X143188Y-57677D02*
X143188Y-57204D01*
X143188Y-57204D02*
X142992Y-57007D01*
X142992Y-57007D02*
X142992Y-48031D01*
X142992Y-48031D02*
X142992Y-47244D01*
X142992Y-47244D02*
X143188Y-47047D01*
X143188Y-58858D02*
X143188Y-57677D01*
X143188Y-69488D02*
X143188Y-69094D01*
X143188Y-69094D02*
X142992Y-68897D01*
X142992Y-68897D02*
X142992Y-59842D01*
X142992Y-59842D02*
X142992Y-59055D01*
X142992Y-59055D02*
X143188Y-58858D01*
X143188Y-45866D02*
X143188Y-45472D01*
G54D17*
X143188Y-45570D02*
X143188Y-45866D01*
X143361Y-59823D02*
X143503Y-59823D01*
X143361Y-36201D02*
X143503Y-36201D01*
X143361Y-48012D02*
X143503Y-48012D01*
G54D18*
X143188Y-59153D02*
X143188Y-58858D01*
X144763Y-59153D02*
X144763Y-58858D01*
G54D17*
X144936Y-48012D02*
X145078Y-48012D01*
X144936Y-36201D02*
X145078Y-36201D01*
X144936Y-59823D02*
X145078Y-59823D01*
X144763Y-45570D02*
X144763Y-45866D01*
G54D16*
X144763Y-45866D02*
X144763Y-45472D01*
X144566Y-59055D02*
X144763Y-58858D01*
X144566Y-59842D02*
X144566Y-59055D01*
X144566Y-68897D02*
X144566Y-59842D01*
X144763Y-69094D02*
X144566Y-68897D01*
X144763Y-69488D02*
X144763Y-69094D01*
X144763Y-58858D02*
X144763Y-57677D01*
X144566Y-47244D02*
X144763Y-47047D01*
X144566Y-48031D02*
X144566Y-47244D01*
X144566Y-57007D02*
X144566Y-48031D01*
X144763Y-57204D02*
X144566Y-57007D01*
X144763Y-57677D02*
X144763Y-57204D01*
X144763Y-45866D02*
X144763Y-47047D01*
X144566Y-35433D02*
X144763Y-35236D01*
X144566Y-36220D02*
X144566Y-35433D01*
X144566Y-45196D02*
X144566Y-36220D01*
X144763Y-45393D02*
X144566Y-45196D01*
X144763Y-45866D02*
X144763Y-45393D01*
X144566Y-59823D02*
X144566Y-59842D01*
X145078Y-59823D02*
X144566Y-59823D01*
X144566Y-48012D02*
X144586Y-48031D01*
X144586Y-48031D02*
X144606Y-48031D01*
X144606Y-48031D02*
X144566Y-48031D01*
X145078Y-48012D02*
X144566Y-48012D01*
X144566Y-36201D02*
X144566Y-36220D01*
X145078Y-36201D02*
X144566Y-36201D01*
X141929Y-36201D02*
X141417Y-36201D01*
X141417Y-36201D02*
X141417Y-36220D01*
X141929Y-48012D02*
X141417Y-48012D01*
X141456Y-48031D02*
X141417Y-48031D01*
X141436Y-48031D02*
X141456Y-48031D01*
X141417Y-48012D02*
X141436Y-48031D01*
X141929Y-59823D02*
X141417Y-59823D01*
X141417Y-59823D02*
X141417Y-59842D01*
X141614Y-45866D02*
X141614Y-45393D01*
X141614Y-45393D02*
X141417Y-45196D01*
X141417Y-45196D02*
X141417Y-36220D01*
X141417Y-36220D02*
X141417Y-35433D01*
X141417Y-35433D02*
X141614Y-35236D01*
X141614Y-45866D02*
X141614Y-47047D01*
X141614Y-57677D02*
X141614Y-57204D01*
X141614Y-57204D02*
X141417Y-57007D01*
X141417Y-57007D02*
X141417Y-48031D01*
X141417Y-48031D02*
X141417Y-47244D01*
X141417Y-47244D02*
X141614Y-47047D01*
X141614Y-58858D02*
X141614Y-57677D01*
X141614Y-69488D02*
X141614Y-69094D01*
X141614Y-69094D02*
X141417Y-68897D01*
X141417Y-68897D02*
X141417Y-59842D01*
X141417Y-59842D02*
X141417Y-59055D01*
X141417Y-59055D02*
X141614Y-58858D01*
X141614Y-45866D02*
X141614Y-45472D01*
G54D17*
X141614Y-45570D02*
X141614Y-45866D01*
X141787Y-59823D02*
X141929Y-59823D01*
X141787Y-36201D02*
X141929Y-36201D01*
X141787Y-48012D02*
X141929Y-48012D01*
G54D18*
X141614Y-59153D02*
X141614Y-58858D01*
X140039Y-59153D02*
X140039Y-58858D01*
G54D17*
X140212Y-48012D02*
X140354Y-48012D01*
X140212Y-36201D02*
X140354Y-36201D01*
X140212Y-59823D02*
X140354Y-59823D01*
X140039Y-45570D02*
X140039Y-45866D01*
G54D16*
X140039Y-45866D02*
X140039Y-45472D01*
X139842Y-59055D02*
X140039Y-58858D01*
X139842Y-59842D02*
X139842Y-59055D01*
X139842Y-68897D02*
X139842Y-59842D01*
X140039Y-69094D02*
X139842Y-68897D01*
X140039Y-69488D02*
X140039Y-69094D01*
X140039Y-58858D02*
X140039Y-57677D01*
X139842Y-47244D02*
X140039Y-47047D01*
X139842Y-48031D02*
X139842Y-47244D01*
X139842Y-57007D02*
X139842Y-48031D01*
X140039Y-57204D02*
X139842Y-57007D01*
X140039Y-57677D02*
X140039Y-57204D01*
X140039Y-45866D02*
X140039Y-47047D01*
X139842Y-35433D02*
X140039Y-35236D01*
X139842Y-36220D02*
X139842Y-35433D01*
X139842Y-45196D02*
X139842Y-36220D01*
X140039Y-45393D02*
X139842Y-45196D01*
X140039Y-45866D02*
X140039Y-45393D01*
X139842Y-59823D02*
X139842Y-59842D01*
X140354Y-59823D02*
X139842Y-59823D01*
X139842Y-48012D02*
X139861Y-48031D01*
X139861Y-48031D02*
X139881Y-48031D01*
X139881Y-48031D02*
X139842Y-48031D01*
X140354Y-48012D02*
X139842Y-48012D01*
X139842Y-36201D02*
X139842Y-36220D01*
X140354Y-36201D02*
X139842Y-36201D01*
X138779Y-36201D02*
X138267Y-36201D01*
X138267Y-36201D02*
X138267Y-36220D01*
X138779Y-48012D02*
X138267Y-48012D01*
X138307Y-48031D02*
X138267Y-48031D01*
X138287Y-48031D02*
X138307Y-48031D01*
X138267Y-48012D02*
X138287Y-48031D01*
X138779Y-59823D02*
X138267Y-59823D01*
X138267Y-59823D02*
X138267Y-59842D01*
X138464Y-45866D02*
X138464Y-45393D01*
X138464Y-45393D02*
X138267Y-45196D01*
X138267Y-45196D02*
X138267Y-36220D01*
X138267Y-36220D02*
X138267Y-35433D01*
X138267Y-35433D02*
X138464Y-35236D01*
X138464Y-45866D02*
X138464Y-47047D01*
X138464Y-57677D02*
X138464Y-57204D01*
X138464Y-57204D02*
X138267Y-57007D01*
X138267Y-57007D02*
X138267Y-48031D01*
X138267Y-48031D02*
X138267Y-47244D01*
X138267Y-47244D02*
X138464Y-47047D01*
X138464Y-58858D02*
X138464Y-57677D01*
X138464Y-69488D02*
X138464Y-69094D01*
X138464Y-69094D02*
X138267Y-68897D01*
X138267Y-68897D02*
X138267Y-59842D01*
X138267Y-59842D02*
X138267Y-59055D01*
X138267Y-59055D02*
X138464Y-58858D01*
X138464Y-45866D02*
X138464Y-45472D01*
G54D17*
X138464Y-45570D02*
X138464Y-45866D01*
X138637Y-59823D02*
X138779Y-59823D01*
X138637Y-36201D02*
X138779Y-36201D01*
X138637Y-48012D02*
X138779Y-48012D01*
G54D18*
X138464Y-59153D02*
X138464Y-58858D01*
X130590Y-59153D02*
X130590Y-58858D01*
G54D17*
X130763Y-48012D02*
X130905Y-48012D01*
X130763Y-36201D02*
X130905Y-36201D01*
X130763Y-59823D02*
X130905Y-59823D01*
X130590Y-45570D02*
X130590Y-45866D01*
G54D16*
X130590Y-45866D02*
X130590Y-45472D01*
X130393Y-59055D02*
X130590Y-58858D01*
X130393Y-59842D02*
X130393Y-59055D01*
X130393Y-68897D02*
X130393Y-59842D01*
X130590Y-69094D02*
X130393Y-68897D01*
X130590Y-69488D02*
X130590Y-69094D01*
X130590Y-58858D02*
X130590Y-57677D01*
X130393Y-47244D02*
X130590Y-47047D01*
X130393Y-48031D02*
X130393Y-47244D01*
X130393Y-57007D02*
X130393Y-48031D01*
X130590Y-57204D02*
X130393Y-57007D01*
X130590Y-57677D02*
X130590Y-57204D01*
X130590Y-45866D02*
X130590Y-47047D01*
X130393Y-35433D02*
X130590Y-35236D01*
X130393Y-36220D02*
X130393Y-35433D01*
X130393Y-45196D02*
X130393Y-36220D01*
X130590Y-45393D02*
X130393Y-45196D01*
X130590Y-45866D02*
X130590Y-45393D01*
X130393Y-59823D02*
X130393Y-59842D01*
X130905Y-59823D02*
X130393Y-59823D01*
X130393Y-48012D02*
X130413Y-48031D01*
X130413Y-48031D02*
X130433Y-48031D01*
X130433Y-48031D02*
X130393Y-48031D01*
X130905Y-48012D02*
X130393Y-48012D01*
X130393Y-36201D02*
X130393Y-36220D01*
X130905Y-36201D02*
X130393Y-36201D01*
X132480Y-36201D02*
X131968Y-36201D01*
X131968Y-36201D02*
X131968Y-36220D01*
X132480Y-48012D02*
X131968Y-48012D01*
X132007Y-48031D02*
X131968Y-48031D01*
X131987Y-48031D02*
X132007Y-48031D01*
X131968Y-48012D02*
X131987Y-48031D01*
X132480Y-59823D02*
X131968Y-59823D01*
X131968Y-59823D02*
X131968Y-59842D01*
X132165Y-45866D02*
X132165Y-45393D01*
X132165Y-45393D02*
X131968Y-45196D01*
X131968Y-45196D02*
X131968Y-36220D01*
X131968Y-36220D02*
X131968Y-35433D01*
X131968Y-35433D02*
X132165Y-35236D01*
X132165Y-45866D02*
X132165Y-47047D01*
X132165Y-57677D02*
X132165Y-57204D01*
X132165Y-57204D02*
X131968Y-57007D01*
X131968Y-57007D02*
X131968Y-48031D01*
X131968Y-48031D02*
X131968Y-47244D01*
X131968Y-47244D02*
X132165Y-47047D01*
X132165Y-58858D02*
X132165Y-57677D01*
X132165Y-69488D02*
X132165Y-69094D01*
X132165Y-69094D02*
X131968Y-68897D01*
X131968Y-68897D02*
X131968Y-59842D01*
X131968Y-59842D02*
X131968Y-59055D01*
X131968Y-59055D02*
X132165Y-58858D01*
X132165Y-45866D02*
X132165Y-45472D01*
G54D17*
X132165Y-45570D02*
X132165Y-45866D01*
X132338Y-59823D02*
X132480Y-59823D01*
X132338Y-36201D02*
X132480Y-36201D01*
X132338Y-48012D02*
X132480Y-48012D01*
G54D18*
X132165Y-59153D02*
X132165Y-58858D01*
X133740Y-59153D02*
X133740Y-58858D01*
G54D17*
X133912Y-48012D02*
X134055Y-48012D01*
X133912Y-36201D02*
X134055Y-36201D01*
X133912Y-59823D02*
X134055Y-59823D01*
X133740Y-45570D02*
X133740Y-45866D01*
G54D16*
X133740Y-45866D02*
X133740Y-45472D01*
X133543Y-59055D02*
X133740Y-58858D01*
X133543Y-59842D02*
X133543Y-59055D01*
X133543Y-68897D02*
X133543Y-59842D01*
X133740Y-69094D02*
X133543Y-68897D01*
X133740Y-69488D02*
X133740Y-69094D01*
X133740Y-58858D02*
X133740Y-57677D01*
X133543Y-47244D02*
X133740Y-47047D01*
X133543Y-48031D02*
X133543Y-47244D01*
X133543Y-57007D02*
X133543Y-48031D01*
X133740Y-57204D02*
X133543Y-57007D01*
X133740Y-57677D02*
X133740Y-57204D01*
X133740Y-45866D02*
X133740Y-47047D01*
X133543Y-35433D02*
X133740Y-35236D01*
X133543Y-36220D02*
X133543Y-35433D01*
X133543Y-45196D02*
X133543Y-36220D01*
X133740Y-45393D02*
X133543Y-45196D01*
X133740Y-45866D02*
X133740Y-45393D01*
X133543Y-59823D02*
X133543Y-59842D01*
X134055Y-59823D02*
X133543Y-59823D01*
X133543Y-48012D02*
X133562Y-48031D01*
X133562Y-48031D02*
X133582Y-48031D01*
X133582Y-48031D02*
X133543Y-48031D01*
X134055Y-48012D02*
X133543Y-48012D01*
X133543Y-36201D02*
X133543Y-36220D01*
X134055Y-36201D02*
X133543Y-36201D01*
X137204Y-36201D02*
X136692Y-36201D01*
X136692Y-36201D02*
X136692Y-36220D01*
X137204Y-48012D02*
X136692Y-48012D01*
X136732Y-48031D02*
X136692Y-48031D01*
X136712Y-48031D02*
X136732Y-48031D01*
X136692Y-48012D02*
X136712Y-48031D01*
X137204Y-59823D02*
X136692Y-59823D01*
X136692Y-59823D02*
X136692Y-59842D01*
X136889Y-45866D02*
X136889Y-45393D01*
X136889Y-45393D02*
X136692Y-45196D01*
X136692Y-45196D02*
X136692Y-36220D01*
X136692Y-36220D02*
X136692Y-35433D01*
X136692Y-35433D02*
X136889Y-35236D01*
X136889Y-45866D02*
X136889Y-47047D01*
X136889Y-57677D02*
X136889Y-57204D01*
X136889Y-57204D02*
X136692Y-57007D01*
X136692Y-57007D02*
X136692Y-48031D01*
X136692Y-48031D02*
X136692Y-47244D01*
X136692Y-47244D02*
X136889Y-47047D01*
X136889Y-58858D02*
X136889Y-57677D01*
X136889Y-69488D02*
X136889Y-69094D01*
X136889Y-69094D02*
X136692Y-68897D01*
X136692Y-68897D02*
X136692Y-59842D01*
X136692Y-59842D02*
X136692Y-59055D01*
X136692Y-59055D02*
X136889Y-58858D01*
X136889Y-45866D02*
X136889Y-45472D01*
G54D17*
X136889Y-45570D02*
X136889Y-45866D01*
X137062Y-59823D02*
X137204Y-59823D01*
X137062Y-36201D02*
X137204Y-36201D01*
X137062Y-48012D02*
X137204Y-48012D01*
G54D18*
X136889Y-59153D02*
X136889Y-58858D01*
X135314Y-59153D02*
X135314Y-58858D01*
G54D17*
X135487Y-48012D02*
X135629Y-48012D01*
X135487Y-36201D02*
X135629Y-36201D01*
X135487Y-59823D02*
X135629Y-59823D01*
X135314Y-45570D02*
X135314Y-45866D01*
G54D16*
X135314Y-45866D02*
X135314Y-45472D01*
X135118Y-59055D02*
X135314Y-58858D01*
X135118Y-59842D02*
X135118Y-59055D01*
X135118Y-68897D02*
X135118Y-59842D01*
X135314Y-69094D02*
X135118Y-68897D01*
X135314Y-69488D02*
X135314Y-69094D01*
X135314Y-58858D02*
X135314Y-57677D01*
X135118Y-47244D02*
X135314Y-47047D01*
X135118Y-48031D02*
X135118Y-47244D01*
X135118Y-57007D02*
X135118Y-48031D01*
X135314Y-57204D02*
X135118Y-57007D01*
X135314Y-57677D02*
X135314Y-57204D01*
X135314Y-45866D02*
X135314Y-47047D01*
X135118Y-35433D02*
X135314Y-35236D01*
X135118Y-36220D02*
X135118Y-35433D01*
X135118Y-45196D02*
X135118Y-36220D01*
X135314Y-45393D02*
X135118Y-45196D01*
X135314Y-45866D02*
X135314Y-45393D01*
X135118Y-59823D02*
X135118Y-59842D01*
X135629Y-59823D02*
X135118Y-59823D01*
X135118Y-48012D02*
X135137Y-48031D01*
X135137Y-48031D02*
X135157Y-48031D01*
X135157Y-48031D02*
X135118Y-48031D01*
X135629Y-48012D02*
X135118Y-48012D01*
X135118Y-36201D02*
X135118Y-36220D01*
X135629Y-36201D02*
X135118Y-36201D01*
X119881Y-44901D02*
X120393Y-44901D01*
X120393Y-44901D02*
X120393Y-44921D01*
X119881Y-68523D02*
X120393Y-68523D01*
X120393Y-68523D02*
X120393Y-68543D01*
X119881Y-56712D02*
X120393Y-56712D01*
X120354Y-56692D02*
X120393Y-56692D01*
X120374Y-56692D02*
X120354Y-56692D01*
X120393Y-56712D02*
X120374Y-56692D01*
X120196Y-45866D02*
X120196Y-45393D01*
X120196Y-45393D02*
X120393Y-45196D01*
X120393Y-45196D02*
X120393Y-44921D01*
X120393Y-44921D02*
X120393Y-35433D01*
X120393Y-35433D02*
X120196Y-35236D01*
X120196Y-45866D02*
X120196Y-47047D01*
X120196Y-57677D02*
X120196Y-57204D01*
X120196Y-57204D02*
X120393Y-57007D01*
X120393Y-57007D02*
X120393Y-56692D01*
X120393Y-56692D02*
X120393Y-47244D01*
X120393Y-47244D02*
X120196Y-47047D01*
X120196Y-69488D02*
X120196Y-69094D01*
X120196Y-69094D02*
X120393Y-68897D01*
X120393Y-68897D02*
X120393Y-68543D01*
X120393Y-68543D02*
X120393Y-59055D01*
X120393Y-59055D02*
X120196Y-58858D01*
X120196Y-57677D02*
X120196Y-58858D01*
G54D17*
X119881Y-44901D02*
X120024Y-44901D01*
X119881Y-68523D02*
X120024Y-68523D01*
G54D18*
X120196Y-69192D02*
X120196Y-69488D01*
X120196Y-58858D02*
X120196Y-59153D01*
X121771Y-58858D02*
X121771Y-59153D01*
X121771Y-69192D02*
X121771Y-69488D01*
G54D17*
X121456Y-68523D02*
X121598Y-68523D01*
X121456Y-44901D02*
X121598Y-44901D01*
G54D16*
X121771Y-57677D02*
X121771Y-58858D01*
X121968Y-59055D02*
X121771Y-58858D01*
X121968Y-68543D02*
X121968Y-59055D01*
X121968Y-68897D02*
X121968Y-68543D01*
X121771Y-69094D02*
X121968Y-68897D01*
X121771Y-69488D02*
X121771Y-69094D01*
X121968Y-47244D02*
X121771Y-47047D01*
X121968Y-56692D02*
X121968Y-47244D01*
X121968Y-57007D02*
X121968Y-56692D01*
X121771Y-57204D02*
X121968Y-57007D01*
X121771Y-57677D02*
X121771Y-57204D01*
X121771Y-45866D02*
X121771Y-47047D01*
X121968Y-35433D02*
X121771Y-35236D01*
X121968Y-44921D02*
X121968Y-35433D01*
X121968Y-45196D02*
X121968Y-44921D01*
X121771Y-45393D02*
X121968Y-45196D01*
X121771Y-45866D02*
X121771Y-45393D01*
X121968Y-56712D02*
X121949Y-56692D01*
X121949Y-56692D02*
X121929Y-56692D01*
X121929Y-56692D02*
X121968Y-56692D01*
X121456Y-56712D02*
X121968Y-56712D01*
X121968Y-68523D02*
X121968Y-68543D01*
X121456Y-68523D02*
X121968Y-68523D01*
X121968Y-44901D02*
X121968Y-44921D01*
X121456Y-44901D02*
X121968Y-44901D01*
X118307Y-44901D02*
X118818Y-44901D01*
X118818Y-44901D02*
X118818Y-44921D01*
X118307Y-68523D02*
X118818Y-68523D01*
X118818Y-68523D02*
X118818Y-68543D01*
X118307Y-56712D02*
X118818Y-56712D01*
X118779Y-56692D02*
X118818Y-56692D01*
X118799Y-56692D02*
X118779Y-56692D01*
X118818Y-56712D02*
X118799Y-56692D01*
X118622Y-45866D02*
X118622Y-45393D01*
X118622Y-45393D02*
X118818Y-45196D01*
X118818Y-45196D02*
X118818Y-44921D01*
X118818Y-44921D02*
X118818Y-35433D01*
X118818Y-35433D02*
X118622Y-35236D01*
X118622Y-45866D02*
X118622Y-47047D01*
X118622Y-57677D02*
X118622Y-57204D01*
X118622Y-57204D02*
X118818Y-57007D01*
X118818Y-57007D02*
X118818Y-56692D01*
X118818Y-56692D02*
X118818Y-47244D01*
X118818Y-47244D02*
X118622Y-47047D01*
X118622Y-69488D02*
X118622Y-69094D01*
X118622Y-69094D02*
X118818Y-68897D01*
X118818Y-68897D02*
X118818Y-68543D01*
X118818Y-68543D02*
X118818Y-59055D01*
X118818Y-59055D02*
X118622Y-58858D01*
X118622Y-57677D02*
X118622Y-58858D01*
G54D17*
X118307Y-44901D02*
X118449Y-44901D01*
X118307Y-68523D02*
X118449Y-68523D01*
G54D18*
X118622Y-69192D02*
X118622Y-69488D01*
X118622Y-58858D02*
X118622Y-59153D01*
X117047Y-58858D02*
X117047Y-59153D01*
X117047Y-69192D02*
X117047Y-69488D01*
G54D17*
X116732Y-68523D02*
X116874Y-68523D01*
X116732Y-44901D02*
X116874Y-44901D01*
G54D16*
X117047Y-57677D02*
X117047Y-58858D01*
X117244Y-59055D02*
X117047Y-58858D01*
X117244Y-68543D02*
X117244Y-59055D01*
X117244Y-68897D02*
X117244Y-68543D01*
X117047Y-69094D02*
X117244Y-68897D01*
X117047Y-69488D02*
X117047Y-69094D01*
X117244Y-47244D02*
X117047Y-47047D01*
X117244Y-56692D02*
X117244Y-47244D01*
X117244Y-57007D02*
X117244Y-56692D01*
X117047Y-57204D02*
X117244Y-57007D01*
X117047Y-57677D02*
X117047Y-57204D01*
X117047Y-45866D02*
X117047Y-47047D01*
X117244Y-35433D02*
X117047Y-35236D01*
X117244Y-44921D02*
X117244Y-35433D01*
X117244Y-45196D02*
X117244Y-44921D01*
X117047Y-45393D02*
X117244Y-45196D01*
X117047Y-45866D02*
X117047Y-45393D01*
X117244Y-56712D02*
X117224Y-56692D01*
X117224Y-56692D02*
X117204Y-56692D01*
X117204Y-56692D02*
X117244Y-56692D01*
X116732Y-56712D02*
X117244Y-56712D01*
X117244Y-68523D02*
X117244Y-68543D01*
X116732Y-68523D02*
X117244Y-68523D01*
X117244Y-44901D02*
X117244Y-44921D01*
X116732Y-44901D02*
X117244Y-44901D01*
X115157Y-44901D02*
X115669Y-44901D01*
X115669Y-44901D02*
X115669Y-44921D01*
X115157Y-68523D02*
X115669Y-68523D01*
X115669Y-68523D02*
X115669Y-68543D01*
X115157Y-56712D02*
X115669Y-56712D01*
X115629Y-56692D02*
X115669Y-56692D01*
X115649Y-56692D02*
X115629Y-56692D01*
X115669Y-56712D02*
X115649Y-56692D01*
X115472Y-45866D02*
X115472Y-45393D01*
X115472Y-45393D02*
X115669Y-45196D01*
X115669Y-45196D02*
X115669Y-44921D01*
X115669Y-44921D02*
X115669Y-35433D01*
X115669Y-35433D02*
X115472Y-35236D01*
X115472Y-45866D02*
X115472Y-47047D01*
X115472Y-57677D02*
X115472Y-57204D01*
X115472Y-57204D02*
X115669Y-57007D01*
X115669Y-57007D02*
X115669Y-56692D01*
X115669Y-56692D02*
X115669Y-47244D01*
X115669Y-47244D02*
X115472Y-47047D01*
X115472Y-69488D02*
X115472Y-69094D01*
X115472Y-69094D02*
X115669Y-68897D01*
X115669Y-68897D02*
X115669Y-68543D01*
X115669Y-68543D02*
X115669Y-59055D01*
X115669Y-59055D02*
X115472Y-58858D01*
X115472Y-57677D02*
X115472Y-58858D01*
G54D17*
X115157Y-44901D02*
X115299Y-44901D01*
X115157Y-68523D02*
X115299Y-68523D01*
G54D18*
X115472Y-69192D02*
X115472Y-69488D01*
X115472Y-58858D02*
X115472Y-59153D01*
X123346Y-58858D02*
X123346Y-59153D01*
X123346Y-69192D02*
X123346Y-69488D01*
G54D17*
X123031Y-68523D02*
X123173Y-68523D01*
X123031Y-44901D02*
X123173Y-44901D01*
G54D16*
X123346Y-57677D02*
X123346Y-58858D01*
X123543Y-59055D02*
X123346Y-58858D01*
X123543Y-68543D02*
X123543Y-59055D01*
X123543Y-68897D02*
X123543Y-68543D01*
X123346Y-69094D02*
X123543Y-68897D01*
X123346Y-69488D02*
X123346Y-69094D01*
X123543Y-47244D02*
X123346Y-47047D01*
X123543Y-56692D02*
X123543Y-47244D01*
X123543Y-57007D02*
X123543Y-56692D01*
X123346Y-57204D02*
X123543Y-57007D01*
X123346Y-57677D02*
X123346Y-57204D01*
X123346Y-45866D02*
X123346Y-47047D01*
X123543Y-35433D02*
X123346Y-35236D01*
X123543Y-44921D02*
X123543Y-35433D01*
X123543Y-45196D02*
X123543Y-44921D01*
X123346Y-45393D02*
X123543Y-45196D01*
X123346Y-45866D02*
X123346Y-45393D01*
X123543Y-56712D02*
X123524Y-56692D01*
X123524Y-56692D02*
X123503Y-56692D01*
X123503Y-56692D02*
X123543Y-56692D01*
X123031Y-56712D02*
X123543Y-56712D01*
X123543Y-68523D02*
X123543Y-68543D01*
X123031Y-68523D02*
X123543Y-68523D01*
X123543Y-44901D02*
X123543Y-44921D01*
X123031Y-44901D02*
X123543Y-44901D01*
X124606Y-44901D02*
X125118Y-44901D01*
X125118Y-44901D02*
X125118Y-44921D01*
X124606Y-68523D02*
X125118Y-68523D01*
X125118Y-68523D02*
X125118Y-68543D01*
X124606Y-56712D02*
X125118Y-56712D01*
X125078Y-56692D02*
X125118Y-56692D01*
X125098Y-56692D02*
X125078Y-56692D01*
X125118Y-56712D02*
X125098Y-56692D01*
X124921Y-45866D02*
X124921Y-45393D01*
X124921Y-45393D02*
X125118Y-45196D01*
X125118Y-45196D02*
X125118Y-44921D01*
X125118Y-44921D02*
X125118Y-35433D01*
X125118Y-35433D02*
X124921Y-35236D01*
X124921Y-45866D02*
X124921Y-47047D01*
X124921Y-57677D02*
X124921Y-57204D01*
X124921Y-57204D02*
X125118Y-57007D01*
X125118Y-57007D02*
X125118Y-56692D01*
X125118Y-56692D02*
X125118Y-47244D01*
X125118Y-47244D02*
X124921Y-47047D01*
X124921Y-69488D02*
X124921Y-69094D01*
X124921Y-69094D02*
X125118Y-68897D01*
X125118Y-68897D02*
X125118Y-68543D01*
X125118Y-68543D02*
X125118Y-59055D01*
X125118Y-59055D02*
X124921Y-58858D01*
X124921Y-57677D02*
X124921Y-58858D01*
G54D17*
X124606Y-44901D02*
X124748Y-44901D01*
X124606Y-68523D02*
X124748Y-68523D01*
G54D18*
X124921Y-69192D02*
X124921Y-69488D01*
X124921Y-58858D02*
X124921Y-59153D01*
X126496Y-58858D02*
X126496Y-59153D01*
X126496Y-69192D02*
X126496Y-69488D01*
G54D17*
X126181Y-68523D02*
X126323Y-68523D01*
X126181Y-44901D02*
X126323Y-44901D01*
G54D16*
X126496Y-57677D02*
X126496Y-58858D01*
X126692Y-59055D02*
X126496Y-58858D01*
X126692Y-68543D02*
X126692Y-59055D01*
X126692Y-68897D02*
X126692Y-68543D01*
X126496Y-69094D02*
X126692Y-68897D01*
X126496Y-69488D02*
X126496Y-69094D01*
X126692Y-47244D02*
X126496Y-47047D01*
X126692Y-56692D02*
X126692Y-47244D01*
X126692Y-57007D02*
X126692Y-56692D01*
X126496Y-57204D02*
X126692Y-57007D01*
X126496Y-57677D02*
X126496Y-57204D01*
X126496Y-45866D02*
X126496Y-47047D01*
X126692Y-35433D02*
X126496Y-35236D01*
X126692Y-44921D02*
X126692Y-35433D01*
X126692Y-45196D02*
X126692Y-44921D01*
X126496Y-45393D02*
X126692Y-45196D01*
X126496Y-45866D02*
X126496Y-45393D01*
X126692Y-56712D02*
X126673Y-56692D01*
X126673Y-56692D02*
X126653Y-56692D01*
X126653Y-56692D02*
X126692Y-56692D01*
X126181Y-56712D02*
X126692Y-56712D01*
X126692Y-68523D02*
X126692Y-68543D01*
X126181Y-68523D02*
X126692Y-68523D01*
X126692Y-44901D02*
X126692Y-44921D01*
X126181Y-44901D02*
X126692Y-44901D01*
X129330Y-44901D02*
X129842Y-44901D01*
X129842Y-44901D02*
X129842Y-44921D01*
X129330Y-68523D02*
X129842Y-68523D01*
X129842Y-68523D02*
X129842Y-68543D01*
X129330Y-56712D02*
X129842Y-56712D01*
X129803Y-56692D02*
X129842Y-56692D01*
X129823Y-56692D02*
X129803Y-56692D01*
X129842Y-56712D02*
X129823Y-56692D01*
X129645Y-45866D02*
X129645Y-45393D01*
X129645Y-45393D02*
X129842Y-45196D01*
X129842Y-45196D02*
X129842Y-44921D01*
X129842Y-44921D02*
X129842Y-35433D01*
X129842Y-35433D02*
X129645Y-35236D01*
X129645Y-45866D02*
X129645Y-47047D01*
X129645Y-57677D02*
X129645Y-57204D01*
X129645Y-57204D02*
X129842Y-57007D01*
X129842Y-57007D02*
X129842Y-56692D01*
X129842Y-56692D02*
X129842Y-47244D01*
X129842Y-47244D02*
X129645Y-47047D01*
X129645Y-69488D02*
X129645Y-69094D01*
X129645Y-69094D02*
X129842Y-68897D01*
X129842Y-68897D02*
X129842Y-68543D01*
X129842Y-68543D02*
X129842Y-59055D01*
X129842Y-59055D02*
X129645Y-58858D01*
X129645Y-57677D02*
X129645Y-58858D01*
G54D17*
X129330Y-44901D02*
X129472Y-44901D01*
X129330Y-68523D02*
X129472Y-68523D01*
G54D18*
X129645Y-69192D02*
X129645Y-69488D01*
X129645Y-58858D02*
X129645Y-59153D01*
X128070Y-58858D02*
X128070Y-59153D01*
X128070Y-69192D02*
X128070Y-69488D01*
G54D17*
X127755Y-68523D02*
X127898Y-68523D01*
X127755Y-44901D02*
X127898Y-44901D01*
G54D16*
X128070Y-57677D02*
X128070Y-58858D01*
X128267Y-59055D02*
X128070Y-58858D01*
X128267Y-68543D02*
X128267Y-59055D01*
X128267Y-68897D02*
X128267Y-68543D01*
X128070Y-69094D02*
X128267Y-68897D01*
X128070Y-69488D02*
X128070Y-69094D01*
X128267Y-47244D02*
X128070Y-47047D01*
X128267Y-56692D02*
X128267Y-47244D01*
X128267Y-57007D02*
X128267Y-56692D01*
X128070Y-57204D02*
X128267Y-57007D01*
X128070Y-57677D02*
X128070Y-57204D01*
X128070Y-45866D02*
X128070Y-47047D01*
X128267Y-35433D02*
X128070Y-35236D01*
X128267Y-44921D02*
X128267Y-35433D01*
X128267Y-45196D02*
X128267Y-44921D01*
X128070Y-45393D02*
X128267Y-45196D01*
X128070Y-45866D02*
X128070Y-45393D01*
X128267Y-56712D02*
X128248Y-56692D01*
X128248Y-56692D02*
X128228Y-56692D01*
X128228Y-56692D02*
X128267Y-56692D01*
X127755Y-56712D02*
X128267Y-56712D01*
X128267Y-68523D02*
X128267Y-68543D01*
X127755Y-68523D02*
X128267Y-68523D01*
X128267Y-44901D02*
X128267Y-44921D01*
X127755Y-44901D02*
X128267Y-44901D01*
X143503Y-44901D02*
X144015Y-44901D01*
X144015Y-44901D02*
X144015Y-44921D01*
X143503Y-68523D02*
X144015Y-68523D01*
X144015Y-68523D02*
X144015Y-68543D01*
X143503Y-56712D02*
X144015Y-56712D01*
X143976Y-56692D02*
X144015Y-56692D01*
X143996Y-56692D02*
X143976Y-56692D01*
X144015Y-56712D02*
X143996Y-56692D01*
X143818Y-45866D02*
X143818Y-45393D01*
X143818Y-45393D02*
X144015Y-45196D01*
X144015Y-45196D02*
X144015Y-44921D01*
X144015Y-44921D02*
X144015Y-35433D01*
X144015Y-35433D02*
X143818Y-35236D01*
X143818Y-45866D02*
X143818Y-47047D01*
X143818Y-57677D02*
X143818Y-57204D01*
X143818Y-57204D02*
X144015Y-57007D01*
X144015Y-57007D02*
X144015Y-56692D01*
X144015Y-56692D02*
X144015Y-47244D01*
X144015Y-47244D02*
X143818Y-47047D01*
X143818Y-69488D02*
X143818Y-69094D01*
X143818Y-69094D02*
X144015Y-68897D01*
X144015Y-68897D02*
X144015Y-68543D01*
X144015Y-68543D02*
X144015Y-59055D01*
X144015Y-59055D02*
X143818Y-58858D01*
X143818Y-57677D02*
X143818Y-58858D01*
G54D17*
X143503Y-44901D02*
X143646Y-44901D01*
X143503Y-68523D02*
X143646Y-68523D01*
G54D18*
X143818Y-69192D02*
X143818Y-69488D01*
X143818Y-58858D02*
X143818Y-59153D01*
X145393Y-58858D02*
X145393Y-59153D01*
X145393Y-69192D02*
X145393Y-69488D01*
G54D17*
X145078Y-68523D02*
X145220Y-68523D01*
X145078Y-44901D02*
X145220Y-44901D01*
G54D16*
X145393Y-57677D02*
X145393Y-58858D01*
X145590Y-59055D02*
X145393Y-58858D01*
X145590Y-68543D02*
X145590Y-59055D01*
X145590Y-68897D02*
X145590Y-68543D01*
X145393Y-69094D02*
X145590Y-68897D01*
X145393Y-69488D02*
X145393Y-69094D01*
X145590Y-47244D02*
X145393Y-47047D01*
X145590Y-56692D02*
X145590Y-47244D01*
X145590Y-57007D02*
X145590Y-56692D01*
X145393Y-57204D02*
X145590Y-57007D01*
X145393Y-57677D02*
X145393Y-57204D01*
X145393Y-45866D02*
X145393Y-47047D01*
X145590Y-35433D02*
X145393Y-35236D01*
X145590Y-44921D02*
X145590Y-35433D01*
X145590Y-45196D02*
X145590Y-44921D01*
X145393Y-45393D02*
X145590Y-45196D01*
X145393Y-45866D02*
X145393Y-45393D01*
X145590Y-56712D02*
X145571Y-56692D01*
X145571Y-56692D02*
X145551Y-56692D01*
X145551Y-56692D02*
X145590Y-56692D01*
X145078Y-56712D02*
X145590Y-56712D01*
X145590Y-68523D02*
X145590Y-68543D01*
X145078Y-68523D02*
X145590Y-68523D01*
X145590Y-44901D02*
X145590Y-44921D01*
X145078Y-44901D02*
X145590Y-44901D01*
X141929Y-44901D02*
X142440Y-44901D01*
X142440Y-44901D02*
X142440Y-44921D01*
X141929Y-68523D02*
X142440Y-68523D01*
X142440Y-68523D02*
X142440Y-68543D01*
X141929Y-56712D02*
X142440Y-56712D01*
X142401Y-56692D02*
X142440Y-56692D01*
X142421Y-56692D02*
X142401Y-56692D01*
X142440Y-56712D02*
X142421Y-56692D01*
X142244Y-45866D02*
X142244Y-45393D01*
X142244Y-45393D02*
X142440Y-45196D01*
X142440Y-45196D02*
X142440Y-44921D01*
X142440Y-44921D02*
X142440Y-35433D01*
X142440Y-35433D02*
X142244Y-35236D01*
X142244Y-45866D02*
X142244Y-47047D01*
X142244Y-57677D02*
X142244Y-57204D01*
X142244Y-57204D02*
X142440Y-57007D01*
X142440Y-57007D02*
X142440Y-56692D01*
X142440Y-56692D02*
X142440Y-47244D01*
X142440Y-47244D02*
X142244Y-47047D01*
X142244Y-69488D02*
X142244Y-69094D01*
X142244Y-69094D02*
X142440Y-68897D01*
X142440Y-68897D02*
X142440Y-68543D01*
X142440Y-68543D02*
X142440Y-59055D01*
X142440Y-59055D02*
X142244Y-58858D01*
X142244Y-57677D02*
X142244Y-58858D01*
G54D17*
X141929Y-44901D02*
X142071Y-44901D01*
X141929Y-68523D02*
X142071Y-68523D01*
G54D18*
X142244Y-69192D02*
X142244Y-69488D01*
X142244Y-58858D02*
X142244Y-59153D01*
X140669Y-58858D02*
X140669Y-59153D01*
X140669Y-69192D02*
X140669Y-69488D01*
G54D17*
X140354Y-68523D02*
X140496Y-68523D01*
X140354Y-44901D02*
X140496Y-44901D01*
G54D16*
X140669Y-57677D02*
X140669Y-58858D01*
X140866Y-59055D02*
X140669Y-58858D01*
X140866Y-68543D02*
X140866Y-59055D01*
X140866Y-68897D02*
X140866Y-68543D01*
X140669Y-69094D02*
X140866Y-68897D01*
X140669Y-69488D02*
X140669Y-69094D01*
X140866Y-47244D02*
X140669Y-47047D01*
X140866Y-56692D02*
X140866Y-47244D01*
X140866Y-57007D02*
X140866Y-56692D01*
X140669Y-57204D02*
X140866Y-57007D01*
X140669Y-57677D02*
X140669Y-57204D01*
X140669Y-45866D02*
X140669Y-47047D01*
X140866Y-35433D02*
X140669Y-35236D01*
X140866Y-44921D02*
X140866Y-35433D01*
X140866Y-45196D02*
X140866Y-44921D01*
X140669Y-45393D02*
X140866Y-45196D01*
X140669Y-45866D02*
X140669Y-45393D01*
X140866Y-56712D02*
X140846Y-56692D01*
X140846Y-56692D02*
X140826Y-56692D01*
X140826Y-56692D02*
X140866Y-56692D01*
X140354Y-56712D02*
X140866Y-56712D01*
X140866Y-68523D02*
X140866Y-68543D01*
X140354Y-68523D02*
X140866Y-68523D01*
X140866Y-44901D02*
X140866Y-44921D01*
X140354Y-44901D02*
X140866Y-44901D01*
X138779Y-44901D02*
X139291Y-44901D01*
X139291Y-44901D02*
X139291Y-44921D01*
X138779Y-68523D02*
X139291Y-68523D01*
X139291Y-68523D02*
X139291Y-68543D01*
X138779Y-56712D02*
X139291Y-56712D01*
X139251Y-56692D02*
X139291Y-56692D01*
X139272Y-56692D02*
X139251Y-56692D01*
X139291Y-56712D02*
X139272Y-56692D01*
X139094Y-45866D02*
X139094Y-45393D01*
X139094Y-45393D02*
X139291Y-45196D01*
X139291Y-45196D02*
X139291Y-44921D01*
X139291Y-44921D02*
X139291Y-35433D01*
X139291Y-35433D02*
X139094Y-35236D01*
X139094Y-45866D02*
X139094Y-47047D01*
X139094Y-57677D02*
X139094Y-57204D01*
X139094Y-57204D02*
X139291Y-57007D01*
X139291Y-57007D02*
X139291Y-56692D01*
X139291Y-56692D02*
X139291Y-47244D01*
X139291Y-47244D02*
X139094Y-47047D01*
X139094Y-69488D02*
X139094Y-69094D01*
X139094Y-69094D02*
X139291Y-68897D01*
X139291Y-68897D02*
X139291Y-68543D01*
X139291Y-68543D02*
X139291Y-59055D01*
X139291Y-59055D02*
X139094Y-58858D01*
X139094Y-57677D02*
X139094Y-58858D01*
G54D17*
X138779Y-44901D02*
X138921Y-44901D01*
X138779Y-68523D02*
X138921Y-68523D01*
G54D18*
X139094Y-69192D02*
X139094Y-69488D01*
X139094Y-58858D02*
X139094Y-59153D01*
X131220Y-58858D02*
X131220Y-59153D01*
X131220Y-69192D02*
X131220Y-69488D01*
G54D17*
X130905Y-68523D02*
X131047Y-68523D01*
X130905Y-44901D02*
X131047Y-44901D01*
G54D16*
X131220Y-57677D02*
X131220Y-58858D01*
X131417Y-59055D02*
X131220Y-58858D01*
X131417Y-68543D02*
X131417Y-59055D01*
X131417Y-68897D02*
X131417Y-68543D01*
X131220Y-69094D02*
X131417Y-68897D01*
X131220Y-69488D02*
X131220Y-69094D01*
X131417Y-47244D02*
X131220Y-47047D01*
X131417Y-56692D02*
X131417Y-47244D01*
X131417Y-57007D02*
X131417Y-56692D01*
X131220Y-57204D02*
X131417Y-57007D01*
X131220Y-57677D02*
X131220Y-57204D01*
X131220Y-45866D02*
X131220Y-47047D01*
X131417Y-35433D02*
X131220Y-35236D01*
X131417Y-44921D02*
X131417Y-35433D01*
X131417Y-45196D02*
X131417Y-44921D01*
X131220Y-45393D02*
X131417Y-45196D01*
X131220Y-45866D02*
X131220Y-45393D01*
X131417Y-56712D02*
X131398Y-56692D01*
X131398Y-56692D02*
X131377Y-56692D01*
X131377Y-56692D02*
X131417Y-56692D01*
X130905Y-56712D02*
X131417Y-56712D01*
X131417Y-68523D02*
X131417Y-68543D01*
X130905Y-68523D02*
X131417Y-68523D01*
X131417Y-44901D02*
X131417Y-44921D01*
X130905Y-44901D02*
X131417Y-44901D01*
X132480Y-44901D02*
X132992Y-44901D01*
X132992Y-44901D02*
X132992Y-44921D01*
X132480Y-68523D02*
X132992Y-68523D01*
X132992Y-68523D02*
X132992Y-68543D01*
X132480Y-56712D02*
X132992Y-56712D01*
X132952Y-56692D02*
X132992Y-56692D01*
X132972Y-56692D02*
X132952Y-56692D01*
X132992Y-56712D02*
X132972Y-56692D01*
X132795Y-45866D02*
X132795Y-45393D01*
X132795Y-45393D02*
X132992Y-45196D01*
X132992Y-45196D02*
X132992Y-44921D01*
X132992Y-44921D02*
X132992Y-35433D01*
X132992Y-35433D02*
X132795Y-35236D01*
X132795Y-45866D02*
X132795Y-47047D01*
X132795Y-57677D02*
X132795Y-57204D01*
X132795Y-57204D02*
X132992Y-57007D01*
X132992Y-57007D02*
X132992Y-56692D01*
X132992Y-56692D02*
X132992Y-47244D01*
X132992Y-47244D02*
X132795Y-47047D01*
X132795Y-69488D02*
X132795Y-69094D01*
X132795Y-69094D02*
X132992Y-68897D01*
X132992Y-68897D02*
X132992Y-68543D01*
X132992Y-68543D02*
X132992Y-59055D01*
X132992Y-59055D02*
X132795Y-58858D01*
X132795Y-57677D02*
X132795Y-58858D01*
G54D17*
X132480Y-44901D02*
X132622Y-44901D01*
X132480Y-68523D02*
X132622Y-68523D01*
G54D18*
X132795Y-69192D02*
X132795Y-69488D01*
X132795Y-58858D02*
X132795Y-59153D01*
X134370Y-58858D02*
X134370Y-59153D01*
X134370Y-69192D02*
X134370Y-69488D01*
G54D17*
X134055Y-68523D02*
X134197Y-68523D01*
X134055Y-44901D02*
X134197Y-44901D01*
G54D16*
X134370Y-57677D02*
X134370Y-58858D01*
X134566Y-59055D02*
X134370Y-58858D01*
X134566Y-68543D02*
X134566Y-59055D01*
X134566Y-68897D02*
X134566Y-68543D01*
X134370Y-69094D02*
X134566Y-68897D01*
X134370Y-69488D02*
X134370Y-69094D01*
X134566Y-47244D02*
X134370Y-47047D01*
X134566Y-56692D02*
X134566Y-47244D01*
X134566Y-57007D02*
X134566Y-56692D01*
X134370Y-57204D02*
X134566Y-57007D01*
X134370Y-57677D02*
X134370Y-57204D01*
X134370Y-45866D02*
X134370Y-47047D01*
X134566Y-35433D02*
X134370Y-35236D01*
X134566Y-44921D02*
X134566Y-35433D01*
X134566Y-45196D02*
X134566Y-44921D01*
X134370Y-45393D02*
X134566Y-45196D01*
X134370Y-45866D02*
X134370Y-45393D01*
X134566Y-56712D02*
X134547Y-56692D01*
X134547Y-56692D02*
X134527Y-56692D01*
X134527Y-56692D02*
X134566Y-56692D01*
X134055Y-56712D02*
X134566Y-56712D01*
X134566Y-68523D02*
X134566Y-68543D01*
X134055Y-68523D02*
X134566Y-68523D01*
X134566Y-44901D02*
X134566Y-44921D01*
X134055Y-44901D02*
X134566Y-44901D01*
X137204Y-44901D02*
X137716Y-44901D01*
X137716Y-44901D02*
X137716Y-44921D01*
X137204Y-68523D02*
X137716Y-68523D01*
X137716Y-68523D02*
X137716Y-68543D01*
X137204Y-56712D02*
X137716Y-56712D01*
X137677Y-56692D02*
X137716Y-56692D01*
X137697Y-56692D02*
X137677Y-56692D01*
X137716Y-56712D02*
X137697Y-56692D01*
X137519Y-45866D02*
X137519Y-45393D01*
X137519Y-45393D02*
X137716Y-45196D01*
X137716Y-45196D02*
X137716Y-44921D01*
X137716Y-44921D02*
X137716Y-35433D01*
X137716Y-35433D02*
X137519Y-35236D01*
X137519Y-45866D02*
X137519Y-47047D01*
X137519Y-57677D02*
X137519Y-57204D01*
X137519Y-57204D02*
X137716Y-57007D01*
X137716Y-57007D02*
X137716Y-56692D01*
X137716Y-56692D02*
X137716Y-47244D01*
X137716Y-47244D02*
X137519Y-47047D01*
X137519Y-69488D02*
X137519Y-69094D01*
X137519Y-69094D02*
X137716Y-68897D01*
X137716Y-68897D02*
X137716Y-68543D01*
X137716Y-68543D02*
X137716Y-59055D01*
X137716Y-59055D02*
X137519Y-58858D01*
X137519Y-57677D02*
X137519Y-58858D01*
G54D17*
X137204Y-44901D02*
X137346Y-44901D01*
X137204Y-68523D02*
X137346Y-68523D01*
G54D18*
X137519Y-69192D02*
X137519Y-69488D01*
X137519Y-58858D02*
X137519Y-59153D01*
X135944Y-58858D02*
X135944Y-59153D01*
X135944Y-69192D02*
X135944Y-69488D01*
G54D17*
X135629Y-68523D02*
X135772Y-68523D01*
X135629Y-44901D02*
X135772Y-44901D01*
G54D16*
X135944Y-57677D02*
X135944Y-58858D01*
X136141Y-59055D02*
X135944Y-58858D01*
X136141Y-68543D02*
X136141Y-59055D01*
X136141Y-68897D02*
X136141Y-68543D01*
X135944Y-69094D02*
X136141Y-68897D01*
X135944Y-69488D02*
X135944Y-69094D01*
X136141Y-47244D02*
X135944Y-47047D01*
X136141Y-56692D02*
X136141Y-47244D01*
X136141Y-57007D02*
X136141Y-56692D01*
X135944Y-57204D02*
X136141Y-57007D01*
X135944Y-57677D02*
X135944Y-57204D01*
X135944Y-45866D02*
X135944Y-47047D01*
X136141Y-35433D02*
X135944Y-35236D01*
X136141Y-44921D02*
X136141Y-35433D01*
X136141Y-45196D02*
X136141Y-44921D01*
X135944Y-45393D02*
X136141Y-45196D01*
X135944Y-45866D02*
X135944Y-45393D01*
X136141Y-56712D02*
X136122Y-56692D01*
X136122Y-56692D02*
X136102Y-56692D01*
X136102Y-56692D02*
X136141Y-56692D01*
X135629Y-56712D02*
X136141Y-56712D01*
X136141Y-68523D02*
X136141Y-68543D01*
X135629Y-68523D02*
X136141Y-68523D01*
X136141Y-44901D02*
X136141Y-44921D01*
X135629Y-44901D02*
X136141Y-44901D01*
G54D15*
X119881Y-66436D02*
X119881Y-67697D01*
X121456Y-66436D02*
X121456Y-67697D01*
X118307Y-66436D02*
X118307Y-67697D01*
X116732Y-66436D02*
X116732Y-67697D01*
X115157Y-66436D02*
X115157Y-67697D01*
X123031Y-66436D02*
X123031Y-67697D01*
X124606Y-66436D02*
X124606Y-67697D01*
X126181Y-66436D02*
X126181Y-67697D01*
X129330Y-66436D02*
X129330Y-67697D01*
X127755Y-66436D02*
X127755Y-67697D01*
X143503Y-66436D02*
X143503Y-67697D01*
X145078Y-66436D02*
X145078Y-67697D01*
X141929Y-66436D02*
X141929Y-67697D01*
X140354Y-66436D02*
X140354Y-67697D01*
X138779Y-66436D02*
X138779Y-67697D01*
X130905Y-66436D02*
X130905Y-67697D01*
X132480Y-66436D02*
X132480Y-67697D01*
X134055Y-66436D02*
X134055Y-67697D01*
X137204Y-66436D02*
X137204Y-67697D01*
X135629Y-66436D02*
X135629Y-67697D01*
X119881Y-51949D02*
X119881Y-48838D01*
X121456Y-51949D02*
X121456Y-48838D01*
X118307Y-51949D02*
X118307Y-48838D01*
X116732Y-51949D02*
X116732Y-48838D01*
X115157Y-51949D02*
X115157Y-48838D01*
X123031Y-51949D02*
X123031Y-48838D01*
X124606Y-51949D02*
X124606Y-48838D01*
X126181Y-51949D02*
X126181Y-48838D01*
X129330Y-51949D02*
X129330Y-48838D01*
X127755Y-51949D02*
X127755Y-48838D01*
X143503Y-51949D02*
X143503Y-48838D01*
X145078Y-51949D02*
X145078Y-48838D01*
X141929Y-51949D02*
X141929Y-48838D01*
X140354Y-51949D02*
X140354Y-48838D01*
X138779Y-51949D02*
X138779Y-48838D01*
X130905Y-51949D02*
X130905Y-48838D01*
X132480Y-51949D02*
X132480Y-48838D01*
X134055Y-51949D02*
X134055Y-48838D01*
X137204Y-51949D02*
X137204Y-48838D01*
X135629Y-51949D02*
X135629Y-48838D01*
X119881Y-53957D02*
X119881Y-52775D01*
X121456Y-53957D02*
X121456Y-52775D01*
X118307Y-53957D02*
X118307Y-52775D01*
X116732Y-53957D02*
X116732Y-52775D01*
X115157Y-53957D02*
X115157Y-52775D01*
X123031Y-53957D02*
X123031Y-52775D01*
X124606Y-53957D02*
X124606Y-52775D01*
X126181Y-53957D02*
X126181Y-52775D01*
X129330Y-53957D02*
X129330Y-52775D01*
X127755Y-53957D02*
X127755Y-52775D01*
X143503Y-53957D02*
X143503Y-52775D01*
X145078Y-53957D02*
X145078Y-52775D01*
X141929Y-53957D02*
X141929Y-52775D01*
X140354Y-53957D02*
X140354Y-52775D01*
X138779Y-53957D02*
X138779Y-52775D01*
X130905Y-53957D02*
X130905Y-52775D01*
X132480Y-53957D02*
X132480Y-52775D01*
X134055Y-53957D02*
X134055Y-52775D01*
X137204Y-53957D02*
X137204Y-52775D01*
X135629Y-53957D02*
X135629Y-52775D01*
X119881Y-54625D02*
X119881Y-55886D01*
X121456Y-54625D02*
X121456Y-55886D01*
X118307Y-54625D02*
X118307Y-55886D01*
X116732Y-54625D02*
X116732Y-55886D01*
X115157Y-54625D02*
X115157Y-55886D01*
X123031Y-54625D02*
X123031Y-55886D01*
X124606Y-54625D02*
X124606Y-55886D01*
X126181Y-54625D02*
X126181Y-55886D01*
X129330Y-54625D02*
X129330Y-55886D01*
X127755Y-54625D02*
X127755Y-55886D01*
X143503Y-54625D02*
X143503Y-55886D01*
X145078Y-54625D02*
X145078Y-55886D01*
X141929Y-54625D02*
X141929Y-55886D01*
X140354Y-54625D02*
X140354Y-55886D01*
X138779Y-54625D02*
X138779Y-55886D01*
X130905Y-54625D02*
X130905Y-55886D01*
X132480Y-54625D02*
X132480Y-55886D01*
X134055Y-54625D02*
X134055Y-55886D01*
X137204Y-54625D02*
X137204Y-55886D01*
X135629Y-54625D02*
X135629Y-55886D01*
X119881Y-40138D02*
X119881Y-37027D01*
X121456Y-40138D02*
X121456Y-37027D01*
X118307Y-40138D02*
X118307Y-37027D01*
X116732Y-40138D02*
X116732Y-37027D01*
X115157Y-40138D02*
X115157Y-37027D01*
X123031Y-40138D02*
X123031Y-37027D01*
X124606Y-40138D02*
X124606Y-37027D01*
X126181Y-40138D02*
X126181Y-37027D01*
X129330Y-40138D02*
X129330Y-37027D01*
X127755Y-40138D02*
X127755Y-37027D01*
X143503Y-40138D02*
X143503Y-37027D01*
X145078Y-40138D02*
X145078Y-37027D01*
X141929Y-40138D02*
X141929Y-37027D01*
X140354Y-40138D02*
X140354Y-37027D01*
X138779Y-40138D02*
X138779Y-37027D01*
X130905Y-40138D02*
X130905Y-37027D01*
X132480Y-40138D02*
X132480Y-37027D01*
X134055Y-40138D02*
X134055Y-37027D01*
X137204Y-40138D02*
X137204Y-37027D01*
X135629Y-40138D02*
X135629Y-37027D01*
X119881Y-42146D02*
X119881Y-40964D01*
X121456Y-42146D02*
X121456Y-40964D01*
X118307Y-42146D02*
X118307Y-40964D01*
X116732Y-42146D02*
X116732Y-40964D01*
X115157Y-42146D02*
X115157Y-40964D01*
X123031Y-42146D02*
X123031Y-40964D01*
X124606Y-42146D02*
X124606Y-40964D01*
X126181Y-42146D02*
X126181Y-40964D01*
X129330Y-42146D02*
X129330Y-40964D01*
X127755Y-42146D02*
X127755Y-40964D01*
X143503Y-42146D02*
X143503Y-40964D01*
X145078Y-42146D02*
X145078Y-40964D01*
X141929Y-42146D02*
X141929Y-40964D01*
X140354Y-42146D02*
X140354Y-40964D01*
X138779Y-42146D02*
X138779Y-40964D01*
X130905Y-42146D02*
X130905Y-40964D01*
X132480Y-42146D02*
X132480Y-40964D01*
X134055Y-42146D02*
X134055Y-40964D01*
X137204Y-42146D02*
X137204Y-40964D01*
X135629Y-42146D02*
X135629Y-40964D01*
X119881Y-44075D02*
X119881Y-42814D01*
X121456Y-44075D02*
X121456Y-42814D01*
X118307Y-44075D02*
X118307Y-42814D01*
X116732Y-44075D02*
X116732Y-42814D01*
X115157Y-44075D02*
X115157Y-42814D01*
X123031Y-44075D02*
X123031Y-42814D01*
X124606Y-44075D02*
X124606Y-42814D01*
X126181Y-44075D02*
X126181Y-42814D01*
X129330Y-44075D02*
X129330Y-42814D01*
X127755Y-44075D02*
X127755Y-42814D01*
X143503Y-44075D02*
X143503Y-42814D01*
X145078Y-44075D02*
X145078Y-42814D01*
X141929Y-44075D02*
X141929Y-42814D01*
X140354Y-44075D02*
X140354Y-42814D01*
X138779Y-44075D02*
X138779Y-42814D01*
X130905Y-44075D02*
X130905Y-42814D01*
X132480Y-44075D02*
X132480Y-42814D01*
X134055Y-44075D02*
X134055Y-42814D01*
X137204Y-44075D02*
X137204Y-42814D01*
X135629Y-44075D02*
X135629Y-42814D01*
M02*
