%FSLAX34Y34*%
G04 Gerber Fmt 3.4, Leading zero omitted, Abs format*
G04 (created by PCBNEW (2014-05-23 BZR 4886)-product) date Sat 24 May 2014 05:26:00 PM CEST*
%MOIN*%
G01*
G70*
G90*
G04 APERTURE LIST*
%ADD10C,0.005906*%
%ADD11R,0.039370X0.098425*%
%ADD12R,0.043300X0.039300*%
%ADD13R,0.059055X0.047244*%
%ADD14C,0.039370*%
%ADD15C,0.020000*%
G04 APERTURE END LIST*
G54D10*
G54D11*
X145433Y-58858D03*
X144724Y-58858D03*
X143858Y-58858D03*
X143149Y-58858D03*
X142283Y-58858D03*
X141574Y-58858D03*
X140708Y-58858D03*
X140000Y-58858D03*
X139133Y-58858D03*
X138425Y-58858D03*
X137559Y-58858D03*
X136850Y-58858D03*
X135984Y-58858D03*
X135275Y-58858D03*
X134409Y-58858D03*
X133700Y-58858D03*
X132834Y-58858D03*
X132125Y-58858D03*
X131259Y-58858D03*
X130551Y-58858D03*
X129685Y-58858D03*
X128976Y-58858D03*
X128110Y-58858D03*
X127401Y-58858D03*
X126535Y-58858D03*
X125826Y-58858D03*
X124960Y-58858D03*
X124251Y-58858D03*
X123385Y-58858D03*
X122677Y-58858D03*
X121811Y-58858D03*
X121102Y-58858D03*
X120236Y-58858D03*
X119527Y-58858D03*
X118661Y-58858D03*
X117952Y-58858D03*
X117086Y-58858D03*
X116377Y-58858D03*
X115511Y-58858D03*
X114803Y-58858D03*
X145433Y-47047D03*
X144724Y-47047D03*
X143858Y-47047D03*
X143149Y-47047D03*
X142283Y-47047D03*
X141574Y-47047D03*
X140708Y-47047D03*
X140000Y-47047D03*
X139133Y-47047D03*
X138425Y-47047D03*
X137559Y-47047D03*
X136850Y-47047D03*
X135984Y-47047D03*
X135275Y-47047D03*
X134409Y-47047D03*
X133700Y-47047D03*
X132834Y-47047D03*
X132125Y-47047D03*
X131259Y-47047D03*
X130551Y-47047D03*
X129685Y-47047D03*
X128976Y-47047D03*
X128110Y-47047D03*
X127401Y-47047D03*
X126535Y-47047D03*
X125826Y-47047D03*
X124960Y-47047D03*
X124251Y-47047D03*
X123385Y-47047D03*
X122677Y-47047D03*
X121811Y-47047D03*
X121102Y-47047D03*
X120236Y-47047D03*
X119527Y-47047D03*
X118661Y-47047D03*
X117952Y-47047D03*
X117086Y-47047D03*
X116377Y-47047D03*
X115511Y-47047D03*
X114803Y-47047D03*
G54D12*
X118307Y-53957D03*
X118307Y-54625D03*
X118307Y-65768D03*
X118307Y-66436D03*
X118307Y-42146D03*
X118307Y-42814D03*
G54D13*
X118307Y-36201D03*
X118307Y-37027D03*
X118307Y-48012D03*
X118307Y-48838D03*
X118307Y-51949D03*
X118307Y-52775D03*
X118307Y-55886D03*
X118307Y-56712D03*
X118307Y-59823D03*
X118307Y-60649D03*
X118307Y-63760D03*
X118307Y-64586D03*
X118307Y-67697D03*
X118307Y-68523D03*
X118307Y-40138D03*
X118307Y-40964D03*
X118307Y-44075D03*
X118307Y-44901D03*
G54D11*
X118661Y-35236D03*
X117952Y-35236D03*
X118661Y-57677D03*
X117952Y-57677D03*
X118661Y-45866D03*
X117952Y-45866D03*
X118661Y-69488D03*
X117952Y-69488D03*
X120236Y-69488D03*
X119527Y-69488D03*
X120236Y-45866D03*
X119527Y-45866D03*
X120236Y-57677D03*
X119527Y-57677D03*
X120236Y-35236D03*
X119527Y-35236D03*
G54D13*
X119881Y-44075D03*
X119881Y-44901D03*
X119881Y-40138D03*
X119881Y-40964D03*
X119881Y-67697D03*
X119881Y-68523D03*
X119881Y-63760D03*
X119881Y-64586D03*
X119881Y-59823D03*
X119881Y-60649D03*
X119881Y-55886D03*
X119881Y-56712D03*
X119881Y-51949D03*
X119881Y-52775D03*
X119881Y-48012D03*
X119881Y-48838D03*
X119881Y-36201D03*
X119881Y-37027D03*
G54D12*
X119881Y-42146D03*
X119881Y-42814D03*
X119881Y-65768D03*
X119881Y-66436D03*
X119881Y-53957D03*
X119881Y-54625D03*
X116732Y-53957D03*
X116732Y-54625D03*
X116732Y-65768D03*
X116732Y-66436D03*
X116732Y-42146D03*
X116732Y-42814D03*
G54D13*
X116732Y-36201D03*
X116732Y-37027D03*
X116732Y-48012D03*
X116732Y-48838D03*
X116732Y-51949D03*
X116732Y-52775D03*
X116732Y-55886D03*
X116732Y-56712D03*
X116732Y-59823D03*
X116732Y-60649D03*
X116732Y-63760D03*
X116732Y-64586D03*
X116732Y-67697D03*
X116732Y-68523D03*
X116732Y-40138D03*
X116732Y-40964D03*
X116732Y-44075D03*
X116732Y-44901D03*
G54D11*
X117086Y-35236D03*
X116377Y-35236D03*
X117086Y-57677D03*
X116377Y-57677D03*
X117086Y-45866D03*
X116377Y-45866D03*
X117086Y-69488D03*
X116377Y-69488D03*
X115511Y-69488D03*
X114803Y-69488D03*
X115511Y-45866D03*
X114803Y-45866D03*
X115511Y-57677D03*
X114803Y-57677D03*
X115511Y-35236D03*
X114803Y-35236D03*
G54D13*
X115157Y-44075D03*
X115157Y-44901D03*
X115157Y-40138D03*
X115157Y-40964D03*
X115157Y-67697D03*
X115157Y-68523D03*
X115157Y-63760D03*
X115157Y-64586D03*
X115157Y-59823D03*
X115157Y-60649D03*
X115157Y-55886D03*
X115157Y-56712D03*
X115157Y-51949D03*
X115157Y-52775D03*
X115157Y-48012D03*
X115157Y-48838D03*
X115157Y-36201D03*
X115157Y-37027D03*
G54D12*
X115157Y-42146D03*
X115157Y-42814D03*
X115157Y-65768D03*
X115157Y-66436D03*
X115157Y-53957D03*
X115157Y-54625D03*
X121456Y-53957D03*
X121456Y-54625D03*
X121456Y-65768D03*
X121456Y-66436D03*
X121456Y-42146D03*
X121456Y-42814D03*
G54D13*
X121456Y-36201D03*
X121456Y-37027D03*
X121456Y-48012D03*
X121456Y-48838D03*
X121456Y-51949D03*
X121456Y-52775D03*
X121456Y-55886D03*
X121456Y-56712D03*
X121456Y-59823D03*
X121456Y-60649D03*
X121456Y-63760D03*
X121456Y-64586D03*
X121456Y-67697D03*
X121456Y-68523D03*
X121456Y-40138D03*
X121456Y-40964D03*
X121456Y-44075D03*
X121456Y-44901D03*
G54D11*
X121811Y-35236D03*
X121102Y-35236D03*
X121811Y-57677D03*
X121102Y-57677D03*
X121811Y-45866D03*
X121102Y-45866D03*
X121811Y-69488D03*
X121102Y-69488D03*
X129685Y-69488D03*
X128976Y-69488D03*
X129685Y-45866D03*
X128976Y-45866D03*
X129685Y-57677D03*
X128976Y-57677D03*
X129685Y-35236D03*
X128976Y-35236D03*
G54D13*
X129330Y-44075D03*
X129330Y-44901D03*
X129330Y-40138D03*
X129330Y-40964D03*
X129330Y-67697D03*
X129330Y-68523D03*
X129330Y-63760D03*
X129330Y-64586D03*
X129330Y-59823D03*
X129330Y-60649D03*
X129330Y-55886D03*
X129330Y-56712D03*
X129330Y-51949D03*
X129330Y-52775D03*
X129330Y-48012D03*
X129330Y-48838D03*
X129330Y-36201D03*
X129330Y-37027D03*
G54D12*
X129330Y-42146D03*
X129330Y-42814D03*
X129330Y-65768D03*
X129330Y-66436D03*
X129330Y-53957D03*
X129330Y-54625D03*
X123031Y-53957D03*
X123031Y-54625D03*
X123031Y-65768D03*
X123031Y-66436D03*
X123031Y-42146D03*
X123031Y-42814D03*
G54D13*
X123031Y-36201D03*
X123031Y-37027D03*
X123031Y-48012D03*
X123031Y-48838D03*
X123031Y-51949D03*
X123031Y-52775D03*
X123031Y-55886D03*
X123031Y-56712D03*
X123031Y-59823D03*
X123031Y-60649D03*
X123031Y-63760D03*
X123031Y-64586D03*
X123031Y-67697D03*
X123031Y-68523D03*
X123031Y-40138D03*
X123031Y-40964D03*
X123031Y-44075D03*
X123031Y-44901D03*
G54D11*
X123385Y-35236D03*
X122677Y-35236D03*
X123385Y-57677D03*
X122677Y-57677D03*
X123385Y-45866D03*
X122677Y-45866D03*
X123385Y-69488D03*
X122677Y-69488D03*
X124960Y-69488D03*
X124251Y-69488D03*
X124960Y-45866D03*
X124251Y-45866D03*
X124960Y-57677D03*
X124251Y-57677D03*
X124960Y-35236D03*
X124251Y-35236D03*
G54D13*
X124606Y-44075D03*
X124606Y-44901D03*
X124606Y-40138D03*
X124606Y-40964D03*
X124606Y-67697D03*
X124606Y-68523D03*
X124606Y-63760D03*
X124606Y-64586D03*
X124606Y-59823D03*
X124606Y-60649D03*
X124606Y-55886D03*
X124606Y-56712D03*
X124606Y-51949D03*
X124606Y-52775D03*
X124606Y-48012D03*
X124606Y-48838D03*
X124606Y-36201D03*
X124606Y-37027D03*
G54D12*
X124606Y-42146D03*
X124606Y-42814D03*
X124606Y-65768D03*
X124606Y-66436D03*
X124606Y-53957D03*
X124606Y-54625D03*
X127755Y-53957D03*
X127755Y-54625D03*
X127755Y-65768D03*
X127755Y-66436D03*
X127755Y-42146D03*
X127755Y-42814D03*
G54D13*
X127755Y-36201D03*
X127755Y-37027D03*
X127755Y-48012D03*
X127755Y-48838D03*
X127755Y-51949D03*
X127755Y-52775D03*
X127755Y-55886D03*
X127755Y-56712D03*
X127755Y-59823D03*
X127755Y-60649D03*
X127755Y-63760D03*
X127755Y-64586D03*
X127755Y-67697D03*
X127755Y-68523D03*
X127755Y-40138D03*
X127755Y-40964D03*
X127755Y-44075D03*
X127755Y-44901D03*
G54D11*
X128110Y-35236D03*
X127401Y-35236D03*
X128110Y-57677D03*
X127401Y-57677D03*
X128110Y-45866D03*
X127401Y-45866D03*
X128110Y-69488D03*
X127401Y-69488D03*
X126535Y-69488D03*
X125826Y-69488D03*
X126535Y-45866D03*
X125826Y-45866D03*
X126535Y-57677D03*
X125826Y-57677D03*
X126535Y-35236D03*
X125826Y-35236D03*
G54D13*
X126181Y-44075D03*
X126181Y-44901D03*
X126181Y-40138D03*
X126181Y-40964D03*
X126181Y-67697D03*
X126181Y-68523D03*
X126181Y-63760D03*
X126181Y-64586D03*
X126181Y-59823D03*
X126181Y-60649D03*
X126181Y-55886D03*
X126181Y-56712D03*
X126181Y-51949D03*
X126181Y-52775D03*
X126181Y-48012D03*
X126181Y-48838D03*
X126181Y-36201D03*
X126181Y-37027D03*
G54D12*
X126181Y-42146D03*
X126181Y-42814D03*
X126181Y-65768D03*
X126181Y-66436D03*
X126181Y-53957D03*
X126181Y-54625D03*
X141929Y-53957D03*
X141929Y-54625D03*
X141929Y-65768D03*
X141929Y-66436D03*
X141929Y-42146D03*
X141929Y-42814D03*
G54D13*
X141929Y-36201D03*
X141929Y-37027D03*
X141929Y-48012D03*
X141929Y-48838D03*
X141929Y-51949D03*
X141929Y-52775D03*
X141929Y-55886D03*
X141929Y-56712D03*
X141929Y-59823D03*
X141929Y-60649D03*
X141929Y-63760D03*
X141929Y-64586D03*
X141929Y-67697D03*
X141929Y-68523D03*
X141929Y-40138D03*
X141929Y-40964D03*
X141929Y-44075D03*
X141929Y-44901D03*
G54D11*
X142283Y-35236D03*
X141574Y-35236D03*
X142283Y-57677D03*
X141574Y-57677D03*
X142283Y-45866D03*
X141574Y-45866D03*
X142283Y-69488D03*
X141574Y-69488D03*
X143858Y-69488D03*
X143149Y-69488D03*
X143858Y-45866D03*
X143149Y-45866D03*
X143858Y-57677D03*
X143149Y-57677D03*
X143858Y-35236D03*
X143149Y-35236D03*
G54D13*
X143503Y-44075D03*
X143503Y-44901D03*
X143503Y-40138D03*
X143503Y-40964D03*
X143503Y-67697D03*
X143503Y-68523D03*
X143503Y-63760D03*
X143503Y-64586D03*
X143503Y-59823D03*
X143503Y-60649D03*
X143503Y-55886D03*
X143503Y-56712D03*
X143503Y-51949D03*
X143503Y-52775D03*
X143503Y-48012D03*
X143503Y-48838D03*
X143503Y-36201D03*
X143503Y-37027D03*
G54D12*
X143503Y-42146D03*
X143503Y-42814D03*
X143503Y-65768D03*
X143503Y-66436D03*
X143503Y-53957D03*
X143503Y-54625D03*
X140354Y-53957D03*
X140354Y-54625D03*
X140354Y-65768D03*
X140354Y-66436D03*
X140354Y-42146D03*
X140354Y-42814D03*
G54D13*
X140354Y-36201D03*
X140354Y-37027D03*
X140354Y-48012D03*
X140354Y-48838D03*
X140354Y-51949D03*
X140354Y-52775D03*
X140354Y-55886D03*
X140354Y-56712D03*
X140354Y-59823D03*
X140354Y-60649D03*
X140354Y-63760D03*
X140354Y-64586D03*
X140354Y-67697D03*
X140354Y-68523D03*
X140354Y-40138D03*
X140354Y-40964D03*
X140354Y-44075D03*
X140354Y-44901D03*
G54D11*
X140708Y-35236D03*
X140000Y-35236D03*
X140708Y-57677D03*
X140000Y-57677D03*
X140708Y-45866D03*
X140000Y-45866D03*
X140708Y-69488D03*
X140000Y-69488D03*
X139133Y-69488D03*
X138425Y-69488D03*
X139133Y-45866D03*
X138425Y-45866D03*
X139133Y-57677D03*
X138425Y-57677D03*
X139133Y-35236D03*
X138425Y-35236D03*
G54D13*
X138779Y-44075D03*
X138779Y-44901D03*
X138779Y-40138D03*
X138779Y-40964D03*
X138779Y-67697D03*
X138779Y-68523D03*
X138779Y-63760D03*
X138779Y-64586D03*
X138779Y-59823D03*
X138779Y-60649D03*
X138779Y-55886D03*
X138779Y-56712D03*
X138779Y-51949D03*
X138779Y-52775D03*
X138779Y-48012D03*
X138779Y-48838D03*
X138779Y-36201D03*
X138779Y-37027D03*
G54D12*
X138779Y-42146D03*
X138779Y-42814D03*
X138779Y-65768D03*
X138779Y-66436D03*
X138779Y-53957D03*
X138779Y-54625D03*
X145078Y-53957D03*
X145078Y-54625D03*
X145078Y-65768D03*
X145078Y-66436D03*
X145078Y-42146D03*
X145078Y-42814D03*
G54D13*
X145078Y-36201D03*
X145078Y-37027D03*
X145078Y-48012D03*
X145078Y-48838D03*
X145078Y-51949D03*
X145078Y-52775D03*
X145078Y-55886D03*
X145078Y-56712D03*
X145078Y-59823D03*
X145078Y-60649D03*
X145078Y-63760D03*
X145078Y-64586D03*
X145078Y-67697D03*
X145078Y-68523D03*
X145078Y-40138D03*
X145078Y-40964D03*
X145078Y-44075D03*
X145078Y-44901D03*
G54D11*
X145433Y-35236D03*
X144724Y-35236D03*
X145433Y-57677D03*
X144724Y-57677D03*
X145433Y-45866D03*
X144724Y-45866D03*
X145433Y-69488D03*
X144724Y-69488D03*
X137559Y-69488D03*
X136850Y-69488D03*
X137559Y-45866D03*
X136850Y-45866D03*
X137559Y-57677D03*
X136850Y-57677D03*
X137559Y-35236D03*
X136850Y-35236D03*
G54D13*
X137204Y-44075D03*
X137204Y-44901D03*
X137204Y-40138D03*
X137204Y-40964D03*
X137204Y-67697D03*
X137204Y-68523D03*
X137204Y-63760D03*
X137204Y-64586D03*
X137204Y-59823D03*
X137204Y-60649D03*
X137204Y-55886D03*
X137204Y-56712D03*
X137204Y-51949D03*
X137204Y-52775D03*
X137204Y-48012D03*
X137204Y-48838D03*
X137204Y-36201D03*
X137204Y-37027D03*
G54D12*
X137204Y-42146D03*
X137204Y-42814D03*
X137204Y-65768D03*
X137204Y-66436D03*
X137204Y-53957D03*
X137204Y-54625D03*
X130905Y-53957D03*
X130905Y-54625D03*
X130905Y-65768D03*
X130905Y-66436D03*
X130905Y-42146D03*
X130905Y-42814D03*
G54D13*
X130905Y-36201D03*
X130905Y-37027D03*
X130905Y-48012D03*
X130905Y-48838D03*
X130905Y-51949D03*
X130905Y-52775D03*
X130905Y-55886D03*
X130905Y-56712D03*
X130905Y-59823D03*
X130905Y-60649D03*
X130905Y-63760D03*
X130905Y-64586D03*
X130905Y-67697D03*
X130905Y-68523D03*
X130905Y-40138D03*
X130905Y-40964D03*
X130905Y-44075D03*
X130905Y-44901D03*
G54D11*
X131259Y-35236D03*
X130551Y-35236D03*
X131259Y-57677D03*
X130551Y-57677D03*
X131259Y-45866D03*
X130551Y-45866D03*
X131259Y-69488D03*
X130551Y-69488D03*
X132834Y-69488D03*
X132125Y-69488D03*
X132834Y-45866D03*
X132125Y-45866D03*
X132834Y-57677D03*
X132125Y-57677D03*
X132834Y-35236D03*
X132125Y-35236D03*
G54D13*
X132480Y-44075D03*
X132480Y-44901D03*
X132480Y-40138D03*
X132480Y-40964D03*
X132480Y-67697D03*
X132480Y-68523D03*
X132480Y-63760D03*
X132480Y-64586D03*
X132480Y-59823D03*
X132480Y-60649D03*
X132480Y-55886D03*
X132480Y-56712D03*
X132480Y-51949D03*
X132480Y-52775D03*
X132480Y-48012D03*
X132480Y-48838D03*
X132480Y-36201D03*
X132480Y-37027D03*
G54D12*
X132480Y-42146D03*
X132480Y-42814D03*
X132480Y-65768D03*
X132480Y-66436D03*
X132480Y-53957D03*
X132480Y-54625D03*
X135629Y-53957D03*
X135629Y-54625D03*
X135629Y-65768D03*
X135629Y-66436D03*
X135629Y-42146D03*
X135629Y-42814D03*
G54D13*
X135629Y-36201D03*
X135629Y-37027D03*
X135629Y-48012D03*
X135629Y-48838D03*
X135629Y-51949D03*
X135629Y-52775D03*
X135629Y-55886D03*
X135629Y-56712D03*
X135629Y-59823D03*
X135629Y-60649D03*
X135629Y-63760D03*
X135629Y-64586D03*
X135629Y-67697D03*
X135629Y-68523D03*
X135629Y-40138D03*
X135629Y-40964D03*
X135629Y-44075D03*
X135629Y-44901D03*
G54D11*
X135984Y-35236D03*
X135275Y-35236D03*
X135984Y-57677D03*
X135275Y-57677D03*
X135984Y-45866D03*
X135275Y-45866D03*
X135984Y-69488D03*
X135275Y-69488D03*
G54D14*
X147834Y-71259D03*
X147834Y-33464D03*
X112401Y-33464D03*
X112401Y-71259D03*
G54D11*
X134409Y-69488D03*
X133700Y-69488D03*
X134409Y-45866D03*
X133700Y-45866D03*
X134409Y-57677D03*
X133700Y-57677D03*
X134409Y-35236D03*
X133700Y-35236D03*
G54D13*
X134055Y-44075D03*
X134055Y-44901D03*
X134055Y-40138D03*
X134055Y-40964D03*
X134055Y-67697D03*
X134055Y-68523D03*
X134055Y-63760D03*
X134055Y-64586D03*
X134055Y-59823D03*
X134055Y-60649D03*
X134055Y-55886D03*
X134055Y-56712D03*
X134055Y-51949D03*
X134055Y-52775D03*
X134055Y-48012D03*
X134055Y-48838D03*
X134055Y-36201D03*
X134055Y-37027D03*
G54D12*
X134055Y-42146D03*
X134055Y-42814D03*
X134055Y-65768D03*
X134055Y-66436D03*
X134055Y-53957D03*
X134055Y-54625D03*
G54D15*
X137204Y-61085D02*
X137204Y-63760D01*
X137204Y-60649D02*
X137204Y-61085D01*
X130905Y-60649D02*
X130905Y-61085D01*
X130905Y-61085D02*
X130905Y-63760D01*
X132480Y-61085D02*
X132480Y-63760D01*
X132480Y-60649D02*
X132480Y-61085D01*
X135629Y-60649D02*
X135629Y-61085D01*
X135629Y-61085D02*
X135629Y-63760D01*
X134055Y-61085D02*
X134055Y-63760D01*
X134055Y-60649D02*
X134055Y-61085D01*
X141929Y-60649D02*
X141929Y-61085D01*
X141929Y-61085D02*
X141929Y-63760D01*
X143503Y-61085D02*
X143503Y-63760D01*
X143503Y-60649D02*
X143503Y-61085D01*
X140354Y-60649D02*
X140354Y-61085D01*
X140354Y-61085D02*
X140354Y-63760D01*
X138779Y-61085D02*
X138779Y-63760D01*
X138779Y-60649D02*
X138779Y-61085D01*
X145078Y-60649D02*
X145078Y-61085D01*
X145078Y-61085D02*
X145078Y-63760D01*
X129330Y-61085D02*
X129330Y-63760D01*
X129330Y-60649D02*
X129330Y-61085D01*
X123031Y-60649D02*
X123031Y-61085D01*
X123031Y-61085D02*
X123031Y-63760D01*
X124606Y-61085D02*
X124606Y-63760D01*
X124606Y-60649D02*
X124606Y-61085D01*
X127755Y-60649D02*
X127755Y-61085D01*
X127755Y-61085D02*
X127755Y-63760D01*
X126181Y-61085D02*
X126181Y-63760D01*
X126181Y-60649D02*
X126181Y-61085D01*
X118307Y-60649D02*
X118307Y-61085D01*
X118307Y-61085D02*
X118307Y-63760D01*
X119881Y-61085D02*
X119881Y-63760D01*
X119881Y-60649D02*
X119881Y-61085D01*
X116732Y-60649D02*
X116732Y-61085D01*
X116732Y-61085D02*
X116732Y-63760D01*
X115157Y-61085D02*
X115157Y-63760D01*
X115157Y-60649D02*
X115157Y-61085D01*
X121456Y-60649D02*
X121456Y-61085D01*
X121456Y-61085D02*
X121456Y-63760D01*
X137204Y-64586D02*
X137204Y-65768D01*
X130905Y-64586D02*
X130905Y-65768D01*
X132480Y-64586D02*
X132480Y-65768D01*
X135629Y-64586D02*
X135629Y-65768D01*
X134055Y-64586D02*
X134055Y-65768D01*
X141929Y-64586D02*
X141929Y-65768D01*
X143503Y-64586D02*
X143503Y-65768D01*
X140354Y-64586D02*
X140354Y-65768D01*
X138779Y-64586D02*
X138779Y-65768D01*
X145078Y-64586D02*
X145078Y-65768D01*
X129330Y-64586D02*
X129330Y-65768D01*
X123031Y-64586D02*
X123031Y-65768D01*
X124606Y-64586D02*
X124606Y-65768D01*
X127755Y-64586D02*
X127755Y-65768D01*
X126181Y-64586D02*
X126181Y-65768D01*
X118307Y-64586D02*
X118307Y-65768D01*
X119881Y-64586D02*
X119881Y-65768D01*
X116732Y-64586D02*
X116732Y-65768D01*
X115157Y-64586D02*
X115157Y-65768D01*
X121456Y-64586D02*
X121456Y-65768D01*
X136850Y-35236D02*
X136850Y-35928D01*
X136850Y-35928D02*
X136712Y-36066D01*
X136712Y-36066D02*
X136712Y-45433D01*
X136712Y-45433D02*
X136850Y-45570D01*
X136850Y-45570D02*
X136850Y-45866D01*
X136850Y-35846D02*
X137204Y-36201D01*
X136850Y-35236D02*
X136850Y-35846D01*
X136850Y-45866D02*
X136850Y-47047D01*
X136850Y-47657D02*
X137204Y-48012D01*
X136850Y-47047D02*
X136850Y-47657D01*
X136850Y-57677D02*
X136850Y-58858D01*
X136850Y-59468D02*
X137204Y-59823D01*
X136850Y-58858D02*
X136850Y-59468D01*
X136850Y-47739D02*
X136850Y-47047D01*
X136729Y-47860D02*
X136850Y-47739D01*
X136729Y-57260D02*
X136729Y-47860D01*
X136850Y-57381D02*
X136729Y-57260D01*
X136850Y-57677D02*
X136850Y-57381D01*
X136850Y-59550D02*
X136850Y-58858D01*
X136729Y-59671D02*
X136850Y-59550D01*
X136712Y-69055D02*
X136850Y-69192D01*
X136850Y-69192D02*
X136850Y-69488D01*
X136712Y-59688D02*
X136712Y-69055D01*
X136850Y-59550D02*
X136712Y-59688D01*
X130551Y-59550D02*
X130413Y-59688D01*
X130413Y-59688D02*
X130413Y-69055D01*
X130551Y-69192D02*
X130551Y-69488D01*
X130413Y-69055D02*
X130551Y-69192D01*
X130430Y-59671D02*
X130551Y-59550D01*
X130551Y-59550D02*
X130551Y-58858D01*
X130551Y-57677D02*
X130551Y-57381D01*
X130551Y-57381D02*
X130430Y-57260D01*
X130430Y-57260D02*
X130430Y-47860D01*
X130430Y-47860D02*
X130551Y-47739D01*
X130551Y-47739D02*
X130551Y-47047D01*
X130551Y-58858D02*
X130551Y-59468D01*
X130551Y-59468D02*
X130905Y-59823D01*
X130551Y-57677D02*
X130551Y-58858D01*
X130551Y-47047D02*
X130551Y-47657D01*
X130551Y-47657D02*
X130905Y-48012D01*
X130551Y-45866D02*
X130551Y-47047D01*
X130551Y-35236D02*
X130551Y-35846D01*
X130551Y-35846D02*
X130905Y-36201D01*
X130551Y-45570D02*
X130551Y-45866D01*
X130413Y-45433D02*
X130551Y-45570D01*
X130413Y-36066D02*
X130413Y-45433D01*
X130551Y-35928D02*
X130413Y-36066D01*
X130551Y-35236D02*
X130551Y-35928D01*
X132125Y-35236D02*
X132125Y-35928D01*
X132125Y-35928D02*
X131988Y-36066D01*
X131988Y-36066D02*
X131988Y-45433D01*
X131988Y-45433D02*
X132125Y-45570D01*
X132125Y-45570D02*
X132125Y-45866D01*
X132125Y-35846D02*
X132480Y-36201D01*
X132125Y-35236D02*
X132125Y-35846D01*
X132125Y-45866D02*
X132125Y-47047D01*
X132125Y-47657D02*
X132480Y-48012D01*
X132125Y-47047D02*
X132125Y-47657D01*
X132125Y-57677D02*
X132125Y-58858D01*
X132125Y-59468D02*
X132480Y-59823D01*
X132125Y-58858D02*
X132125Y-59468D01*
X132125Y-47739D02*
X132125Y-47047D01*
X132005Y-47860D02*
X132125Y-47739D01*
X132005Y-57260D02*
X132005Y-47860D01*
X132125Y-57381D02*
X132005Y-57260D01*
X132125Y-57677D02*
X132125Y-57381D01*
X132125Y-59550D02*
X132125Y-58858D01*
X132005Y-59671D02*
X132125Y-59550D01*
X131988Y-69055D02*
X132125Y-69192D01*
X132125Y-69192D02*
X132125Y-69488D01*
X131988Y-59688D02*
X131988Y-69055D01*
X132125Y-59550D02*
X131988Y-59688D01*
X135275Y-59550D02*
X135137Y-59688D01*
X135137Y-59688D02*
X135137Y-69055D01*
X135275Y-69192D02*
X135275Y-69488D01*
X135137Y-69055D02*
X135275Y-69192D01*
X135154Y-59671D02*
X135275Y-59550D01*
X135275Y-59550D02*
X135275Y-58858D01*
X135275Y-57677D02*
X135275Y-57381D01*
X135275Y-57381D02*
X135154Y-57260D01*
X135154Y-57260D02*
X135154Y-47860D01*
X135154Y-47860D02*
X135275Y-47739D01*
X135275Y-47739D02*
X135275Y-47047D01*
X135275Y-58858D02*
X135275Y-59468D01*
X135275Y-59468D02*
X135629Y-59823D01*
X135275Y-57677D02*
X135275Y-58858D01*
X135275Y-47047D02*
X135275Y-47657D01*
X135275Y-47657D02*
X135629Y-48012D01*
X135275Y-45866D02*
X135275Y-47047D01*
X135275Y-35236D02*
X135275Y-35846D01*
X135275Y-35846D02*
X135629Y-36201D01*
X135275Y-45570D02*
X135275Y-45866D01*
X135137Y-45433D02*
X135275Y-45570D01*
X135137Y-36066D02*
X135137Y-45433D01*
X135275Y-35928D02*
X135137Y-36066D01*
X135275Y-35236D02*
X135275Y-35928D01*
X133700Y-35236D02*
X133700Y-35928D01*
X133700Y-35928D02*
X133562Y-36066D01*
X133562Y-36066D02*
X133562Y-45433D01*
X133562Y-45433D02*
X133700Y-45570D01*
X133700Y-45570D02*
X133700Y-45866D01*
X133700Y-35846D02*
X134055Y-36201D01*
X133700Y-35236D02*
X133700Y-35846D01*
X133700Y-45866D02*
X133700Y-47047D01*
X133700Y-47657D02*
X134055Y-48012D01*
X133700Y-47047D02*
X133700Y-47657D01*
X133700Y-57677D02*
X133700Y-58858D01*
X133700Y-59468D02*
X134055Y-59823D01*
X133700Y-58858D02*
X133700Y-59468D01*
X133700Y-47739D02*
X133700Y-47047D01*
X133579Y-47860D02*
X133700Y-47739D01*
X133579Y-57260D02*
X133579Y-47860D01*
X133700Y-57381D02*
X133579Y-57260D01*
X133700Y-57677D02*
X133700Y-57381D01*
X133700Y-59550D02*
X133700Y-58858D01*
X133579Y-59671D02*
X133700Y-59550D01*
X133562Y-69055D02*
X133700Y-69192D01*
X133700Y-69192D02*
X133700Y-69488D01*
X133562Y-59688D02*
X133562Y-69055D01*
X133700Y-59550D02*
X133562Y-59688D01*
X141574Y-59550D02*
X141437Y-59688D01*
X141437Y-59688D02*
X141437Y-69055D01*
X141574Y-69192D02*
X141574Y-69488D01*
X141437Y-69055D02*
X141574Y-69192D01*
X141453Y-59671D02*
X141574Y-59550D01*
X141574Y-59550D02*
X141574Y-58858D01*
X141574Y-57677D02*
X141574Y-57381D01*
X141574Y-57381D02*
X141453Y-57260D01*
X141453Y-57260D02*
X141453Y-47860D01*
X141453Y-47860D02*
X141574Y-47739D01*
X141574Y-47739D02*
X141574Y-47047D01*
X141574Y-58858D02*
X141574Y-59468D01*
X141574Y-59468D02*
X141929Y-59823D01*
X141574Y-57677D02*
X141574Y-58858D01*
X141574Y-47047D02*
X141574Y-47657D01*
X141574Y-47657D02*
X141929Y-48012D01*
X141574Y-45866D02*
X141574Y-47047D01*
X141574Y-35236D02*
X141574Y-35846D01*
X141574Y-35846D02*
X141929Y-36201D01*
X141574Y-45570D02*
X141574Y-45866D01*
X141437Y-45433D02*
X141574Y-45570D01*
X141437Y-36066D02*
X141437Y-45433D01*
X141574Y-35928D02*
X141437Y-36066D01*
X141574Y-35236D02*
X141574Y-35928D01*
X143149Y-35236D02*
X143149Y-35928D01*
X143149Y-35928D02*
X143011Y-36066D01*
X143011Y-36066D02*
X143011Y-45433D01*
X143011Y-45433D02*
X143149Y-45570D01*
X143149Y-45570D02*
X143149Y-45866D01*
X143149Y-35846D02*
X143503Y-36201D01*
X143149Y-35236D02*
X143149Y-35846D01*
X143149Y-45866D02*
X143149Y-47047D01*
X143149Y-47657D02*
X143503Y-48012D01*
X143149Y-47047D02*
X143149Y-47657D01*
X143149Y-57677D02*
X143149Y-58858D01*
X143149Y-59468D02*
X143503Y-59823D01*
X143149Y-58858D02*
X143149Y-59468D01*
X143149Y-47739D02*
X143149Y-47047D01*
X143028Y-47860D02*
X143149Y-47739D01*
X143028Y-57260D02*
X143028Y-47860D01*
X143149Y-57381D02*
X143028Y-57260D01*
X143149Y-57677D02*
X143149Y-57381D01*
X143149Y-59550D02*
X143149Y-58858D01*
X143028Y-59671D02*
X143149Y-59550D01*
X143011Y-69055D02*
X143149Y-69192D01*
X143149Y-69192D02*
X143149Y-69488D01*
X143011Y-59688D02*
X143011Y-69055D01*
X143149Y-59550D02*
X143011Y-59688D01*
X140000Y-59550D02*
X139862Y-59688D01*
X139862Y-59688D02*
X139862Y-69055D01*
X140000Y-69192D02*
X140000Y-69488D01*
X139862Y-69055D02*
X140000Y-69192D01*
X139879Y-59671D02*
X140000Y-59550D01*
X140000Y-59550D02*
X140000Y-58858D01*
X140000Y-57677D02*
X140000Y-57381D01*
X140000Y-57381D02*
X139879Y-57260D01*
X139879Y-57260D02*
X139879Y-47860D01*
X139879Y-47860D02*
X140000Y-47739D01*
X140000Y-47739D02*
X140000Y-47047D01*
X140000Y-58858D02*
X140000Y-59468D01*
X140000Y-59468D02*
X140354Y-59823D01*
X140000Y-57677D02*
X140000Y-58858D01*
X140000Y-47047D02*
X140000Y-47657D01*
X140000Y-47657D02*
X140354Y-48012D01*
X140000Y-45866D02*
X140000Y-47047D01*
X140000Y-35236D02*
X140000Y-35846D01*
X140000Y-35846D02*
X140354Y-36201D01*
X140000Y-45570D02*
X140000Y-45866D01*
X139862Y-45433D02*
X140000Y-45570D01*
X139862Y-36066D02*
X139862Y-45433D01*
X140000Y-35928D02*
X139862Y-36066D01*
X140000Y-35236D02*
X140000Y-35928D01*
X138425Y-35236D02*
X138425Y-35928D01*
X138425Y-35928D02*
X138287Y-36066D01*
X138287Y-36066D02*
X138287Y-45433D01*
X138287Y-45433D02*
X138425Y-45570D01*
X138425Y-45570D02*
X138425Y-45866D01*
X138425Y-35846D02*
X138779Y-36201D01*
X138425Y-35236D02*
X138425Y-35846D01*
X138425Y-45866D02*
X138425Y-47047D01*
X138425Y-47657D02*
X138779Y-48012D01*
X138425Y-47047D02*
X138425Y-47657D01*
X138425Y-57677D02*
X138425Y-58858D01*
X138425Y-59468D02*
X138779Y-59823D01*
X138425Y-58858D02*
X138425Y-59468D01*
X138425Y-47739D02*
X138425Y-47047D01*
X138304Y-47860D02*
X138425Y-47739D01*
X138304Y-57260D02*
X138304Y-47860D01*
X138425Y-57381D02*
X138304Y-57260D01*
X138425Y-57677D02*
X138425Y-57381D01*
X138425Y-59550D02*
X138425Y-58858D01*
X138304Y-59671D02*
X138425Y-59550D01*
X138287Y-69055D02*
X138425Y-69192D01*
X138425Y-69192D02*
X138425Y-69488D01*
X138287Y-59688D02*
X138287Y-69055D01*
X138425Y-59550D02*
X138287Y-59688D01*
X144724Y-59550D02*
X144586Y-59688D01*
X144586Y-59688D02*
X144586Y-69055D01*
X144724Y-69192D02*
X144724Y-69488D01*
X144586Y-69055D02*
X144724Y-69192D01*
X144603Y-59671D02*
X144724Y-59550D01*
X144724Y-59550D02*
X144724Y-58858D01*
X144724Y-57677D02*
X144724Y-57381D01*
X144724Y-57381D02*
X144603Y-57260D01*
X144603Y-57260D02*
X144603Y-47860D01*
X144603Y-47860D02*
X144724Y-47739D01*
X144724Y-47739D02*
X144724Y-47047D01*
X144724Y-58858D02*
X144724Y-59468D01*
X144724Y-59468D02*
X145078Y-59823D01*
X144724Y-57677D02*
X144724Y-58858D01*
X144724Y-47047D02*
X144724Y-47657D01*
X144724Y-47657D02*
X145078Y-48012D01*
X144724Y-45866D02*
X144724Y-47047D01*
X144724Y-35236D02*
X144724Y-35846D01*
X144724Y-35846D02*
X145078Y-36201D01*
X144724Y-45570D02*
X144724Y-45866D01*
X144586Y-45433D02*
X144724Y-45570D01*
X144586Y-36066D02*
X144586Y-45433D01*
X144724Y-35928D02*
X144586Y-36066D01*
X144724Y-35236D02*
X144724Y-35928D01*
X128976Y-35236D02*
X128976Y-35928D01*
X128976Y-35928D02*
X128838Y-36066D01*
X128838Y-36066D02*
X128838Y-45433D01*
X128838Y-45433D02*
X128976Y-45570D01*
X128976Y-45570D02*
X128976Y-45866D01*
X128976Y-35846D02*
X129330Y-36201D01*
X128976Y-35236D02*
X128976Y-35846D01*
X128976Y-45866D02*
X128976Y-47047D01*
X128976Y-47657D02*
X129330Y-48012D01*
X128976Y-47047D02*
X128976Y-47657D01*
X128976Y-57677D02*
X128976Y-58858D01*
X128976Y-59468D02*
X129330Y-59823D01*
X128976Y-58858D02*
X128976Y-59468D01*
X128976Y-47739D02*
X128976Y-47047D01*
X128855Y-47860D02*
X128976Y-47739D01*
X128855Y-57260D02*
X128855Y-47860D01*
X128976Y-57381D02*
X128855Y-57260D01*
X128976Y-57677D02*
X128976Y-57381D01*
X128976Y-59550D02*
X128976Y-58858D01*
X128855Y-59671D02*
X128976Y-59550D01*
X128838Y-69055D02*
X128976Y-69192D01*
X128976Y-69192D02*
X128976Y-69488D01*
X128838Y-59688D02*
X128838Y-69055D01*
X128976Y-59550D02*
X128838Y-59688D01*
X122677Y-59550D02*
X122539Y-59688D01*
X122539Y-59688D02*
X122539Y-69055D01*
X122677Y-69192D02*
X122677Y-69488D01*
X122539Y-69055D02*
X122677Y-69192D01*
X122556Y-59671D02*
X122677Y-59550D01*
X122677Y-59550D02*
X122677Y-58858D01*
X122677Y-57677D02*
X122677Y-57381D01*
X122677Y-57381D02*
X122556Y-57260D01*
X122556Y-57260D02*
X122556Y-47860D01*
X122556Y-47860D02*
X122677Y-47739D01*
X122677Y-47739D02*
X122677Y-47047D01*
X122677Y-58858D02*
X122677Y-59468D01*
X122677Y-59468D02*
X123031Y-59823D01*
X122677Y-57677D02*
X122677Y-58858D01*
X122677Y-47047D02*
X122677Y-47657D01*
X122677Y-47657D02*
X123031Y-48012D01*
X122677Y-45866D02*
X122677Y-47047D01*
X122677Y-35236D02*
X122677Y-35846D01*
X122677Y-35846D02*
X123031Y-36201D01*
X122677Y-45570D02*
X122677Y-45866D01*
X122539Y-45433D02*
X122677Y-45570D01*
X122539Y-36066D02*
X122539Y-45433D01*
X122677Y-35928D02*
X122539Y-36066D01*
X122677Y-35236D02*
X122677Y-35928D01*
X124251Y-35236D02*
X124251Y-35928D01*
X124251Y-35928D02*
X124114Y-36066D01*
X124114Y-36066D02*
X124114Y-45433D01*
X124114Y-45433D02*
X124251Y-45570D01*
X124251Y-45570D02*
X124251Y-45866D01*
X124251Y-35846D02*
X124606Y-36201D01*
X124251Y-35236D02*
X124251Y-35846D01*
X124251Y-45866D02*
X124251Y-47047D01*
X124251Y-47657D02*
X124606Y-48012D01*
X124251Y-47047D02*
X124251Y-47657D01*
X124251Y-57677D02*
X124251Y-58858D01*
X124251Y-59468D02*
X124606Y-59823D01*
X124251Y-58858D02*
X124251Y-59468D01*
X124251Y-47739D02*
X124251Y-47047D01*
X124131Y-47860D02*
X124251Y-47739D01*
X124131Y-57260D02*
X124131Y-47860D01*
X124251Y-57381D02*
X124131Y-57260D01*
X124251Y-57677D02*
X124251Y-57381D01*
X124251Y-59550D02*
X124251Y-58858D01*
X124131Y-59671D02*
X124251Y-59550D01*
X124114Y-69055D02*
X124251Y-69192D01*
X124251Y-69192D02*
X124251Y-69488D01*
X124114Y-59688D02*
X124114Y-69055D01*
X124251Y-59550D02*
X124114Y-59688D01*
X127401Y-59550D02*
X127263Y-59688D01*
X127263Y-59688D02*
X127263Y-69055D01*
X127401Y-69192D02*
X127401Y-69488D01*
X127263Y-69055D02*
X127401Y-69192D01*
X127280Y-59671D02*
X127401Y-59550D01*
X127401Y-59550D02*
X127401Y-58858D01*
X127401Y-57677D02*
X127401Y-57381D01*
X127401Y-57381D02*
X127280Y-57260D01*
X127280Y-57260D02*
X127280Y-47860D01*
X127280Y-47860D02*
X127401Y-47739D01*
X127401Y-47739D02*
X127401Y-47047D01*
X127401Y-58858D02*
X127401Y-59468D01*
X127401Y-59468D02*
X127755Y-59823D01*
X127401Y-57677D02*
X127401Y-58858D01*
X127401Y-47047D02*
X127401Y-47657D01*
X127401Y-47657D02*
X127755Y-48012D01*
X127401Y-45866D02*
X127401Y-47047D01*
X127401Y-35236D02*
X127401Y-35846D01*
X127401Y-35846D02*
X127755Y-36201D01*
X127401Y-45570D02*
X127401Y-45866D01*
X127263Y-45433D02*
X127401Y-45570D01*
X127263Y-36066D02*
X127263Y-45433D01*
X127401Y-35928D02*
X127263Y-36066D01*
X127401Y-35236D02*
X127401Y-35928D01*
X125826Y-35236D02*
X125826Y-35928D01*
X125826Y-35928D02*
X125688Y-36066D01*
X125688Y-36066D02*
X125688Y-45433D01*
X125688Y-45433D02*
X125826Y-45570D01*
X125826Y-45570D02*
X125826Y-45866D01*
X125826Y-35846D02*
X126181Y-36201D01*
X125826Y-35236D02*
X125826Y-35846D01*
X125826Y-45866D02*
X125826Y-47047D01*
X125826Y-47657D02*
X126181Y-48012D01*
X125826Y-47047D02*
X125826Y-47657D01*
X125826Y-57677D02*
X125826Y-58858D01*
X125826Y-59468D02*
X126181Y-59823D01*
X125826Y-58858D02*
X125826Y-59468D01*
X125826Y-47739D02*
X125826Y-47047D01*
X125705Y-47860D02*
X125826Y-47739D01*
X125705Y-57260D02*
X125705Y-47860D01*
X125826Y-57381D02*
X125705Y-57260D01*
X125826Y-57677D02*
X125826Y-57381D01*
X125826Y-59550D02*
X125826Y-58858D01*
X125705Y-59671D02*
X125826Y-59550D01*
X125688Y-69055D02*
X125826Y-69192D01*
X125826Y-69192D02*
X125826Y-69488D01*
X125688Y-59688D02*
X125688Y-69055D01*
X125826Y-59550D02*
X125688Y-59688D01*
X117952Y-59550D02*
X117814Y-59688D01*
X117814Y-59688D02*
X117814Y-69055D01*
X117952Y-69192D02*
X117952Y-69488D01*
X117814Y-69055D02*
X117952Y-69192D01*
X117831Y-59671D02*
X117952Y-59550D01*
X117952Y-59550D02*
X117952Y-58858D01*
X117952Y-57677D02*
X117952Y-57381D01*
X117952Y-57381D02*
X117831Y-57260D01*
X117831Y-57260D02*
X117831Y-47860D01*
X117831Y-47860D02*
X117952Y-47739D01*
X117952Y-47739D02*
X117952Y-47047D01*
X117952Y-58858D02*
X117952Y-59468D01*
X117952Y-59468D02*
X118307Y-59823D01*
X117952Y-57677D02*
X117952Y-58858D01*
X117952Y-47047D02*
X117952Y-47657D01*
X117952Y-47657D02*
X118307Y-48012D01*
X117952Y-45866D02*
X117952Y-47047D01*
X117952Y-35236D02*
X117952Y-35846D01*
X117952Y-35846D02*
X118307Y-36201D01*
X117952Y-45570D02*
X117952Y-45866D01*
X117814Y-45433D02*
X117952Y-45570D01*
X117814Y-36066D02*
X117814Y-45433D01*
X117952Y-35928D02*
X117814Y-36066D01*
X117952Y-35236D02*
X117952Y-35928D01*
X119527Y-35236D02*
X119527Y-35928D01*
X119527Y-35928D02*
X119389Y-36066D01*
X119389Y-36066D02*
X119389Y-45433D01*
X119389Y-45433D02*
X119527Y-45570D01*
X119527Y-45570D02*
X119527Y-45866D01*
X119527Y-35846D02*
X119881Y-36201D01*
X119527Y-35236D02*
X119527Y-35846D01*
X119527Y-45866D02*
X119527Y-47047D01*
X119527Y-47657D02*
X119881Y-48012D01*
X119527Y-47047D02*
X119527Y-47657D01*
X119527Y-57677D02*
X119527Y-58858D01*
X119527Y-59468D02*
X119881Y-59823D01*
X119527Y-58858D02*
X119527Y-59468D01*
X119527Y-47739D02*
X119527Y-47047D01*
X119406Y-47860D02*
X119527Y-47739D01*
X119406Y-57260D02*
X119406Y-47860D01*
X119527Y-57381D02*
X119406Y-57260D01*
X119527Y-57677D02*
X119527Y-57381D01*
X119527Y-59550D02*
X119527Y-58858D01*
X119406Y-59671D02*
X119527Y-59550D01*
X119389Y-69055D02*
X119527Y-69192D01*
X119527Y-69192D02*
X119527Y-69488D01*
X119389Y-59688D02*
X119389Y-69055D01*
X119527Y-59550D02*
X119389Y-59688D01*
X116377Y-59550D02*
X116240Y-59688D01*
X116240Y-59688D02*
X116240Y-69055D01*
X116377Y-69192D02*
X116377Y-69488D01*
X116240Y-69055D02*
X116377Y-69192D01*
X116257Y-59671D02*
X116377Y-59550D01*
X116377Y-59550D02*
X116377Y-58858D01*
X116377Y-57677D02*
X116377Y-57381D01*
X116377Y-57381D02*
X116257Y-57260D01*
X116257Y-57260D02*
X116257Y-47860D01*
X116257Y-47860D02*
X116377Y-47739D01*
X116377Y-47739D02*
X116377Y-47047D01*
X116377Y-58858D02*
X116377Y-59468D01*
X116377Y-59468D02*
X116732Y-59823D01*
X116377Y-57677D02*
X116377Y-58858D01*
X116377Y-47047D02*
X116377Y-47657D01*
X116377Y-47657D02*
X116732Y-48012D01*
X116377Y-45866D02*
X116377Y-47047D01*
X116377Y-35236D02*
X116377Y-35846D01*
X116377Y-35846D02*
X116732Y-36201D01*
X116377Y-45570D02*
X116377Y-45866D01*
X116240Y-45433D02*
X116377Y-45570D01*
X116240Y-36066D02*
X116240Y-45433D01*
X116377Y-35928D02*
X116240Y-36066D01*
X116377Y-35236D02*
X116377Y-35928D01*
X114803Y-35236D02*
X114803Y-35928D01*
X114803Y-35928D02*
X114665Y-36066D01*
X114665Y-36066D02*
X114665Y-45433D01*
X114665Y-45433D02*
X114803Y-45570D01*
X114803Y-45570D02*
X114803Y-45866D01*
X114803Y-35846D02*
X115157Y-36201D01*
X114803Y-35236D02*
X114803Y-35846D01*
X114803Y-45866D02*
X114803Y-47047D01*
X114803Y-47657D02*
X115157Y-48012D01*
X114803Y-47047D02*
X114803Y-47657D01*
X114803Y-57677D02*
X114803Y-58858D01*
X114803Y-59468D02*
X115157Y-59823D01*
X114803Y-58858D02*
X114803Y-59468D01*
X114803Y-47739D02*
X114803Y-47047D01*
X114682Y-47860D02*
X114803Y-47739D01*
X114682Y-57260D02*
X114682Y-47860D01*
X114803Y-57381D02*
X114682Y-57260D01*
X114803Y-57677D02*
X114803Y-57381D01*
X114803Y-59550D02*
X114803Y-58858D01*
X114682Y-59671D02*
X114803Y-59550D01*
X114665Y-69055D02*
X114803Y-69192D01*
X114803Y-69192D02*
X114803Y-69488D01*
X114665Y-59688D02*
X114665Y-69055D01*
X114803Y-59550D02*
X114665Y-59688D01*
X121102Y-59550D02*
X120964Y-59688D01*
X120964Y-59688D02*
X120964Y-69055D01*
X121102Y-69192D02*
X121102Y-69488D01*
X120964Y-69055D02*
X121102Y-69192D01*
X120981Y-59671D02*
X121102Y-59550D01*
X121102Y-59550D02*
X121102Y-58858D01*
X121102Y-57677D02*
X121102Y-57381D01*
X121102Y-57381D02*
X120981Y-57260D01*
X120981Y-57260D02*
X120981Y-47860D01*
X120981Y-47860D02*
X121102Y-47739D01*
X121102Y-47739D02*
X121102Y-47047D01*
X121102Y-58858D02*
X121102Y-59468D01*
X121102Y-59468D02*
X121456Y-59823D01*
X121102Y-57677D02*
X121102Y-58858D01*
X121102Y-47047D02*
X121102Y-47657D01*
X121102Y-47657D02*
X121456Y-48012D01*
X121102Y-45866D02*
X121102Y-47047D01*
X121102Y-35236D02*
X121102Y-35846D01*
X121102Y-35846D02*
X121456Y-36201D01*
X121102Y-45570D02*
X121102Y-45866D01*
X120964Y-45433D02*
X121102Y-45570D01*
X120964Y-36066D02*
X120964Y-45433D01*
X121102Y-35928D02*
X120964Y-36066D01*
X121102Y-35236D02*
X121102Y-35928D01*
X137559Y-35236D02*
X137559Y-35531D01*
X137559Y-35531D02*
X137696Y-35669D01*
X137696Y-45036D02*
X137559Y-45174D01*
X137559Y-45174D02*
X137559Y-45866D01*
X137696Y-35669D02*
X137696Y-45036D01*
X137559Y-45255D02*
X137559Y-45866D01*
X137204Y-44901D02*
X137559Y-45255D01*
X137559Y-47047D02*
X137559Y-45866D01*
X137559Y-57066D02*
X137559Y-57677D01*
X137204Y-56712D02*
X137559Y-57066D01*
X137559Y-57677D02*
X137559Y-58858D01*
X137559Y-68877D02*
X137559Y-69488D01*
X137204Y-68523D02*
X137559Y-68877D01*
X137559Y-56985D02*
X137559Y-57677D01*
X137700Y-56844D02*
X137559Y-56985D01*
X137700Y-47483D02*
X137700Y-56844D01*
X137559Y-47342D02*
X137700Y-47483D01*
X137559Y-47047D02*
X137559Y-47342D01*
X137559Y-59153D02*
X137559Y-58858D01*
X137696Y-59291D02*
X137559Y-59153D01*
X137696Y-68658D02*
X137696Y-59291D01*
X137559Y-68796D02*
X137696Y-68658D01*
X137559Y-69488D02*
X137559Y-68796D01*
X137559Y-35236D02*
X137559Y-35289D01*
X131259Y-35236D02*
X131259Y-35289D01*
X131259Y-69488D02*
X131259Y-68796D01*
X131259Y-68796D02*
X131397Y-68658D01*
X131397Y-68658D02*
X131397Y-59291D01*
X131397Y-59291D02*
X131259Y-59153D01*
X131259Y-59153D02*
X131259Y-58858D01*
X131259Y-47047D02*
X131259Y-47342D01*
X131259Y-47342D02*
X131400Y-47483D01*
X131400Y-47483D02*
X131400Y-56844D01*
X131400Y-56844D02*
X131259Y-56985D01*
X131259Y-56985D02*
X131259Y-57677D01*
X130905Y-68523D02*
X131259Y-68877D01*
X131259Y-68877D02*
X131259Y-69488D01*
X131259Y-57677D02*
X131259Y-58858D01*
X130905Y-56712D02*
X131259Y-57066D01*
X131259Y-57066D02*
X131259Y-57677D01*
X131259Y-47047D02*
X131259Y-45866D01*
X130905Y-44901D02*
X131259Y-45255D01*
X131259Y-45255D02*
X131259Y-45866D01*
X131397Y-35669D02*
X131397Y-45036D01*
X131259Y-45174D02*
X131259Y-45866D01*
X131397Y-45036D02*
X131259Y-45174D01*
X131259Y-35531D02*
X131397Y-35669D01*
X131259Y-35236D02*
X131259Y-35531D01*
X132834Y-35236D02*
X132834Y-35531D01*
X132834Y-35531D02*
X132972Y-35669D01*
X132972Y-45036D02*
X132834Y-45174D01*
X132834Y-45174D02*
X132834Y-45866D01*
X132972Y-35669D02*
X132972Y-45036D01*
X132834Y-45255D02*
X132834Y-45866D01*
X132480Y-44901D02*
X132834Y-45255D01*
X132834Y-47047D02*
X132834Y-45866D01*
X132834Y-57066D02*
X132834Y-57677D01*
X132480Y-56712D02*
X132834Y-57066D01*
X132834Y-57677D02*
X132834Y-58858D01*
X132834Y-68877D02*
X132834Y-69488D01*
X132480Y-68523D02*
X132834Y-68877D01*
X132834Y-56985D02*
X132834Y-57677D01*
X132975Y-56844D02*
X132834Y-56985D01*
X132975Y-47483D02*
X132975Y-56844D01*
X132834Y-47342D02*
X132975Y-47483D01*
X132834Y-47047D02*
X132834Y-47342D01*
X132834Y-59153D02*
X132834Y-58858D01*
X132972Y-59291D02*
X132834Y-59153D01*
X132972Y-68658D02*
X132972Y-59291D01*
X132834Y-68796D02*
X132972Y-68658D01*
X132834Y-69488D02*
X132834Y-68796D01*
X132834Y-35236D02*
X132834Y-35289D01*
X135984Y-35236D02*
X135984Y-35289D01*
X135984Y-69488D02*
X135984Y-68796D01*
X135984Y-68796D02*
X136122Y-68658D01*
X136122Y-68658D02*
X136122Y-59291D01*
X136122Y-59291D02*
X135984Y-59153D01*
X135984Y-59153D02*
X135984Y-58858D01*
X135984Y-47047D02*
X135984Y-47342D01*
X135984Y-47342D02*
X136125Y-47483D01*
X136125Y-47483D02*
X136125Y-56844D01*
X136125Y-56844D02*
X135984Y-56985D01*
X135984Y-56985D02*
X135984Y-57677D01*
X135629Y-68523D02*
X135984Y-68877D01*
X135984Y-68877D02*
X135984Y-69488D01*
X135984Y-57677D02*
X135984Y-58858D01*
X135629Y-56712D02*
X135984Y-57066D01*
X135984Y-57066D02*
X135984Y-57677D01*
X135984Y-47047D02*
X135984Y-45866D01*
X135629Y-44901D02*
X135984Y-45255D01*
X135984Y-45255D02*
X135984Y-45866D01*
X136122Y-35669D02*
X136122Y-45036D01*
X135984Y-45174D02*
X135984Y-45866D01*
X136122Y-45036D02*
X135984Y-45174D01*
X135984Y-35531D02*
X136122Y-35669D01*
X135984Y-35236D02*
X135984Y-35531D01*
X134409Y-35236D02*
X134409Y-35531D01*
X134409Y-35531D02*
X134547Y-35669D01*
X134547Y-45036D02*
X134409Y-45174D01*
X134409Y-45174D02*
X134409Y-45866D01*
X134547Y-35669D02*
X134547Y-45036D01*
X134409Y-45255D02*
X134409Y-45866D01*
X134055Y-44901D02*
X134409Y-45255D01*
X134409Y-47047D02*
X134409Y-45866D01*
X134409Y-57066D02*
X134409Y-57677D01*
X134055Y-56712D02*
X134409Y-57066D01*
X134409Y-57677D02*
X134409Y-58858D01*
X134409Y-68877D02*
X134409Y-69488D01*
X134055Y-68523D02*
X134409Y-68877D01*
X134409Y-56985D02*
X134409Y-57677D01*
X134550Y-56844D02*
X134409Y-56985D01*
X134550Y-47483D02*
X134550Y-56844D01*
X134409Y-47342D02*
X134550Y-47483D01*
X134409Y-47047D02*
X134409Y-47342D01*
X134409Y-59153D02*
X134409Y-58858D01*
X134547Y-59291D02*
X134409Y-59153D01*
X134547Y-68658D02*
X134547Y-59291D01*
X134409Y-68796D02*
X134547Y-68658D01*
X134409Y-69488D02*
X134409Y-68796D01*
X134409Y-35236D02*
X134409Y-35289D01*
X142283Y-35236D02*
X142283Y-35289D01*
X142283Y-69488D02*
X142283Y-68796D01*
X142283Y-68796D02*
X142421Y-68658D01*
X142421Y-68658D02*
X142421Y-59291D01*
X142421Y-59291D02*
X142283Y-59153D01*
X142283Y-59153D02*
X142283Y-58858D01*
X142283Y-47047D02*
X142283Y-47342D01*
X142283Y-47342D02*
X142424Y-47483D01*
X142424Y-47483D02*
X142424Y-56844D01*
X142424Y-56844D02*
X142283Y-56985D01*
X142283Y-56985D02*
X142283Y-57677D01*
X141929Y-68523D02*
X142283Y-68877D01*
X142283Y-68877D02*
X142283Y-69488D01*
X142283Y-57677D02*
X142283Y-58858D01*
X141929Y-56712D02*
X142283Y-57066D01*
X142283Y-57066D02*
X142283Y-57677D01*
X142283Y-47047D02*
X142283Y-45866D01*
X141929Y-44901D02*
X142283Y-45255D01*
X142283Y-45255D02*
X142283Y-45866D01*
X142421Y-35669D02*
X142421Y-45036D01*
X142283Y-45174D02*
X142283Y-45866D01*
X142421Y-45036D02*
X142283Y-45174D01*
X142283Y-35531D02*
X142421Y-35669D01*
X142283Y-35236D02*
X142283Y-35531D01*
X143858Y-35236D02*
X143858Y-35531D01*
X143858Y-35531D02*
X143996Y-35669D01*
X143996Y-45036D02*
X143858Y-45174D01*
X143858Y-45174D02*
X143858Y-45866D01*
X143996Y-35669D02*
X143996Y-45036D01*
X143858Y-45255D02*
X143858Y-45866D01*
X143503Y-44901D02*
X143858Y-45255D01*
X143858Y-47047D02*
X143858Y-45866D01*
X143858Y-57066D02*
X143858Y-57677D01*
X143503Y-56712D02*
X143858Y-57066D01*
X143858Y-57677D02*
X143858Y-58858D01*
X143858Y-68877D02*
X143858Y-69488D01*
X143503Y-68523D02*
X143858Y-68877D01*
X143858Y-56985D02*
X143858Y-57677D01*
X143999Y-56844D02*
X143858Y-56985D01*
X143999Y-47483D02*
X143999Y-56844D01*
X143858Y-47342D02*
X143999Y-47483D01*
X143858Y-47047D02*
X143858Y-47342D01*
X143858Y-59153D02*
X143858Y-58858D01*
X143996Y-59291D02*
X143858Y-59153D01*
X143996Y-68658D02*
X143996Y-59291D01*
X143858Y-68796D02*
X143996Y-68658D01*
X143858Y-69488D02*
X143858Y-68796D01*
X143858Y-35236D02*
X143858Y-35289D01*
X140708Y-35236D02*
X140708Y-35289D01*
X140708Y-69488D02*
X140708Y-68796D01*
X140708Y-68796D02*
X140846Y-68658D01*
X140846Y-68658D02*
X140846Y-59291D01*
X140846Y-59291D02*
X140708Y-59153D01*
X140708Y-59153D02*
X140708Y-58858D01*
X140708Y-47047D02*
X140708Y-47342D01*
X140708Y-47342D02*
X140849Y-47483D01*
X140849Y-47483D02*
X140849Y-56844D01*
X140849Y-56844D02*
X140708Y-56985D01*
X140708Y-56985D02*
X140708Y-57677D01*
X140354Y-68523D02*
X140708Y-68877D01*
X140708Y-68877D02*
X140708Y-69488D01*
X140708Y-57677D02*
X140708Y-58858D01*
X140354Y-56712D02*
X140708Y-57066D01*
X140708Y-57066D02*
X140708Y-57677D01*
X140708Y-47047D02*
X140708Y-45866D01*
X140354Y-44901D02*
X140708Y-45255D01*
X140708Y-45255D02*
X140708Y-45866D01*
X140846Y-35669D02*
X140846Y-45036D01*
X140708Y-45174D02*
X140708Y-45866D01*
X140846Y-45036D02*
X140708Y-45174D01*
X140708Y-35531D02*
X140846Y-35669D01*
X140708Y-35236D02*
X140708Y-35531D01*
X139133Y-35236D02*
X139133Y-35531D01*
X139133Y-35531D02*
X139271Y-35669D01*
X139271Y-45036D02*
X139133Y-45174D01*
X139133Y-45174D02*
X139133Y-45866D01*
X139271Y-35669D02*
X139271Y-45036D01*
X139133Y-45255D02*
X139133Y-45866D01*
X138779Y-44901D02*
X139133Y-45255D01*
X139133Y-47047D02*
X139133Y-45866D01*
X139133Y-57066D02*
X139133Y-57677D01*
X138779Y-56712D02*
X139133Y-57066D01*
X139133Y-57677D02*
X139133Y-58858D01*
X139133Y-68877D02*
X139133Y-69488D01*
X138779Y-68523D02*
X139133Y-68877D01*
X139133Y-56985D02*
X139133Y-57677D01*
X139274Y-56844D02*
X139133Y-56985D01*
X139274Y-47483D02*
X139274Y-56844D01*
X139133Y-47342D02*
X139274Y-47483D01*
X139133Y-47047D02*
X139133Y-47342D01*
X139133Y-59153D02*
X139133Y-58858D01*
X139271Y-59291D02*
X139133Y-59153D01*
X139271Y-68658D02*
X139271Y-59291D01*
X139133Y-68796D02*
X139271Y-68658D01*
X139133Y-69488D02*
X139133Y-68796D01*
X139133Y-35236D02*
X139133Y-35289D01*
X145433Y-35236D02*
X145433Y-35289D01*
X145433Y-69488D02*
X145433Y-68796D01*
X145433Y-68796D02*
X145570Y-68658D01*
X145570Y-68658D02*
X145570Y-59291D01*
X145570Y-59291D02*
X145433Y-59153D01*
X145433Y-59153D02*
X145433Y-58858D01*
X145433Y-47047D02*
X145433Y-47342D01*
X145433Y-47342D02*
X145574Y-47483D01*
X145574Y-47483D02*
X145574Y-56844D01*
X145574Y-56844D02*
X145433Y-56985D01*
X145433Y-56985D02*
X145433Y-57677D01*
X145078Y-68523D02*
X145433Y-68877D01*
X145433Y-68877D02*
X145433Y-69488D01*
X145433Y-57677D02*
X145433Y-58858D01*
X145078Y-56712D02*
X145433Y-57066D01*
X145433Y-57066D02*
X145433Y-57677D01*
X145433Y-47047D02*
X145433Y-45866D01*
X145078Y-44901D02*
X145433Y-45255D01*
X145433Y-45255D02*
X145433Y-45866D01*
X145570Y-35669D02*
X145570Y-45036D01*
X145433Y-45174D02*
X145433Y-45866D01*
X145570Y-45036D02*
X145433Y-45174D01*
X145433Y-35531D02*
X145570Y-35669D01*
X145433Y-35236D02*
X145433Y-35531D01*
X129685Y-35236D02*
X129685Y-35531D01*
X129685Y-35531D02*
X129822Y-35669D01*
X129822Y-45036D02*
X129685Y-45174D01*
X129685Y-45174D02*
X129685Y-45866D01*
X129822Y-35669D02*
X129822Y-45036D01*
X129685Y-45255D02*
X129685Y-45866D01*
X129330Y-44901D02*
X129685Y-45255D01*
X129685Y-47047D02*
X129685Y-45866D01*
X129685Y-57066D02*
X129685Y-57677D01*
X129330Y-56712D02*
X129685Y-57066D01*
X129685Y-57677D02*
X129685Y-58858D01*
X129685Y-68877D02*
X129685Y-69488D01*
X129330Y-68523D02*
X129685Y-68877D01*
X129685Y-56985D02*
X129685Y-57677D01*
X129825Y-56844D02*
X129685Y-56985D01*
X129825Y-47483D02*
X129825Y-56844D01*
X129685Y-47342D02*
X129825Y-47483D01*
X129685Y-47047D02*
X129685Y-47342D01*
X129685Y-59153D02*
X129685Y-58858D01*
X129822Y-59291D02*
X129685Y-59153D01*
X129822Y-68658D02*
X129822Y-59291D01*
X129685Y-68796D02*
X129822Y-68658D01*
X129685Y-69488D02*
X129685Y-68796D01*
X129685Y-35236D02*
X129685Y-35289D01*
X123385Y-35236D02*
X123385Y-35289D01*
X123385Y-69488D02*
X123385Y-68796D01*
X123385Y-68796D02*
X123523Y-68658D01*
X123523Y-68658D02*
X123523Y-59291D01*
X123523Y-59291D02*
X123385Y-59153D01*
X123385Y-59153D02*
X123385Y-58858D01*
X123385Y-47047D02*
X123385Y-47342D01*
X123385Y-47342D02*
X123526Y-47483D01*
X123526Y-47483D02*
X123526Y-56844D01*
X123526Y-56844D02*
X123385Y-56985D01*
X123385Y-56985D02*
X123385Y-57677D01*
X123031Y-68523D02*
X123385Y-68877D01*
X123385Y-68877D02*
X123385Y-69488D01*
X123385Y-57677D02*
X123385Y-58858D01*
X123031Y-56712D02*
X123385Y-57066D01*
X123385Y-57066D02*
X123385Y-57677D01*
X123385Y-47047D02*
X123385Y-45866D01*
X123031Y-44901D02*
X123385Y-45255D01*
X123385Y-45255D02*
X123385Y-45866D01*
X123523Y-35669D02*
X123523Y-45036D01*
X123385Y-45174D02*
X123385Y-45866D01*
X123523Y-45036D02*
X123385Y-45174D01*
X123385Y-35531D02*
X123523Y-35669D01*
X123385Y-35236D02*
X123385Y-35531D01*
X124960Y-35236D02*
X124960Y-35531D01*
X124960Y-35531D02*
X125098Y-35669D01*
X125098Y-45036D02*
X124960Y-45174D01*
X124960Y-45174D02*
X124960Y-45866D01*
X125098Y-35669D02*
X125098Y-45036D01*
X124960Y-45255D02*
X124960Y-45866D01*
X124606Y-44901D02*
X124960Y-45255D01*
X124960Y-47047D02*
X124960Y-45866D01*
X124960Y-57066D02*
X124960Y-57677D01*
X124606Y-56712D02*
X124960Y-57066D01*
X124960Y-57677D02*
X124960Y-58858D01*
X124960Y-68877D02*
X124960Y-69488D01*
X124606Y-68523D02*
X124960Y-68877D01*
X124960Y-56985D02*
X124960Y-57677D01*
X125101Y-56844D02*
X124960Y-56985D01*
X125101Y-47483D02*
X125101Y-56844D01*
X124960Y-47342D02*
X125101Y-47483D01*
X124960Y-47047D02*
X124960Y-47342D01*
X124960Y-59153D02*
X124960Y-58858D01*
X125098Y-59291D02*
X124960Y-59153D01*
X125098Y-68658D02*
X125098Y-59291D01*
X124960Y-68796D02*
X125098Y-68658D01*
X124960Y-69488D02*
X124960Y-68796D01*
X124960Y-35236D02*
X124960Y-35289D01*
X128110Y-35236D02*
X128110Y-35289D01*
X128110Y-69488D02*
X128110Y-68796D01*
X128110Y-68796D02*
X128248Y-68658D01*
X128248Y-68658D02*
X128248Y-59291D01*
X128248Y-59291D02*
X128110Y-59153D01*
X128110Y-59153D02*
X128110Y-58858D01*
X128110Y-47047D02*
X128110Y-47342D01*
X128110Y-47342D02*
X128251Y-47483D01*
X128251Y-47483D02*
X128251Y-56844D01*
X128251Y-56844D02*
X128110Y-56985D01*
X128110Y-56985D02*
X128110Y-57677D01*
X127755Y-68523D02*
X128110Y-68877D01*
X128110Y-68877D02*
X128110Y-69488D01*
X128110Y-57677D02*
X128110Y-58858D01*
X127755Y-56712D02*
X128110Y-57066D01*
X128110Y-57066D02*
X128110Y-57677D01*
X128110Y-47047D02*
X128110Y-45866D01*
X127755Y-44901D02*
X128110Y-45255D01*
X128110Y-45255D02*
X128110Y-45866D01*
X128248Y-35669D02*
X128248Y-45036D01*
X128110Y-45174D02*
X128110Y-45866D01*
X128248Y-45036D02*
X128110Y-45174D01*
X128110Y-35531D02*
X128248Y-35669D01*
X128110Y-35236D02*
X128110Y-35531D01*
X126535Y-35236D02*
X126535Y-35531D01*
X126535Y-35531D02*
X126673Y-35669D01*
X126673Y-45036D02*
X126535Y-45174D01*
X126535Y-45174D02*
X126535Y-45866D01*
X126673Y-35669D02*
X126673Y-45036D01*
X126535Y-45255D02*
X126535Y-45866D01*
X126181Y-44901D02*
X126535Y-45255D01*
X126535Y-47047D02*
X126535Y-45866D01*
X126535Y-57066D02*
X126535Y-57677D01*
X126181Y-56712D02*
X126535Y-57066D01*
X126535Y-57677D02*
X126535Y-58858D01*
X126535Y-68877D02*
X126535Y-69488D01*
X126181Y-68523D02*
X126535Y-68877D01*
X126535Y-56985D02*
X126535Y-57677D01*
X126676Y-56844D02*
X126535Y-56985D01*
X126676Y-47483D02*
X126676Y-56844D01*
X126535Y-47342D02*
X126676Y-47483D01*
X126535Y-47047D02*
X126535Y-47342D01*
X126535Y-59153D02*
X126535Y-58858D01*
X126673Y-59291D02*
X126535Y-59153D01*
X126673Y-68658D02*
X126673Y-59291D01*
X126535Y-68796D02*
X126673Y-68658D01*
X126535Y-69488D02*
X126535Y-68796D01*
X126535Y-35236D02*
X126535Y-35289D01*
X118661Y-35236D02*
X118661Y-35289D01*
X118661Y-69488D02*
X118661Y-68796D01*
X118661Y-68796D02*
X118799Y-68658D01*
X118799Y-68658D02*
X118799Y-59291D01*
X118799Y-59291D02*
X118661Y-59153D01*
X118661Y-59153D02*
X118661Y-58858D01*
X118661Y-47047D02*
X118661Y-47342D01*
X118661Y-47342D02*
X118802Y-47483D01*
X118802Y-47483D02*
X118802Y-56844D01*
X118802Y-56844D02*
X118661Y-56985D01*
X118661Y-56985D02*
X118661Y-57677D01*
X118307Y-68523D02*
X118661Y-68877D01*
X118661Y-68877D02*
X118661Y-69488D01*
X118661Y-57677D02*
X118661Y-58858D01*
X118307Y-56712D02*
X118661Y-57066D01*
X118661Y-57066D02*
X118661Y-57677D01*
X118661Y-47047D02*
X118661Y-45866D01*
X118307Y-44901D02*
X118661Y-45255D01*
X118661Y-45255D02*
X118661Y-45866D01*
X118799Y-35669D02*
X118799Y-45036D01*
X118661Y-45174D02*
X118661Y-45866D01*
X118799Y-45036D02*
X118661Y-45174D01*
X118661Y-35531D02*
X118799Y-35669D01*
X118661Y-35236D02*
X118661Y-35531D01*
X120236Y-35236D02*
X120236Y-35531D01*
X120236Y-35531D02*
X120374Y-35669D01*
X120374Y-45036D02*
X120236Y-45174D01*
X120236Y-45174D02*
X120236Y-45866D01*
X120374Y-35669D02*
X120374Y-45036D01*
X120236Y-45255D02*
X120236Y-45866D01*
X119881Y-44901D02*
X120236Y-45255D01*
X120236Y-47047D02*
X120236Y-45866D01*
X120236Y-57066D02*
X120236Y-57677D01*
X119881Y-56712D02*
X120236Y-57066D01*
X120236Y-57677D02*
X120236Y-58858D01*
X120236Y-68877D02*
X120236Y-69488D01*
X119881Y-68523D02*
X120236Y-68877D01*
X120236Y-56985D02*
X120236Y-57677D01*
X120377Y-56844D02*
X120236Y-56985D01*
X120377Y-47483D02*
X120377Y-56844D01*
X120236Y-47342D02*
X120377Y-47483D01*
X120236Y-47047D02*
X120236Y-47342D01*
X120236Y-59153D02*
X120236Y-58858D01*
X120374Y-59291D02*
X120236Y-59153D01*
X120374Y-68658D02*
X120374Y-59291D01*
X120236Y-68796D02*
X120374Y-68658D01*
X120236Y-69488D02*
X120236Y-68796D01*
X120236Y-35236D02*
X120236Y-35289D01*
X117086Y-35236D02*
X117086Y-35289D01*
X117086Y-69488D02*
X117086Y-68796D01*
X117086Y-68796D02*
X117224Y-68658D01*
X117224Y-68658D02*
X117224Y-59291D01*
X117224Y-59291D02*
X117086Y-59153D01*
X117086Y-59153D02*
X117086Y-58858D01*
X117086Y-47047D02*
X117086Y-47342D01*
X117086Y-47342D02*
X117227Y-47483D01*
X117227Y-47483D02*
X117227Y-56844D01*
X117227Y-56844D02*
X117086Y-56985D01*
X117086Y-56985D02*
X117086Y-57677D01*
X116732Y-68523D02*
X117086Y-68877D01*
X117086Y-68877D02*
X117086Y-69488D01*
X117086Y-57677D02*
X117086Y-58858D01*
X116732Y-56712D02*
X117086Y-57066D01*
X117086Y-57066D02*
X117086Y-57677D01*
X117086Y-47047D02*
X117086Y-45866D01*
X116732Y-44901D02*
X117086Y-45255D01*
X117086Y-45255D02*
X117086Y-45866D01*
X117224Y-35669D02*
X117224Y-45036D01*
X117086Y-45174D02*
X117086Y-45866D01*
X117224Y-45036D02*
X117086Y-45174D01*
X117086Y-35531D02*
X117224Y-35669D01*
X117086Y-35236D02*
X117086Y-35531D01*
X115511Y-35236D02*
X115511Y-35531D01*
X115511Y-35531D02*
X115649Y-35669D01*
X115649Y-45036D02*
X115511Y-45174D01*
X115511Y-45174D02*
X115511Y-45866D01*
X115649Y-35669D02*
X115649Y-45036D01*
X115511Y-45255D02*
X115511Y-45866D01*
X115157Y-44901D02*
X115511Y-45255D01*
X115511Y-47047D02*
X115511Y-45866D01*
X115511Y-57066D02*
X115511Y-57677D01*
X115157Y-56712D02*
X115511Y-57066D01*
X115511Y-57677D02*
X115511Y-58858D01*
X115511Y-68877D02*
X115511Y-69488D01*
X115157Y-68523D02*
X115511Y-68877D01*
X115511Y-56985D02*
X115511Y-57677D01*
X115652Y-56844D02*
X115511Y-56985D01*
X115652Y-47483D02*
X115652Y-56844D01*
X115511Y-47342D02*
X115652Y-47483D01*
X115511Y-47047D02*
X115511Y-47342D01*
X115511Y-59153D02*
X115511Y-58858D01*
X115649Y-59291D02*
X115511Y-59153D01*
X115649Y-68658D02*
X115649Y-59291D01*
X115511Y-68796D02*
X115649Y-68658D01*
X115511Y-69488D02*
X115511Y-68796D01*
X115511Y-35236D02*
X115511Y-35289D01*
X121811Y-35236D02*
X121811Y-35289D01*
X121811Y-69488D02*
X121811Y-68796D01*
X121811Y-68796D02*
X121948Y-68658D01*
X121948Y-68658D02*
X121948Y-59291D01*
X121948Y-59291D02*
X121811Y-59153D01*
X121811Y-59153D02*
X121811Y-58858D01*
X121811Y-47047D02*
X121811Y-47342D01*
X121811Y-47342D02*
X121951Y-47483D01*
X121951Y-47483D02*
X121951Y-56844D01*
X121951Y-56844D02*
X121811Y-56985D01*
X121811Y-56985D02*
X121811Y-57677D01*
X121456Y-68523D02*
X121811Y-68877D01*
X121811Y-68877D02*
X121811Y-69488D01*
X121811Y-57677D02*
X121811Y-58858D01*
X121456Y-56712D02*
X121811Y-57066D01*
X121811Y-57066D02*
X121811Y-57677D01*
X121811Y-47047D02*
X121811Y-45866D01*
X121456Y-44901D02*
X121811Y-45255D01*
X121811Y-45255D02*
X121811Y-45866D01*
X121948Y-35669D02*
X121948Y-45036D01*
X121811Y-45174D02*
X121811Y-45866D01*
X121948Y-45036D02*
X121811Y-45174D01*
X121811Y-35531D02*
X121948Y-35669D01*
X121811Y-35236D02*
X121811Y-35531D01*
X137204Y-66436D02*
X137204Y-67697D01*
X130905Y-66436D02*
X130905Y-67697D01*
X132480Y-66436D02*
X132480Y-67697D01*
X135629Y-66436D02*
X135629Y-67697D01*
X134055Y-66436D02*
X134055Y-67697D01*
X141929Y-66436D02*
X141929Y-67697D01*
X143503Y-66436D02*
X143503Y-67697D01*
X140354Y-66436D02*
X140354Y-67697D01*
X138779Y-66436D02*
X138779Y-67697D01*
X145078Y-66436D02*
X145078Y-67697D01*
X129330Y-66436D02*
X129330Y-67697D01*
X123031Y-66436D02*
X123031Y-67697D01*
X124606Y-66436D02*
X124606Y-67697D01*
X127755Y-66436D02*
X127755Y-67697D01*
X126181Y-66436D02*
X126181Y-67697D01*
X118307Y-66436D02*
X118307Y-67697D01*
X119881Y-66436D02*
X119881Y-67697D01*
X116732Y-66436D02*
X116732Y-67697D01*
X115157Y-66436D02*
X115157Y-67697D01*
X121456Y-66436D02*
X121456Y-67697D01*
X137204Y-48838D02*
X137204Y-51949D01*
X130905Y-48838D02*
X130905Y-51949D01*
X132480Y-48838D02*
X132480Y-51949D01*
X135629Y-48838D02*
X135629Y-51949D01*
X134055Y-48838D02*
X134055Y-51949D01*
X141929Y-48838D02*
X141929Y-51949D01*
X143503Y-48838D02*
X143503Y-51949D01*
X140354Y-48838D02*
X140354Y-51949D01*
X138779Y-48838D02*
X138779Y-51949D01*
X145078Y-48838D02*
X145078Y-51949D01*
X129330Y-48838D02*
X129330Y-51949D01*
X123031Y-48838D02*
X123031Y-51949D01*
X124606Y-48838D02*
X124606Y-51949D01*
X127755Y-48838D02*
X127755Y-51949D01*
X126181Y-48838D02*
X126181Y-51949D01*
X118307Y-48838D02*
X118307Y-51949D01*
X119881Y-48838D02*
X119881Y-51949D01*
X116732Y-48838D02*
X116732Y-51949D01*
X115157Y-48838D02*
X115157Y-51949D01*
X121456Y-48838D02*
X121456Y-51949D01*
X137204Y-52775D02*
X137204Y-53957D01*
X130905Y-52775D02*
X130905Y-53957D01*
X132480Y-52775D02*
X132480Y-53957D01*
X135629Y-52775D02*
X135629Y-53957D01*
X134055Y-52775D02*
X134055Y-53957D01*
X141929Y-52775D02*
X141929Y-53957D01*
X143503Y-52775D02*
X143503Y-53957D01*
X140354Y-52775D02*
X140354Y-53957D01*
X138779Y-52775D02*
X138779Y-53957D01*
X145078Y-52775D02*
X145078Y-53957D01*
X129330Y-52775D02*
X129330Y-53957D01*
X123031Y-52775D02*
X123031Y-53957D01*
X124606Y-52775D02*
X124606Y-53957D01*
X127755Y-52775D02*
X127755Y-53957D01*
X126181Y-52775D02*
X126181Y-53957D01*
X118307Y-52775D02*
X118307Y-53957D01*
X119881Y-52775D02*
X119881Y-53957D01*
X116732Y-52775D02*
X116732Y-53957D01*
X115157Y-52775D02*
X115157Y-53957D01*
X121456Y-52775D02*
X121456Y-53957D01*
X137204Y-54625D02*
X137204Y-55886D01*
X130905Y-54625D02*
X130905Y-55886D01*
X132480Y-54625D02*
X132480Y-55886D01*
X135629Y-54625D02*
X135629Y-55886D01*
X134055Y-54625D02*
X134055Y-55886D01*
X141929Y-54625D02*
X141929Y-55886D01*
X143503Y-54625D02*
X143503Y-55886D01*
X140354Y-54625D02*
X140354Y-55886D01*
X138779Y-54625D02*
X138779Y-55886D01*
X145078Y-54625D02*
X145078Y-55886D01*
X129330Y-54625D02*
X129330Y-55886D01*
X123031Y-54625D02*
X123031Y-55886D01*
X124606Y-54625D02*
X124606Y-55886D01*
X127755Y-54625D02*
X127755Y-55886D01*
X126181Y-54625D02*
X126181Y-55886D01*
X118307Y-54625D02*
X118307Y-55886D01*
X119881Y-54625D02*
X119881Y-55886D01*
X116732Y-54625D02*
X116732Y-55886D01*
X115157Y-54625D02*
X115157Y-55886D01*
X121456Y-54625D02*
X121456Y-55886D01*
X137204Y-37027D02*
X137204Y-40138D01*
X130905Y-37027D02*
X130905Y-40138D01*
X132480Y-37027D02*
X132480Y-40138D01*
X135629Y-37027D02*
X135629Y-40138D01*
X134055Y-37027D02*
X134055Y-40138D01*
X141929Y-37027D02*
X141929Y-40138D01*
X143503Y-37027D02*
X143503Y-40138D01*
X140354Y-37027D02*
X140354Y-40138D01*
X138779Y-37027D02*
X138779Y-40138D01*
X145078Y-37027D02*
X145078Y-40138D01*
X129330Y-37027D02*
X129330Y-40138D01*
X123031Y-37027D02*
X123031Y-40138D01*
X124606Y-37027D02*
X124606Y-40138D01*
X127755Y-37027D02*
X127755Y-40138D01*
X126181Y-37027D02*
X126181Y-40138D01*
X118307Y-37027D02*
X118307Y-40138D01*
X119881Y-37027D02*
X119881Y-40138D01*
X116732Y-37027D02*
X116732Y-40138D01*
X115157Y-37027D02*
X115157Y-40138D01*
X121456Y-37027D02*
X121456Y-40138D01*
X137204Y-40964D02*
X137204Y-42146D01*
X130905Y-40964D02*
X130905Y-42146D01*
X132480Y-40964D02*
X132480Y-42146D01*
X135629Y-40964D02*
X135629Y-42146D01*
X134055Y-40964D02*
X134055Y-42146D01*
X141929Y-40964D02*
X141929Y-42146D01*
X143503Y-40964D02*
X143503Y-42146D01*
X140354Y-40964D02*
X140354Y-42146D01*
X138779Y-40964D02*
X138779Y-42146D01*
X145078Y-40964D02*
X145078Y-42146D01*
X129330Y-40964D02*
X129330Y-42146D01*
X123031Y-40964D02*
X123031Y-42146D01*
X124606Y-40964D02*
X124606Y-42146D01*
X127755Y-40964D02*
X127755Y-42146D01*
X126181Y-40964D02*
X126181Y-42146D01*
X118307Y-40964D02*
X118307Y-42146D01*
X119881Y-40964D02*
X119881Y-42146D01*
X116732Y-40964D02*
X116732Y-42146D01*
X115157Y-40964D02*
X115157Y-42146D01*
X121456Y-40964D02*
X121456Y-42146D01*
X137204Y-42814D02*
X137204Y-44075D01*
X130905Y-42814D02*
X130905Y-44075D01*
X132480Y-42814D02*
X132480Y-44075D01*
X135629Y-42814D02*
X135629Y-44075D01*
X134055Y-42814D02*
X134055Y-44075D01*
X141929Y-42814D02*
X141929Y-44075D01*
X143503Y-42814D02*
X143503Y-44075D01*
X140354Y-42814D02*
X140354Y-44075D01*
X138779Y-42814D02*
X138779Y-44075D01*
X145078Y-42814D02*
X145078Y-44075D01*
X129330Y-42814D02*
X129330Y-44075D01*
X123031Y-42814D02*
X123031Y-44075D01*
X124606Y-42814D02*
X124606Y-44075D01*
X127755Y-42814D02*
X127755Y-44075D01*
X126181Y-42814D02*
X126181Y-44075D01*
X118307Y-42814D02*
X118307Y-44075D01*
X119881Y-42814D02*
X119881Y-44075D01*
X116732Y-42814D02*
X116732Y-44075D01*
X115157Y-42814D02*
X115157Y-44075D01*
X121456Y-42814D02*
X121456Y-44075D01*
M02*
