%FSLAX34Y34*%
G04 Gerber Fmt 3.4, Leading zero omitted, Abs format*
G04 (created by PCBNEW (2014-05-17 BZR 4870)-product) date Sun 18 May 2014 03:32:31 PM CEST*
%MOIN*%
G01*
G70*
G90*
G04 APERTURE LIST*
%ADD10C,0.005906*%
%ADD11C,0.003937*%
G04 APERTURE END LIST*
G54D10*
G54D11*
X146417Y-32677D02*
X146417Y-72047D01*
X113818Y-32677D02*
X113818Y-72047D01*
X135078Y-32677D02*
X135078Y-72047D01*
X136496Y-72047D02*
X136496Y-32676D01*
X137913Y-32675D02*
X137913Y-72047D01*
X143582Y-32677D02*
X143582Y-72047D01*
X142165Y-72047D02*
X142165Y-32677D01*
X140748Y-32677D02*
X140748Y-72047D01*
X139330Y-32677D02*
X139330Y-72047D01*
X125157Y-32677D02*
X125157Y-72047D01*
X126574Y-32677D02*
X126574Y-72047D01*
X127992Y-72047D02*
X127992Y-32677D01*
X129409Y-32677D02*
X129409Y-72047D01*
X130826Y-32677D02*
X130826Y-72047D01*
X132244Y-72047D02*
X132244Y-32676D01*
X133661Y-32675D02*
X133661Y-72047D01*
X123740Y-32675D02*
X123740Y-72047D01*
X122322Y-72047D02*
X122322Y-32676D01*
X120905Y-32677D02*
X120905Y-72047D01*
X119488Y-32677D02*
X119488Y-72047D01*
X118070Y-72047D02*
X118070Y-32677D01*
X116653Y-32677D02*
X116653Y-72047D01*
X110629Y-70078D02*
X149606Y-70078D01*
X110629Y-34645D02*
X149606Y-34645D01*
X145000Y-72047D02*
X145000Y-32677D01*
X115236Y-32677D02*
X115236Y-72047D01*
M02*
