%FSLAX34Y34*%
G04 Gerber Fmt 3.4, Leading zero omitted, Abs format*
G04 (created by PCBNEW (2014-05-17 BZR 4870)-product) date Sun 18 May 2014 04:38:21 PM CEST*
%MOIN*%
G01*
G70*
G90*
G04 APERTURE LIST*
%ADD10C,0.005906*%
%ADD11R,0.051969X0.041575*%
%ADD12R,0.038104X0.034584*%
%ADD13C,0.098425*%
G04 APERTURE END LIST*
G54D10*
G54D11*
X135787Y-67697D03*
X135787Y-68523D03*
G54D12*
X135787Y-65768D03*
X135787Y-66436D03*
G54D11*
X135787Y-63760D03*
X135787Y-64586D03*
X135787Y-59823D03*
X135787Y-60649D03*
X135787Y-55886D03*
X135787Y-56712D03*
G54D12*
X135787Y-53957D03*
X135787Y-54625D03*
G54D11*
X135787Y-51949D03*
X135787Y-52775D03*
X135787Y-48012D03*
X135787Y-48838D03*
G54D12*
X135787Y-42146D03*
X135787Y-42814D03*
G54D11*
X135787Y-44075D03*
X135787Y-44901D03*
X135787Y-40138D03*
X135787Y-40964D03*
X135787Y-36201D03*
X135787Y-37027D03*
X132952Y-67697D03*
X132952Y-68523D03*
G54D12*
X132952Y-65768D03*
X132952Y-66436D03*
G54D11*
X132952Y-63760D03*
X132952Y-64586D03*
X132952Y-59823D03*
X132952Y-60649D03*
X132952Y-55886D03*
X132952Y-56712D03*
G54D12*
X132952Y-53957D03*
X132952Y-54625D03*
G54D11*
X132952Y-51949D03*
X132952Y-52775D03*
X132952Y-48012D03*
X132952Y-48838D03*
G54D12*
X132952Y-42146D03*
X132952Y-42814D03*
G54D11*
X132952Y-44075D03*
X132952Y-44901D03*
X132952Y-40138D03*
X132952Y-40964D03*
X132952Y-36201D03*
X132952Y-37027D03*
X134370Y-36201D03*
X134370Y-37027D03*
X134370Y-40138D03*
X134370Y-40964D03*
X134370Y-44075D03*
X134370Y-44901D03*
G54D12*
X134370Y-42146D03*
X134370Y-42814D03*
G54D11*
X134370Y-48012D03*
X134370Y-48838D03*
X134370Y-51949D03*
X134370Y-52775D03*
G54D12*
X134370Y-53957D03*
X134370Y-54625D03*
G54D11*
X134370Y-55886D03*
X134370Y-56712D03*
X134370Y-59823D03*
X134370Y-60649D03*
X134370Y-63760D03*
X134370Y-64586D03*
G54D12*
X134370Y-65768D03*
X134370Y-66436D03*
G54D11*
X134370Y-67697D03*
X134370Y-68523D03*
X138622Y-67697D03*
X138622Y-68523D03*
G54D12*
X138622Y-65768D03*
X138622Y-66436D03*
G54D11*
X138622Y-63760D03*
X138622Y-64586D03*
X138622Y-59823D03*
X138622Y-60649D03*
X138622Y-55886D03*
X138622Y-56712D03*
G54D12*
X138622Y-53957D03*
X138622Y-54625D03*
G54D11*
X138622Y-51949D03*
X138622Y-52775D03*
X138622Y-48012D03*
X138622Y-48838D03*
G54D12*
X138622Y-42146D03*
X138622Y-42814D03*
G54D11*
X138622Y-44075D03*
X138622Y-44901D03*
X138622Y-40138D03*
X138622Y-40964D03*
X138622Y-36201D03*
X138622Y-37027D03*
X137204Y-36201D03*
X137204Y-37027D03*
X137204Y-40138D03*
X137204Y-40964D03*
X137204Y-44075D03*
X137204Y-44901D03*
G54D12*
X137204Y-42146D03*
X137204Y-42814D03*
G54D11*
X137204Y-48012D03*
X137204Y-48838D03*
X137204Y-51949D03*
X137204Y-52775D03*
G54D12*
X137204Y-53957D03*
X137204Y-54625D03*
G54D11*
X137204Y-55886D03*
X137204Y-56712D03*
X137204Y-59823D03*
X137204Y-60649D03*
X137204Y-63760D03*
X137204Y-64586D03*
G54D12*
X137204Y-65768D03*
X137204Y-66436D03*
G54D11*
X137204Y-67697D03*
X137204Y-68523D03*
X140039Y-36201D03*
X140039Y-37027D03*
X140039Y-40138D03*
X140039Y-40964D03*
X140039Y-44075D03*
X140039Y-44901D03*
G54D12*
X140039Y-42146D03*
X140039Y-42814D03*
G54D11*
X140039Y-48012D03*
X140039Y-48838D03*
X140039Y-51949D03*
X140039Y-52775D03*
G54D12*
X140039Y-53957D03*
X140039Y-54625D03*
G54D11*
X140039Y-55886D03*
X140039Y-56712D03*
X140039Y-59823D03*
X140039Y-60649D03*
X140039Y-63760D03*
X140039Y-64586D03*
G54D12*
X140039Y-65768D03*
X140039Y-66436D03*
G54D11*
X140039Y-67697D03*
X140039Y-68523D03*
X144291Y-67697D03*
X144291Y-68523D03*
G54D12*
X144291Y-65768D03*
X144291Y-66436D03*
G54D11*
X144291Y-63760D03*
X144291Y-64586D03*
X144291Y-59823D03*
X144291Y-60649D03*
X144291Y-55886D03*
X144291Y-56712D03*
G54D12*
X144291Y-53957D03*
X144291Y-54625D03*
G54D11*
X144291Y-51949D03*
X144291Y-52775D03*
X144291Y-48012D03*
X144291Y-48838D03*
G54D12*
X144291Y-42146D03*
X144291Y-42814D03*
G54D11*
X144291Y-44075D03*
X144291Y-44901D03*
X144291Y-40138D03*
X144291Y-40964D03*
X144291Y-36201D03*
X144291Y-37027D03*
X141456Y-67697D03*
X141456Y-68523D03*
G54D12*
X141456Y-65768D03*
X141456Y-66436D03*
G54D11*
X141456Y-63760D03*
X141456Y-64586D03*
X141456Y-59823D03*
X141456Y-60649D03*
X141456Y-55886D03*
X141456Y-56712D03*
G54D12*
X141456Y-53957D03*
X141456Y-54625D03*
G54D11*
X141456Y-51949D03*
X141456Y-52775D03*
X141456Y-48012D03*
X141456Y-48838D03*
G54D12*
X141456Y-42146D03*
X141456Y-42814D03*
G54D11*
X141456Y-44075D03*
X141456Y-44901D03*
X141456Y-40138D03*
X141456Y-40964D03*
X141456Y-36201D03*
X141456Y-37027D03*
X142874Y-36201D03*
X142874Y-37027D03*
X142874Y-40138D03*
X142874Y-40964D03*
X142874Y-44075D03*
X142874Y-44901D03*
G54D12*
X142874Y-42146D03*
X142874Y-42814D03*
G54D11*
X142874Y-48012D03*
X142874Y-48838D03*
X142874Y-51949D03*
X142874Y-52775D03*
G54D12*
X142874Y-53957D03*
X142874Y-54625D03*
G54D11*
X142874Y-55886D03*
X142874Y-56712D03*
X142874Y-59823D03*
X142874Y-60649D03*
X142874Y-63760D03*
X142874Y-64586D03*
G54D12*
X142874Y-65768D03*
X142874Y-66436D03*
G54D11*
X142874Y-67697D03*
X142874Y-68523D03*
X145708Y-36201D03*
X145708Y-37027D03*
X145708Y-40138D03*
X145708Y-40964D03*
X145708Y-44075D03*
X145708Y-44901D03*
G54D12*
X145708Y-42146D03*
X145708Y-42814D03*
G54D11*
X145708Y-48012D03*
X145708Y-48838D03*
X145708Y-51949D03*
X145708Y-52775D03*
G54D12*
X145708Y-53957D03*
X145708Y-54625D03*
G54D11*
X145708Y-55886D03*
X145708Y-56712D03*
X145708Y-59823D03*
X145708Y-60649D03*
X145708Y-63760D03*
X145708Y-64586D03*
G54D12*
X145708Y-65768D03*
X145708Y-66436D03*
G54D11*
X145708Y-67697D03*
X145708Y-68523D03*
X131535Y-67697D03*
X131535Y-68523D03*
G54D12*
X131535Y-65768D03*
X131535Y-66436D03*
G54D11*
X131535Y-63760D03*
X131535Y-64586D03*
X131535Y-59823D03*
X131535Y-60649D03*
X131535Y-55886D03*
X131535Y-56712D03*
G54D12*
X131535Y-53957D03*
X131535Y-54625D03*
G54D11*
X131535Y-51949D03*
X131535Y-52775D03*
X131535Y-48012D03*
X131535Y-48838D03*
G54D12*
X131535Y-42146D03*
X131535Y-42814D03*
G54D11*
X131535Y-44075D03*
X131535Y-44901D03*
X131535Y-40138D03*
X131535Y-40964D03*
X131535Y-36201D03*
X131535Y-37027D03*
X128700Y-67697D03*
X128700Y-68523D03*
G54D12*
X128700Y-65768D03*
X128700Y-66436D03*
G54D11*
X128700Y-63760D03*
X128700Y-64586D03*
X128700Y-59823D03*
X128700Y-60649D03*
X128700Y-55886D03*
X128700Y-56712D03*
G54D12*
X128700Y-53957D03*
X128700Y-54625D03*
G54D11*
X128700Y-51949D03*
X128700Y-52775D03*
X128700Y-48012D03*
X128700Y-48838D03*
G54D12*
X128700Y-42146D03*
X128700Y-42814D03*
G54D11*
X128700Y-44075D03*
X128700Y-44901D03*
X128700Y-40138D03*
X128700Y-40964D03*
X128700Y-36201D03*
X128700Y-37027D03*
X127283Y-36201D03*
X127283Y-37027D03*
X127283Y-40138D03*
X127283Y-40964D03*
X127283Y-44075D03*
X127283Y-44901D03*
G54D12*
X127283Y-42146D03*
X127283Y-42814D03*
G54D11*
X127283Y-48012D03*
X127283Y-48838D03*
X127283Y-51949D03*
X127283Y-52775D03*
G54D12*
X127283Y-53957D03*
X127283Y-54625D03*
G54D11*
X127283Y-55886D03*
X127283Y-56712D03*
X127283Y-59823D03*
X127283Y-60649D03*
X127283Y-63760D03*
X127283Y-64586D03*
G54D12*
X127283Y-65768D03*
X127283Y-66436D03*
G54D11*
X127283Y-67697D03*
X127283Y-68523D03*
X130118Y-36201D03*
X130118Y-37027D03*
X130118Y-40138D03*
X130118Y-40964D03*
X130118Y-44075D03*
X130118Y-44901D03*
G54D12*
X130118Y-42146D03*
X130118Y-42814D03*
G54D11*
X130118Y-48012D03*
X130118Y-48838D03*
X130118Y-51949D03*
X130118Y-52775D03*
G54D12*
X130118Y-53957D03*
X130118Y-54625D03*
G54D11*
X130118Y-55886D03*
X130118Y-56712D03*
X130118Y-59823D03*
X130118Y-60649D03*
X130118Y-63760D03*
X130118Y-64586D03*
G54D12*
X130118Y-65768D03*
X130118Y-66436D03*
G54D11*
X130118Y-67697D03*
X130118Y-68523D03*
X125866Y-67697D03*
X125866Y-68523D03*
G54D12*
X125866Y-65768D03*
X125866Y-66436D03*
G54D11*
X125866Y-63760D03*
X125866Y-64586D03*
X125866Y-59823D03*
X125866Y-60649D03*
X125866Y-55886D03*
X125866Y-56712D03*
G54D12*
X125866Y-53957D03*
X125866Y-54625D03*
G54D11*
X125866Y-51949D03*
X125866Y-52775D03*
X125866Y-48012D03*
X125866Y-48838D03*
G54D12*
X125866Y-42146D03*
X125866Y-42814D03*
G54D11*
X125866Y-44075D03*
X125866Y-44901D03*
X125866Y-40138D03*
X125866Y-40964D03*
X125866Y-36201D03*
X125866Y-37027D03*
X123031Y-67697D03*
X123031Y-68523D03*
G54D12*
X123031Y-65768D03*
X123031Y-66436D03*
G54D11*
X123031Y-63760D03*
X123031Y-64586D03*
X123031Y-59823D03*
X123031Y-60649D03*
X123031Y-55886D03*
X123031Y-56712D03*
G54D12*
X123031Y-53957D03*
X123031Y-54625D03*
G54D11*
X123031Y-51949D03*
X123031Y-52775D03*
X123031Y-48012D03*
X123031Y-48838D03*
G54D12*
X123031Y-42146D03*
X123031Y-42814D03*
G54D11*
X123031Y-44075D03*
X123031Y-44901D03*
X123031Y-40138D03*
X123031Y-40964D03*
X123031Y-36201D03*
X123031Y-37027D03*
X124448Y-36201D03*
X124448Y-37027D03*
X124448Y-40138D03*
X124448Y-40964D03*
X124448Y-44075D03*
X124448Y-44901D03*
G54D12*
X124448Y-42146D03*
X124448Y-42814D03*
G54D11*
X124448Y-48012D03*
X124448Y-48838D03*
X124448Y-51949D03*
X124448Y-52775D03*
G54D12*
X124448Y-53957D03*
X124448Y-54625D03*
G54D11*
X124448Y-55886D03*
X124448Y-56712D03*
X124448Y-59823D03*
X124448Y-60649D03*
X124448Y-63760D03*
X124448Y-64586D03*
G54D12*
X124448Y-65768D03*
X124448Y-66436D03*
G54D11*
X124448Y-67697D03*
X124448Y-68523D03*
X120196Y-67697D03*
X120196Y-68523D03*
G54D12*
X120196Y-65768D03*
X120196Y-66436D03*
G54D11*
X120196Y-63760D03*
X120196Y-64586D03*
X120196Y-59823D03*
X120196Y-60649D03*
X120196Y-55886D03*
X120196Y-56712D03*
G54D12*
X120196Y-53957D03*
X120196Y-54625D03*
G54D11*
X120196Y-51949D03*
X120196Y-52775D03*
X120196Y-48012D03*
X120196Y-48838D03*
G54D12*
X120196Y-42146D03*
X120196Y-42814D03*
G54D11*
X120196Y-44075D03*
X120196Y-44901D03*
X120196Y-40138D03*
X120196Y-40964D03*
X120196Y-36201D03*
X120196Y-37027D03*
X118779Y-36201D03*
X118779Y-37027D03*
X118779Y-40138D03*
X118779Y-40964D03*
X118779Y-44075D03*
X118779Y-44901D03*
G54D12*
X118779Y-42146D03*
X118779Y-42814D03*
G54D11*
X118779Y-48012D03*
X118779Y-48838D03*
X118779Y-51949D03*
X118779Y-52775D03*
G54D12*
X118779Y-53957D03*
X118779Y-54625D03*
G54D11*
X118779Y-55886D03*
X118779Y-56712D03*
X118779Y-59823D03*
X118779Y-60649D03*
X118779Y-63760D03*
X118779Y-64586D03*
G54D12*
X118779Y-65768D03*
X118779Y-66436D03*
G54D11*
X118779Y-67697D03*
X118779Y-68523D03*
X121614Y-36201D03*
X121614Y-37027D03*
X121614Y-40138D03*
X121614Y-40964D03*
X121614Y-44075D03*
X121614Y-44901D03*
G54D12*
X121614Y-42146D03*
X121614Y-42814D03*
G54D11*
X121614Y-48012D03*
X121614Y-48838D03*
X121614Y-51949D03*
X121614Y-52775D03*
G54D12*
X121614Y-53957D03*
X121614Y-54625D03*
G54D11*
X121614Y-55886D03*
X121614Y-56712D03*
X121614Y-59823D03*
X121614Y-60649D03*
X121614Y-63760D03*
X121614Y-64586D03*
G54D12*
X121614Y-65768D03*
X121614Y-66436D03*
G54D11*
X121614Y-67697D03*
X121614Y-68523D03*
X117362Y-67697D03*
X117362Y-68523D03*
G54D12*
X117362Y-65768D03*
X117362Y-66436D03*
G54D11*
X117362Y-63760D03*
X117362Y-64586D03*
X117362Y-59823D03*
X117362Y-60649D03*
X117362Y-55886D03*
X117362Y-56712D03*
G54D12*
X117362Y-53957D03*
X117362Y-54625D03*
G54D11*
X117362Y-51949D03*
X117362Y-52775D03*
X117362Y-48012D03*
X117362Y-48838D03*
G54D12*
X117362Y-42146D03*
X117362Y-42814D03*
G54D11*
X117362Y-44075D03*
X117362Y-44901D03*
X117362Y-40138D03*
X117362Y-40964D03*
X117362Y-36201D03*
X117362Y-37027D03*
X114527Y-67697D03*
X114527Y-68523D03*
G54D12*
X114527Y-65768D03*
X114527Y-66436D03*
G54D11*
X114527Y-63760D03*
X114527Y-64586D03*
X114527Y-59823D03*
X114527Y-60649D03*
X114527Y-55886D03*
X114527Y-56712D03*
G54D12*
X114527Y-53957D03*
X114527Y-54625D03*
G54D11*
X114527Y-51949D03*
X114527Y-52775D03*
X114527Y-48012D03*
X114527Y-48838D03*
G54D12*
X114527Y-42146D03*
X114527Y-42814D03*
G54D11*
X114527Y-44075D03*
X114527Y-44901D03*
X114527Y-40138D03*
X114527Y-40964D03*
X114527Y-36201D03*
X114527Y-37027D03*
G54D13*
X147834Y-68110D03*
X147834Y-36614D03*
X112401Y-68110D03*
X112401Y-36614D03*
X112401Y-52362D03*
X147834Y-52362D03*
G54D11*
X115944Y-36201D03*
X115944Y-37027D03*
X115944Y-40138D03*
X115944Y-40964D03*
X115944Y-44075D03*
X115944Y-44901D03*
G54D12*
X115944Y-42146D03*
X115944Y-42814D03*
G54D11*
X115944Y-48012D03*
X115944Y-48838D03*
X115944Y-51949D03*
X115944Y-52775D03*
G54D12*
X115944Y-53957D03*
X115944Y-54625D03*
G54D11*
X115944Y-55886D03*
X115944Y-56712D03*
X115944Y-59823D03*
X115944Y-60649D03*
X115944Y-63760D03*
X115944Y-64586D03*
G54D12*
X115944Y-65768D03*
X115944Y-66436D03*
G54D11*
X115944Y-67697D03*
X115944Y-68523D03*
M02*
