M48
METRIC,TZ
T1C0.400
T2C2.500
T3C4.000
%
G90
G05
T1
X289350Y-118000
X289450Y-148000
X290900Y-118000
X290900Y-148000
X292350Y-148000
X292450Y-118000
X292950Y-118000
X293050Y-148000
X294500Y-118000
X294500Y-148000
X295950Y-148000
X296050Y-118000
X296550Y-118000
X296650Y-148000
X298100Y-118000
X298100Y-148000
X299550Y-148000
X299650Y-118000
X300150Y-118000
X300250Y-148000
X301700Y-118000
X301700Y-148000
X303150Y-148000
X303250Y-118000
X303750Y-118000
X303850Y-148000
X305300Y-118000
X305300Y-148000
X306750Y-148000
X306850Y-118000
X307350Y-118000
X307450Y-148000
X308900Y-118000
X308900Y-148000
X310350Y-148000
X310450Y-118000
X310950Y-118000
X311050Y-148000
X312500Y-118000
X312500Y-148000
X313950Y-148000
X314050Y-118000
X314550Y-118000
X314650Y-148000
X316100Y-118000
X316100Y-148000
X317550Y-148000
X317650Y-118000
X318150Y-118000
X318250Y-148000
X319700Y-118000
X319700Y-148000
X321150Y-148000
X321250Y-118000
X321750Y-118000
X321850Y-148000
X323300Y-118000
X323300Y-148000
X324750Y-148000
X324850Y-118000
X325350Y-118000
X325450Y-148000
X326900Y-118000
X326900Y-148000
X328350Y-148000
X328450Y-118000
X328950Y-118000
X329050Y-148000
X330500Y-118000
X330500Y-148000
X331950Y-148000
X332050Y-118000
X332550Y-118000
X332650Y-148000
X334100Y-118000
X334100Y-148000
X335550Y-148000
X335650Y-118000
X336150Y-118000
X336250Y-148000
X337700Y-118000
X337700Y-148000
X339150Y-148000
X339250Y-118000
X339750Y-118000
X339850Y-148000
X341300Y-118000
X341300Y-148000
X342750Y-148000
X342850Y-118000
X343350Y-118000
X343450Y-148000
X344900Y-118000
X344900Y-148000
X346350Y-148000
X346450Y-118000
X346950Y-118000
X347050Y-148000
X348500Y-118000
X348500Y-148000
X349950Y-148000
X350050Y-118000
X350550Y-118000
X350650Y-148000
X352100Y-118000
X352100Y-148000
X353550Y-148000
X353650Y-118000
X354150Y-118000
X354250Y-148000
X355700Y-118000
X355700Y-148000
X357150Y-148000
X357250Y-118000
X357750Y-118000
X357850Y-148000
X359300Y-118000
X359300Y-148000
X360750Y-148000
X360850Y-118000
X361350Y-118000
X361450Y-148000
X362900Y-118000
X362900Y-148000
X364350Y-148000
X364450Y-118000
X364950Y-118000
X365050Y-148000
X366500Y-118000
X366500Y-148000
X367950Y-148000
X368050Y-118000
X368550Y-118000
X368650Y-148000
X370100Y-118000
X370100Y-148000
X371550Y-148000
X371650Y-118000
T2
X285500Y-093000
X285500Y-133000
X285500Y-173000
X375500Y-093000
X375500Y-133000
X375500Y-173000
T3
X285500Y-098000
X285500Y-168000
X375500Y-098000
X375500Y-168000
T0
M30
