%FSLAX34Y34*%
G04 Gerber Fmt 3.4, Leading zero omitted, Abs format*
G04 (created by PCBNEW (2014-05-23 BZR 4886)-product) date Sun 25 May 2014 04:06:41 PM CEST*
%MOIN*%
G01*
G70*
G90*
G04 APERTURE LIST*
%ADD10C,0.005906*%
%ADD11R,0.055118X0.098425*%
%ADD12R,0.043300X0.039300*%
%ADD13R,0.059055X0.047244*%
G04 APERTURE END LIST*
G54D10*
G54D11*
X103543Y-22244D03*
X102834Y-22244D03*
X103543Y-32874D03*
X102834Y-32874D03*
X103543Y-34055D03*
X102834Y-34055D03*
X103543Y-44685D03*
X102834Y-44685D03*
X103543Y-45866D03*
X102834Y-45866D03*
X103543Y-56496D03*
X102834Y-56496D03*
G54D12*
X103188Y-40965D03*
X103188Y-41633D03*
X103188Y-52776D03*
X103188Y-53444D03*
X103188Y-29154D03*
X103188Y-29822D03*
G54D13*
X103188Y-23209D03*
X103188Y-24035D03*
X103188Y-35020D03*
X103188Y-35846D03*
X103188Y-38957D03*
X103188Y-39783D03*
X103188Y-42894D03*
X103188Y-43720D03*
X103188Y-46831D03*
X103188Y-47657D03*
X103188Y-50768D03*
X103188Y-51594D03*
X103188Y-54705D03*
X103188Y-55531D03*
X103188Y-27146D03*
X103188Y-27972D03*
X103188Y-31083D03*
X103188Y-31909D03*
X104763Y-31083D03*
X104763Y-31909D03*
X104763Y-27146D03*
X104763Y-27972D03*
X104763Y-54705D03*
X104763Y-55531D03*
X104763Y-50768D03*
X104763Y-51594D03*
X104763Y-46831D03*
X104763Y-47657D03*
X104763Y-42894D03*
X104763Y-43720D03*
X104763Y-38957D03*
X104763Y-39783D03*
X104763Y-35020D03*
X104763Y-35846D03*
X104763Y-23209D03*
X104763Y-24035D03*
G54D12*
X104763Y-29154D03*
X104763Y-29822D03*
X104763Y-52776D03*
X104763Y-53444D03*
X104763Y-40965D03*
X104763Y-41633D03*
G54D11*
X105118Y-56496D03*
X104409Y-56496D03*
X105118Y-45866D03*
X104409Y-45866D03*
X105118Y-44685D03*
X104409Y-44685D03*
X105118Y-34055D03*
X104409Y-34055D03*
X105118Y-32874D03*
X104409Y-32874D03*
X105118Y-22244D03*
X104409Y-22244D03*
X101968Y-22244D03*
X101259Y-22244D03*
X101968Y-32874D03*
X101259Y-32874D03*
X101968Y-34055D03*
X101259Y-34055D03*
X101968Y-44685D03*
X101259Y-44685D03*
X101968Y-45866D03*
X101259Y-45866D03*
X101968Y-56496D03*
X101259Y-56496D03*
G54D12*
X101614Y-40965D03*
X101614Y-41633D03*
X101614Y-52776D03*
X101614Y-53444D03*
X101614Y-29154D03*
X101614Y-29822D03*
G54D13*
X101614Y-23209D03*
X101614Y-24035D03*
X101614Y-35020D03*
X101614Y-35846D03*
X101614Y-38957D03*
X101614Y-39783D03*
X101614Y-42894D03*
X101614Y-43720D03*
X101614Y-46831D03*
X101614Y-47657D03*
X101614Y-50768D03*
X101614Y-51594D03*
X101614Y-54705D03*
X101614Y-55531D03*
X101614Y-27146D03*
X101614Y-27972D03*
X101614Y-31083D03*
X101614Y-31909D03*
X100039Y-31083D03*
X100039Y-31909D03*
X100039Y-27146D03*
X100039Y-27972D03*
X100039Y-54705D03*
X100039Y-55531D03*
X100039Y-50768D03*
X100039Y-51594D03*
X100039Y-46831D03*
X100039Y-47657D03*
X100039Y-42894D03*
X100039Y-43720D03*
X100039Y-38957D03*
X100039Y-39783D03*
X100039Y-35020D03*
X100039Y-35846D03*
X100039Y-23209D03*
X100039Y-24035D03*
G54D12*
X100039Y-29154D03*
X100039Y-29822D03*
X100039Y-52776D03*
X100039Y-53444D03*
X100039Y-40965D03*
X100039Y-41633D03*
G54D11*
X100393Y-56496D03*
X99685Y-56496D03*
X100393Y-45866D03*
X99685Y-45866D03*
X100393Y-44685D03*
X99685Y-44685D03*
X100393Y-34055D03*
X99685Y-34055D03*
X100393Y-32874D03*
X99685Y-32874D03*
X100393Y-22244D03*
X99685Y-22244D03*
X94094Y-22244D03*
X93385Y-22244D03*
X94094Y-32874D03*
X93385Y-32874D03*
X94094Y-34055D03*
X93385Y-34055D03*
X94094Y-44685D03*
X93385Y-44685D03*
X94094Y-45866D03*
X93385Y-45866D03*
X94094Y-56496D03*
X93385Y-56496D03*
G54D12*
X93740Y-40965D03*
X93740Y-41633D03*
X93740Y-52776D03*
X93740Y-53444D03*
X93740Y-29154D03*
X93740Y-29822D03*
G54D13*
X93740Y-23209D03*
X93740Y-24035D03*
X93740Y-35020D03*
X93740Y-35846D03*
X93740Y-38957D03*
X93740Y-39783D03*
X93740Y-42894D03*
X93740Y-43720D03*
X93740Y-46831D03*
X93740Y-47657D03*
X93740Y-50768D03*
X93740Y-51594D03*
X93740Y-54705D03*
X93740Y-55531D03*
X93740Y-27146D03*
X93740Y-27972D03*
X93740Y-31083D03*
X93740Y-31909D03*
X95314Y-31083D03*
X95314Y-31909D03*
X95314Y-27146D03*
X95314Y-27972D03*
X95314Y-54705D03*
X95314Y-55531D03*
X95314Y-50768D03*
X95314Y-51594D03*
X95314Y-46831D03*
X95314Y-47657D03*
X95314Y-42894D03*
X95314Y-43720D03*
X95314Y-38957D03*
X95314Y-39783D03*
X95314Y-35020D03*
X95314Y-35846D03*
X95314Y-23209D03*
X95314Y-24035D03*
G54D12*
X95314Y-29154D03*
X95314Y-29822D03*
X95314Y-52776D03*
X95314Y-53444D03*
X95314Y-40965D03*
X95314Y-41633D03*
G54D11*
X95669Y-56496D03*
X94960Y-56496D03*
X95669Y-45866D03*
X94960Y-45866D03*
X95669Y-44685D03*
X94960Y-44685D03*
X95669Y-34055D03*
X94960Y-34055D03*
X95669Y-32874D03*
X94960Y-32874D03*
X95669Y-22244D03*
X94960Y-22244D03*
X98818Y-22244D03*
X98110Y-22244D03*
X98818Y-32874D03*
X98110Y-32874D03*
X98818Y-34055D03*
X98110Y-34055D03*
X98818Y-44685D03*
X98110Y-44685D03*
X98818Y-45866D03*
X98110Y-45866D03*
X98818Y-56496D03*
X98110Y-56496D03*
G54D12*
X98464Y-40965D03*
X98464Y-41633D03*
X98464Y-52776D03*
X98464Y-53444D03*
X98464Y-29154D03*
X98464Y-29822D03*
G54D13*
X98464Y-23209D03*
X98464Y-24035D03*
X98464Y-35020D03*
X98464Y-35846D03*
X98464Y-38957D03*
X98464Y-39783D03*
X98464Y-42894D03*
X98464Y-43720D03*
X98464Y-46831D03*
X98464Y-47657D03*
X98464Y-50768D03*
X98464Y-51594D03*
X98464Y-54705D03*
X98464Y-55531D03*
X98464Y-27146D03*
X98464Y-27972D03*
X98464Y-31083D03*
X98464Y-31909D03*
X96889Y-31083D03*
X96889Y-31909D03*
X96889Y-27146D03*
X96889Y-27972D03*
X96889Y-54705D03*
X96889Y-55531D03*
X96889Y-50768D03*
X96889Y-51594D03*
X96889Y-46831D03*
X96889Y-47657D03*
X96889Y-42894D03*
X96889Y-43720D03*
X96889Y-38957D03*
X96889Y-39783D03*
X96889Y-35020D03*
X96889Y-35846D03*
X96889Y-23209D03*
X96889Y-24035D03*
G54D12*
X96889Y-29154D03*
X96889Y-29822D03*
X96889Y-52776D03*
X96889Y-53444D03*
X96889Y-40965D03*
X96889Y-41633D03*
G54D11*
X97244Y-56496D03*
X96535Y-56496D03*
X97244Y-45866D03*
X96535Y-45866D03*
X97244Y-44685D03*
X96535Y-44685D03*
X97244Y-34055D03*
X96535Y-34055D03*
X97244Y-32874D03*
X96535Y-32874D03*
X97244Y-22244D03*
X96535Y-22244D03*
X84645Y-22244D03*
X83937Y-22244D03*
X84645Y-32874D03*
X83937Y-32874D03*
X84645Y-34055D03*
X83937Y-34055D03*
X84645Y-44685D03*
X83937Y-44685D03*
X84645Y-45866D03*
X83937Y-45866D03*
X84645Y-56496D03*
X83937Y-56496D03*
G54D12*
X84291Y-40965D03*
X84291Y-41633D03*
X84291Y-52776D03*
X84291Y-53444D03*
X84291Y-29154D03*
X84291Y-29822D03*
G54D13*
X84291Y-23209D03*
X84291Y-24035D03*
X84291Y-35020D03*
X84291Y-35846D03*
X84291Y-38957D03*
X84291Y-39783D03*
X84291Y-42894D03*
X84291Y-43720D03*
X84291Y-46831D03*
X84291Y-47657D03*
X84291Y-50768D03*
X84291Y-51594D03*
X84291Y-54705D03*
X84291Y-55531D03*
X84291Y-27146D03*
X84291Y-27972D03*
X84291Y-31083D03*
X84291Y-31909D03*
X85866Y-31083D03*
X85866Y-31909D03*
X85866Y-27146D03*
X85866Y-27972D03*
X85866Y-54705D03*
X85866Y-55531D03*
X85866Y-50768D03*
X85866Y-51594D03*
X85866Y-46831D03*
X85866Y-47657D03*
X85866Y-42894D03*
X85866Y-43720D03*
X85866Y-38957D03*
X85866Y-39783D03*
X85866Y-35020D03*
X85866Y-35846D03*
X85866Y-23209D03*
X85866Y-24035D03*
G54D12*
X85866Y-29154D03*
X85866Y-29822D03*
X85866Y-52776D03*
X85866Y-53444D03*
X85866Y-40965D03*
X85866Y-41633D03*
G54D11*
X86220Y-56496D03*
X85511Y-56496D03*
X86220Y-45866D03*
X85511Y-45866D03*
X86220Y-44685D03*
X85511Y-44685D03*
X86220Y-34055D03*
X85511Y-34055D03*
X86220Y-32874D03*
X85511Y-32874D03*
X86220Y-22244D03*
X85511Y-22244D03*
X83070Y-22244D03*
X82362Y-22244D03*
X83070Y-32874D03*
X82362Y-32874D03*
X83070Y-34055D03*
X82362Y-34055D03*
X83070Y-44685D03*
X82362Y-44685D03*
X83070Y-45866D03*
X82362Y-45866D03*
X83070Y-56496D03*
X82362Y-56496D03*
G54D12*
X82716Y-40965D03*
X82716Y-41633D03*
X82716Y-52776D03*
X82716Y-53444D03*
X82716Y-29154D03*
X82716Y-29822D03*
G54D13*
X82716Y-23209D03*
X82716Y-24035D03*
X82716Y-35020D03*
X82716Y-35846D03*
X82716Y-38957D03*
X82716Y-39783D03*
X82716Y-42894D03*
X82716Y-43720D03*
X82716Y-46831D03*
X82716Y-47657D03*
X82716Y-50768D03*
X82716Y-51594D03*
X82716Y-54705D03*
X82716Y-55531D03*
X82716Y-27146D03*
X82716Y-27972D03*
X82716Y-31083D03*
X82716Y-31909D03*
X81141Y-31083D03*
X81141Y-31909D03*
X81141Y-27146D03*
X81141Y-27972D03*
X81141Y-54705D03*
X81141Y-55531D03*
X81141Y-50768D03*
X81141Y-51594D03*
X81141Y-46831D03*
X81141Y-47657D03*
X81141Y-42894D03*
X81141Y-43720D03*
X81141Y-38957D03*
X81141Y-39783D03*
X81141Y-35020D03*
X81141Y-35846D03*
X81141Y-23209D03*
X81141Y-24035D03*
G54D12*
X81141Y-29154D03*
X81141Y-29822D03*
X81141Y-52776D03*
X81141Y-53444D03*
X81141Y-40965D03*
X81141Y-41633D03*
G54D11*
X81496Y-56496D03*
X80787Y-56496D03*
X81496Y-45866D03*
X80787Y-45866D03*
X81496Y-44685D03*
X80787Y-44685D03*
X81496Y-34055D03*
X80787Y-34055D03*
X81496Y-32874D03*
X80787Y-32874D03*
X81496Y-22244D03*
X80787Y-22244D03*
X87795Y-22244D03*
X87086Y-22244D03*
X87795Y-32874D03*
X87086Y-32874D03*
X87795Y-34055D03*
X87086Y-34055D03*
X87795Y-44685D03*
X87086Y-44685D03*
X87795Y-45866D03*
X87086Y-45866D03*
X87795Y-56496D03*
X87086Y-56496D03*
G54D12*
X87440Y-40965D03*
X87440Y-41633D03*
X87440Y-52776D03*
X87440Y-53444D03*
X87440Y-29154D03*
X87440Y-29822D03*
G54D13*
X87440Y-23209D03*
X87440Y-24035D03*
X87440Y-35020D03*
X87440Y-35846D03*
X87440Y-38957D03*
X87440Y-39783D03*
X87440Y-42894D03*
X87440Y-43720D03*
X87440Y-46831D03*
X87440Y-47657D03*
X87440Y-50768D03*
X87440Y-51594D03*
X87440Y-54705D03*
X87440Y-55531D03*
X87440Y-27146D03*
X87440Y-27972D03*
X87440Y-31083D03*
X87440Y-31909D03*
X89015Y-31083D03*
X89015Y-31909D03*
X89015Y-27146D03*
X89015Y-27972D03*
X89015Y-54705D03*
X89015Y-55531D03*
X89015Y-50768D03*
X89015Y-51594D03*
X89015Y-46831D03*
X89015Y-47657D03*
X89015Y-42894D03*
X89015Y-43720D03*
X89015Y-38957D03*
X89015Y-39783D03*
X89015Y-35020D03*
X89015Y-35846D03*
X89015Y-23209D03*
X89015Y-24035D03*
G54D12*
X89015Y-29154D03*
X89015Y-29822D03*
X89015Y-52776D03*
X89015Y-53444D03*
X89015Y-40965D03*
X89015Y-41633D03*
G54D11*
X89370Y-56496D03*
X88661Y-56496D03*
X89370Y-45866D03*
X88661Y-45866D03*
X89370Y-44685D03*
X88661Y-44685D03*
X89370Y-34055D03*
X88661Y-34055D03*
X89370Y-32874D03*
X88661Y-32874D03*
X89370Y-22244D03*
X88661Y-22244D03*
X92519Y-22244D03*
X91811Y-22244D03*
X92519Y-32874D03*
X91811Y-32874D03*
X92519Y-34055D03*
X91811Y-34055D03*
X92519Y-44685D03*
X91811Y-44685D03*
X92519Y-45866D03*
X91811Y-45866D03*
X92519Y-56496D03*
X91811Y-56496D03*
G54D12*
X92165Y-40965D03*
X92165Y-41633D03*
X92165Y-52776D03*
X92165Y-53444D03*
X92165Y-29154D03*
X92165Y-29822D03*
G54D13*
X92165Y-23209D03*
X92165Y-24035D03*
X92165Y-35020D03*
X92165Y-35846D03*
X92165Y-38957D03*
X92165Y-39783D03*
X92165Y-42894D03*
X92165Y-43720D03*
X92165Y-46831D03*
X92165Y-47657D03*
X92165Y-50768D03*
X92165Y-51594D03*
X92165Y-54705D03*
X92165Y-55531D03*
X92165Y-27146D03*
X92165Y-27972D03*
X92165Y-31083D03*
X92165Y-31909D03*
X90590Y-31083D03*
X90590Y-31909D03*
X90590Y-27146D03*
X90590Y-27972D03*
X90590Y-54705D03*
X90590Y-55531D03*
X90590Y-50768D03*
X90590Y-51594D03*
X90590Y-46831D03*
X90590Y-47657D03*
X90590Y-42894D03*
X90590Y-43720D03*
X90590Y-38957D03*
X90590Y-39783D03*
X90590Y-35020D03*
X90590Y-35846D03*
X90590Y-23209D03*
X90590Y-24035D03*
G54D12*
X90590Y-29154D03*
X90590Y-29822D03*
X90590Y-52776D03*
X90590Y-53444D03*
X90590Y-40965D03*
X90590Y-41633D03*
G54D11*
X90944Y-56496D03*
X90236Y-56496D03*
X90944Y-45866D03*
X90236Y-45866D03*
X90944Y-44685D03*
X90236Y-44685D03*
X90944Y-34055D03*
X90236Y-34055D03*
X90944Y-32874D03*
X90236Y-32874D03*
X90944Y-22244D03*
X90236Y-22244D03*
X78346Y-22244D03*
X77637Y-22244D03*
X78346Y-32874D03*
X77637Y-32874D03*
X78346Y-34055D03*
X77637Y-34055D03*
X78346Y-44685D03*
X77637Y-44685D03*
X78346Y-45866D03*
X77637Y-45866D03*
X78346Y-56496D03*
X77637Y-56496D03*
G54D12*
X77992Y-40965D03*
X77992Y-41633D03*
X77992Y-52776D03*
X77992Y-53444D03*
X77992Y-29154D03*
X77992Y-29822D03*
G54D13*
X77992Y-23209D03*
X77992Y-24035D03*
X77992Y-35020D03*
X77992Y-35846D03*
X77992Y-38957D03*
X77992Y-39783D03*
X77992Y-42894D03*
X77992Y-43720D03*
X77992Y-46831D03*
X77992Y-47657D03*
X77992Y-50768D03*
X77992Y-51594D03*
X77992Y-54705D03*
X77992Y-55531D03*
X77992Y-27146D03*
X77992Y-27972D03*
X77992Y-31083D03*
X77992Y-31909D03*
X79566Y-31083D03*
X79566Y-31909D03*
X79566Y-27146D03*
X79566Y-27972D03*
X79566Y-54705D03*
X79566Y-55531D03*
X79566Y-50768D03*
X79566Y-51594D03*
X79566Y-46831D03*
X79566Y-47657D03*
X79566Y-42894D03*
X79566Y-43720D03*
X79566Y-38957D03*
X79566Y-39783D03*
X79566Y-35020D03*
X79566Y-35846D03*
X79566Y-23209D03*
X79566Y-24035D03*
G54D12*
X79566Y-29154D03*
X79566Y-29822D03*
X79566Y-52776D03*
X79566Y-53444D03*
X79566Y-40965D03*
X79566Y-41633D03*
G54D11*
X79921Y-56496D03*
X79212Y-56496D03*
X79921Y-45866D03*
X79212Y-45866D03*
X79921Y-44685D03*
X79212Y-44685D03*
X79921Y-34055D03*
X79212Y-34055D03*
X79921Y-32874D03*
X79212Y-32874D03*
X79921Y-22244D03*
X79212Y-22244D03*
X76771Y-22244D03*
X76062Y-22244D03*
X76771Y-32874D03*
X76062Y-32874D03*
X76771Y-34055D03*
X76062Y-34055D03*
X76771Y-44685D03*
X76062Y-44685D03*
X76771Y-45866D03*
X76062Y-45866D03*
X76771Y-56496D03*
X76062Y-56496D03*
G54D12*
X76417Y-40965D03*
X76417Y-41633D03*
X76417Y-52776D03*
X76417Y-53444D03*
X76417Y-29154D03*
X76417Y-29822D03*
G54D13*
X76417Y-23209D03*
X76417Y-24035D03*
X76417Y-35020D03*
X76417Y-35846D03*
X76417Y-38957D03*
X76417Y-39783D03*
X76417Y-42894D03*
X76417Y-43720D03*
X76417Y-46831D03*
X76417Y-47657D03*
X76417Y-50768D03*
X76417Y-51594D03*
X76417Y-54705D03*
X76417Y-55531D03*
X76417Y-27146D03*
X76417Y-27972D03*
X76417Y-31083D03*
X76417Y-31909D03*
X74842Y-31083D03*
X74842Y-31909D03*
X74842Y-27146D03*
X74842Y-27972D03*
X74842Y-54705D03*
X74842Y-55531D03*
X74842Y-50768D03*
X74842Y-51594D03*
X74842Y-46831D03*
X74842Y-47657D03*
X74842Y-42894D03*
X74842Y-43720D03*
X74842Y-38957D03*
X74842Y-39783D03*
X74842Y-35020D03*
X74842Y-35846D03*
X74842Y-23209D03*
X74842Y-24035D03*
G54D12*
X74842Y-29154D03*
X74842Y-29822D03*
X74842Y-52776D03*
X74842Y-53444D03*
X74842Y-40965D03*
X74842Y-41633D03*
G54D11*
X75196Y-56496D03*
X74488Y-56496D03*
X75196Y-45866D03*
X74488Y-45866D03*
X75196Y-44685D03*
X74488Y-44685D03*
X75196Y-34055D03*
X74488Y-34055D03*
X75196Y-32874D03*
X74488Y-32874D03*
X75196Y-22244D03*
X74488Y-22244D03*
X68897Y-22244D03*
X68188Y-22244D03*
X68897Y-32874D03*
X68188Y-32874D03*
X68897Y-34055D03*
X68188Y-34055D03*
X68897Y-44685D03*
X68188Y-44685D03*
X68897Y-45866D03*
X68188Y-45866D03*
X68897Y-56496D03*
X68188Y-56496D03*
G54D12*
X68543Y-40965D03*
X68543Y-41633D03*
X68543Y-52776D03*
X68543Y-53444D03*
X68543Y-29154D03*
X68543Y-29822D03*
G54D13*
X68543Y-23209D03*
X68543Y-24035D03*
X68543Y-35020D03*
X68543Y-35846D03*
X68543Y-38957D03*
X68543Y-39783D03*
X68543Y-42894D03*
X68543Y-43720D03*
X68543Y-46831D03*
X68543Y-47657D03*
X68543Y-50768D03*
X68543Y-51594D03*
X68543Y-54705D03*
X68543Y-55531D03*
X68543Y-27146D03*
X68543Y-27972D03*
X68543Y-31083D03*
X68543Y-31909D03*
X70118Y-31083D03*
X70118Y-31909D03*
X70118Y-27146D03*
X70118Y-27972D03*
X70118Y-54705D03*
X70118Y-55531D03*
X70118Y-50768D03*
X70118Y-51594D03*
X70118Y-46831D03*
X70118Y-47657D03*
X70118Y-42894D03*
X70118Y-43720D03*
X70118Y-38957D03*
X70118Y-39783D03*
X70118Y-35020D03*
X70118Y-35846D03*
X70118Y-23209D03*
X70118Y-24035D03*
G54D12*
X70118Y-29154D03*
X70118Y-29822D03*
X70118Y-52776D03*
X70118Y-53444D03*
X70118Y-40965D03*
X70118Y-41633D03*
G54D11*
X70472Y-56496D03*
X69763Y-56496D03*
X70472Y-45866D03*
X69763Y-45866D03*
X70472Y-44685D03*
X69763Y-44685D03*
X70472Y-34055D03*
X69763Y-34055D03*
X70472Y-32874D03*
X69763Y-32874D03*
X70472Y-22244D03*
X69763Y-22244D03*
X73622Y-22244D03*
X72913Y-22244D03*
X73622Y-32874D03*
X72913Y-32874D03*
X73622Y-34055D03*
X72913Y-34055D03*
X73622Y-44685D03*
X72913Y-44685D03*
X73622Y-45866D03*
X72913Y-45866D03*
X73622Y-56496D03*
X72913Y-56496D03*
G54D12*
X73267Y-40965D03*
X73267Y-41633D03*
X73267Y-52776D03*
X73267Y-53444D03*
X73267Y-29154D03*
X73267Y-29822D03*
G54D13*
X73267Y-23209D03*
X73267Y-24035D03*
X73267Y-35020D03*
X73267Y-35846D03*
X73267Y-38957D03*
X73267Y-39783D03*
X73267Y-42894D03*
X73267Y-43720D03*
X73267Y-46831D03*
X73267Y-47657D03*
X73267Y-50768D03*
X73267Y-51594D03*
X73267Y-54705D03*
X73267Y-55531D03*
X73267Y-27146D03*
X73267Y-27972D03*
X73267Y-31083D03*
X73267Y-31909D03*
X71692Y-31083D03*
X71692Y-31909D03*
X71692Y-27146D03*
X71692Y-27972D03*
X71692Y-54705D03*
X71692Y-55531D03*
X71692Y-50768D03*
X71692Y-51594D03*
X71692Y-46831D03*
X71692Y-47657D03*
X71692Y-42894D03*
X71692Y-43720D03*
X71692Y-38957D03*
X71692Y-39783D03*
X71692Y-35020D03*
X71692Y-35846D03*
X71692Y-23209D03*
X71692Y-24035D03*
G54D12*
X71692Y-29154D03*
X71692Y-29822D03*
X71692Y-52776D03*
X71692Y-53444D03*
X71692Y-40965D03*
X71692Y-41633D03*
G54D11*
X72047Y-56496D03*
X71338Y-56496D03*
X72047Y-45866D03*
X71338Y-45866D03*
X72047Y-44685D03*
X71338Y-44685D03*
X72047Y-34055D03*
X71338Y-34055D03*
X72047Y-32874D03*
X71338Y-32874D03*
X72047Y-22244D03*
X71338Y-22244D03*
M02*
