%FSLAX34Y34*%
G04 Gerber Fmt 3.4, Leading zero omitted, Abs format*
G04 (created by PCBNEW (2014-05-17 BZR 4870)-product) date Sun 18 May 2014 03:32:31 PM CEST*
%MOIN*%
G01*
G70*
G90*
G04 APERTURE LIST*
%ADD10C,0.005906*%
%ADD11R,0.059055X0.047244*%
%ADD12R,0.043300X0.039300*%
%ADD13R,0.039370X0.098425*%
%ADD14C,0.039370*%
%ADD15C,0.012000*%
%ADD16C,0.006000*%
%ADD17C,0.030000*%
%ADD18C,0.020000*%
G04 APERTURE END LIST*
G54D10*
G54D11*
X135787Y-67697D03*
X135787Y-68523D03*
G54D12*
X135787Y-65768D03*
X135787Y-66436D03*
G54D11*
X135787Y-63760D03*
X135787Y-64586D03*
X135787Y-59823D03*
X135787Y-60649D03*
X135787Y-55886D03*
X135787Y-56712D03*
G54D12*
X135787Y-53957D03*
X135787Y-54625D03*
G54D11*
X135787Y-51949D03*
X135787Y-52775D03*
X135787Y-48012D03*
X135787Y-48838D03*
G54D12*
X135787Y-42146D03*
X135787Y-42814D03*
G54D11*
X135787Y-44075D03*
X135787Y-44901D03*
X135787Y-40138D03*
X135787Y-40964D03*
X135787Y-36201D03*
X135787Y-37027D03*
G54D13*
X136102Y-45866D03*
X135472Y-45866D03*
X136102Y-35236D03*
X135472Y-35236D03*
X136102Y-47047D03*
X135472Y-47047D03*
X136102Y-58858D03*
X135472Y-58858D03*
X136102Y-69488D03*
X135472Y-69488D03*
X136102Y-57677D03*
X135472Y-57677D03*
G54D11*
X132952Y-67697D03*
X132952Y-68523D03*
G54D12*
X132952Y-65768D03*
X132952Y-66436D03*
G54D11*
X132952Y-63760D03*
X132952Y-64586D03*
X132952Y-59823D03*
X132952Y-60649D03*
X132952Y-55886D03*
X132952Y-56712D03*
G54D12*
X132952Y-53957D03*
X132952Y-54625D03*
G54D11*
X132952Y-51949D03*
X132952Y-52775D03*
X132952Y-48012D03*
X132952Y-48838D03*
G54D12*
X132952Y-42146D03*
X132952Y-42814D03*
G54D11*
X132952Y-44075D03*
X132952Y-44901D03*
X132952Y-40138D03*
X132952Y-40964D03*
X132952Y-36201D03*
X132952Y-37027D03*
G54D13*
X133267Y-45866D03*
X132637Y-45866D03*
X133267Y-35236D03*
X132637Y-35236D03*
X133267Y-47047D03*
X132637Y-47047D03*
X133267Y-58858D03*
X132637Y-58858D03*
X133267Y-69488D03*
X132637Y-69488D03*
X133267Y-57677D03*
X132637Y-57677D03*
X134685Y-57677D03*
X134055Y-57677D03*
X134685Y-69488D03*
X134055Y-69488D03*
X134685Y-58858D03*
X134055Y-58858D03*
X134685Y-47047D03*
X134055Y-47047D03*
X134685Y-35236D03*
X134055Y-35236D03*
X134685Y-45866D03*
X134055Y-45866D03*
G54D11*
X134370Y-36201D03*
X134370Y-37027D03*
X134370Y-40138D03*
X134370Y-40964D03*
X134370Y-44075D03*
X134370Y-44901D03*
G54D12*
X134370Y-42146D03*
X134370Y-42814D03*
G54D11*
X134370Y-48012D03*
X134370Y-48838D03*
X134370Y-51949D03*
X134370Y-52775D03*
G54D12*
X134370Y-53957D03*
X134370Y-54625D03*
G54D11*
X134370Y-55886D03*
X134370Y-56712D03*
X134370Y-59823D03*
X134370Y-60649D03*
X134370Y-63760D03*
X134370Y-64586D03*
G54D12*
X134370Y-65768D03*
X134370Y-66436D03*
G54D11*
X134370Y-67697D03*
X134370Y-68523D03*
X138622Y-67697D03*
X138622Y-68523D03*
G54D12*
X138622Y-65768D03*
X138622Y-66436D03*
G54D11*
X138622Y-63760D03*
X138622Y-64586D03*
X138622Y-59823D03*
X138622Y-60649D03*
X138622Y-55886D03*
X138622Y-56712D03*
G54D12*
X138622Y-53957D03*
X138622Y-54625D03*
G54D11*
X138622Y-51949D03*
X138622Y-52775D03*
X138622Y-48012D03*
X138622Y-48838D03*
G54D12*
X138622Y-42146D03*
X138622Y-42814D03*
G54D11*
X138622Y-44075D03*
X138622Y-44901D03*
X138622Y-40138D03*
X138622Y-40964D03*
X138622Y-36201D03*
X138622Y-37027D03*
G54D13*
X138937Y-45866D03*
X138307Y-45866D03*
X138937Y-35236D03*
X138307Y-35236D03*
X138937Y-47047D03*
X138307Y-47047D03*
X138937Y-58858D03*
X138307Y-58858D03*
X138937Y-69488D03*
X138307Y-69488D03*
X138937Y-57677D03*
X138307Y-57677D03*
X137519Y-57677D03*
X136889Y-57677D03*
X137519Y-69488D03*
X136889Y-69488D03*
X137519Y-58858D03*
X136889Y-58858D03*
X137519Y-47047D03*
X136889Y-47047D03*
X137519Y-35236D03*
X136889Y-35236D03*
X137519Y-45866D03*
X136889Y-45866D03*
G54D11*
X137204Y-36201D03*
X137204Y-37027D03*
X137204Y-40138D03*
X137204Y-40964D03*
X137204Y-44075D03*
X137204Y-44901D03*
G54D12*
X137204Y-42146D03*
X137204Y-42814D03*
G54D11*
X137204Y-48012D03*
X137204Y-48838D03*
X137204Y-51949D03*
X137204Y-52775D03*
G54D12*
X137204Y-53957D03*
X137204Y-54625D03*
G54D11*
X137204Y-55886D03*
X137204Y-56712D03*
X137204Y-59823D03*
X137204Y-60649D03*
X137204Y-63760D03*
X137204Y-64586D03*
G54D12*
X137204Y-65768D03*
X137204Y-66436D03*
G54D11*
X137204Y-67697D03*
X137204Y-68523D03*
G54D13*
X140354Y-57677D03*
X139724Y-57677D03*
X140354Y-69488D03*
X139724Y-69488D03*
X140354Y-58858D03*
X139724Y-58858D03*
X140354Y-47047D03*
X139724Y-47047D03*
X140354Y-35236D03*
X139724Y-35236D03*
X140354Y-45866D03*
X139724Y-45866D03*
G54D11*
X140039Y-36201D03*
X140039Y-37027D03*
X140039Y-40138D03*
X140039Y-40964D03*
X140039Y-44075D03*
X140039Y-44901D03*
G54D12*
X140039Y-42146D03*
X140039Y-42814D03*
G54D11*
X140039Y-48012D03*
X140039Y-48838D03*
X140039Y-51949D03*
X140039Y-52775D03*
G54D12*
X140039Y-53957D03*
X140039Y-54625D03*
G54D11*
X140039Y-55886D03*
X140039Y-56712D03*
X140039Y-59823D03*
X140039Y-60649D03*
X140039Y-63760D03*
X140039Y-64586D03*
G54D12*
X140039Y-65768D03*
X140039Y-66436D03*
G54D11*
X140039Y-67697D03*
X140039Y-68523D03*
X144291Y-67697D03*
X144291Y-68523D03*
G54D12*
X144291Y-65768D03*
X144291Y-66436D03*
G54D11*
X144291Y-63760D03*
X144291Y-64586D03*
X144291Y-59823D03*
X144291Y-60649D03*
X144291Y-55886D03*
X144291Y-56712D03*
G54D12*
X144291Y-53957D03*
X144291Y-54625D03*
G54D11*
X144291Y-51949D03*
X144291Y-52775D03*
X144291Y-48012D03*
X144291Y-48838D03*
G54D12*
X144291Y-42146D03*
X144291Y-42814D03*
G54D11*
X144291Y-44075D03*
X144291Y-44901D03*
X144291Y-40138D03*
X144291Y-40964D03*
X144291Y-36201D03*
X144291Y-37027D03*
G54D13*
X144606Y-45866D03*
X143976Y-45866D03*
X144606Y-35236D03*
X143976Y-35236D03*
X144606Y-47047D03*
X143976Y-47047D03*
X144606Y-58858D03*
X143976Y-58858D03*
X144606Y-69488D03*
X143976Y-69488D03*
X144606Y-57677D03*
X143976Y-57677D03*
G54D11*
X141456Y-67697D03*
X141456Y-68523D03*
G54D12*
X141456Y-65768D03*
X141456Y-66436D03*
G54D11*
X141456Y-63760D03*
X141456Y-64586D03*
X141456Y-59823D03*
X141456Y-60649D03*
X141456Y-55886D03*
X141456Y-56712D03*
G54D12*
X141456Y-53957D03*
X141456Y-54625D03*
G54D11*
X141456Y-51949D03*
X141456Y-52775D03*
X141456Y-48012D03*
X141456Y-48838D03*
G54D12*
X141456Y-42146D03*
X141456Y-42814D03*
G54D11*
X141456Y-44075D03*
X141456Y-44901D03*
X141456Y-40138D03*
X141456Y-40964D03*
X141456Y-36201D03*
X141456Y-37027D03*
G54D13*
X141771Y-45866D03*
X141141Y-45866D03*
X141771Y-35236D03*
X141141Y-35236D03*
X141771Y-47047D03*
X141141Y-47047D03*
X141771Y-58858D03*
X141141Y-58858D03*
X141771Y-69488D03*
X141141Y-69488D03*
X141771Y-57677D03*
X141141Y-57677D03*
X143188Y-57677D03*
X142559Y-57677D03*
X143188Y-69488D03*
X142559Y-69488D03*
X143188Y-58858D03*
X142559Y-58858D03*
X143188Y-47047D03*
X142559Y-47047D03*
X143188Y-35236D03*
X142559Y-35236D03*
X143188Y-45866D03*
X142559Y-45866D03*
G54D11*
X142874Y-36201D03*
X142874Y-37027D03*
X142874Y-40138D03*
X142874Y-40964D03*
X142874Y-44075D03*
X142874Y-44901D03*
G54D12*
X142874Y-42146D03*
X142874Y-42814D03*
G54D11*
X142874Y-48012D03*
X142874Y-48838D03*
X142874Y-51949D03*
X142874Y-52775D03*
G54D12*
X142874Y-53957D03*
X142874Y-54625D03*
G54D11*
X142874Y-55886D03*
X142874Y-56712D03*
X142874Y-59823D03*
X142874Y-60649D03*
X142874Y-63760D03*
X142874Y-64586D03*
G54D12*
X142874Y-65768D03*
X142874Y-66436D03*
G54D11*
X142874Y-67697D03*
X142874Y-68523D03*
G54D13*
X146023Y-57677D03*
X145393Y-57677D03*
X146023Y-69488D03*
X145393Y-69488D03*
X146023Y-58858D03*
X145393Y-58858D03*
X146023Y-47047D03*
X145393Y-47047D03*
X146023Y-35236D03*
X145393Y-35236D03*
X146023Y-45866D03*
X145393Y-45866D03*
G54D11*
X145708Y-36201D03*
X145708Y-37027D03*
X145708Y-40138D03*
X145708Y-40964D03*
X145708Y-44075D03*
X145708Y-44901D03*
G54D12*
X145708Y-42146D03*
X145708Y-42814D03*
G54D11*
X145708Y-48012D03*
X145708Y-48838D03*
X145708Y-51949D03*
X145708Y-52775D03*
G54D12*
X145708Y-53957D03*
X145708Y-54625D03*
G54D11*
X145708Y-55886D03*
X145708Y-56712D03*
X145708Y-59823D03*
X145708Y-60649D03*
X145708Y-63760D03*
X145708Y-64586D03*
G54D12*
X145708Y-65768D03*
X145708Y-66436D03*
G54D11*
X145708Y-67697D03*
X145708Y-68523D03*
X131535Y-67697D03*
X131535Y-68523D03*
G54D12*
X131535Y-65768D03*
X131535Y-66436D03*
G54D11*
X131535Y-63760D03*
X131535Y-64586D03*
X131535Y-59823D03*
X131535Y-60649D03*
X131535Y-55886D03*
X131535Y-56712D03*
G54D12*
X131535Y-53957D03*
X131535Y-54625D03*
G54D11*
X131535Y-51949D03*
X131535Y-52775D03*
X131535Y-48012D03*
X131535Y-48838D03*
G54D12*
X131535Y-42146D03*
X131535Y-42814D03*
G54D11*
X131535Y-44075D03*
X131535Y-44901D03*
X131535Y-40138D03*
X131535Y-40964D03*
X131535Y-36201D03*
X131535Y-37027D03*
G54D13*
X131850Y-45866D03*
X131220Y-45866D03*
X131850Y-35236D03*
X131220Y-35236D03*
X131850Y-47047D03*
X131220Y-47047D03*
X131850Y-58858D03*
X131220Y-58858D03*
X131850Y-69488D03*
X131220Y-69488D03*
X131850Y-57677D03*
X131220Y-57677D03*
G54D11*
X128700Y-67697D03*
X128700Y-68523D03*
G54D12*
X128700Y-65768D03*
X128700Y-66436D03*
G54D11*
X128700Y-63760D03*
X128700Y-64586D03*
X128700Y-59823D03*
X128700Y-60649D03*
X128700Y-55886D03*
X128700Y-56712D03*
G54D12*
X128700Y-53957D03*
X128700Y-54625D03*
G54D11*
X128700Y-51949D03*
X128700Y-52775D03*
X128700Y-48012D03*
X128700Y-48838D03*
G54D12*
X128700Y-42146D03*
X128700Y-42814D03*
G54D11*
X128700Y-44075D03*
X128700Y-44901D03*
X128700Y-40138D03*
X128700Y-40964D03*
X128700Y-36201D03*
X128700Y-37027D03*
G54D13*
X129015Y-45866D03*
X128385Y-45866D03*
X129015Y-35236D03*
X128385Y-35236D03*
X129015Y-47047D03*
X128385Y-47047D03*
X129015Y-58858D03*
X128385Y-58858D03*
X129015Y-69488D03*
X128385Y-69488D03*
X129015Y-57677D03*
X128385Y-57677D03*
X127598Y-57677D03*
X126968Y-57677D03*
X127598Y-69488D03*
X126968Y-69488D03*
X127598Y-58858D03*
X126968Y-58858D03*
X127598Y-47047D03*
X126968Y-47047D03*
X127598Y-35236D03*
X126968Y-35236D03*
X127598Y-45866D03*
X126968Y-45866D03*
G54D11*
X127283Y-36201D03*
X127283Y-37027D03*
X127283Y-40138D03*
X127283Y-40964D03*
X127283Y-44075D03*
X127283Y-44901D03*
G54D12*
X127283Y-42146D03*
X127283Y-42814D03*
G54D11*
X127283Y-48012D03*
X127283Y-48838D03*
X127283Y-51949D03*
X127283Y-52775D03*
G54D12*
X127283Y-53957D03*
X127283Y-54625D03*
G54D11*
X127283Y-55886D03*
X127283Y-56712D03*
X127283Y-59823D03*
X127283Y-60649D03*
X127283Y-63760D03*
X127283Y-64586D03*
G54D12*
X127283Y-65768D03*
X127283Y-66436D03*
G54D11*
X127283Y-67697D03*
X127283Y-68523D03*
G54D13*
X130433Y-57677D03*
X129803Y-57677D03*
X130433Y-69488D03*
X129803Y-69488D03*
X130433Y-58858D03*
X129803Y-58858D03*
X130433Y-47047D03*
X129803Y-47047D03*
X130433Y-35236D03*
X129803Y-35236D03*
X130433Y-45866D03*
X129803Y-45866D03*
G54D11*
X130118Y-36201D03*
X130118Y-37027D03*
X130118Y-40138D03*
X130118Y-40964D03*
X130118Y-44075D03*
X130118Y-44901D03*
G54D12*
X130118Y-42146D03*
X130118Y-42814D03*
G54D11*
X130118Y-48012D03*
X130118Y-48838D03*
X130118Y-51949D03*
X130118Y-52775D03*
G54D12*
X130118Y-53957D03*
X130118Y-54625D03*
G54D11*
X130118Y-55886D03*
X130118Y-56712D03*
X130118Y-59823D03*
X130118Y-60649D03*
X130118Y-63760D03*
X130118Y-64586D03*
G54D12*
X130118Y-65768D03*
X130118Y-66436D03*
G54D11*
X130118Y-67697D03*
X130118Y-68523D03*
X125866Y-67697D03*
X125866Y-68523D03*
G54D12*
X125866Y-65768D03*
X125866Y-66436D03*
G54D11*
X125866Y-63760D03*
X125866Y-64586D03*
X125866Y-59823D03*
X125866Y-60649D03*
X125866Y-55886D03*
X125866Y-56712D03*
G54D12*
X125866Y-53957D03*
X125866Y-54625D03*
G54D11*
X125866Y-51949D03*
X125866Y-52775D03*
X125866Y-48012D03*
X125866Y-48838D03*
G54D12*
X125866Y-42146D03*
X125866Y-42814D03*
G54D11*
X125866Y-44075D03*
X125866Y-44901D03*
X125866Y-40138D03*
X125866Y-40964D03*
X125866Y-36201D03*
X125866Y-37027D03*
G54D13*
X126181Y-45866D03*
X125551Y-45866D03*
X126181Y-35236D03*
X125551Y-35236D03*
X126181Y-47047D03*
X125551Y-47047D03*
X126181Y-58858D03*
X125551Y-58858D03*
X126181Y-69488D03*
X125551Y-69488D03*
X126181Y-57677D03*
X125551Y-57677D03*
G54D11*
X123031Y-67697D03*
X123031Y-68523D03*
G54D12*
X123031Y-65768D03*
X123031Y-66436D03*
G54D11*
X123031Y-63760D03*
X123031Y-64586D03*
X123031Y-59823D03*
X123031Y-60649D03*
X123031Y-55886D03*
X123031Y-56712D03*
G54D12*
X123031Y-53957D03*
X123031Y-54625D03*
G54D11*
X123031Y-51949D03*
X123031Y-52775D03*
X123031Y-48012D03*
X123031Y-48838D03*
G54D12*
X123031Y-42146D03*
X123031Y-42814D03*
G54D11*
X123031Y-44075D03*
X123031Y-44901D03*
X123031Y-40138D03*
X123031Y-40964D03*
X123031Y-36201D03*
X123031Y-37027D03*
G54D13*
X123346Y-45866D03*
X122716Y-45866D03*
X123346Y-35236D03*
X122716Y-35236D03*
X123346Y-47047D03*
X122716Y-47047D03*
X123346Y-58858D03*
X122716Y-58858D03*
X123346Y-69488D03*
X122716Y-69488D03*
X123346Y-57677D03*
X122716Y-57677D03*
X124763Y-57677D03*
X124133Y-57677D03*
X124763Y-69488D03*
X124133Y-69488D03*
X124763Y-58858D03*
X124133Y-58858D03*
X124763Y-47047D03*
X124133Y-47047D03*
X124763Y-35236D03*
X124133Y-35236D03*
X124763Y-45866D03*
X124133Y-45866D03*
G54D11*
X124448Y-36201D03*
X124448Y-37027D03*
X124448Y-40138D03*
X124448Y-40964D03*
X124448Y-44075D03*
X124448Y-44901D03*
G54D12*
X124448Y-42146D03*
X124448Y-42814D03*
G54D11*
X124448Y-48012D03*
X124448Y-48838D03*
X124448Y-51949D03*
X124448Y-52775D03*
G54D12*
X124448Y-53957D03*
X124448Y-54625D03*
G54D11*
X124448Y-55886D03*
X124448Y-56712D03*
X124448Y-59823D03*
X124448Y-60649D03*
X124448Y-63760D03*
X124448Y-64586D03*
G54D12*
X124448Y-65768D03*
X124448Y-66436D03*
G54D11*
X124448Y-67697D03*
X124448Y-68523D03*
X120196Y-67697D03*
X120196Y-68523D03*
G54D12*
X120196Y-65768D03*
X120196Y-66436D03*
G54D11*
X120196Y-63760D03*
X120196Y-64586D03*
X120196Y-59823D03*
X120196Y-60649D03*
X120196Y-55886D03*
X120196Y-56712D03*
G54D12*
X120196Y-53957D03*
X120196Y-54625D03*
G54D11*
X120196Y-51949D03*
X120196Y-52775D03*
X120196Y-48012D03*
X120196Y-48838D03*
G54D12*
X120196Y-42146D03*
X120196Y-42814D03*
G54D11*
X120196Y-44075D03*
X120196Y-44901D03*
X120196Y-40138D03*
X120196Y-40964D03*
X120196Y-36201D03*
X120196Y-37027D03*
G54D13*
X120511Y-45866D03*
X119881Y-45866D03*
X120511Y-35236D03*
X119881Y-35236D03*
X120511Y-47047D03*
X119881Y-47047D03*
X120511Y-58858D03*
X119881Y-58858D03*
X120511Y-69488D03*
X119881Y-69488D03*
X120511Y-57677D03*
X119881Y-57677D03*
X119094Y-57677D03*
X118464Y-57677D03*
X119094Y-69488D03*
X118464Y-69488D03*
X119094Y-58858D03*
X118464Y-58858D03*
X119094Y-47047D03*
X118464Y-47047D03*
X119094Y-35236D03*
X118464Y-35236D03*
X119094Y-45866D03*
X118464Y-45866D03*
G54D11*
X118779Y-36201D03*
X118779Y-37027D03*
X118779Y-40138D03*
X118779Y-40964D03*
X118779Y-44075D03*
X118779Y-44901D03*
G54D12*
X118779Y-42146D03*
X118779Y-42814D03*
G54D11*
X118779Y-48012D03*
X118779Y-48838D03*
X118779Y-51949D03*
X118779Y-52775D03*
G54D12*
X118779Y-53957D03*
X118779Y-54625D03*
G54D11*
X118779Y-55886D03*
X118779Y-56712D03*
X118779Y-59823D03*
X118779Y-60649D03*
X118779Y-63760D03*
X118779Y-64586D03*
G54D12*
X118779Y-65768D03*
X118779Y-66436D03*
G54D11*
X118779Y-67697D03*
X118779Y-68523D03*
G54D13*
X121929Y-57677D03*
X121299Y-57677D03*
X121929Y-69488D03*
X121299Y-69488D03*
X121929Y-58858D03*
X121299Y-58858D03*
X121929Y-47047D03*
X121299Y-47047D03*
X121929Y-35236D03*
X121299Y-35236D03*
X121929Y-45866D03*
X121299Y-45866D03*
G54D11*
X121614Y-36201D03*
X121614Y-37027D03*
X121614Y-40138D03*
X121614Y-40964D03*
X121614Y-44075D03*
X121614Y-44901D03*
G54D12*
X121614Y-42146D03*
X121614Y-42814D03*
G54D11*
X121614Y-48012D03*
X121614Y-48838D03*
X121614Y-51949D03*
X121614Y-52775D03*
G54D12*
X121614Y-53957D03*
X121614Y-54625D03*
G54D11*
X121614Y-55886D03*
X121614Y-56712D03*
X121614Y-59823D03*
X121614Y-60649D03*
X121614Y-63760D03*
X121614Y-64586D03*
G54D12*
X121614Y-65768D03*
X121614Y-66436D03*
G54D11*
X121614Y-67697D03*
X121614Y-68523D03*
X117362Y-67697D03*
X117362Y-68523D03*
G54D12*
X117362Y-65768D03*
X117362Y-66436D03*
G54D11*
X117362Y-63760D03*
X117362Y-64586D03*
X117362Y-59823D03*
X117362Y-60649D03*
X117362Y-55886D03*
X117362Y-56712D03*
G54D12*
X117362Y-53957D03*
X117362Y-54625D03*
G54D11*
X117362Y-51949D03*
X117362Y-52775D03*
X117362Y-48012D03*
X117362Y-48838D03*
G54D12*
X117362Y-42146D03*
X117362Y-42814D03*
G54D11*
X117362Y-44075D03*
X117362Y-44901D03*
X117362Y-40138D03*
X117362Y-40964D03*
X117362Y-36201D03*
X117362Y-37027D03*
G54D13*
X117677Y-45866D03*
X117047Y-45866D03*
X117677Y-35236D03*
X117047Y-35236D03*
X117677Y-47047D03*
X117047Y-47047D03*
X117677Y-58858D03*
X117047Y-58858D03*
X117677Y-69488D03*
X117047Y-69488D03*
X117677Y-57677D03*
X117047Y-57677D03*
G54D11*
X114527Y-67697D03*
X114527Y-68523D03*
G54D12*
X114527Y-65768D03*
X114527Y-66436D03*
G54D11*
X114527Y-63760D03*
X114527Y-64586D03*
X114527Y-59823D03*
X114527Y-60649D03*
X114527Y-55886D03*
X114527Y-56712D03*
G54D12*
X114527Y-53957D03*
X114527Y-54625D03*
G54D11*
X114527Y-51949D03*
X114527Y-52775D03*
X114527Y-48012D03*
X114527Y-48838D03*
G54D12*
X114527Y-42146D03*
X114527Y-42814D03*
G54D11*
X114527Y-44075D03*
X114527Y-44901D03*
X114527Y-40138D03*
X114527Y-40964D03*
X114527Y-36201D03*
X114527Y-37027D03*
G54D13*
X114842Y-45866D03*
X114212Y-45866D03*
X114842Y-35236D03*
X114212Y-35236D03*
X114842Y-47047D03*
X114212Y-47047D03*
X114842Y-58858D03*
X114212Y-58858D03*
X114842Y-69488D03*
X114212Y-69488D03*
X114842Y-57677D03*
X114212Y-57677D03*
G54D14*
X147834Y-71259D03*
X147834Y-33464D03*
X112401Y-33464D03*
X112401Y-71259D03*
G54D13*
X116259Y-57677D03*
X115629Y-57677D03*
X116259Y-69488D03*
X115629Y-69488D03*
X116259Y-58858D03*
X115629Y-58858D03*
X116259Y-47047D03*
X115629Y-47047D03*
X116259Y-35236D03*
X115629Y-35236D03*
X116259Y-45866D03*
X115629Y-45866D03*
G54D11*
X115944Y-36201D03*
X115944Y-37027D03*
X115944Y-40138D03*
X115944Y-40964D03*
X115944Y-44075D03*
X115944Y-44901D03*
G54D12*
X115944Y-42146D03*
X115944Y-42814D03*
G54D11*
X115944Y-48012D03*
X115944Y-48838D03*
X115944Y-51949D03*
X115944Y-52775D03*
G54D12*
X115944Y-53957D03*
X115944Y-54625D03*
G54D11*
X115944Y-55886D03*
X115944Y-56712D03*
X115944Y-59823D03*
X115944Y-60649D03*
X115944Y-63760D03*
X115944Y-64586D03*
G54D12*
X115944Y-65768D03*
X115944Y-66436D03*
G54D11*
X115944Y-67697D03*
X115944Y-68523D03*
G54D15*
X142874Y-63760D02*
X142874Y-60649D01*
X141456Y-63760D02*
X141456Y-60649D01*
X144291Y-63760D02*
X144291Y-60649D01*
X140039Y-63760D02*
X140039Y-60649D01*
X137204Y-63760D02*
X137204Y-60649D01*
X138622Y-63760D02*
X138622Y-60649D01*
X134370Y-63760D02*
X134370Y-60649D01*
X132952Y-63760D02*
X132952Y-60649D01*
X135787Y-63760D02*
X135787Y-60649D01*
X145708Y-63760D02*
X145708Y-60649D01*
X131535Y-63760D02*
X131535Y-60649D01*
X115944Y-63760D02*
X115944Y-60649D01*
X114527Y-63760D02*
X114527Y-60649D01*
X117362Y-63760D02*
X117362Y-60649D01*
X121614Y-63760D02*
X121614Y-60649D01*
X118779Y-63760D02*
X118779Y-60649D01*
X120196Y-63760D02*
X120196Y-60649D01*
X124448Y-63760D02*
X124448Y-60649D01*
X123031Y-63760D02*
X123031Y-60649D01*
X125866Y-63760D02*
X125866Y-60649D01*
X130118Y-63760D02*
X130118Y-60649D01*
X127283Y-63760D02*
X127283Y-60649D01*
X128700Y-63760D02*
X128700Y-60649D01*
X142874Y-64586D02*
X142874Y-65768D01*
X141456Y-64586D02*
X141456Y-65768D01*
X144291Y-64586D02*
X144291Y-65768D01*
X140039Y-64586D02*
X140039Y-65768D01*
X137204Y-64586D02*
X137204Y-65768D01*
X138622Y-64586D02*
X138622Y-65768D01*
X134370Y-64586D02*
X134370Y-65768D01*
X132952Y-64586D02*
X132952Y-65768D01*
X135787Y-64586D02*
X135787Y-65768D01*
X145708Y-64586D02*
X145708Y-65768D01*
X131535Y-64586D02*
X131535Y-65768D01*
X115944Y-64586D02*
X115944Y-65768D01*
X114527Y-64586D02*
X114527Y-65768D01*
X117362Y-64586D02*
X117362Y-65768D01*
X121614Y-64586D02*
X121614Y-65768D01*
X118779Y-64586D02*
X118779Y-65768D01*
X120196Y-64586D02*
X120196Y-65768D01*
X124448Y-64586D02*
X124448Y-65768D01*
X123031Y-64586D02*
X123031Y-65768D01*
X125866Y-64586D02*
X125866Y-65768D01*
X130118Y-64586D02*
X130118Y-65768D01*
X127283Y-64586D02*
X127283Y-65768D01*
X128700Y-64586D02*
X128700Y-65768D01*
G54D16*
X142559Y-59153D02*
X142559Y-58858D01*
G54D17*
X142731Y-48012D02*
X142874Y-48012D01*
X142731Y-36201D02*
X142874Y-36201D01*
X142731Y-59823D02*
X142874Y-59823D01*
X142559Y-45570D02*
X142559Y-45866D01*
G54D18*
X142559Y-45866D02*
X142559Y-45472D01*
X142362Y-59055D02*
X142559Y-58858D01*
X142362Y-59842D02*
X142362Y-59055D01*
X142362Y-68897D02*
X142362Y-59842D01*
X142559Y-69094D02*
X142362Y-68897D01*
X142559Y-69488D02*
X142559Y-69094D01*
X142559Y-58858D02*
X142559Y-57677D01*
X142362Y-47244D02*
X142559Y-47047D01*
X142362Y-48031D02*
X142362Y-47244D01*
X142362Y-57007D02*
X142362Y-48031D01*
X142559Y-57204D02*
X142362Y-57007D01*
X142559Y-57677D02*
X142559Y-57204D01*
X142559Y-45866D02*
X142559Y-47047D01*
X142362Y-35433D02*
X142559Y-35236D01*
X142362Y-36220D02*
X142362Y-35433D01*
X142362Y-45196D02*
X142362Y-36220D01*
X142559Y-45393D02*
X142362Y-45196D01*
X142559Y-45866D02*
X142559Y-45393D01*
X142362Y-59823D02*
X142362Y-59842D01*
X142874Y-59823D02*
X142362Y-59823D01*
X142362Y-48012D02*
X142381Y-48031D01*
X142381Y-48031D02*
X142401Y-48031D01*
X142401Y-48031D02*
X142362Y-48031D01*
X142874Y-48012D02*
X142362Y-48012D01*
X142362Y-36201D02*
X142362Y-36220D01*
X142874Y-36201D02*
X142362Y-36201D01*
X141456Y-36201D02*
X140944Y-36201D01*
X140944Y-36201D02*
X140944Y-36220D01*
X141456Y-48012D02*
X140944Y-48012D01*
X140984Y-48031D02*
X140944Y-48031D01*
X140964Y-48031D02*
X140984Y-48031D01*
X140944Y-48012D02*
X140964Y-48031D01*
X141456Y-59823D02*
X140944Y-59823D01*
X140944Y-59823D02*
X140944Y-59842D01*
X141141Y-45866D02*
X141141Y-45393D01*
X141141Y-45393D02*
X140944Y-45196D01*
X140944Y-45196D02*
X140944Y-36220D01*
X140944Y-36220D02*
X140944Y-35433D01*
X140944Y-35433D02*
X141141Y-35236D01*
X141141Y-45866D02*
X141141Y-47047D01*
X141141Y-57677D02*
X141141Y-57204D01*
X141141Y-57204D02*
X140944Y-57007D01*
X140944Y-57007D02*
X140944Y-48031D01*
X140944Y-48031D02*
X140944Y-47244D01*
X140944Y-47244D02*
X141141Y-47047D01*
X141141Y-58858D02*
X141141Y-57677D01*
X141141Y-69488D02*
X141141Y-69094D01*
X141141Y-69094D02*
X140944Y-68897D01*
X140944Y-68897D02*
X140944Y-59842D01*
X140944Y-59842D02*
X140944Y-59055D01*
X140944Y-59055D02*
X141141Y-58858D01*
X141141Y-45866D02*
X141141Y-45472D01*
G54D17*
X141141Y-45570D02*
X141141Y-45866D01*
X141314Y-59823D02*
X141456Y-59823D01*
X141314Y-36201D02*
X141456Y-36201D01*
X141314Y-48012D02*
X141456Y-48012D01*
G54D16*
X141141Y-59153D02*
X141141Y-58858D01*
G54D18*
X144291Y-36201D02*
X143779Y-36201D01*
X143779Y-36201D02*
X143779Y-36220D01*
X144291Y-48012D02*
X143779Y-48012D01*
X143818Y-48031D02*
X143779Y-48031D01*
X143798Y-48031D02*
X143818Y-48031D01*
X143779Y-48012D02*
X143798Y-48031D01*
X144291Y-59823D02*
X143779Y-59823D01*
X143779Y-59823D02*
X143779Y-59842D01*
X143976Y-45866D02*
X143976Y-45393D01*
X143976Y-45393D02*
X143779Y-45196D01*
X143779Y-45196D02*
X143779Y-36220D01*
X143779Y-36220D02*
X143779Y-35433D01*
X143779Y-35433D02*
X143976Y-35236D01*
X143976Y-45866D02*
X143976Y-47047D01*
X143976Y-57677D02*
X143976Y-57204D01*
X143976Y-57204D02*
X143779Y-57007D01*
X143779Y-57007D02*
X143779Y-48031D01*
X143779Y-48031D02*
X143779Y-47244D01*
X143779Y-47244D02*
X143976Y-47047D01*
X143976Y-58858D02*
X143976Y-57677D01*
X143976Y-69488D02*
X143976Y-69094D01*
X143976Y-69094D02*
X143779Y-68897D01*
X143779Y-68897D02*
X143779Y-59842D01*
X143779Y-59842D02*
X143779Y-59055D01*
X143779Y-59055D02*
X143976Y-58858D01*
X143976Y-45866D02*
X143976Y-45472D01*
G54D17*
X143976Y-45570D02*
X143976Y-45866D01*
X144149Y-59823D02*
X144291Y-59823D01*
X144149Y-36201D02*
X144291Y-36201D01*
X144149Y-48012D02*
X144291Y-48012D01*
G54D16*
X143976Y-59153D02*
X143976Y-58858D01*
X139724Y-59153D02*
X139724Y-58858D01*
G54D17*
X139897Y-48012D02*
X140039Y-48012D01*
X139897Y-36201D02*
X140039Y-36201D01*
X139897Y-59823D02*
X140039Y-59823D01*
X139724Y-45570D02*
X139724Y-45866D01*
G54D18*
X139724Y-45866D02*
X139724Y-45472D01*
X139527Y-59055D02*
X139724Y-58858D01*
X139527Y-59842D02*
X139527Y-59055D01*
X139527Y-68897D02*
X139527Y-59842D01*
X139724Y-69094D02*
X139527Y-68897D01*
X139724Y-69488D02*
X139724Y-69094D01*
X139724Y-58858D02*
X139724Y-57677D01*
X139527Y-47244D02*
X139724Y-47047D01*
X139527Y-48031D02*
X139527Y-47244D01*
X139527Y-57007D02*
X139527Y-48031D01*
X139724Y-57204D02*
X139527Y-57007D01*
X139724Y-57677D02*
X139724Y-57204D01*
X139724Y-45866D02*
X139724Y-47047D01*
X139527Y-35433D02*
X139724Y-35236D01*
X139527Y-36220D02*
X139527Y-35433D01*
X139527Y-45196D02*
X139527Y-36220D01*
X139724Y-45393D02*
X139527Y-45196D01*
X139724Y-45866D02*
X139724Y-45393D01*
X139527Y-59823D02*
X139527Y-59842D01*
X140039Y-59823D02*
X139527Y-59823D01*
X139527Y-48012D02*
X139546Y-48031D01*
X139546Y-48031D02*
X139566Y-48031D01*
X139566Y-48031D02*
X139527Y-48031D01*
X140039Y-48012D02*
X139527Y-48012D01*
X139527Y-36201D02*
X139527Y-36220D01*
X140039Y-36201D02*
X139527Y-36201D01*
G54D16*
X136889Y-59153D02*
X136889Y-58858D01*
G54D17*
X137062Y-48012D02*
X137204Y-48012D01*
X137062Y-36201D02*
X137204Y-36201D01*
X137062Y-59823D02*
X137204Y-59823D01*
X136889Y-45570D02*
X136889Y-45866D01*
G54D18*
X136889Y-45866D02*
X136889Y-45472D01*
X136692Y-59055D02*
X136889Y-58858D01*
X136692Y-59842D02*
X136692Y-59055D01*
X136692Y-68897D02*
X136692Y-59842D01*
X136889Y-69094D02*
X136692Y-68897D01*
X136889Y-69488D02*
X136889Y-69094D01*
X136889Y-58858D02*
X136889Y-57677D01*
X136692Y-47244D02*
X136889Y-47047D01*
X136692Y-48031D02*
X136692Y-47244D01*
X136692Y-57007D02*
X136692Y-48031D01*
X136889Y-57204D02*
X136692Y-57007D01*
X136889Y-57677D02*
X136889Y-57204D01*
X136889Y-45866D02*
X136889Y-47047D01*
X136692Y-35433D02*
X136889Y-35236D01*
X136692Y-36220D02*
X136692Y-35433D01*
X136692Y-45196D02*
X136692Y-36220D01*
X136889Y-45393D02*
X136692Y-45196D01*
X136889Y-45866D02*
X136889Y-45393D01*
X136692Y-59823D02*
X136692Y-59842D01*
X137204Y-59823D02*
X136692Y-59823D01*
X136692Y-48012D02*
X136712Y-48031D01*
X136712Y-48031D02*
X136732Y-48031D01*
X136732Y-48031D02*
X136692Y-48031D01*
X137204Y-48012D02*
X136692Y-48012D01*
X136692Y-36201D02*
X136692Y-36220D01*
X137204Y-36201D02*
X136692Y-36201D01*
X138622Y-36201D02*
X138110Y-36201D01*
X138110Y-36201D02*
X138110Y-36220D01*
X138622Y-48012D02*
X138110Y-48012D01*
X138149Y-48031D02*
X138110Y-48031D01*
X138129Y-48031D02*
X138149Y-48031D01*
X138110Y-48012D02*
X138129Y-48031D01*
X138622Y-59823D02*
X138110Y-59823D01*
X138110Y-59823D02*
X138110Y-59842D01*
X138307Y-45866D02*
X138307Y-45393D01*
X138307Y-45393D02*
X138110Y-45196D01*
X138110Y-45196D02*
X138110Y-36220D01*
X138110Y-36220D02*
X138110Y-35433D01*
X138110Y-35433D02*
X138307Y-35236D01*
X138307Y-45866D02*
X138307Y-47047D01*
X138307Y-57677D02*
X138307Y-57204D01*
X138307Y-57204D02*
X138110Y-57007D01*
X138110Y-57007D02*
X138110Y-48031D01*
X138110Y-48031D02*
X138110Y-47244D01*
X138110Y-47244D02*
X138307Y-47047D01*
X138307Y-58858D02*
X138307Y-57677D01*
X138307Y-69488D02*
X138307Y-69094D01*
X138307Y-69094D02*
X138110Y-68897D01*
X138110Y-68897D02*
X138110Y-59842D01*
X138110Y-59842D02*
X138110Y-59055D01*
X138110Y-59055D02*
X138307Y-58858D01*
X138307Y-45866D02*
X138307Y-45472D01*
G54D17*
X138307Y-45570D02*
X138307Y-45866D01*
X138479Y-59823D02*
X138622Y-59823D01*
X138479Y-36201D02*
X138622Y-36201D01*
X138479Y-48012D02*
X138622Y-48012D01*
G54D16*
X138307Y-59153D02*
X138307Y-58858D01*
X134055Y-59153D02*
X134055Y-58858D01*
G54D17*
X134227Y-48012D02*
X134370Y-48012D01*
X134227Y-36201D02*
X134370Y-36201D01*
X134227Y-59823D02*
X134370Y-59823D01*
X134055Y-45570D02*
X134055Y-45866D01*
G54D18*
X134055Y-45866D02*
X134055Y-45472D01*
X133858Y-59055D02*
X134055Y-58858D01*
X133858Y-59842D02*
X133858Y-59055D01*
X133858Y-68897D02*
X133858Y-59842D01*
X134055Y-69094D02*
X133858Y-68897D01*
X134055Y-69488D02*
X134055Y-69094D01*
X134055Y-58858D02*
X134055Y-57677D01*
X133858Y-47244D02*
X134055Y-47047D01*
X133858Y-48031D02*
X133858Y-47244D01*
X133858Y-57007D02*
X133858Y-48031D01*
X134055Y-57204D02*
X133858Y-57007D01*
X134055Y-57677D02*
X134055Y-57204D01*
X134055Y-45866D02*
X134055Y-47047D01*
X133858Y-35433D02*
X134055Y-35236D01*
X133858Y-36220D02*
X133858Y-35433D01*
X133858Y-45196D02*
X133858Y-36220D01*
X134055Y-45393D02*
X133858Y-45196D01*
X134055Y-45866D02*
X134055Y-45393D01*
X133858Y-59823D02*
X133858Y-59842D01*
X134370Y-59823D02*
X133858Y-59823D01*
X133858Y-48012D02*
X133877Y-48031D01*
X133877Y-48031D02*
X133897Y-48031D01*
X133897Y-48031D02*
X133858Y-48031D01*
X134370Y-48012D02*
X133858Y-48012D01*
X133858Y-36201D02*
X133858Y-36220D01*
X134370Y-36201D02*
X133858Y-36201D01*
X132952Y-36201D02*
X132440Y-36201D01*
X132440Y-36201D02*
X132440Y-36220D01*
X132952Y-48012D02*
X132440Y-48012D01*
X132480Y-48031D02*
X132440Y-48031D01*
X132460Y-48031D02*
X132480Y-48031D01*
X132440Y-48012D02*
X132460Y-48031D01*
X132952Y-59823D02*
X132440Y-59823D01*
X132440Y-59823D02*
X132440Y-59842D01*
X132637Y-45866D02*
X132637Y-45393D01*
X132637Y-45393D02*
X132440Y-45196D01*
X132440Y-45196D02*
X132440Y-36220D01*
X132440Y-36220D02*
X132440Y-35433D01*
X132440Y-35433D02*
X132637Y-35236D01*
X132637Y-45866D02*
X132637Y-47047D01*
X132637Y-57677D02*
X132637Y-57204D01*
X132637Y-57204D02*
X132440Y-57007D01*
X132440Y-57007D02*
X132440Y-48031D01*
X132440Y-48031D02*
X132440Y-47244D01*
X132440Y-47244D02*
X132637Y-47047D01*
X132637Y-58858D02*
X132637Y-57677D01*
X132637Y-69488D02*
X132637Y-69094D01*
X132637Y-69094D02*
X132440Y-68897D01*
X132440Y-68897D02*
X132440Y-59842D01*
X132440Y-59842D02*
X132440Y-59055D01*
X132440Y-59055D02*
X132637Y-58858D01*
X132637Y-45866D02*
X132637Y-45472D01*
G54D17*
X132637Y-45570D02*
X132637Y-45866D01*
X132810Y-59823D02*
X132952Y-59823D01*
X132810Y-36201D02*
X132952Y-36201D01*
X132810Y-48012D02*
X132952Y-48012D01*
G54D16*
X132637Y-59153D02*
X132637Y-58858D01*
G54D18*
X135787Y-36201D02*
X135275Y-36201D01*
X135275Y-36201D02*
X135275Y-36220D01*
X135787Y-48012D02*
X135275Y-48012D01*
X135314Y-48031D02*
X135275Y-48031D01*
X135294Y-48031D02*
X135314Y-48031D01*
X135275Y-48012D02*
X135294Y-48031D01*
X135787Y-59823D02*
X135275Y-59823D01*
X135275Y-59823D02*
X135275Y-59842D01*
X135472Y-45866D02*
X135472Y-45393D01*
X135472Y-45393D02*
X135275Y-45196D01*
X135275Y-45196D02*
X135275Y-36220D01*
X135275Y-36220D02*
X135275Y-35433D01*
X135275Y-35433D02*
X135472Y-35236D01*
X135472Y-45866D02*
X135472Y-47047D01*
X135472Y-57677D02*
X135472Y-57204D01*
X135472Y-57204D02*
X135275Y-57007D01*
X135275Y-57007D02*
X135275Y-48031D01*
X135275Y-48031D02*
X135275Y-47244D01*
X135275Y-47244D02*
X135472Y-47047D01*
X135472Y-58858D02*
X135472Y-57677D01*
X135472Y-69488D02*
X135472Y-69094D01*
X135472Y-69094D02*
X135275Y-68897D01*
X135275Y-68897D02*
X135275Y-59842D01*
X135275Y-59842D02*
X135275Y-59055D01*
X135275Y-59055D02*
X135472Y-58858D01*
X135472Y-45866D02*
X135472Y-45472D01*
G54D17*
X135472Y-45570D02*
X135472Y-45866D01*
X135645Y-59823D02*
X135787Y-59823D01*
X135645Y-36201D02*
X135787Y-36201D01*
X135645Y-48012D02*
X135787Y-48012D01*
G54D16*
X135472Y-59153D02*
X135472Y-58858D01*
X145393Y-59153D02*
X145393Y-58858D01*
G54D17*
X145566Y-48012D02*
X145708Y-48012D01*
X145566Y-36201D02*
X145708Y-36201D01*
X145566Y-59823D02*
X145708Y-59823D01*
X145393Y-45570D02*
X145393Y-45866D01*
G54D18*
X145393Y-45866D02*
X145393Y-45472D01*
X145196Y-59055D02*
X145393Y-58858D01*
X145196Y-59842D02*
X145196Y-59055D01*
X145196Y-68897D02*
X145196Y-59842D01*
X145393Y-69094D02*
X145196Y-68897D01*
X145393Y-69488D02*
X145393Y-69094D01*
X145393Y-58858D02*
X145393Y-57677D01*
X145196Y-47244D02*
X145393Y-47047D01*
X145196Y-48031D02*
X145196Y-47244D01*
X145196Y-57007D02*
X145196Y-48031D01*
X145393Y-57204D02*
X145196Y-57007D01*
X145393Y-57677D02*
X145393Y-57204D01*
X145393Y-45866D02*
X145393Y-47047D01*
X145196Y-35433D02*
X145393Y-35236D01*
X145196Y-36220D02*
X145196Y-35433D01*
X145196Y-45196D02*
X145196Y-36220D01*
X145393Y-45393D02*
X145196Y-45196D01*
X145393Y-45866D02*
X145393Y-45393D01*
X145196Y-59823D02*
X145196Y-59842D01*
X145708Y-59823D02*
X145196Y-59823D01*
X145196Y-48012D02*
X145216Y-48031D01*
X145216Y-48031D02*
X145236Y-48031D01*
X145236Y-48031D02*
X145196Y-48031D01*
X145708Y-48012D02*
X145196Y-48012D01*
X145196Y-36201D02*
X145196Y-36220D01*
X145708Y-36201D02*
X145196Y-36201D01*
X131535Y-36201D02*
X131023Y-36201D01*
X131023Y-36201D02*
X131023Y-36220D01*
X131535Y-48012D02*
X131023Y-48012D01*
X131062Y-48031D02*
X131023Y-48031D01*
X131042Y-48031D02*
X131062Y-48031D01*
X131023Y-48012D02*
X131042Y-48031D01*
X131535Y-59823D02*
X131023Y-59823D01*
X131023Y-59823D02*
X131023Y-59842D01*
X131220Y-45866D02*
X131220Y-45393D01*
X131220Y-45393D02*
X131023Y-45196D01*
X131023Y-45196D02*
X131023Y-36220D01*
X131023Y-36220D02*
X131023Y-35433D01*
X131023Y-35433D02*
X131220Y-35236D01*
X131220Y-45866D02*
X131220Y-47047D01*
X131220Y-57677D02*
X131220Y-57204D01*
X131220Y-57204D02*
X131023Y-57007D01*
X131023Y-57007D02*
X131023Y-48031D01*
X131023Y-48031D02*
X131023Y-47244D01*
X131023Y-47244D02*
X131220Y-47047D01*
X131220Y-58858D02*
X131220Y-57677D01*
X131220Y-69488D02*
X131220Y-69094D01*
X131220Y-69094D02*
X131023Y-68897D01*
X131023Y-68897D02*
X131023Y-59842D01*
X131023Y-59842D02*
X131023Y-59055D01*
X131023Y-59055D02*
X131220Y-58858D01*
X131220Y-45866D02*
X131220Y-45472D01*
G54D17*
X131220Y-45570D02*
X131220Y-45866D01*
X131393Y-59823D02*
X131535Y-59823D01*
X131393Y-36201D02*
X131535Y-36201D01*
X131393Y-48012D02*
X131535Y-48012D01*
G54D16*
X131220Y-59153D02*
X131220Y-58858D01*
X115629Y-59153D02*
X115629Y-58858D01*
G54D17*
X115802Y-48012D02*
X115944Y-48012D01*
X115802Y-36201D02*
X115944Y-36201D01*
X115802Y-59823D02*
X115944Y-59823D01*
X115629Y-45570D02*
X115629Y-45866D01*
G54D18*
X115629Y-45866D02*
X115629Y-45472D01*
X115433Y-59055D02*
X115629Y-58858D01*
X115433Y-59842D02*
X115433Y-59055D01*
X115433Y-68897D02*
X115433Y-59842D01*
X115629Y-69094D02*
X115433Y-68897D01*
X115629Y-69488D02*
X115629Y-69094D01*
X115629Y-58858D02*
X115629Y-57677D01*
X115433Y-47244D02*
X115629Y-47047D01*
X115433Y-48031D02*
X115433Y-47244D01*
X115433Y-57007D02*
X115433Y-48031D01*
X115629Y-57204D02*
X115433Y-57007D01*
X115629Y-57677D02*
X115629Y-57204D01*
X115629Y-45866D02*
X115629Y-47047D01*
X115433Y-35433D02*
X115629Y-35236D01*
X115433Y-36220D02*
X115433Y-35433D01*
X115433Y-45196D02*
X115433Y-36220D01*
X115629Y-45393D02*
X115433Y-45196D01*
X115629Y-45866D02*
X115629Y-45393D01*
X115433Y-59823D02*
X115433Y-59842D01*
X115944Y-59823D02*
X115433Y-59823D01*
X115433Y-48012D02*
X115452Y-48031D01*
X115452Y-48031D02*
X115472Y-48031D01*
X115472Y-48031D02*
X115433Y-48031D01*
X115944Y-48012D02*
X115433Y-48012D01*
X115433Y-36201D02*
X115433Y-36220D01*
X115944Y-36201D02*
X115433Y-36201D01*
X114527Y-36201D02*
X114015Y-36201D01*
X114015Y-36201D02*
X114015Y-36220D01*
X114527Y-48012D02*
X114015Y-48012D01*
X114055Y-48031D02*
X114015Y-48031D01*
X114035Y-48031D02*
X114055Y-48031D01*
X114015Y-48012D02*
X114035Y-48031D01*
X114527Y-59823D02*
X114015Y-59823D01*
X114015Y-59823D02*
X114015Y-59842D01*
X114212Y-45866D02*
X114212Y-45393D01*
X114212Y-45393D02*
X114015Y-45196D01*
X114015Y-45196D02*
X114015Y-36220D01*
X114015Y-36220D02*
X114015Y-35433D01*
X114015Y-35433D02*
X114212Y-35236D01*
X114212Y-45866D02*
X114212Y-47047D01*
X114212Y-57677D02*
X114212Y-57204D01*
X114212Y-57204D02*
X114015Y-57007D01*
X114015Y-57007D02*
X114015Y-48031D01*
X114015Y-48031D02*
X114015Y-47244D01*
X114015Y-47244D02*
X114212Y-47047D01*
X114212Y-58858D02*
X114212Y-57677D01*
X114212Y-69488D02*
X114212Y-69094D01*
X114212Y-69094D02*
X114015Y-68897D01*
X114015Y-68897D02*
X114015Y-59842D01*
X114015Y-59842D02*
X114015Y-59055D01*
X114015Y-59055D02*
X114212Y-58858D01*
X114212Y-45866D02*
X114212Y-45472D01*
G54D17*
X114212Y-45570D02*
X114212Y-45866D01*
X114385Y-59823D02*
X114527Y-59823D01*
X114385Y-36201D02*
X114527Y-36201D01*
X114385Y-48012D02*
X114527Y-48012D01*
G54D16*
X114212Y-59153D02*
X114212Y-58858D01*
G54D18*
X117362Y-36201D02*
X116850Y-36201D01*
X116850Y-36201D02*
X116850Y-36220D01*
X117362Y-48012D02*
X116850Y-48012D01*
X116889Y-48031D02*
X116850Y-48031D01*
X116869Y-48031D02*
X116889Y-48031D01*
X116850Y-48012D02*
X116869Y-48031D01*
X117362Y-59823D02*
X116850Y-59823D01*
X116850Y-59823D02*
X116850Y-59842D01*
X117047Y-45866D02*
X117047Y-45393D01*
X117047Y-45393D02*
X116850Y-45196D01*
X116850Y-45196D02*
X116850Y-36220D01*
X116850Y-36220D02*
X116850Y-35433D01*
X116850Y-35433D02*
X117047Y-35236D01*
X117047Y-45866D02*
X117047Y-47047D01*
X117047Y-57677D02*
X117047Y-57204D01*
X117047Y-57204D02*
X116850Y-57007D01*
X116850Y-57007D02*
X116850Y-48031D01*
X116850Y-48031D02*
X116850Y-47244D01*
X116850Y-47244D02*
X117047Y-47047D01*
X117047Y-58858D02*
X117047Y-57677D01*
X117047Y-69488D02*
X117047Y-69094D01*
X117047Y-69094D02*
X116850Y-68897D01*
X116850Y-68897D02*
X116850Y-59842D01*
X116850Y-59842D02*
X116850Y-59055D01*
X116850Y-59055D02*
X117047Y-58858D01*
X117047Y-45866D02*
X117047Y-45472D01*
G54D17*
X117047Y-45570D02*
X117047Y-45866D01*
X117220Y-59823D02*
X117362Y-59823D01*
X117220Y-36201D02*
X117362Y-36201D01*
X117220Y-48012D02*
X117362Y-48012D01*
G54D16*
X117047Y-59153D02*
X117047Y-58858D01*
X121299Y-59153D02*
X121299Y-58858D01*
G54D17*
X121472Y-48012D02*
X121614Y-48012D01*
X121472Y-36201D02*
X121614Y-36201D01*
X121472Y-59823D02*
X121614Y-59823D01*
X121299Y-45570D02*
X121299Y-45866D01*
G54D18*
X121299Y-45866D02*
X121299Y-45472D01*
X121102Y-59055D02*
X121299Y-58858D01*
X121102Y-59842D02*
X121102Y-59055D01*
X121102Y-68897D02*
X121102Y-59842D01*
X121299Y-69094D02*
X121102Y-68897D01*
X121299Y-69488D02*
X121299Y-69094D01*
X121299Y-58858D02*
X121299Y-57677D01*
X121102Y-47244D02*
X121299Y-47047D01*
X121102Y-48031D02*
X121102Y-47244D01*
X121102Y-57007D02*
X121102Y-48031D01*
X121299Y-57204D02*
X121102Y-57007D01*
X121299Y-57677D02*
X121299Y-57204D01*
X121299Y-45866D02*
X121299Y-47047D01*
X121102Y-35433D02*
X121299Y-35236D01*
X121102Y-36220D02*
X121102Y-35433D01*
X121102Y-45196D02*
X121102Y-36220D01*
X121299Y-45393D02*
X121102Y-45196D01*
X121299Y-45866D02*
X121299Y-45393D01*
X121102Y-59823D02*
X121102Y-59842D01*
X121614Y-59823D02*
X121102Y-59823D01*
X121102Y-48012D02*
X121121Y-48031D01*
X121121Y-48031D02*
X121141Y-48031D01*
X121141Y-48031D02*
X121102Y-48031D01*
X121614Y-48012D02*
X121102Y-48012D01*
X121102Y-36201D02*
X121102Y-36220D01*
X121614Y-36201D02*
X121102Y-36201D01*
G54D16*
X118464Y-59153D02*
X118464Y-58858D01*
G54D17*
X118637Y-48012D02*
X118779Y-48012D01*
X118637Y-36201D02*
X118779Y-36201D01*
X118637Y-59823D02*
X118779Y-59823D01*
X118464Y-45570D02*
X118464Y-45866D01*
G54D18*
X118464Y-45866D02*
X118464Y-45472D01*
X118267Y-59055D02*
X118464Y-58858D01*
X118267Y-59842D02*
X118267Y-59055D01*
X118267Y-68897D02*
X118267Y-59842D01*
X118464Y-69094D02*
X118267Y-68897D01*
X118464Y-69488D02*
X118464Y-69094D01*
X118464Y-58858D02*
X118464Y-57677D01*
X118267Y-47244D02*
X118464Y-47047D01*
X118267Y-48031D02*
X118267Y-47244D01*
X118267Y-57007D02*
X118267Y-48031D01*
X118464Y-57204D02*
X118267Y-57007D01*
X118464Y-57677D02*
X118464Y-57204D01*
X118464Y-45866D02*
X118464Y-47047D01*
X118267Y-35433D02*
X118464Y-35236D01*
X118267Y-36220D02*
X118267Y-35433D01*
X118267Y-45196D02*
X118267Y-36220D01*
X118464Y-45393D02*
X118267Y-45196D01*
X118464Y-45866D02*
X118464Y-45393D01*
X118267Y-59823D02*
X118267Y-59842D01*
X118779Y-59823D02*
X118267Y-59823D01*
X118267Y-48012D02*
X118287Y-48031D01*
X118287Y-48031D02*
X118307Y-48031D01*
X118307Y-48031D02*
X118267Y-48031D01*
X118779Y-48012D02*
X118267Y-48012D01*
X118267Y-36201D02*
X118267Y-36220D01*
X118779Y-36201D02*
X118267Y-36201D01*
X120196Y-36201D02*
X119685Y-36201D01*
X119685Y-36201D02*
X119685Y-36220D01*
X120196Y-48012D02*
X119685Y-48012D01*
X119724Y-48031D02*
X119685Y-48031D01*
X119704Y-48031D02*
X119724Y-48031D01*
X119685Y-48012D02*
X119704Y-48031D01*
X120196Y-59823D02*
X119685Y-59823D01*
X119685Y-59823D02*
X119685Y-59842D01*
X119881Y-45866D02*
X119881Y-45393D01*
X119881Y-45393D02*
X119685Y-45196D01*
X119685Y-45196D02*
X119685Y-36220D01*
X119685Y-36220D02*
X119685Y-35433D01*
X119685Y-35433D02*
X119881Y-35236D01*
X119881Y-45866D02*
X119881Y-47047D01*
X119881Y-57677D02*
X119881Y-57204D01*
X119881Y-57204D02*
X119685Y-57007D01*
X119685Y-57007D02*
X119685Y-48031D01*
X119685Y-48031D02*
X119685Y-47244D01*
X119685Y-47244D02*
X119881Y-47047D01*
X119881Y-58858D02*
X119881Y-57677D01*
X119881Y-69488D02*
X119881Y-69094D01*
X119881Y-69094D02*
X119685Y-68897D01*
X119685Y-68897D02*
X119685Y-59842D01*
X119685Y-59842D02*
X119685Y-59055D01*
X119685Y-59055D02*
X119881Y-58858D01*
X119881Y-45866D02*
X119881Y-45472D01*
G54D17*
X119881Y-45570D02*
X119881Y-45866D01*
X120054Y-59823D02*
X120196Y-59823D01*
X120054Y-36201D02*
X120196Y-36201D01*
X120054Y-48012D02*
X120196Y-48012D01*
G54D16*
X119881Y-59153D02*
X119881Y-58858D01*
X124133Y-59153D02*
X124133Y-58858D01*
G54D17*
X124306Y-48012D02*
X124448Y-48012D01*
X124306Y-36201D02*
X124448Y-36201D01*
X124306Y-59823D02*
X124448Y-59823D01*
X124133Y-45570D02*
X124133Y-45866D01*
G54D18*
X124133Y-45866D02*
X124133Y-45472D01*
X123937Y-59055D02*
X124133Y-58858D01*
X123937Y-59842D02*
X123937Y-59055D01*
X123937Y-68897D02*
X123937Y-59842D01*
X124133Y-69094D02*
X123937Y-68897D01*
X124133Y-69488D02*
X124133Y-69094D01*
X124133Y-58858D02*
X124133Y-57677D01*
X123937Y-47244D02*
X124133Y-47047D01*
X123937Y-48031D02*
X123937Y-47244D01*
X123937Y-57007D02*
X123937Y-48031D01*
X124133Y-57204D02*
X123937Y-57007D01*
X124133Y-57677D02*
X124133Y-57204D01*
X124133Y-45866D02*
X124133Y-47047D01*
X123937Y-35433D02*
X124133Y-35236D01*
X123937Y-36220D02*
X123937Y-35433D01*
X123937Y-45196D02*
X123937Y-36220D01*
X124133Y-45393D02*
X123937Y-45196D01*
X124133Y-45866D02*
X124133Y-45393D01*
X123937Y-59823D02*
X123937Y-59842D01*
X124448Y-59823D02*
X123937Y-59823D01*
X123937Y-48012D02*
X123956Y-48031D01*
X123956Y-48031D02*
X123976Y-48031D01*
X123976Y-48031D02*
X123937Y-48031D01*
X124448Y-48012D02*
X123937Y-48012D01*
X123937Y-36201D02*
X123937Y-36220D01*
X124448Y-36201D02*
X123937Y-36201D01*
X123031Y-36201D02*
X122519Y-36201D01*
X122519Y-36201D02*
X122519Y-36220D01*
X123031Y-48012D02*
X122519Y-48012D01*
X122559Y-48031D02*
X122519Y-48031D01*
X122538Y-48031D02*
X122559Y-48031D01*
X122519Y-48012D02*
X122538Y-48031D01*
X123031Y-59823D02*
X122519Y-59823D01*
X122519Y-59823D02*
X122519Y-59842D01*
X122716Y-45866D02*
X122716Y-45393D01*
X122716Y-45393D02*
X122519Y-45196D01*
X122519Y-45196D02*
X122519Y-36220D01*
X122519Y-36220D02*
X122519Y-35433D01*
X122519Y-35433D02*
X122716Y-35236D01*
X122716Y-45866D02*
X122716Y-47047D01*
X122716Y-57677D02*
X122716Y-57204D01*
X122716Y-57204D02*
X122519Y-57007D01*
X122519Y-57007D02*
X122519Y-48031D01*
X122519Y-48031D02*
X122519Y-47244D01*
X122519Y-47244D02*
X122716Y-47047D01*
X122716Y-58858D02*
X122716Y-57677D01*
X122716Y-69488D02*
X122716Y-69094D01*
X122716Y-69094D02*
X122519Y-68897D01*
X122519Y-68897D02*
X122519Y-59842D01*
X122519Y-59842D02*
X122519Y-59055D01*
X122519Y-59055D02*
X122716Y-58858D01*
X122716Y-45866D02*
X122716Y-45472D01*
G54D17*
X122716Y-45570D02*
X122716Y-45866D01*
X122889Y-59823D02*
X123031Y-59823D01*
X122889Y-36201D02*
X123031Y-36201D01*
X122889Y-48012D02*
X123031Y-48012D01*
G54D16*
X122716Y-59153D02*
X122716Y-58858D01*
G54D18*
X125866Y-36201D02*
X125354Y-36201D01*
X125354Y-36201D02*
X125354Y-36220D01*
X125866Y-48012D02*
X125354Y-48012D01*
X125393Y-48031D02*
X125354Y-48031D01*
X125373Y-48031D02*
X125393Y-48031D01*
X125354Y-48012D02*
X125373Y-48031D01*
X125866Y-59823D02*
X125354Y-59823D01*
X125354Y-59823D02*
X125354Y-59842D01*
X125551Y-45866D02*
X125551Y-45393D01*
X125551Y-45393D02*
X125354Y-45196D01*
X125354Y-45196D02*
X125354Y-36220D01*
X125354Y-36220D02*
X125354Y-35433D01*
X125354Y-35433D02*
X125551Y-35236D01*
X125551Y-45866D02*
X125551Y-47047D01*
X125551Y-57677D02*
X125551Y-57204D01*
X125551Y-57204D02*
X125354Y-57007D01*
X125354Y-57007D02*
X125354Y-48031D01*
X125354Y-48031D02*
X125354Y-47244D01*
X125354Y-47244D02*
X125551Y-47047D01*
X125551Y-58858D02*
X125551Y-57677D01*
X125551Y-69488D02*
X125551Y-69094D01*
X125551Y-69094D02*
X125354Y-68897D01*
X125354Y-68897D02*
X125354Y-59842D01*
X125354Y-59842D02*
X125354Y-59055D01*
X125354Y-59055D02*
X125551Y-58858D01*
X125551Y-45866D02*
X125551Y-45472D01*
G54D17*
X125551Y-45570D02*
X125551Y-45866D01*
X125724Y-59823D02*
X125866Y-59823D01*
X125724Y-36201D02*
X125866Y-36201D01*
X125724Y-48012D02*
X125866Y-48012D01*
G54D16*
X125551Y-59153D02*
X125551Y-58858D01*
X129803Y-59153D02*
X129803Y-58858D01*
G54D17*
X129975Y-48012D02*
X130118Y-48012D01*
X129975Y-36201D02*
X130118Y-36201D01*
X129975Y-59823D02*
X130118Y-59823D01*
X129803Y-45570D02*
X129803Y-45866D01*
G54D18*
X129803Y-45866D02*
X129803Y-45472D01*
X129606Y-59055D02*
X129803Y-58858D01*
X129606Y-59842D02*
X129606Y-59055D01*
X129606Y-68897D02*
X129606Y-59842D01*
X129803Y-69094D02*
X129606Y-68897D01*
X129803Y-69488D02*
X129803Y-69094D01*
X129803Y-58858D02*
X129803Y-57677D01*
X129606Y-47244D02*
X129803Y-47047D01*
X129606Y-48031D02*
X129606Y-47244D01*
X129606Y-57007D02*
X129606Y-48031D01*
X129803Y-57204D02*
X129606Y-57007D01*
X129803Y-57677D02*
X129803Y-57204D01*
X129803Y-45866D02*
X129803Y-47047D01*
X129606Y-35433D02*
X129803Y-35236D01*
X129606Y-36220D02*
X129606Y-35433D01*
X129606Y-45196D02*
X129606Y-36220D01*
X129803Y-45393D02*
X129606Y-45196D01*
X129803Y-45866D02*
X129803Y-45393D01*
X129606Y-59823D02*
X129606Y-59842D01*
X130118Y-59823D02*
X129606Y-59823D01*
X129606Y-48012D02*
X129625Y-48031D01*
X129625Y-48031D02*
X129645Y-48031D01*
X129645Y-48031D02*
X129606Y-48031D01*
X130118Y-48012D02*
X129606Y-48012D01*
X129606Y-36201D02*
X129606Y-36220D01*
X130118Y-36201D02*
X129606Y-36201D01*
G54D16*
X126968Y-59153D02*
X126968Y-58858D01*
G54D17*
X127141Y-48012D02*
X127283Y-48012D01*
X127141Y-36201D02*
X127283Y-36201D01*
X127141Y-59823D02*
X127283Y-59823D01*
X126968Y-45570D02*
X126968Y-45866D01*
G54D18*
X126968Y-45866D02*
X126968Y-45472D01*
X126771Y-59055D02*
X126968Y-58858D01*
X126771Y-59842D02*
X126771Y-59055D01*
X126771Y-68897D02*
X126771Y-59842D01*
X126968Y-69094D02*
X126771Y-68897D01*
X126968Y-69488D02*
X126968Y-69094D01*
X126968Y-58858D02*
X126968Y-57677D01*
X126771Y-47244D02*
X126968Y-47047D01*
X126771Y-48031D02*
X126771Y-47244D01*
X126771Y-57007D02*
X126771Y-48031D01*
X126968Y-57204D02*
X126771Y-57007D01*
X126968Y-57677D02*
X126968Y-57204D01*
X126968Y-45866D02*
X126968Y-47047D01*
X126771Y-35433D02*
X126968Y-35236D01*
X126771Y-36220D02*
X126771Y-35433D01*
X126771Y-45196D02*
X126771Y-36220D01*
X126968Y-45393D02*
X126771Y-45196D01*
X126968Y-45866D02*
X126968Y-45393D01*
X126771Y-59823D02*
X126771Y-59842D01*
X127283Y-59823D02*
X126771Y-59823D01*
X126771Y-48012D02*
X126790Y-48031D01*
X126790Y-48031D02*
X126811Y-48031D01*
X126811Y-48031D02*
X126771Y-48031D01*
X127283Y-48012D02*
X126771Y-48012D01*
X126771Y-36201D02*
X126771Y-36220D01*
X127283Y-36201D02*
X126771Y-36201D01*
X128700Y-36201D02*
X128188Y-36201D01*
X128188Y-36201D02*
X128188Y-36220D01*
X128700Y-48012D02*
X128188Y-48012D01*
X128228Y-48031D02*
X128188Y-48031D01*
X128208Y-48031D02*
X128228Y-48031D01*
X128188Y-48012D02*
X128208Y-48031D01*
X128700Y-59823D02*
X128188Y-59823D01*
X128188Y-59823D02*
X128188Y-59842D01*
X128385Y-45866D02*
X128385Y-45393D01*
X128385Y-45393D02*
X128188Y-45196D01*
X128188Y-45196D02*
X128188Y-36220D01*
X128188Y-36220D02*
X128188Y-35433D01*
X128188Y-35433D02*
X128385Y-35236D01*
X128385Y-45866D02*
X128385Y-47047D01*
X128385Y-57677D02*
X128385Y-57204D01*
X128385Y-57204D02*
X128188Y-57007D01*
X128188Y-57007D02*
X128188Y-48031D01*
X128188Y-48031D02*
X128188Y-47244D01*
X128188Y-47244D02*
X128385Y-47047D01*
X128385Y-58858D02*
X128385Y-57677D01*
X128385Y-69488D02*
X128385Y-69094D01*
X128385Y-69094D02*
X128188Y-68897D01*
X128188Y-68897D02*
X128188Y-59842D01*
X128188Y-59842D02*
X128188Y-59055D01*
X128188Y-59055D02*
X128385Y-58858D01*
X128385Y-45866D02*
X128385Y-45472D01*
G54D17*
X128385Y-45570D02*
X128385Y-45866D01*
X128558Y-59823D02*
X128700Y-59823D01*
X128558Y-36201D02*
X128700Y-36201D01*
X128558Y-48012D02*
X128700Y-48012D01*
G54D16*
X128385Y-59153D02*
X128385Y-58858D01*
X143188Y-58858D02*
X143188Y-59153D01*
X143188Y-69192D02*
X143188Y-69488D01*
G54D17*
X142874Y-68523D02*
X143016Y-68523D01*
X142874Y-44901D02*
X143016Y-44901D01*
G54D18*
X143188Y-57677D02*
X143188Y-58858D01*
X143385Y-59055D02*
X143188Y-58858D01*
X143385Y-68543D02*
X143385Y-59055D01*
X143385Y-68897D02*
X143385Y-68543D01*
X143188Y-69094D02*
X143385Y-68897D01*
X143188Y-69488D02*
X143188Y-69094D01*
X143385Y-47244D02*
X143188Y-47047D01*
X143385Y-56692D02*
X143385Y-47244D01*
X143385Y-57007D02*
X143385Y-56692D01*
X143188Y-57204D02*
X143385Y-57007D01*
X143188Y-57677D02*
X143188Y-57204D01*
X143188Y-45866D02*
X143188Y-47047D01*
X143385Y-35433D02*
X143188Y-35236D01*
X143385Y-44921D02*
X143385Y-35433D01*
X143385Y-45196D02*
X143385Y-44921D01*
X143188Y-45393D02*
X143385Y-45196D01*
X143188Y-45866D02*
X143188Y-45393D01*
X143385Y-56712D02*
X143366Y-56692D01*
X143366Y-56692D02*
X143346Y-56692D01*
X143346Y-56692D02*
X143385Y-56692D01*
X142874Y-56712D02*
X143385Y-56712D01*
X143385Y-68523D02*
X143385Y-68543D01*
X142874Y-68523D02*
X143385Y-68523D01*
X143385Y-44901D02*
X143385Y-44921D01*
X142874Y-44901D02*
X143385Y-44901D01*
X141456Y-44901D02*
X141968Y-44901D01*
X141968Y-44901D02*
X141968Y-44921D01*
X141456Y-68523D02*
X141968Y-68523D01*
X141968Y-68523D02*
X141968Y-68543D01*
X141456Y-56712D02*
X141968Y-56712D01*
X141929Y-56692D02*
X141968Y-56692D01*
X141949Y-56692D02*
X141929Y-56692D01*
X141968Y-56712D02*
X141949Y-56692D01*
X141771Y-45866D02*
X141771Y-45393D01*
X141771Y-45393D02*
X141968Y-45196D01*
X141968Y-45196D02*
X141968Y-44921D01*
X141968Y-44921D02*
X141968Y-35433D01*
X141968Y-35433D02*
X141771Y-35236D01*
X141771Y-45866D02*
X141771Y-47047D01*
X141771Y-57677D02*
X141771Y-57204D01*
X141771Y-57204D02*
X141968Y-57007D01*
X141968Y-57007D02*
X141968Y-56692D01*
X141968Y-56692D02*
X141968Y-47244D01*
X141968Y-47244D02*
X141771Y-47047D01*
X141771Y-69488D02*
X141771Y-69094D01*
X141771Y-69094D02*
X141968Y-68897D01*
X141968Y-68897D02*
X141968Y-68543D01*
X141968Y-68543D02*
X141968Y-59055D01*
X141968Y-59055D02*
X141771Y-58858D01*
X141771Y-57677D02*
X141771Y-58858D01*
G54D17*
X141456Y-44901D02*
X141598Y-44901D01*
X141456Y-68523D02*
X141598Y-68523D01*
G54D16*
X141771Y-69192D02*
X141771Y-69488D01*
X141771Y-58858D02*
X141771Y-59153D01*
G54D18*
X144291Y-44901D02*
X144803Y-44901D01*
X144803Y-44901D02*
X144803Y-44921D01*
X144291Y-68523D02*
X144803Y-68523D01*
X144803Y-68523D02*
X144803Y-68543D01*
X144291Y-56712D02*
X144803Y-56712D01*
X144763Y-56692D02*
X144803Y-56692D01*
X144783Y-56692D02*
X144763Y-56692D01*
X144803Y-56712D02*
X144783Y-56692D01*
X144606Y-45866D02*
X144606Y-45393D01*
X144606Y-45393D02*
X144803Y-45196D01*
X144803Y-45196D02*
X144803Y-44921D01*
X144803Y-44921D02*
X144803Y-35433D01*
X144803Y-35433D02*
X144606Y-35236D01*
X144606Y-45866D02*
X144606Y-47047D01*
X144606Y-57677D02*
X144606Y-57204D01*
X144606Y-57204D02*
X144803Y-57007D01*
X144803Y-57007D02*
X144803Y-56692D01*
X144803Y-56692D02*
X144803Y-47244D01*
X144803Y-47244D02*
X144606Y-47047D01*
X144606Y-69488D02*
X144606Y-69094D01*
X144606Y-69094D02*
X144803Y-68897D01*
X144803Y-68897D02*
X144803Y-68543D01*
X144803Y-68543D02*
X144803Y-59055D01*
X144803Y-59055D02*
X144606Y-58858D01*
X144606Y-57677D02*
X144606Y-58858D01*
G54D17*
X144291Y-44901D02*
X144433Y-44901D01*
X144291Y-68523D02*
X144433Y-68523D01*
G54D16*
X144606Y-69192D02*
X144606Y-69488D01*
X144606Y-58858D02*
X144606Y-59153D01*
X140354Y-58858D02*
X140354Y-59153D01*
X140354Y-69192D02*
X140354Y-69488D01*
G54D17*
X140039Y-68523D02*
X140181Y-68523D01*
X140039Y-44901D02*
X140181Y-44901D01*
G54D18*
X140354Y-57677D02*
X140354Y-58858D01*
X140551Y-59055D02*
X140354Y-58858D01*
X140551Y-68543D02*
X140551Y-59055D01*
X140551Y-68897D02*
X140551Y-68543D01*
X140354Y-69094D02*
X140551Y-68897D01*
X140354Y-69488D02*
X140354Y-69094D01*
X140551Y-47244D02*
X140354Y-47047D01*
X140551Y-56692D02*
X140551Y-47244D01*
X140551Y-57007D02*
X140551Y-56692D01*
X140354Y-57204D02*
X140551Y-57007D01*
X140354Y-57677D02*
X140354Y-57204D01*
X140354Y-45866D02*
X140354Y-47047D01*
X140551Y-35433D02*
X140354Y-35236D01*
X140551Y-44921D02*
X140551Y-35433D01*
X140551Y-45196D02*
X140551Y-44921D01*
X140354Y-45393D02*
X140551Y-45196D01*
X140354Y-45866D02*
X140354Y-45393D01*
X140551Y-56712D02*
X140531Y-56692D01*
X140531Y-56692D02*
X140511Y-56692D01*
X140511Y-56692D02*
X140551Y-56692D01*
X140039Y-56712D02*
X140551Y-56712D01*
X140551Y-68523D02*
X140551Y-68543D01*
X140039Y-68523D02*
X140551Y-68523D01*
X140551Y-44901D02*
X140551Y-44921D01*
X140039Y-44901D02*
X140551Y-44901D01*
G54D16*
X137519Y-58858D02*
X137519Y-59153D01*
X137519Y-69192D02*
X137519Y-69488D01*
G54D17*
X137204Y-68523D02*
X137346Y-68523D01*
X137204Y-44901D02*
X137346Y-44901D01*
G54D18*
X137519Y-57677D02*
X137519Y-58858D01*
X137716Y-59055D02*
X137519Y-58858D01*
X137716Y-68543D02*
X137716Y-59055D01*
X137716Y-68897D02*
X137716Y-68543D01*
X137519Y-69094D02*
X137716Y-68897D01*
X137519Y-69488D02*
X137519Y-69094D01*
X137716Y-47244D02*
X137519Y-47047D01*
X137716Y-56692D02*
X137716Y-47244D01*
X137716Y-57007D02*
X137716Y-56692D01*
X137519Y-57204D02*
X137716Y-57007D01*
X137519Y-57677D02*
X137519Y-57204D01*
X137519Y-45866D02*
X137519Y-47047D01*
X137716Y-35433D02*
X137519Y-35236D01*
X137716Y-44921D02*
X137716Y-35433D01*
X137716Y-45196D02*
X137716Y-44921D01*
X137519Y-45393D02*
X137716Y-45196D01*
X137519Y-45866D02*
X137519Y-45393D01*
X137716Y-56712D02*
X137697Y-56692D01*
X137697Y-56692D02*
X137677Y-56692D01*
X137677Y-56692D02*
X137716Y-56692D01*
X137204Y-56712D02*
X137716Y-56712D01*
X137716Y-68523D02*
X137716Y-68543D01*
X137204Y-68523D02*
X137716Y-68523D01*
X137716Y-44901D02*
X137716Y-44921D01*
X137204Y-44901D02*
X137716Y-44901D01*
X138622Y-44901D02*
X139133Y-44901D01*
X139133Y-44901D02*
X139133Y-44921D01*
X138622Y-68523D02*
X139133Y-68523D01*
X139133Y-68523D02*
X139133Y-68543D01*
X138622Y-56712D02*
X139133Y-56712D01*
X139094Y-56692D02*
X139133Y-56692D01*
X139114Y-56692D02*
X139094Y-56692D01*
X139133Y-56712D02*
X139114Y-56692D01*
X138937Y-45866D02*
X138937Y-45393D01*
X138937Y-45393D02*
X139133Y-45196D01*
X139133Y-45196D02*
X139133Y-44921D01*
X139133Y-44921D02*
X139133Y-35433D01*
X139133Y-35433D02*
X138937Y-35236D01*
X138937Y-45866D02*
X138937Y-47047D01*
X138937Y-57677D02*
X138937Y-57204D01*
X138937Y-57204D02*
X139133Y-57007D01*
X139133Y-57007D02*
X139133Y-56692D01*
X139133Y-56692D02*
X139133Y-47244D01*
X139133Y-47244D02*
X138937Y-47047D01*
X138937Y-69488D02*
X138937Y-69094D01*
X138937Y-69094D02*
X139133Y-68897D01*
X139133Y-68897D02*
X139133Y-68543D01*
X139133Y-68543D02*
X139133Y-59055D01*
X139133Y-59055D02*
X138937Y-58858D01*
X138937Y-57677D02*
X138937Y-58858D01*
G54D17*
X138622Y-44901D02*
X138764Y-44901D01*
X138622Y-68523D02*
X138764Y-68523D01*
G54D16*
X138937Y-69192D02*
X138937Y-69488D01*
X138937Y-58858D02*
X138937Y-59153D01*
X134685Y-58858D02*
X134685Y-59153D01*
X134685Y-69192D02*
X134685Y-69488D01*
G54D17*
X134370Y-68523D02*
X134512Y-68523D01*
X134370Y-44901D02*
X134512Y-44901D01*
G54D18*
X134685Y-57677D02*
X134685Y-58858D01*
X134881Y-59055D02*
X134685Y-58858D01*
X134881Y-68543D02*
X134881Y-59055D01*
X134881Y-68897D02*
X134881Y-68543D01*
X134685Y-69094D02*
X134881Y-68897D01*
X134685Y-69488D02*
X134685Y-69094D01*
X134881Y-47244D02*
X134685Y-47047D01*
X134881Y-56692D02*
X134881Y-47244D01*
X134881Y-57007D02*
X134881Y-56692D01*
X134685Y-57204D02*
X134881Y-57007D01*
X134685Y-57677D02*
X134685Y-57204D01*
X134685Y-45866D02*
X134685Y-47047D01*
X134881Y-35433D02*
X134685Y-35236D01*
X134881Y-44921D02*
X134881Y-35433D01*
X134881Y-45196D02*
X134881Y-44921D01*
X134685Y-45393D02*
X134881Y-45196D01*
X134685Y-45866D02*
X134685Y-45393D01*
X134881Y-56712D02*
X134862Y-56692D01*
X134862Y-56692D02*
X134842Y-56692D01*
X134842Y-56692D02*
X134881Y-56692D01*
X134370Y-56712D02*
X134881Y-56712D01*
X134881Y-68523D02*
X134881Y-68543D01*
X134370Y-68523D02*
X134881Y-68523D01*
X134881Y-44901D02*
X134881Y-44921D01*
X134370Y-44901D02*
X134881Y-44901D01*
X132952Y-44901D02*
X133464Y-44901D01*
X133464Y-44901D02*
X133464Y-44921D01*
X132952Y-68523D02*
X133464Y-68523D01*
X133464Y-68523D02*
X133464Y-68543D01*
X132952Y-56712D02*
X133464Y-56712D01*
X133425Y-56692D02*
X133464Y-56692D01*
X133445Y-56692D02*
X133425Y-56692D01*
X133464Y-56712D02*
X133445Y-56692D01*
X133267Y-45866D02*
X133267Y-45393D01*
X133267Y-45393D02*
X133464Y-45196D01*
X133464Y-45196D02*
X133464Y-44921D01*
X133464Y-44921D02*
X133464Y-35433D01*
X133464Y-35433D02*
X133267Y-35236D01*
X133267Y-45866D02*
X133267Y-47047D01*
X133267Y-57677D02*
X133267Y-57204D01*
X133267Y-57204D02*
X133464Y-57007D01*
X133464Y-57007D02*
X133464Y-56692D01*
X133464Y-56692D02*
X133464Y-47244D01*
X133464Y-47244D02*
X133267Y-47047D01*
X133267Y-69488D02*
X133267Y-69094D01*
X133267Y-69094D02*
X133464Y-68897D01*
X133464Y-68897D02*
X133464Y-68543D01*
X133464Y-68543D02*
X133464Y-59055D01*
X133464Y-59055D02*
X133267Y-58858D01*
X133267Y-57677D02*
X133267Y-58858D01*
G54D17*
X132952Y-44901D02*
X133094Y-44901D01*
X132952Y-68523D02*
X133094Y-68523D01*
G54D16*
X133267Y-69192D02*
X133267Y-69488D01*
X133267Y-58858D02*
X133267Y-59153D01*
G54D18*
X135787Y-44901D02*
X136299Y-44901D01*
X136299Y-44901D02*
X136299Y-44921D01*
X135787Y-68523D02*
X136299Y-68523D01*
X136299Y-68523D02*
X136299Y-68543D01*
X135787Y-56712D02*
X136299Y-56712D01*
X136259Y-56692D02*
X136299Y-56692D01*
X136279Y-56692D02*
X136259Y-56692D01*
X136299Y-56712D02*
X136279Y-56692D01*
X136102Y-45866D02*
X136102Y-45393D01*
X136102Y-45393D02*
X136299Y-45196D01*
X136299Y-45196D02*
X136299Y-44921D01*
X136299Y-44921D02*
X136299Y-35433D01*
X136299Y-35433D02*
X136102Y-35236D01*
X136102Y-45866D02*
X136102Y-47047D01*
X136102Y-57677D02*
X136102Y-57204D01*
X136102Y-57204D02*
X136299Y-57007D01*
X136299Y-57007D02*
X136299Y-56692D01*
X136299Y-56692D02*
X136299Y-47244D01*
X136299Y-47244D02*
X136102Y-47047D01*
X136102Y-69488D02*
X136102Y-69094D01*
X136102Y-69094D02*
X136299Y-68897D01*
X136299Y-68897D02*
X136299Y-68543D01*
X136299Y-68543D02*
X136299Y-59055D01*
X136299Y-59055D02*
X136102Y-58858D01*
X136102Y-57677D02*
X136102Y-58858D01*
G54D17*
X135787Y-44901D02*
X135929Y-44901D01*
X135787Y-68523D02*
X135929Y-68523D01*
G54D16*
X136102Y-69192D02*
X136102Y-69488D01*
X136102Y-58858D02*
X136102Y-59153D01*
X146023Y-58858D02*
X146023Y-59153D01*
X146023Y-69192D02*
X146023Y-69488D01*
G54D17*
X145708Y-68523D02*
X145850Y-68523D01*
X145708Y-44901D02*
X145850Y-44901D01*
G54D18*
X146023Y-57677D02*
X146023Y-58858D01*
X146220Y-59055D02*
X146023Y-58858D01*
X146220Y-68543D02*
X146220Y-59055D01*
X146220Y-68897D02*
X146220Y-68543D01*
X146023Y-69094D02*
X146220Y-68897D01*
X146023Y-69488D02*
X146023Y-69094D01*
X146220Y-47244D02*
X146023Y-47047D01*
X146220Y-56692D02*
X146220Y-47244D01*
X146220Y-57007D02*
X146220Y-56692D01*
X146023Y-57204D02*
X146220Y-57007D01*
X146023Y-57677D02*
X146023Y-57204D01*
X146023Y-45866D02*
X146023Y-47047D01*
X146220Y-35433D02*
X146023Y-35236D01*
X146220Y-44921D02*
X146220Y-35433D01*
X146220Y-45196D02*
X146220Y-44921D01*
X146023Y-45393D02*
X146220Y-45196D01*
X146023Y-45866D02*
X146023Y-45393D01*
X146220Y-56712D02*
X146201Y-56692D01*
X146201Y-56692D02*
X146181Y-56692D01*
X146181Y-56692D02*
X146220Y-56692D01*
X145708Y-56712D02*
X146220Y-56712D01*
X146220Y-68523D02*
X146220Y-68543D01*
X145708Y-68523D02*
X146220Y-68523D01*
X146220Y-44901D02*
X146220Y-44921D01*
X145708Y-44901D02*
X146220Y-44901D01*
X131535Y-44901D02*
X132047Y-44901D01*
X132047Y-44901D02*
X132047Y-44921D01*
X131535Y-68523D02*
X132047Y-68523D01*
X132047Y-68523D02*
X132047Y-68543D01*
X131535Y-56712D02*
X132047Y-56712D01*
X132007Y-56692D02*
X132047Y-56692D01*
X132027Y-56692D02*
X132007Y-56692D01*
X132047Y-56712D02*
X132027Y-56692D01*
X131850Y-45866D02*
X131850Y-45393D01*
X131850Y-45393D02*
X132047Y-45196D01*
X132047Y-45196D02*
X132047Y-44921D01*
X132047Y-44921D02*
X132047Y-35433D01*
X132047Y-35433D02*
X131850Y-35236D01*
X131850Y-45866D02*
X131850Y-47047D01*
X131850Y-57677D02*
X131850Y-57204D01*
X131850Y-57204D02*
X132047Y-57007D01*
X132047Y-57007D02*
X132047Y-56692D01*
X132047Y-56692D02*
X132047Y-47244D01*
X132047Y-47244D02*
X131850Y-47047D01*
X131850Y-69488D02*
X131850Y-69094D01*
X131850Y-69094D02*
X132047Y-68897D01*
X132047Y-68897D02*
X132047Y-68543D01*
X132047Y-68543D02*
X132047Y-59055D01*
X132047Y-59055D02*
X131850Y-58858D01*
X131850Y-57677D02*
X131850Y-58858D01*
G54D17*
X131535Y-44901D02*
X131677Y-44901D01*
X131535Y-68523D02*
X131677Y-68523D01*
G54D16*
X131850Y-69192D02*
X131850Y-69488D01*
X131850Y-58858D02*
X131850Y-59153D01*
X116259Y-58858D02*
X116259Y-59153D01*
X116259Y-69192D02*
X116259Y-69488D01*
G54D17*
X115944Y-68523D02*
X116087Y-68523D01*
X115944Y-44901D02*
X116087Y-44901D01*
G54D18*
X116259Y-57677D02*
X116259Y-58858D01*
X116456Y-59055D02*
X116259Y-58858D01*
X116456Y-68543D02*
X116456Y-59055D01*
X116456Y-68897D02*
X116456Y-68543D01*
X116259Y-69094D02*
X116456Y-68897D01*
X116259Y-69488D02*
X116259Y-69094D01*
X116456Y-47244D02*
X116259Y-47047D01*
X116456Y-56692D02*
X116456Y-47244D01*
X116456Y-57007D02*
X116456Y-56692D01*
X116259Y-57204D02*
X116456Y-57007D01*
X116259Y-57677D02*
X116259Y-57204D01*
X116259Y-45866D02*
X116259Y-47047D01*
X116456Y-35433D02*
X116259Y-35236D01*
X116456Y-44921D02*
X116456Y-35433D01*
X116456Y-45196D02*
X116456Y-44921D01*
X116259Y-45393D02*
X116456Y-45196D01*
X116259Y-45866D02*
X116259Y-45393D01*
X116456Y-56712D02*
X116437Y-56692D01*
X116437Y-56692D02*
X116417Y-56692D01*
X116417Y-56692D02*
X116456Y-56692D01*
X115944Y-56712D02*
X116456Y-56712D01*
X116456Y-68523D02*
X116456Y-68543D01*
X115944Y-68523D02*
X116456Y-68523D01*
X116456Y-44901D02*
X116456Y-44921D01*
X115944Y-44901D02*
X116456Y-44901D01*
X114527Y-44901D02*
X115039Y-44901D01*
X115039Y-44901D02*
X115039Y-44921D01*
X114527Y-68523D02*
X115039Y-68523D01*
X115039Y-68523D02*
X115039Y-68543D01*
X114527Y-56712D02*
X115039Y-56712D01*
X115000Y-56692D02*
X115039Y-56692D01*
X115020Y-56692D02*
X115000Y-56692D01*
X115039Y-56712D02*
X115020Y-56692D01*
X114842Y-45866D02*
X114842Y-45393D01*
X114842Y-45393D02*
X115039Y-45196D01*
X115039Y-45196D02*
X115039Y-44921D01*
X115039Y-44921D02*
X115039Y-35433D01*
X115039Y-35433D02*
X114842Y-35236D01*
X114842Y-45866D02*
X114842Y-47047D01*
X114842Y-57677D02*
X114842Y-57204D01*
X114842Y-57204D02*
X115039Y-57007D01*
X115039Y-57007D02*
X115039Y-56692D01*
X115039Y-56692D02*
X115039Y-47244D01*
X115039Y-47244D02*
X114842Y-47047D01*
X114842Y-69488D02*
X114842Y-69094D01*
X114842Y-69094D02*
X115039Y-68897D01*
X115039Y-68897D02*
X115039Y-68543D01*
X115039Y-68543D02*
X115039Y-59055D01*
X115039Y-59055D02*
X114842Y-58858D01*
X114842Y-57677D02*
X114842Y-58858D01*
G54D17*
X114527Y-44901D02*
X114669Y-44901D01*
X114527Y-68523D02*
X114669Y-68523D01*
G54D16*
X114842Y-69192D02*
X114842Y-69488D01*
X114842Y-58858D02*
X114842Y-59153D01*
G54D18*
X117362Y-44901D02*
X117874Y-44901D01*
X117874Y-44901D02*
X117874Y-44921D01*
X117362Y-68523D02*
X117874Y-68523D01*
X117874Y-68523D02*
X117874Y-68543D01*
X117362Y-56712D02*
X117874Y-56712D01*
X117834Y-56692D02*
X117874Y-56692D01*
X117854Y-56692D02*
X117834Y-56692D01*
X117874Y-56712D02*
X117854Y-56692D01*
X117677Y-45866D02*
X117677Y-45393D01*
X117677Y-45393D02*
X117874Y-45196D01*
X117874Y-45196D02*
X117874Y-44921D01*
X117874Y-44921D02*
X117874Y-35433D01*
X117874Y-35433D02*
X117677Y-35236D01*
X117677Y-45866D02*
X117677Y-47047D01*
X117677Y-57677D02*
X117677Y-57204D01*
X117677Y-57204D02*
X117874Y-57007D01*
X117874Y-57007D02*
X117874Y-56692D01*
X117874Y-56692D02*
X117874Y-47244D01*
X117874Y-47244D02*
X117677Y-47047D01*
X117677Y-69488D02*
X117677Y-69094D01*
X117677Y-69094D02*
X117874Y-68897D01*
X117874Y-68897D02*
X117874Y-68543D01*
X117874Y-68543D02*
X117874Y-59055D01*
X117874Y-59055D02*
X117677Y-58858D01*
X117677Y-57677D02*
X117677Y-58858D01*
G54D17*
X117362Y-44901D02*
X117504Y-44901D01*
X117362Y-68523D02*
X117504Y-68523D01*
G54D16*
X117677Y-69192D02*
X117677Y-69488D01*
X117677Y-58858D02*
X117677Y-59153D01*
X121929Y-58858D02*
X121929Y-59153D01*
X121929Y-69192D02*
X121929Y-69488D01*
G54D17*
X121614Y-68523D02*
X121756Y-68523D01*
X121614Y-44901D02*
X121756Y-44901D01*
G54D18*
X121929Y-57677D02*
X121929Y-58858D01*
X122125Y-59055D02*
X121929Y-58858D01*
X122125Y-68543D02*
X122125Y-59055D01*
X122125Y-68897D02*
X122125Y-68543D01*
X121929Y-69094D02*
X122125Y-68897D01*
X121929Y-69488D02*
X121929Y-69094D01*
X122125Y-47244D02*
X121929Y-47047D01*
X122125Y-56692D02*
X122125Y-47244D01*
X122125Y-57007D02*
X122125Y-56692D01*
X121929Y-57204D02*
X122125Y-57007D01*
X121929Y-57677D02*
X121929Y-57204D01*
X121929Y-45866D02*
X121929Y-47047D01*
X122125Y-35433D02*
X121929Y-35236D01*
X122125Y-44921D02*
X122125Y-35433D01*
X122125Y-45196D02*
X122125Y-44921D01*
X121929Y-45393D02*
X122125Y-45196D01*
X121929Y-45866D02*
X121929Y-45393D01*
X122125Y-56712D02*
X122106Y-56692D01*
X122106Y-56692D02*
X122086Y-56692D01*
X122086Y-56692D02*
X122125Y-56692D01*
X121614Y-56712D02*
X122125Y-56712D01*
X122125Y-68523D02*
X122125Y-68543D01*
X121614Y-68523D02*
X122125Y-68523D01*
X122125Y-44901D02*
X122125Y-44921D01*
X121614Y-44901D02*
X122125Y-44901D01*
G54D16*
X119094Y-58858D02*
X119094Y-59153D01*
X119094Y-69192D02*
X119094Y-69488D01*
G54D17*
X118779Y-68523D02*
X118921Y-68523D01*
X118779Y-44901D02*
X118921Y-44901D01*
G54D18*
X119094Y-57677D02*
X119094Y-58858D01*
X119291Y-59055D02*
X119094Y-58858D01*
X119291Y-68543D02*
X119291Y-59055D01*
X119291Y-68897D02*
X119291Y-68543D01*
X119094Y-69094D02*
X119291Y-68897D01*
X119094Y-69488D02*
X119094Y-69094D01*
X119291Y-47244D02*
X119094Y-47047D01*
X119291Y-56692D02*
X119291Y-47244D01*
X119291Y-57007D02*
X119291Y-56692D01*
X119094Y-57204D02*
X119291Y-57007D01*
X119094Y-57677D02*
X119094Y-57204D01*
X119094Y-45866D02*
X119094Y-47047D01*
X119291Y-35433D02*
X119094Y-35236D01*
X119291Y-44921D02*
X119291Y-35433D01*
X119291Y-45196D02*
X119291Y-44921D01*
X119094Y-45393D02*
X119291Y-45196D01*
X119094Y-45866D02*
X119094Y-45393D01*
X119291Y-56712D02*
X119272Y-56692D01*
X119272Y-56692D02*
X119251Y-56692D01*
X119251Y-56692D02*
X119291Y-56692D01*
X118779Y-56712D02*
X119291Y-56712D01*
X119291Y-68523D02*
X119291Y-68543D01*
X118779Y-68523D02*
X119291Y-68523D01*
X119291Y-44901D02*
X119291Y-44921D01*
X118779Y-44901D02*
X119291Y-44901D01*
X120196Y-44901D02*
X120708Y-44901D01*
X120708Y-44901D02*
X120708Y-44921D01*
X120196Y-68523D02*
X120708Y-68523D01*
X120708Y-68523D02*
X120708Y-68543D01*
X120196Y-56712D02*
X120708Y-56712D01*
X120669Y-56692D02*
X120708Y-56692D01*
X120689Y-56692D02*
X120669Y-56692D01*
X120708Y-56712D02*
X120689Y-56692D01*
X120511Y-45866D02*
X120511Y-45393D01*
X120511Y-45393D02*
X120708Y-45196D01*
X120708Y-45196D02*
X120708Y-44921D01*
X120708Y-44921D02*
X120708Y-35433D01*
X120708Y-35433D02*
X120511Y-35236D01*
X120511Y-45866D02*
X120511Y-47047D01*
X120511Y-57677D02*
X120511Y-57204D01*
X120511Y-57204D02*
X120708Y-57007D01*
X120708Y-57007D02*
X120708Y-56692D01*
X120708Y-56692D02*
X120708Y-47244D01*
X120708Y-47244D02*
X120511Y-47047D01*
X120511Y-69488D02*
X120511Y-69094D01*
X120511Y-69094D02*
X120708Y-68897D01*
X120708Y-68897D02*
X120708Y-68543D01*
X120708Y-68543D02*
X120708Y-59055D01*
X120708Y-59055D02*
X120511Y-58858D01*
X120511Y-57677D02*
X120511Y-58858D01*
G54D17*
X120196Y-44901D02*
X120338Y-44901D01*
X120196Y-68523D02*
X120338Y-68523D01*
G54D16*
X120511Y-69192D02*
X120511Y-69488D01*
X120511Y-58858D02*
X120511Y-59153D01*
X124763Y-58858D02*
X124763Y-59153D01*
X124763Y-69192D02*
X124763Y-69488D01*
G54D17*
X124448Y-68523D02*
X124590Y-68523D01*
X124448Y-44901D02*
X124590Y-44901D01*
G54D18*
X124763Y-57677D02*
X124763Y-58858D01*
X124960Y-59055D02*
X124763Y-58858D01*
X124960Y-68543D02*
X124960Y-59055D01*
X124960Y-68897D02*
X124960Y-68543D01*
X124763Y-69094D02*
X124960Y-68897D01*
X124763Y-69488D02*
X124763Y-69094D01*
X124960Y-47244D02*
X124763Y-47047D01*
X124960Y-56692D02*
X124960Y-47244D01*
X124960Y-57007D02*
X124960Y-56692D01*
X124763Y-57204D02*
X124960Y-57007D01*
X124763Y-57677D02*
X124763Y-57204D01*
X124763Y-45866D02*
X124763Y-47047D01*
X124960Y-35433D02*
X124763Y-35236D01*
X124960Y-44921D02*
X124960Y-35433D01*
X124960Y-45196D02*
X124960Y-44921D01*
X124763Y-45393D02*
X124960Y-45196D01*
X124763Y-45866D02*
X124763Y-45393D01*
X124960Y-56712D02*
X124941Y-56692D01*
X124941Y-56692D02*
X124921Y-56692D01*
X124921Y-56692D02*
X124960Y-56692D01*
X124448Y-56712D02*
X124960Y-56712D01*
X124960Y-68523D02*
X124960Y-68543D01*
X124448Y-68523D02*
X124960Y-68523D01*
X124960Y-44901D02*
X124960Y-44921D01*
X124448Y-44901D02*
X124960Y-44901D01*
X123031Y-44901D02*
X123543Y-44901D01*
X123543Y-44901D02*
X123543Y-44921D01*
X123031Y-68523D02*
X123543Y-68523D01*
X123543Y-68523D02*
X123543Y-68543D01*
X123031Y-56712D02*
X123543Y-56712D01*
X123503Y-56692D02*
X123543Y-56692D01*
X123524Y-56692D02*
X123503Y-56692D01*
X123543Y-56712D02*
X123524Y-56692D01*
X123346Y-45866D02*
X123346Y-45393D01*
X123346Y-45393D02*
X123543Y-45196D01*
X123543Y-45196D02*
X123543Y-44921D01*
X123543Y-44921D02*
X123543Y-35433D01*
X123543Y-35433D02*
X123346Y-35236D01*
X123346Y-45866D02*
X123346Y-47047D01*
X123346Y-57677D02*
X123346Y-57204D01*
X123346Y-57204D02*
X123543Y-57007D01*
X123543Y-57007D02*
X123543Y-56692D01*
X123543Y-56692D02*
X123543Y-47244D01*
X123543Y-47244D02*
X123346Y-47047D01*
X123346Y-69488D02*
X123346Y-69094D01*
X123346Y-69094D02*
X123543Y-68897D01*
X123543Y-68897D02*
X123543Y-68543D01*
X123543Y-68543D02*
X123543Y-59055D01*
X123543Y-59055D02*
X123346Y-58858D01*
X123346Y-57677D02*
X123346Y-58858D01*
G54D17*
X123031Y-44901D02*
X123173Y-44901D01*
X123031Y-68523D02*
X123173Y-68523D01*
G54D16*
X123346Y-69192D02*
X123346Y-69488D01*
X123346Y-58858D02*
X123346Y-59153D01*
G54D18*
X125866Y-44901D02*
X126377Y-44901D01*
X126377Y-44901D02*
X126377Y-44921D01*
X125866Y-68523D02*
X126377Y-68523D01*
X126377Y-68523D02*
X126377Y-68543D01*
X125866Y-56712D02*
X126377Y-56712D01*
X126338Y-56692D02*
X126377Y-56692D01*
X126358Y-56692D02*
X126338Y-56692D01*
X126377Y-56712D02*
X126358Y-56692D01*
X126181Y-45866D02*
X126181Y-45393D01*
X126181Y-45393D02*
X126377Y-45196D01*
X126377Y-45196D02*
X126377Y-44921D01*
X126377Y-44921D02*
X126377Y-35433D01*
X126377Y-35433D02*
X126181Y-35236D01*
X126181Y-45866D02*
X126181Y-47047D01*
X126181Y-57677D02*
X126181Y-57204D01*
X126181Y-57204D02*
X126377Y-57007D01*
X126377Y-57007D02*
X126377Y-56692D01*
X126377Y-56692D02*
X126377Y-47244D01*
X126377Y-47244D02*
X126181Y-47047D01*
X126181Y-69488D02*
X126181Y-69094D01*
X126181Y-69094D02*
X126377Y-68897D01*
X126377Y-68897D02*
X126377Y-68543D01*
X126377Y-68543D02*
X126377Y-59055D01*
X126377Y-59055D02*
X126181Y-58858D01*
X126181Y-57677D02*
X126181Y-58858D01*
G54D17*
X125866Y-44901D02*
X126008Y-44901D01*
X125866Y-68523D02*
X126008Y-68523D01*
G54D16*
X126181Y-69192D02*
X126181Y-69488D01*
X126181Y-58858D02*
X126181Y-59153D01*
X130433Y-58858D02*
X130433Y-59153D01*
X130433Y-69192D02*
X130433Y-69488D01*
G54D17*
X130118Y-68523D02*
X130260Y-68523D01*
X130118Y-44901D02*
X130260Y-44901D01*
G54D18*
X130433Y-57677D02*
X130433Y-58858D01*
X130629Y-59055D02*
X130433Y-58858D01*
X130629Y-68543D02*
X130629Y-59055D01*
X130629Y-68897D02*
X130629Y-68543D01*
X130433Y-69094D02*
X130629Y-68897D01*
X130433Y-69488D02*
X130433Y-69094D01*
X130629Y-47244D02*
X130433Y-47047D01*
X130629Y-56692D02*
X130629Y-47244D01*
X130629Y-57007D02*
X130629Y-56692D01*
X130433Y-57204D02*
X130629Y-57007D01*
X130433Y-57677D02*
X130433Y-57204D01*
X130433Y-45866D02*
X130433Y-47047D01*
X130629Y-35433D02*
X130433Y-35236D01*
X130629Y-44921D02*
X130629Y-35433D01*
X130629Y-45196D02*
X130629Y-44921D01*
X130433Y-45393D02*
X130629Y-45196D01*
X130433Y-45866D02*
X130433Y-45393D01*
X130629Y-56712D02*
X130610Y-56692D01*
X130610Y-56692D02*
X130590Y-56692D01*
X130590Y-56692D02*
X130629Y-56692D01*
X130118Y-56712D02*
X130629Y-56712D01*
X130629Y-68523D02*
X130629Y-68543D01*
X130118Y-68523D02*
X130629Y-68523D01*
X130629Y-44901D02*
X130629Y-44921D01*
X130118Y-44901D02*
X130629Y-44901D01*
G54D16*
X127598Y-58858D02*
X127598Y-59153D01*
X127598Y-69192D02*
X127598Y-69488D01*
G54D17*
X127283Y-68523D02*
X127425Y-68523D01*
X127283Y-44901D02*
X127425Y-44901D01*
G54D18*
X127598Y-57677D02*
X127598Y-58858D01*
X127795Y-59055D02*
X127598Y-58858D01*
X127795Y-68543D02*
X127795Y-59055D01*
X127795Y-68897D02*
X127795Y-68543D01*
X127598Y-69094D02*
X127795Y-68897D01*
X127598Y-69488D02*
X127598Y-69094D01*
X127795Y-47244D02*
X127598Y-47047D01*
X127795Y-56692D02*
X127795Y-47244D01*
X127795Y-57007D02*
X127795Y-56692D01*
X127598Y-57204D02*
X127795Y-57007D01*
X127598Y-57677D02*
X127598Y-57204D01*
X127598Y-45866D02*
X127598Y-47047D01*
X127795Y-35433D02*
X127598Y-35236D01*
X127795Y-44921D02*
X127795Y-35433D01*
X127795Y-45196D02*
X127795Y-44921D01*
X127598Y-45393D02*
X127795Y-45196D01*
X127598Y-45866D02*
X127598Y-45393D01*
X127795Y-56712D02*
X127775Y-56692D01*
X127775Y-56692D02*
X127755Y-56692D01*
X127755Y-56692D02*
X127795Y-56692D01*
X127283Y-56712D02*
X127795Y-56712D01*
X127795Y-68523D02*
X127795Y-68543D01*
X127283Y-68523D02*
X127795Y-68523D01*
X127795Y-44901D02*
X127795Y-44921D01*
X127283Y-44901D02*
X127795Y-44901D01*
X128700Y-44901D02*
X129212Y-44901D01*
X129212Y-44901D02*
X129212Y-44921D01*
X128700Y-68523D02*
X129212Y-68523D01*
X129212Y-68523D02*
X129212Y-68543D01*
X128700Y-56712D02*
X129212Y-56712D01*
X129173Y-56692D02*
X129212Y-56692D01*
X129193Y-56692D02*
X129173Y-56692D01*
X129212Y-56712D02*
X129193Y-56692D01*
X129015Y-45866D02*
X129015Y-45393D01*
X129015Y-45393D02*
X129212Y-45196D01*
X129212Y-45196D02*
X129212Y-44921D01*
X129212Y-44921D02*
X129212Y-35433D01*
X129212Y-35433D02*
X129015Y-35236D01*
X129015Y-45866D02*
X129015Y-47047D01*
X129015Y-57677D02*
X129015Y-57204D01*
X129015Y-57204D02*
X129212Y-57007D01*
X129212Y-57007D02*
X129212Y-56692D01*
X129212Y-56692D02*
X129212Y-47244D01*
X129212Y-47244D02*
X129015Y-47047D01*
X129015Y-69488D02*
X129015Y-69094D01*
X129015Y-69094D02*
X129212Y-68897D01*
X129212Y-68897D02*
X129212Y-68543D01*
X129212Y-68543D02*
X129212Y-59055D01*
X129212Y-59055D02*
X129015Y-58858D01*
X129015Y-57677D02*
X129015Y-58858D01*
G54D17*
X128700Y-44901D02*
X128842Y-44901D01*
X128700Y-68523D02*
X128842Y-68523D01*
G54D16*
X129015Y-69192D02*
X129015Y-69488D01*
X129015Y-58858D02*
X129015Y-59153D01*
G54D15*
X142874Y-66436D02*
X142874Y-67697D01*
X141456Y-66436D02*
X141456Y-67697D01*
X144291Y-66436D02*
X144291Y-67697D01*
X140039Y-66436D02*
X140039Y-67697D01*
X137204Y-66436D02*
X137204Y-67697D01*
X138622Y-66436D02*
X138622Y-67697D01*
X134370Y-66436D02*
X134370Y-67697D01*
X132952Y-66436D02*
X132952Y-67697D01*
X135787Y-66436D02*
X135787Y-67697D01*
X145708Y-66436D02*
X145708Y-67697D01*
X131535Y-66436D02*
X131535Y-67697D01*
X115944Y-66436D02*
X115944Y-67697D01*
X114527Y-66436D02*
X114527Y-67697D01*
X117362Y-66436D02*
X117362Y-67697D01*
X121614Y-66436D02*
X121614Y-67697D01*
X118779Y-66436D02*
X118779Y-67697D01*
X120196Y-66436D02*
X120196Y-67697D01*
X124448Y-66436D02*
X124448Y-67697D01*
X123031Y-66436D02*
X123031Y-67697D01*
X125866Y-66436D02*
X125866Y-67697D01*
X130118Y-66436D02*
X130118Y-67697D01*
X127283Y-66436D02*
X127283Y-67697D01*
X128700Y-66436D02*
X128700Y-67697D01*
X142874Y-51949D02*
X142874Y-48838D01*
X141456Y-51949D02*
X141456Y-48838D01*
X144291Y-51949D02*
X144291Y-48838D01*
X140039Y-51949D02*
X140039Y-48838D01*
X137204Y-51949D02*
X137204Y-48838D01*
X138622Y-51949D02*
X138622Y-48838D01*
X134370Y-51949D02*
X134370Y-48838D01*
X132952Y-51949D02*
X132952Y-48838D01*
X135787Y-51949D02*
X135787Y-48838D01*
X145708Y-51949D02*
X145708Y-48838D01*
X131535Y-51949D02*
X131535Y-48838D01*
X115944Y-51949D02*
X115944Y-48838D01*
X114527Y-51949D02*
X114527Y-48838D01*
X117362Y-51949D02*
X117362Y-48838D01*
X121614Y-51949D02*
X121614Y-48838D01*
X118779Y-51949D02*
X118779Y-48838D01*
X120196Y-51949D02*
X120196Y-48838D01*
X124448Y-51949D02*
X124448Y-48838D01*
X123031Y-51949D02*
X123031Y-48838D01*
X125866Y-51949D02*
X125866Y-48838D01*
X130118Y-51949D02*
X130118Y-48838D01*
X127283Y-51949D02*
X127283Y-48838D01*
X128700Y-51949D02*
X128700Y-48838D01*
X142874Y-53957D02*
X142874Y-52775D01*
X141456Y-53957D02*
X141456Y-52775D01*
X144291Y-53957D02*
X144291Y-52775D01*
X140039Y-53957D02*
X140039Y-52775D01*
X137204Y-53957D02*
X137204Y-52775D01*
X138622Y-53957D02*
X138622Y-52775D01*
X134370Y-53957D02*
X134370Y-52775D01*
X132952Y-53957D02*
X132952Y-52775D01*
X135787Y-53957D02*
X135787Y-52775D01*
X145708Y-53957D02*
X145708Y-52775D01*
X131535Y-53957D02*
X131535Y-52775D01*
X115944Y-53957D02*
X115944Y-52775D01*
X114527Y-53957D02*
X114527Y-52775D01*
X117362Y-53957D02*
X117362Y-52775D01*
X121614Y-53957D02*
X121614Y-52775D01*
X118779Y-53957D02*
X118779Y-52775D01*
X120196Y-53957D02*
X120196Y-52775D01*
X124448Y-53957D02*
X124448Y-52775D01*
X123031Y-53957D02*
X123031Y-52775D01*
X125866Y-53957D02*
X125866Y-52775D01*
X130118Y-53957D02*
X130118Y-52775D01*
X127283Y-53957D02*
X127283Y-52775D01*
X128700Y-53957D02*
X128700Y-52775D01*
X142874Y-54625D02*
X142874Y-55886D01*
X141456Y-54625D02*
X141456Y-55886D01*
X144291Y-54625D02*
X144291Y-55886D01*
X140039Y-54625D02*
X140039Y-55886D01*
X137204Y-54625D02*
X137204Y-55886D01*
X138622Y-54625D02*
X138622Y-55886D01*
X134370Y-54625D02*
X134370Y-55886D01*
X132952Y-54625D02*
X132952Y-55886D01*
X135787Y-54625D02*
X135787Y-55886D01*
X145708Y-54625D02*
X145708Y-55886D01*
X131535Y-54625D02*
X131535Y-55886D01*
X115944Y-54625D02*
X115944Y-55886D01*
X114527Y-54625D02*
X114527Y-55886D01*
X117362Y-54625D02*
X117362Y-55886D01*
X121614Y-54625D02*
X121614Y-55886D01*
X118779Y-54625D02*
X118779Y-55886D01*
X120196Y-54625D02*
X120196Y-55886D01*
X124448Y-54625D02*
X124448Y-55886D01*
X123031Y-54625D02*
X123031Y-55886D01*
X125866Y-54625D02*
X125866Y-55886D01*
X130118Y-54625D02*
X130118Y-55886D01*
X127283Y-54625D02*
X127283Y-55886D01*
X128700Y-54625D02*
X128700Y-55886D01*
X142874Y-40138D02*
X142874Y-37027D01*
X141456Y-40138D02*
X141456Y-37027D01*
X144291Y-40138D02*
X144291Y-37027D01*
X140039Y-40138D02*
X140039Y-37027D01*
X137204Y-40138D02*
X137204Y-37027D01*
X138622Y-40138D02*
X138622Y-37027D01*
X134370Y-40138D02*
X134370Y-37027D01*
X132952Y-40138D02*
X132952Y-37027D01*
X135787Y-40138D02*
X135787Y-37027D01*
X145708Y-40138D02*
X145708Y-37027D01*
X131535Y-40138D02*
X131535Y-37027D01*
X115944Y-40138D02*
X115944Y-37027D01*
X114527Y-40138D02*
X114527Y-37027D01*
X117362Y-40138D02*
X117362Y-37027D01*
X121614Y-40138D02*
X121614Y-37027D01*
X118779Y-40138D02*
X118779Y-37027D01*
X120196Y-40138D02*
X120196Y-37027D01*
X124448Y-40138D02*
X124448Y-37027D01*
X123031Y-40138D02*
X123031Y-37027D01*
X125866Y-40138D02*
X125866Y-37027D01*
X130118Y-40138D02*
X130118Y-37027D01*
X127283Y-40138D02*
X127283Y-37027D01*
X128700Y-40138D02*
X128700Y-37027D01*
X142874Y-42146D02*
X142874Y-40964D01*
X141456Y-42146D02*
X141456Y-40964D01*
X144291Y-42146D02*
X144291Y-40964D01*
X140039Y-42146D02*
X140039Y-40964D01*
X137204Y-42146D02*
X137204Y-40964D01*
X138622Y-42146D02*
X138622Y-40964D01*
X134370Y-42146D02*
X134370Y-40964D01*
X132952Y-42146D02*
X132952Y-40964D01*
X135787Y-42146D02*
X135787Y-40964D01*
X145708Y-42146D02*
X145708Y-40964D01*
X131535Y-42146D02*
X131535Y-40964D01*
X115944Y-42146D02*
X115944Y-40964D01*
X114527Y-42146D02*
X114527Y-40964D01*
X117362Y-42146D02*
X117362Y-40964D01*
X121614Y-42146D02*
X121614Y-40964D01*
X118779Y-42146D02*
X118779Y-40964D01*
X120196Y-42146D02*
X120196Y-40964D01*
X124448Y-42146D02*
X124448Y-40964D01*
X123031Y-42146D02*
X123031Y-40964D01*
X125866Y-42146D02*
X125866Y-40964D01*
X130118Y-42146D02*
X130118Y-40964D01*
X127283Y-42146D02*
X127283Y-40964D01*
X128700Y-42146D02*
X128700Y-40964D01*
X142874Y-44075D02*
X142874Y-42814D01*
X141456Y-44075D02*
X141456Y-42814D01*
X144291Y-44075D02*
X144291Y-42814D01*
X140039Y-44075D02*
X140039Y-42814D01*
X137204Y-44075D02*
X137204Y-42814D01*
X138622Y-44075D02*
X138622Y-42814D01*
X134370Y-44075D02*
X134370Y-42814D01*
X132952Y-44075D02*
X132952Y-42814D01*
X135787Y-44075D02*
X135787Y-42814D01*
X145708Y-44075D02*
X145708Y-42814D01*
X131535Y-44075D02*
X131535Y-42814D01*
X115944Y-44075D02*
X115944Y-42814D01*
X114527Y-44075D02*
X114527Y-42814D01*
X117362Y-44075D02*
X117362Y-42814D01*
X121614Y-44075D02*
X121614Y-42814D01*
X118779Y-44075D02*
X118779Y-42814D01*
X120196Y-44075D02*
X120196Y-42814D01*
X124448Y-44075D02*
X124448Y-42814D01*
X123031Y-44075D02*
X123031Y-42814D01*
X125866Y-44075D02*
X125866Y-42814D01*
X130118Y-44075D02*
X130118Y-42814D01*
X127283Y-44075D02*
X127283Y-42814D01*
X128700Y-44075D02*
X128700Y-42814D01*
M02*
