%FSLAX34Y34*%
G04 Gerber Fmt 3.4, Leading zero omitted, Abs format*
G04 (created by PCBNEW (2014-05-21 BZR 4876)-product) date Wed 21 May 2014 11:11:25 PM CEST*
%MOIN*%
G01*
G70*
G90*
G04 APERTURE LIST*
%ADD10C,0.005906*%
%ADD11C,0.003937*%
G04 APERTURE END LIST*
G54D10*
G54D11*
X118149Y-35708D02*
G75*
G03X118464Y-35708I157J0D01*
G74*
G01*
X118149Y-35708D02*
X118149Y-34645D01*
X118464Y-35708D02*
X118464Y-34645D01*
X118149Y-70078D02*
X118149Y-69015D01*
X118464Y-69015D02*
X118464Y-70078D01*
X118464Y-69015D02*
G75*
G03X118149Y-69015I-157J0D01*
G74*
G01*
X118149Y-57204D02*
X118149Y-59330D01*
X118464Y-59330D02*
X118464Y-57204D01*
X118464Y-45393D02*
G75*
G03X118149Y-45393I-157J0D01*
G74*
G01*
X118149Y-47519D02*
G75*
G03X118464Y-47519I157J0D01*
G74*
G01*
X118464Y-45393D02*
X118464Y-47519D01*
X118149Y-47519D02*
X118149Y-45393D01*
X118149Y-59330D02*
G75*
G03X118464Y-59330I157J0D01*
G74*
G01*
X118464Y-57204D02*
G75*
G03X118149Y-57204I-157J0D01*
G74*
G01*
X118464Y-34645D02*
G75*
G03X118149Y-34645I-157J0D01*
G74*
G01*
X118149Y-70078D02*
G75*
G03X118464Y-70078I157J0D01*
G74*
G01*
X119724Y-70078D02*
G75*
G03X120039Y-70078I157J0D01*
G74*
G01*
X120039Y-34645D02*
G75*
G03X119724Y-34645I-157J0D01*
G74*
G01*
X120039Y-57204D02*
G75*
G03X119724Y-57204I-157J0D01*
G74*
G01*
X119724Y-59330D02*
G75*
G03X120039Y-59330I157J0D01*
G74*
G01*
X119724Y-47519D02*
X119724Y-45393D01*
X120039Y-45393D02*
X120039Y-47519D01*
X119724Y-47519D02*
G75*
G03X120039Y-47519I157J0D01*
G74*
G01*
X120039Y-45393D02*
G75*
G03X119724Y-45393I-157J0D01*
G74*
G01*
X120039Y-59330D02*
X120039Y-57204D01*
X119724Y-57204D02*
X119724Y-59330D01*
X120039Y-69015D02*
G75*
G03X119724Y-69015I-157J0D01*
G74*
G01*
X120039Y-69015D02*
X120039Y-70078D01*
X119724Y-70078D02*
X119724Y-69015D01*
X120039Y-35708D02*
X120039Y-34645D01*
X119724Y-35708D02*
X119724Y-34645D01*
X119724Y-35708D02*
G75*
G03X120039Y-35708I157J0D01*
G74*
G01*
X116574Y-35708D02*
G75*
G03X116889Y-35708I157J0D01*
G74*
G01*
X116574Y-35708D02*
X116574Y-34645D01*
X116889Y-35708D02*
X116889Y-34645D01*
X116574Y-70078D02*
X116574Y-69015D01*
X116889Y-69015D02*
X116889Y-70078D01*
X116889Y-69015D02*
G75*
G03X116574Y-69015I-157J0D01*
G74*
G01*
X116574Y-57204D02*
X116574Y-59330D01*
X116889Y-59330D02*
X116889Y-57204D01*
X116889Y-45393D02*
G75*
G03X116574Y-45393I-157J0D01*
G74*
G01*
X116574Y-47519D02*
G75*
G03X116889Y-47519I157J0D01*
G74*
G01*
X116889Y-45393D02*
X116889Y-47519D01*
X116574Y-47519D02*
X116574Y-45393D01*
X116574Y-59330D02*
G75*
G03X116889Y-59330I157J0D01*
G74*
G01*
X116889Y-57204D02*
G75*
G03X116574Y-57204I-157J0D01*
G74*
G01*
X116889Y-34645D02*
G75*
G03X116574Y-34645I-157J0D01*
G74*
G01*
X116574Y-70078D02*
G75*
G03X116889Y-70078I157J0D01*
G74*
G01*
X115000Y-70078D02*
G75*
G03X115314Y-70078I157J0D01*
G74*
G01*
X115314Y-34645D02*
G75*
G03X115000Y-34645I-157J0D01*
G74*
G01*
X115314Y-57204D02*
G75*
G03X115000Y-57204I-157J0D01*
G74*
G01*
X115000Y-59330D02*
G75*
G03X115314Y-59330I157J0D01*
G74*
G01*
X115000Y-47519D02*
X115000Y-45393D01*
X115314Y-45393D02*
X115314Y-47519D01*
X115000Y-47519D02*
G75*
G03X115314Y-47519I157J0D01*
G74*
G01*
X115314Y-45393D02*
G75*
G03X115000Y-45393I-157J0D01*
G74*
G01*
X115314Y-59330D02*
X115314Y-57204D01*
X115000Y-57204D02*
X115000Y-59330D01*
X115314Y-69015D02*
G75*
G03X115000Y-69015I-157J0D01*
G74*
G01*
X115314Y-69015D02*
X115314Y-70078D01*
X115000Y-70078D02*
X115000Y-69015D01*
X115314Y-35708D02*
X115314Y-34645D01*
X115000Y-35708D02*
X115000Y-34645D01*
X115000Y-35708D02*
G75*
G03X115314Y-35708I157J0D01*
G74*
G01*
X121299Y-35708D02*
G75*
G03X121614Y-35708I157J0D01*
G74*
G01*
X121299Y-35708D02*
X121299Y-34645D01*
X121614Y-35708D02*
X121614Y-34645D01*
X121299Y-70078D02*
X121299Y-69015D01*
X121614Y-69015D02*
X121614Y-70078D01*
X121614Y-69015D02*
G75*
G03X121299Y-69015I-157J0D01*
G74*
G01*
X121299Y-57204D02*
X121299Y-59330D01*
X121614Y-59330D02*
X121614Y-57204D01*
X121614Y-45393D02*
G75*
G03X121299Y-45393I-157J0D01*
G74*
G01*
X121299Y-47519D02*
G75*
G03X121614Y-47519I157J0D01*
G74*
G01*
X121614Y-45393D02*
X121614Y-47519D01*
X121299Y-47519D02*
X121299Y-45393D01*
X121299Y-59330D02*
G75*
G03X121614Y-59330I157J0D01*
G74*
G01*
X121614Y-57204D02*
G75*
G03X121299Y-57204I-157J0D01*
G74*
G01*
X121614Y-34645D02*
G75*
G03X121299Y-34645I-157J0D01*
G74*
G01*
X121299Y-70078D02*
G75*
G03X121614Y-70078I157J0D01*
G74*
G01*
X129173Y-70078D02*
G75*
G03X129488Y-70078I157J0D01*
G74*
G01*
X129488Y-34645D02*
G75*
G03X129173Y-34645I-157J0D01*
G74*
G01*
X129488Y-57204D02*
G75*
G03X129173Y-57204I-157J0D01*
G74*
G01*
X129173Y-59330D02*
G75*
G03X129488Y-59330I157J0D01*
G74*
G01*
X129173Y-47519D02*
X129173Y-45393D01*
X129488Y-45393D02*
X129488Y-47519D01*
X129173Y-47519D02*
G75*
G03X129488Y-47519I157J0D01*
G74*
G01*
X129488Y-45393D02*
G75*
G03X129173Y-45393I-157J0D01*
G74*
G01*
X129488Y-59330D02*
X129488Y-57204D01*
X129173Y-57204D02*
X129173Y-59330D01*
X129488Y-69015D02*
G75*
G03X129173Y-69015I-157J0D01*
G74*
G01*
X129488Y-69015D02*
X129488Y-70078D01*
X129173Y-70078D02*
X129173Y-69015D01*
X129488Y-35708D02*
X129488Y-34645D01*
X129173Y-35708D02*
X129173Y-34645D01*
X129173Y-35708D02*
G75*
G03X129488Y-35708I157J0D01*
G74*
G01*
X122874Y-35708D02*
G75*
G03X123188Y-35708I157J0D01*
G74*
G01*
X122874Y-35708D02*
X122874Y-34645D01*
X123188Y-35708D02*
X123188Y-34645D01*
X122874Y-70078D02*
X122874Y-69015D01*
X123188Y-69015D02*
X123188Y-70078D01*
X123188Y-69015D02*
G75*
G03X122874Y-69015I-157J0D01*
G74*
G01*
X122874Y-57204D02*
X122874Y-59330D01*
X123188Y-59330D02*
X123188Y-57204D01*
X123188Y-45393D02*
G75*
G03X122874Y-45393I-157J0D01*
G74*
G01*
X122874Y-47519D02*
G75*
G03X123188Y-47519I157J0D01*
G74*
G01*
X123188Y-45393D02*
X123188Y-47519D01*
X122874Y-47519D02*
X122874Y-45393D01*
X122874Y-59330D02*
G75*
G03X123188Y-59330I157J0D01*
G74*
G01*
X123188Y-57204D02*
G75*
G03X122874Y-57204I-157J0D01*
G74*
G01*
X123188Y-34645D02*
G75*
G03X122874Y-34645I-157J0D01*
G74*
G01*
X122874Y-70078D02*
G75*
G03X123188Y-70078I157J0D01*
G74*
G01*
X124448Y-70078D02*
G75*
G03X124763Y-70078I157J0D01*
G74*
G01*
X124763Y-34645D02*
G75*
G03X124448Y-34645I-157J0D01*
G74*
G01*
X124763Y-57204D02*
G75*
G03X124448Y-57204I-157J0D01*
G74*
G01*
X124448Y-59330D02*
G75*
G03X124763Y-59330I157J0D01*
G74*
G01*
X124448Y-47519D02*
X124448Y-45393D01*
X124763Y-45393D02*
X124763Y-47519D01*
X124448Y-47519D02*
G75*
G03X124763Y-47519I157J0D01*
G74*
G01*
X124763Y-45393D02*
G75*
G03X124448Y-45393I-157J0D01*
G74*
G01*
X124763Y-59330D02*
X124763Y-57204D01*
X124448Y-57204D02*
X124448Y-59330D01*
X124763Y-69015D02*
G75*
G03X124448Y-69015I-157J0D01*
G74*
G01*
X124763Y-69015D02*
X124763Y-70078D01*
X124448Y-70078D02*
X124448Y-69015D01*
X124763Y-35708D02*
X124763Y-34645D01*
X124448Y-35708D02*
X124448Y-34645D01*
X124448Y-35708D02*
G75*
G03X124763Y-35708I157J0D01*
G74*
G01*
X127598Y-35708D02*
G75*
G03X127913Y-35708I157J0D01*
G74*
G01*
X127598Y-35708D02*
X127598Y-34645D01*
X127913Y-35708D02*
X127913Y-34645D01*
X127598Y-70078D02*
X127598Y-69015D01*
X127913Y-69015D02*
X127913Y-70078D01*
X127913Y-69015D02*
G75*
G03X127598Y-69015I-157J0D01*
G74*
G01*
X127598Y-57204D02*
X127598Y-59330D01*
X127913Y-59330D02*
X127913Y-57204D01*
X127913Y-45393D02*
G75*
G03X127598Y-45393I-157J0D01*
G74*
G01*
X127598Y-47519D02*
G75*
G03X127913Y-47519I157J0D01*
G74*
G01*
X127913Y-45393D02*
X127913Y-47519D01*
X127598Y-47519D02*
X127598Y-45393D01*
X127598Y-59330D02*
G75*
G03X127913Y-59330I157J0D01*
G74*
G01*
X127913Y-57204D02*
G75*
G03X127598Y-57204I-157J0D01*
G74*
G01*
X127913Y-34645D02*
G75*
G03X127598Y-34645I-157J0D01*
G74*
G01*
X127598Y-70078D02*
G75*
G03X127913Y-70078I157J0D01*
G74*
G01*
X126023Y-70078D02*
G75*
G03X126338Y-70078I157J0D01*
G74*
G01*
X126338Y-34645D02*
G75*
G03X126023Y-34645I-157J0D01*
G74*
G01*
X126338Y-57204D02*
G75*
G03X126023Y-57204I-157J0D01*
G74*
G01*
X126023Y-59330D02*
G75*
G03X126338Y-59330I157J0D01*
G74*
G01*
X126023Y-47519D02*
X126023Y-45393D01*
X126338Y-45393D02*
X126338Y-47519D01*
X126023Y-47519D02*
G75*
G03X126338Y-47519I157J0D01*
G74*
G01*
X126338Y-45393D02*
G75*
G03X126023Y-45393I-157J0D01*
G74*
G01*
X126338Y-59330D02*
X126338Y-57204D01*
X126023Y-57204D02*
X126023Y-59330D01*
X126338Y-69015D02*
G75*
G03X126023Y-69015I-157J0D01*
G74*
G01*
X126338Y-69015D02*
X126338Y-70078D01*
X126023Y-70078D02*
X126023Y-69015D01*
X126338Y-35708D02*
X126338Y-34645D01*
X126023Y-35708D02*
X126023Y-34645D01*
X126023Y-35708D02*
G75*
G03X126338Y-35708I157J0D01*
G74*
G01*
X141771Y-35708D02*
G75*
G03X142086Y-35708I157J0D01*
G74*
G01*
X141771Y-35708D02*
X141771Y-34645D01*
X142086Y-35708D02*
X142086Y-34645D01*
X141771Y-70078D02*
X141771Y-69015D01*
X142086Y-69015D02*
X142086Y-70078D01*
X142086Y-69015D02*
G75*
G03X141771Y-69015I-157J0D01*
G74*
G01*
X141771Y-57204D02*
X141771Y-59330D01*
X142086Y-59330D02*
X142086Y-57204D01*
X142086Y-45393D02*
G75*
G03X141771Y-45393I-157J0D01*
G74*
G01*
X141771Y-47519D02*
G75*
G03X142086Y-47519I157J0D01*
G74*
G01*
X142086Y-45393D02*
X142086Y-47519D01*
X141771Y-47519D02*
X141771Y-45393D01*
X141771Y-59330D02*
G75*
G03X142086Y-59330I157J0D01*
G74*
G01*
X142086Y-57204D02*
G75*
G03X141771Y-57204I-157J0D01*
G74*
G01*
X142086Y-34645D02*
G75*
G03X141771Y-34645I-157J0D01*
G74*
G01*
X141771Y-70078D02*
G75*
G03X142086Y-70078I157J0D01*
G74*
G01*
X143346Y-70078D02*
G75*
G03X143661Y-70078I157J0D01*
G74*
G01*
X143661Y-34645D02*
G75*
G03X143346Y-34645I-157J0D01*
G74*
G01*
X143661Y-57204D02*
G75*
G03X143346Y-57204I-157J0D01*
G74*
G01*
X143346Y-59330D02*
G75*
G03X143661Y-59330I157J0D01*
G74*
G01*
X143346Y-47519D02*
X143346Y-45393D01*
X143661Y-45393D02*
X143661Y-47519D01*
X143346Y-47519D02*
G75*
G03X143661Y-47519I157J0D01*
G74*
G01*
X143661Y-45393D02*
G75*
G03X143346Y-45393I-157J0D01*
G74*
G01*
X143661Y-59330D02*
X143661Y-57204D01*
X143346Y-57204D02*
X143346Y-59330D01*
X143661Y-69015D02*
G75*
G03X143346Y-69015I-157J0D01*
G74*
G01*
X143661Y-69015D02*
X143661Y-70078D01*
X143346Y-70078D02*
X143346Y-69015D01*
X143661Y-35708D02*
X143661Y-34645D01*
X143346Y-35708D02*
X143346Y-34645D01*
X143346Y-35708D02*
G75*
G03X143661Y-35708I157J0D01*
G74*
G01*
X140196Y-35708D02*
G75*
G03X140511Y-35708I157J0D01*
G74*
G01*
X140196Y-35708D02*
X140196Y-34645D01*
X140511Y-35708D02*
X140511Y-34645D01*
X140196Y-70078D02*
X140196Y-69015D01*
X140511Y-69015D02*
X140511Y-70078D01*
X140511Y-69015D02*
G75*
G03X140196Y-69015I-157J0D01*
G74*
G01*
X140196Y-57204D02*
X140196Y-59330D01*
X140511Y-59330D02*
X140511Y-57204D01*
X140511Y-45393D02*
G75*
G03X140196Y-45393I-157J0D01*
G74*
G01*
X140196Y-47519D02*
G75*
G03X140511Y-47519I157J0D01*
G74*
G01*
X140511Y-45393D02*
X140511Y-47519D01*
X140196Y-47519D02*
X140196Y-45393D01*
X140196Y-59330D02*
G75*
G03X140511Y-59330I157J0D01*
G74*
G01*
X140511Y-57204D02*
G75*
G03X140196Y-57204I-157J0D01*
G74*
G01*
X140511Y-34645D02*
G75*
G03X140196Y-34645I-157J0D01*
G74*
G01*
X140196Y-70078D02*
G75*
G03X140511Y-70078I157J0D01*
G74*
G01*
X138622Y-70078D02*
G75*
G03X138937Y-70078I157J0D01*
G74*
G01*
X138937Y-34645D02*
G75*
G03X138622Y-34645I-157J0D01*
G74*
G01*
X138937Y-57204D02*
G75*
G03X138622Y-57204I-157J0D01*
G74*
G01*
X138622Y-59330D02*
G75*
G03X138937Y-59330I157J0D01*
G74*
G01*
X138622Y-47519D02*
X138622Y-45393D01*
X138937Y-45393D02*
X138937Y-47519D01*
X138622Y-47519D02*
G75*
G03X138937Y-47519I157J0D01*
G74*
G01*
X138937Y-45393D02*
G75*
G03X138622Y-45393I-157J0D01*
G74*
G01*
X138937Y-59330D02*
X138937Y-57204D01*
X138622Y-57204D02*
X138622Y-59330D01*
X138937Y-69015D02*
G75*
G03X138622Y-69015I-157J0D01*
G74*
G01*
X138937Y-69015D02*
X138937Y-70078D01*
X138622Y-70078D02*
X138622Y-69015D01*
X138937Y-35708D02*
X138937Y-34645D01*
X138622Y-35708D02*
X138622Y-34645D01*
X138622Y-35708D02*
G75*
G03X138937Y-35708I157J0D01*
G74*
G01*
X144921Y-35708D02*
G75*
G03X145236Y-35708I157J0D01*
G74*
G01*
X144921Y-35708D02*
X144921Y-34645D01*
X145236Y-35708D02*
X145236Y-34645D01*
X144921Y-70078D02*
X144921Y-69015D01*
X145236Y-69015D02*
X145236Y-70078D01*
X145236Y-69015D02*
G75*
G03X144921Y-69015I-157J0D01*
G74*
G01*
X144921Y-57204D02*
X144921Y-59330D01*
X145236Y-59330D02*
X145236Y-57204D01*
X145236Y-45393D02*
G75*
G03X144921Y-45393I-157J0D01*
G74*
G01*
X144921Y-47519D02*
G75*
G03X145236Y-47519I157J0D01*
G74*
G01*
X145236Y-45393D02*
X145236Y-47519D01*
X144921Y-47519D02*
X144921Y-45393D01*
X144921Y-59330D02*
G75*
G03X145236Y-59330I157J0D01*
G74*
G01*
X145236Y-57204D02*
G75*
G03X144921Y-57204I-157J0D01*
G74*
G01*
X145236Y-34645D02*
G75*
G03X144921Y-34645I-157J0D01*
G74*
G01*
X144921Y-70078D02*
G75*
G03X145236Y-70078I157J0D01*
G74*
G01*
X137047Y-70078D02*
G75*
G03X137362Y-70078I157J0D01*
G74*
G01*
X137362Y-34645D02*
G75*
G03X137047Y-34645I-157J0D01*
G74*
G01*
X137362Y-57204D02*
G75*
G03X137047Y-57204I-157J0D01*
G74*
G01*
X137047Y-59330D02*
G75*
G03X137362Y-59330I157J0D01*
G74*
G01*
X137047Y-47519D02*
X137047Y-45393D01*
X137362Y-45393D02*
X137362Y-47519D01*
X137047Y-47519D02*
G75*
G03X137362Y-47519I157J0D01*
G74*
G01*
X137362Y-45393D02*
G75*
G03X137047Y-45393I-157J0D01*
G74*
G01*
X137362Y-59330D02*
X137362Y-57204D01*
X137047Y-57204D02*
X137047Y-59330D01*
X137362Y-69015D02*
G75*
G03X137047Y-69015I-157J0D01*
G74*
G01*
X137362Y-69015D02*
X137362Y-70078D01*
X137047Y-70078D02*
X137047Y-69015D01*
X137362Y-35708D02*
X137362Y-34645D01*
X137047Y-35708D02*
X137047Y-34645D01*
X137047Y-35708D02*
G75*
G03X137362Y-35708I157J0D01*
G74*
G01*
X130748Y-35708D02*
G75*
G03X131062Y-35708I157J0D01*
G74*
G01*
X130748Y-35708D02*
X130748Y-34645D01*
X131062Y-35708D02*
X131062Y-34645D01*
X130748Y-70078D02*
X130748Y-69015D01*
X131062Y-69015D02*
X131062Y-70078D01*
X131062Y-69015D02*
G75*
G03X130748Y-69015I-157J0D01*
G74*
G01*
X130748Y-57204D02*
X130748Y-59330D01*
X131062Y-59330D02*
X131062Y-57204D01*
X131062Y-45393D02*
G75*
G03X130748Y-45393I-157J0D01*
G74*
G01*
X130748Y-47519D02*
G75*
G03X131062Y-47519I157J0D01*
G74*
G01*
X131062Y-45393D02*
X131062Y-47519D01*
X130748Y-47519D02*
X130748Y-45393D01*
X130748Y-59330D02*
G75*
G03X131062Y-59330I157J0D01*
G74*
G01*
X131062Y-57204D02*
G75*
G03X130748Y-57204I-157J0D01*
G74*
G01*
X131062Y-34645D02*
G75*
G03X130748Y-34645I-157J0D01*
G74*
G01*
X130748Y-70078D02*
G75*
G03X131062Y-70078I157J0D01*
G74*
G01*
X132322Y-70078D02*
G75*
G03X132637Y-70078I157J0D01*
G74*
G01*
X132637Y-34645D02*
G75*
G03X132322Y-34645I-157J0D01*
G74*
G01*
X132637Y-57204D02*
G75*
G03X132322Y-57204I-157J0D01*
G74*
G01*
X132322Y-59330D02*
G75*
G03X132637Y-59330I157J0D01*
G74*
G01*
X132322Y-47519D02*
X132322Y-45393D01*
X132637Y-45393D02*
X132637Y-47519D01*
X132322Y-47519D02*
G75*
G03X132637Y-47519I157J0D01*
G74*
G01*
X132637Y-45393D02*
G75*
G03X132322Y-45393I-157J0D01*
G74*
G01*
X132637Y-59330D02*
X132637Y-57204D01*
X132322Y-57204D02*
X132322Y-59330D01*
X132637Y-69015D02*
G75*
G03X132322Y-69015I-157J0D01*
G74*
G01*
X132637Y-69015D02*
X132637Y-70078D01*
X132322Y-70078D02*
X132322Y-69015D01*
X132637Y-35708D02*
X132637Y-34645D01*
X132322Y-35708D02*
X132322Y-34645D01*
X132322Y-35708D02*
G75*
G03X132637Y-35708I157J0D01*
G74*
G01*
X135472Y-35708D02*
G75*
G03X135787Y-35708I157J0D01*
G74*
G01*
X135472Y-35708D02*
X135472Y-34645D01*
X135787Y-35708D02*
X135787Y-34645D01*
X135472Y-70078D02*
X135472Y-69015D01*
X135787Y-69015D02*
X135787Y-70078D01*
X135787Y-69015D02*
G75*
G03X135472Y-69015I-157J0D01*
G74*
G01*
X135472Y-57204D02*
X135472Y-59330D01*
X135787Y-59330D02*
X135787Y-57204D01*
X135787Y-45393D02*
G75*
G03X135472Y-45393I-157J0D01*
G74*
G01*
X135472Y-47519D02*
G75*
G03X135787Y-47519I157J0D01*
G74*
G01*
X135787Y-45393D02*
X135787Y-47519D01*
X135472Y-47519D02*
X135472Y-45393D01*
X135472Y-59330D02*
G75*
G03X135787Y-59330I157J0D01*
G74*
G01*
X135787Y-57204D02*
G75*
G03X135472Y-57204I-157J0D01*
G74*
G01*
X135787Y-34645D02*
G75*
G03X135472Y-34645I-157J0D01*
G74*
G01*
X135472Y-70078D02*
G75*
G03X135787Y-70078I157J0D01*
G74*
G01*
X133897Y-70078D02*
G75*
G03X134212Y-70078I157J0D01*
G74*
G01*
X134212Y-34645D02*
G75*
G03X133897Y-34645I-157J0D01*
G74*
G01*
X134212Y-57204D02*
G75*
G03X133897Y-57204I-157J0D01*
G74*
G01*
X133897Y-59330D02*
G75*
G03X134212Y-59330I157J0D01*
G74*
G01*
X133897Y-47519D02*
X133897Y-45393D01*
X134212Y-45393D02*
X134212Y-47519D01*
X133897Y-47519D02*
G75*
G03X134212Y-47519I157J0D01*
G74*
G01*
X134212Y-45393D02*
G75*
G03X133897Y-45393I-157J0D01*
G74*
G01*
X134212Y-59330D02*
X134212Y-57204D01*
X133897Y-57204D02*
X133897Y-59330D01*
X134212Y-69015D02*
G75*
G03X133897Y-69015I-157J0D01*
G74*
G01*
X134212Y-69015D02*
X134212Y-70078D01*
X133897Y-70078D02*
X133897Y-69015D01*
X134212Y-35708D02*
X134212Y-34645D01*
X133897Y-35708D02*
X133897Y-34645D01*
X133897Y-35708D02*
G75*
G03X134212Y-35708I157J0D01*
G74*
G01*
M02*
