M48
;DRILL file {kicad (2014-05-18 BZR 4870)-product} date Mon 19 May 2014 01:13:26 AM CEST
;FORMAT={-:-/ absolute / inch / decimal}
FMAT,2
INCH,TZ
T1C0.016
T2C0.098
T3C0.157
%
G90
G05
M72
T1
X11.4547Y-4.6457
X11.4587Y-5.8268
X11.5157Y-4.6457
X11.5157Y-5.8268
X11.5728Y-5.8268
X11.5768Y-4.6457
X11.6122Y-4.6457
X11.6161Y-5.8268
X11.6732Y-4.6457
X11.6732Y-5.8268
X11.7303Y-5.8268
X11.7343Y-4.6457
X11.7697Y-4.6457
X11.7736Y-5.8268
X11.8307Y-4.6457
X11.8307Y-5.8268
X11.8878Y-5.8268
X11.8917Y-4.6457
X11.9272Y-4.6457
X11.9311Y-5.8268
X11.9882Y-4.6457
X11.9882Y-5.8268
X12.0453Y-5.8268
X12.0492Y-4.6457
X12.0846Y-4.6457
X12.0886Y-5.8268
X12.1457Y-4.6457
X12.1457Y-5.8268
X12.2028Y-5.8268
X12.2067Y-4.6457
X12.2421Y-4.6457
X12.2461Y-5.8268
X12.3031Y-4.6457
X12.3031Y-5.8268
X12.3602Y-5.8268
X12.3642Y-4.6457
X12.3996Y-4.6457
X12.4035Y-5.8268
X12.4606Y-4.6457
X12.4606Y-5.8268
X12.5177Y-5.8268
X12.5217Y-4.6457
X12.5571Y-4.6457
X12.561Y-5.8268
X12.6181Y-4.6457
X12.6181Y-5.8268
X12.6752Y-5.8268
X12.6791Y-4.6457
X12.7146Y-4.6457
X12.7185Y-5.8268
X12.7756Y-4.6457
X12.7756Y-5.8268
X12.8327Y-5.8268
X12.8366Y-4.6457
X12.872Y-4.6457
X12.876Y-5.8268
X12.9331Y-4.6457
X12.9331Y-5.8268
X12.9902Y-5.8268
X12.9941Y-4.6457
X13.0295Y-4.6457
X13.0335Y-5.8268
X13.0906Y-4.6457
X13.0906Y-5.8268
X13.1476Y-5.8268
X13.1516Y-4.6457
X13.187Y-4.6457
X13.1909Y-5.8268
X13.248Y-4.6457
X13.248Y-5.8268
X13.3051Y-5.8268
X13.3091Y-4.6457
X13.3445Y-4.6457
X13.3484Y-5.8268
X13.4055Y-4.6457
X13.4055Y-5.8268
X13.4626Y-5.8268
X13.4665Y-4.6457
X13.502Y-4.6457
X13.5059Y-5.8268
X13.563Y-4.6457
X13.563Y-5.8268
X13.6201Y-5.8268
X13.624Y-4.6457
X13.6594Y-4.6457
X13.6634Y-5.8268
X13.7205Y-4.6457
X13.7205Y-5.8268
X13.7776Y-5.8268
X13.7815Y-4.6457
X13.8169Y-4.6457
X13.8209Y-5.8268
X13.878Y-4.6457
X13.878Y-5.8268
X13.935Y-5.8268
X13.939Y-4.6457
X13.9744Y-4.6457
X13.9783Y-5.8268
X14.0354Y-4.6457
X14.0354Y-5.8268
X14.0925Y-5.8268
X14.0965Y-4.6457
X14.1319Y-4.6457
X14.1358Y-5.8268
X14.1929Y-4.6457
X14.1929Y-5.8268
X14.25Y-5.8268
X14.2539Y-4.6457
X14.2894Y-4.6457
X14.2933Y-5.8268
X14.3504Y-4.6457
X14.3504Y-5.8268
X14.4075Y-5.8268
X14.4114Y-4.6457
X14.4469Y-4.6457
X14.4508Y-5.8268
X14.5079Y-4.6457
X14.5079Y-5.8268
X14.565Y-5.8268
X14.5689Y-4.6457
T2
X11.2402Y-3.6614
X11.2402Y-5.2362
X11.2402Y-6.811
X14.7835Y-3.6614
X14.7835Y-5.2362
X14.7835Y-6.811
T3
X11.2402Y-3.8583
X11.2402Y-6.6142
X14.7835Y-3.8583
X14.7835Y-6.6142
T0
M30
