%FSLAX34Y34*%
G04 Gerber Fmt 3.4, Leading zero omitted, Abs format*
G04 (created by PCBNEW (2014-05-17 BZR 4870)-product) date Sun 18 May 2014 03:32:31 PM CEST*
%MOIN*%
G01*
G70*
G90*
G04 APERTURE LIST*
%ADD10C,0.005906*%
%ADD11R,0.059055X0.047244*%
%ADD12R,0.043300X0.039300*%
%ADD13R,0.039370X0.098425*%
%ADD14C,0.098425*%
G04 APERTURE END LIST*
G54D10*
G54D11*
X135787Y-67697D03*
X135787Y-68523D03*
G54D12*
X135787Y-65768D03*
X135787Y-66436D03*
G54D11*
X135787Y-63760D03*
X135787Y-64586D03*
X135787Y-59823D03*
X135787Y-60649D03*
X135787Y-55886D03*
X135787Y-56712D03*
G54D12*
X135787Y-53957D03*
X135787Y-54625D03*
G54D11*
X135787Y-51949D03*
X135787Y-52775D03*
X135787Y-48012D03*
X135787Y-48838D03*
G54D12*
X135787Y-42146D03*
X135787Y-42814D03*
G54D11*
X135787Y-44075D03*
X135787Y-44901D03*
X135787Y-40138D03*
X135787Y-40964D03*
X135787Y-36201D03*
X135787Y-37027D03*
G54D13*
X136102Y-45866D03*
X135472Y-45866D03*
X136102Y-35236D03*
X135472Y-35236D03*
X136102Y-47047D03*
X135472Y-47047D03*
X136102Y-58858D03*
X135472Y-58858D03*
X136102Y-69488D03*
X135472Y-69488D03*
X136102Y-57677D03*
X135472Y-57677D03*
G54D11*
X132952Y-67697D03*
X132952Y-68523D03*
G54D12*
X132952Y-65768D03*
X132952Y-66436D03*
G54D11*
X132952Y-63760D03*
X132952Y-64586D03*
X132952Y-59823D03*
X132952Y-60649D03*
X132952Y-55886D03*
X132952Y-56712D03*
G54D12*
X132952Y-53957D03*
X132952Y-54625D03*
G54D11*
X132952Y-51949D03*
X132952Y-52775D03*
X132952Y-48012D03*
X132952Y-48838D03*
G54D12*
X132952Y-42146D03*
X132952Y-42814D03*
G54D11*
X132952Y-44075D03*
X132952Y-44901D03*
X132952Y-40138D03*
X132952Y-40964D03*
X132952Y-36201D03*
X132952Y-37027D03*
G54D13*
X133267Y-45866D03*
X132637Y-45866D03*
X133267Y-35236D03*
X132637Y-35236D03*
X133267Y-47047D03*
X132637Y-47047D03*
X133267Y-58858D03*
X132637Y-58858D03*
X133267Y-69488D03*
X132637Y-69488D03*
X133267Y-57677D03*
X132637Y-57677D03*
X134685Y-57677D03*
X134055Y-57677D03*
X134685Y-69488D03*
X134055Y-69488D03*
X134685Y-58858D03*
X134055Y-58858D03*
X134685Y-47047D03*
X134055Y-47047D03*
X134685Y-35236D03*
X134055Y-35236D03*
X134685Y-45866D03*
X134055Y-45866D03*
G54D11*
X134370Y-36201D03*
X134370Y-37027D03*
X134370Y-40138D03*
X134370Y-40964D03*
X134370Y-44075D03*
X134370Y-44901D03*
G54D12*
X134370Y-42146D03*
X134370Y-42814D03*
G54D11*
X134370Y-48012D03*
X134370Y-48838D03*
X134370Y-51949D03*
X134370Y-52775D03*
G54D12*
X134370Y-53957D03*
X134370Y-54625D03*
G54D11*
X134370Y-55886D03*
X134370Y-56712D03*
X134370Y-59823D03*
X134370Y-60649D03*
X134370Y-63760D03*
X134370Y-64586D03*
G54D12*
X134370Y-65768D03*
X134370Y-66436D03*
G54D11*
X134370Y-67697D03*
X134370Y-68523D03*
X138622Y-67697D03*
X138622Y-68523D03*
G54D12*
X138622Y-65768D03*
X138622Y-66436D03*
G54D11*
X138622Y-63760D03*
X138622Y-64586D03*
X138622Y-59823D03*
X138622Y-60649D03*
X138622Y-55886D03*
X138622Y-56712D03*
G54D12*
X138622Y-53957D03*
X138622Y-54625D03*
G54D11*
X138622Y-51949D03*
X138622Y-52775D03*
X138622Y-48012D03*
X138622Y-48838D03*
G54D12*
X138622Y-42146D03*
X138622Y-42814D03*
G54D11*
X138622Y-44075D03*
X138622Y-44901D03*
X138622Y-40138D03*
X138622Y-40964D03*
X138622Y-36201D03*
X138622Y-37027D03*
G54D13*
X138937Y-45866D03*
X138307Y-45866D03*
X138937Y-35236D03*
X138307Y-35236D03*
X138937Y-47047D03*
X138307Y-47047D03*
X138937Y-58858D03*
X138307Y-58858D03*
X138937Y-69488D03*
X138307Y-69488D03*
X138937Y-57677D03*
X138307Y-57677D03*
X137519Y-57677D03*
X136889Y-57677D03*
X137519Y-69488D03*
X136889Y-69488D03*
X137519Y-58858D03*
X136889Y-58858D03*
X137519Y-47047D03*
X136889Y-47047D03*
X137519Y-35236D03*
X136889Y-35236D03*
X137519Y-45866D03*
X136889Y-45866D03*
G54D11*
X137204Y-36201D03*
X137204Y-37027D03*
X137204Y-40138D03*
X137204Y-40964D03*
X137204Y-44075D03*
X137204Y-44901D03*
G54D12*
X137204Y-42146D03*
X137204Y-42814D03*
G54D11*
X137204Y-48012D03*
X137204Y-48838D03*
X137204Y-51949D03*
X137204Y-52775D03*
G54D12*
X137204Y-53957D03*
X137204Y-54625D03*
G54D11*
X137204Y-55886D03*
X137204Y-56712D03*
X137204Y-59823D03*
X137204Y-60649D03*
X137204Y-63760D03*
X137204Y-64586D03*
G54D12*
X137204Y-65768D03*
X137204Y-66436D03*
G54D11*
X137204Y-67697D03*
X137204Y-68523D03*
G54D13*
X140354Y-57677D03*
X139724Y-57677D03*
X140354Y-69488D03*
X139724Y-69488D03*
X140354Y-58858D03*
X139724Y-58858D03*
X140354Y-47047D03*
X139724Y-47047D03*
X140354Y-35236D03*
X139724Y-35236D03*
X140354Y-45866D03*
X139724Y-45866D03*
G54D11*
X140039Y-36201D03*
X140039Y-37027D03*
X140039Y-40138D03*
X140039Y-40964D03*
X140039Y-44075D03*
X140039Y-44901D03*
G54D12*
X140039Y-42146D03*
X140039Y-42814D03*
G54D11*
X140039Y-48012D03*
X140039Y-48838D03*
X140039Y-51949D03*
X140039Y-52775D03*
G54D12*
X140039Y-53957D03*
X140039Y-54625D03*
G54D11*
X140039Y-55886D03*
X140039Y-56712D03*
X140039Y-59823D03*
X140039Y-60649D03*
X140039Y-63760D03*
X140039Y-64586D03*
G54D12*
X140039Y-65768D03*
X140039Y-66436D03*
G54D11*
X140039Y-67697D03*
X140039Y-68523D03*
X144291Y-67697D03*
X144291Y-68523D03*
G54D12*
X144291Y-65768D03*
X144291Y-66436D03*
G54D11*
X144291Y-63760D03*
X144291Y-64586D03*
X144291Y-59823D03*
X144291Y-60649D03*
X144291Y-55886D03*
X144291Y-56712D03*
G54D12*
X144291Y-53957D03*
X144291Y-54625D03*
G54D11*
X144291Y-51949D03*
X144291Y-52775D03*
X144291Y-48012D03*
X144291Y-48838D03*
G54D12*
X144291Y-42146D03*
X144291Y-42814D03*
G54D11*
X144291Y-44075D03*
X144291Y-44901D03*
X144291Y-40138D03*
X144291Y-40964D03*
X144291Y-36201D03*
X144291Y-37027D03*
G54D13*
X144606Y-45866D03*
X143976Y-45866D03*
X144606Y-35236D03*
X143976Y-35236D03*
X144606Y-47047D03*
X143976Y-47047D03*
X144606Y-58858D03*
X143976Y-58858D03*
X144606Y-69488D03*
X143976Y-69488D03*
X144606Y-57677D03*
X143976Y-57677D03*
G54D11*
X141456Y-67697D03*
X141456Y-68523D03*
G54D12*
X141456Y-65768D03*
X141456Y-66436D03*
G54D11*
X141456Y-63760D03*
X141456Y-64586D03*
X141456Y-59823D03*
X141456Y-60649D03*
X141456Y-55886D03*
X141456Y-56712D03*
G54D12*
X141456Y-53957D03*
X141456Y-54625D03*
G54D11*
X141456Y-51949D03*
X141456Y-52775D03*
X141456Y-48012D03*
X141456Y-48838D03*
G54D12*
X141456Y-42146D03*
X141456Y-42814D03*
G54D11*
X141456Y-44075D03*
X141456Y-44901D03*
X141456Y-40138D03*
X141456Y-40964D03*
X141456Y-36201D03*
X141456Y-37027D03*
G54D13*
X141771Y-45866D03*
X141141Y-45866D03*
X141771Y-35236D03*
X141141Y-35236D03*
X141771Y-47047D03*
X141141Y-47047D03*
X141771Y-58858D03*
X141141Y-58858D03*
X141771Y-69488D03*
X141141Y-69488D03*
X141771Y-57677D03*
X141141Y-57677D03*
X143188Y-57677D03*
X142559Y-57677D03*
X143188Y-69488D03*
X142559Y-69488D03*
X143188Y-58858D03*
X142559Y-58858D03*
X143188Y-47047D03*
X142559Y-47047D03*
X143188Y-35236D03*
X142559Y-35236D03*
X143188Y-45866D03*
X142559Y-45866D03*
G54D11*
X142874Y-36201D03*
X142874Y-37027D03*
X142874Y-40138D03*
X142874Y-40964D03*
X142874Y-44075D03*
X142874Y-44901D03*
G54D12*
X142874Y-42146D03*
X142874Y-42814D03*
G54D11*
X142874Y-48012D03*
X142874Y-48838D03*
X142874Y-51949D03*
X142874Y-52775D03*
G54D12*
X142874Y-53957D03*
X142874Y-54625D03*
G54D11*
X142874Y-55886D03*
X142874Y-56712D03*
X142874Y-59823D03*
X142874Y-60649D03*
X142874Y-63760D03*
X142874Y-64586D03*
G54D12*
X142874Y-65768D03*
X142874Y-66436D03*
G54D11*
X142874Y-67697D03*
X142874Y-68523D03*
G54D13*
X146023Y-57677D03*
X145393Y-57677D03*
X146023Y-69488D03*
X145393Y-69488D03*
X146023Y-58858D03*
X145393Y-58858D03*
X146023Y-47047D03*
X145393Y-47047D03*
X146023Y-35236D03*
X145393Y-35236D03*
X146023Y-45866D03*
X145393Y-45866D03*
G54D11*
X145708Y-36201D03*
X145708Y-37027D03*
X145708Y-40138D03*
X145708Y-40964D03*
X145708Y-44075D03*
X145708Y-44901D03*
G54D12*
X145708Y-42146D03*
X145708Y-42814D03*
G54D11*
X145708Y-48012D03*
X145708Y-48838D03*
X145708Y-51949D03*
X145708Y-52775D03*
G54D12*
X145708Y-53957D03*
X145708Y-54625D03*
G54D11*
X145708Y-55886D03*
X145708Y-56712D03*
X145708Y-59823D03*
X145708Y-60649D03*
X145708Y-63760D03*
X145708Y-64586D03*
G54D12*
X145708Y-65768D03*
X145708Y-66436D03*
G54D11*
X145708Y-67697D03*
X145708Y-68523D03*
X131535Y-67697D03*
X131535Y-68523D03*
G54D12*
X131535Y-65768D03*
X131535Y-66436D03*
G54D11*
X131535Y-63760D03*
X131535Y-64586D03*
X131535Y-59823D03*
X131535Y-60649D03*
X131535Y-55886D03*
X131535Y-56712D03*
G54D12*
X131535Y-53957D03*
X131535Y-54625D03*
G54D11*
X131535Y-51949D03*
X131535Y-52775D03*
X131535Y-48012D03*
X131535Y-48838D03*
G54D12*
X131535Y-42146D03*
X131535Y-42814D03*
G54D11*
X131535Y-44075D03*
X131535Y-44901D03*
X131535Y-40138D03*
X131535Y-40964D03*
X131535Y-36201D03*
X131535Y-37027D03*
G54D13*
X131850Y-45866D03*
X131220Y-45866D03*
X131850Y-35236D03*
X131220Y-35236D03*
X131850Y-47047D03*
X131220Y-47047D03*
X131850Y-58858D03*
X131220Y-58858D03*
X131850Y-69488D03*
X131220Y-69488D03*
X131850Y-57677D03*
X131220Y-57677D03*
G54D11*
X128700Y-67697D03*
X128700Y-68523D03*
G54D12*
X128700Y-65768D03*
X128700Y-66436D03*
G54D11*
X128700Y-63760D03*
X128700Y-64586D03*
X128700Y-59823D03*
X128700Y-60649D03*
X128700Y-55886D03*
X128700Y-56712D03*
G54D12*
X128700Y-53957D03*
X128700Y-54625D03*
G54D11*
X128700Y-51949D03*
X128700Y-52775D03*
X128700Y-48012D03*
X128700Y-48838D03*
G54D12*
X128700Y-42146D03*
X128700Y-42814D03*
G54D11*
X128700Y-44075D03*
X128700Y-44901D03*
X128700Y-40138D03*
X128700Y-40964D03*
X128700Y-36201D03*
X128700Y-37027D03*
G54D13*
X129015Y-45866D03*
X128385Y-45866D03*
X129015Y-35236D03*
X128385Y-35236D03*
X129015Y-47047D03*
X128385Y-47047D03*
X129015Y-58858D03*
X128385Y-58858D03*
X129015Y-69488D03*
X128385Y-69488D03*
X129015Y-57677D03*
X128385Y-57677D03*
X127598Y-57677D03*
X126968Y-57677D03*
X127598Y-69488D03*
X126968Y-69488D03*
X127598Y-58858D03*
X126968Y-58858D03*
X127598Y-47047D03*
X126968Y-47047D03*
X127598Y-35236D03*
X126968Y-35236D03*
X127598Y-45866D03*
X126968Y-45866D03*
G54D11*
X127283Y-36201D03*
X127283Y-37027D03*
X127283Y-40138D03*
X127283Y-40964D03*
X127283Y-44075D03*
X127283Y-44901D03*
G54D12*
X127283Y-42146D03*
X127283Y-42814D03*
G54D11*
X127283Y-48012D03*
X127283Y-48838D03*
X127283Y-51949D03*
X127283Y-52775D03*
G54D12*
X127283Y-53957D03*
X127283Y-54625D03*
G54D11*
X127283Y-55886D03*
X127283Y-56712D03*
X127283Y-59823D03*
X127283Y-60649D03*
X127283Y-63760D03*
X127283Y-64586D03*
G54D12*
X127283Y-65768D03*
X127283Y-66436D03*
G54D11*
X127283Y-67697D03*
X127283Y-68523D03*
G54D13*
X130433Y-57677D03*
X129803Y-57677D03*
X130433Y-69488D03*
X129803Y-69488D03*
X130433Y-58858D03*
X129803Y-58858D03*
X130433Y-47047D03*
X129803Y-47047D03*
X130433Y-35236D03*
X129803Y-35236D03*
X130433Y-45866D03*
X129803Y-45866D03*
G54D11*
X130118Y-36201D03*
X130118Y-37027D03*
X130118Y-40138D03*
X130118Y-40964D03*
X130118Y-44075D03*
X130118Y-44901D03*
G54D12*
X130118Y-42146D03*
X130118Y-42814D03*
G54D11*
X130118Y-48012D03*
X130118Y-48838D03*
X130118Y-51949D03*
X130118Y-52775D03*
G54D12*
X130118Y-53957D03*
X130118Y-54625D03*
G54D11*
X130118Y-55886D03*
X130118Y-56712D03*
X130118Y-59823D03*
X130118Y-60649D03*
X130118Y-63760D03*
X130118Y-64586D03*
G54D12*
X130118Y-65768D03*
X130118Y-66436D03*
G54D11*
X130118Y-67697D03*
X130118Y-68523D03*
X125866Y-67697D03*
X125866Y-68523D03*
G54D12*
X125866Y-65768D03*
X125866Y-66436D03*
G54D11*
X125866Y-63760D03*
X125866Y-64586D03*
X125866Y-59823D03*
X125866Y-60649D03*
X125866Y-55886D03*
X125866Y-56712D03*
G54D12*
X125866Y-53957D03*
X125866Y-54625D03*
G54D11*
X125866Y-51949D03*
X125866Y-52775D03*
X125866Y-48012D03*
X125866Y-48838D03*
G54D12*
X125866Y-42146D03*
X125866Y-42814D03*
G54D11*
X125866Y-44075D03*
X125866Y-44901D03*
X125866Y-40138D03*
X125866Y-40964D03*
X125866Y-36201D03*
X125866Y-37027D03*
G54D13*
X126181Y-45866D03*
X125551Y-45866D03*
X126181Y-35236D03*
X125551Y-35236D03*
X126181Y-47047D03*
X125551Y-47047D03*
X126181Y-58858D03*
X125551Y-58858D03*
X126181Y-69488D03*
X125551Y-69488D03*
X126181Y-57677D03*
X125551Y-57677D03*
G54D11*
X123031Y-67697D03*
X123031Y-68523D03*
G54D12*
X123031Y-65768D03*
X123031Y-66436D03*
G54D11*
X123031Y-63760D03*
X123031Y-64586D03*
X123031Y-59823D03*
X123031Y-60649D03*
X123031Y-55886D03*
X123031Y-56712D03*
G54D12*
X123031Y-53957D03*
X123031Y-54625D03*
G54D11*
X123031Y-51949D03*
X123031Y-52775D03*
X123031Y-48012D03*
X123031Y-48838D03*
G54D12*
X123031Y-42146D03*
X123031Y-42814D03*
G54D11*
X123031Y-44075D03*
X123031Y-44901D03*
X123031Y-40138D03*
X123031Y-40964D03*
X123031Y-36201D03*
X123031Y-37027D03*
G54D13*
X123346Y-45866D03*
X122716Y-45866D03*
X123346Y-35236D03*
X122716Y-35236D03*
X123346Y-47047D03*
X122716Y-47047D03*
X123346Y-58858D03*
X122716Y-58858D03*
X123346Y-69488D03*
X122716Y-69488D03*
X123346Y-57677D03*
X122716Y-57677D03*
X124763Y-57677D03*
X124133Y-57677D03*
X124763Y-69488D03*
X124133Y-69488D03*
X124763Y-58858D03*
X124133Y-58858D03*
X124763Y-47047D03*
X124133Y-47047D03*
X124763Y-35236D03*
X124133Y-35236D03*
X124763Y-45866D03*
X124133Y-45866D03*
G54D11*
X124448Y-36201D03*
X124448Y-37027D03*
X124448Y-40138D03*
X124448Y-40964D03*
X124448Y-44075D03*
X124448Y-44901D03*
G54D12*
X124448Y-42146D03*
X124448Y-42814D03*
G54D11*
X124448Y-48012D03*
X124448Y-48838D03*
X124448Y-51949D03*
X124448Y-52775D03*
G54D12*
X124448Y-53957D03*
X124448Y-54625D03*
G54D11*
X124448Y-55886D03*
X124448Y-56712D03*
X124448Y-59823D03*
X124448Y-60649D03*
X124448Y-63760D03*
X124448Y-64586D03*
G54D12*
X124448Y-65768D03*
X124448Y-66436D03*
G54D11*
X124448Y-67697D03*
X124448Y-68523D03*
X120196Y-67697D03*
X120196Y-68523D03*
G54D12*
X120196Y-65768D03*
X120196Y-66436D03*
G54D11*
X120196Y-63760D03*
X120196Y-64586D03*
X120196Y-59823D03*
X120196Y-60649D03*
X120196Y-55886D03*
X120196Y-56712D03*
G54D12*
X120196Y-53957D03*
X120196Y-54625D03*
G54D11*
X120196Y-51949D03*
X120196Y-52775D03*
X120196Y-48012D03*
X120196Y-48838D03*
G54D12*
X120196Y-42146D03*
X120196Y-42814D03*
G54D11*
X120196Y-44075D03*
X120196Y-44901D03*
X120196Y-40138D03*
X120196Y-40964D03*
X120196Y-36201D03*
X120196Y-37027D03*
G54D13*
X120511Y-45866D03*
X119881Y-45866D03*
X120511Y-35236D03*
X119881Y-35236D03*
X120511Y-47047D03*
X119881Y-47047D03*
X120511Y-58858D03*
X119881Y-58858D03*
X120511Y-69488D03*
X119881Y-69488D03*
X120511Y-57677D03*
X119881Y-57677D03*
X119094Y-57677D03*
X118464Y-57677D03*
X119094Y-69488D03*
X118464Y-69488D03*
X119094Y-58858D03*
X118464Y-58858D03*
X119094Y-47047D03*
X118464Y-47047D03*
X119094Y-35236D03*
X118464Y-35236D03*
X119094Y-45866D03*
X118464Y-45866D03*
G54D11*
X118779Y-36201D03*
X118779Y-37027D03*
X118779Y-40138D03*
X118779Y-40964D03*
X118779Y-44075D03*
X118779Y-44901D03*
G54D12*
X118779Y-42146D03*
X118779Y-42814D03*
G54D11*
X118779Y-48012D03*
X118779Y-48838D03*
X118779Y-51949D03*
X118779Y-52775D03*
G54D12*
X118779Y-53957D03*
X118779Y-54625D03*
G54D11*
X118779Y-55886D03*
X118779Y-56712D03*
X118779Y-59823D03*
X118779Y-60649D03*
X118779Y-63760D03*
X118779Y-64586D03*
G54D12*
X118779Y-65768D03*
X118779Y-66436D03*
G54D11*
X118779Y-67697D03*
X118779Y-68523D03*
G54D13*
X121929Y-57677D03*
X121299Y-57677D03*
X121929Y-69488D03*
X121299Y-69488D03*
X121929Y-58858D03*
X121299Y-58858D03*
X121929Y-47047D03*
X121299Y-47047D03*
X121929Y-35236D03*
X121299Y-35236D03*
X121929Y-45866D03*
X121299Y-45866D03*
G54D11*
X121614Y-36201D03*
X121614Y-37027D03*
X121614Y-40138D03*
X121614Y-40964D03*
X121614Y-44075D03*
X121614Y-44901D03*
G54D12*
X121614Y-42146D03*
X121614Y-42814D03*
G54D11*
X121614Y-48012D03*
X121614Y-48838D03*
X121614Y-51949D03*
X121614Y-52775D03*
G54D12*
X121614Y-53957D03*
X121614Y-54625D03*
G54D11*
X121614Y-55886D03*
X121614Y-56712D03*
X121614Y-59823D03*
X121614Y-60649D03*
X121614Y-63760D03*
X121614Y-64586D03*
G54D12*
X121614Y-65768D03*
X121614Y-66436D03*
G54D11*
X121614Y-67697D03*
X121614Y-68523D03*
X117362Y-67697D03*
X117362Y-68523D03*
G54D12*
X117362Y-65768D03*
X117362Y-66436D03*
G54D11*
X117362Y-63760D03*
X117362Y-64586D03*
X117362Y-59823D03*
X117362Y-60649D03*
X117362Y-55886D03*
X117362Y-56712D03*
G54D12*
X117362Y-53957D03*
X117362Y-54625D03*
G54D11*
X117362Y-51949D03*
X117362Y-52775D03*
X117362Y-48012D03*
X117362Y-48838D03*
G54D12*
X117362Y-42146D03*
X117362Y-42814D03*
G54D11*
X117362Y-44075D03*
X117362Y-44901D03*
X117362Y-40138D03*
X117362Y-40964D03*
X117362Y-36201D03*
X117362Y-37027D03*
G54D13*
X117677Y-45866D03*
X117047Y-45866D03*
X117677Y-35236D03*
X117047Y-35236D03*
X117677Y-47047D03*
X117047Y-47047D03*
X117677Y-58858D03*
X117047Y-58858D03*
X117677Y-69488D03*
X117047Y-69488D03*
X117677Y-57677D03*
X117047Y-57677D03*
G54D11*
X114527Y-67697D03*
X114527Y-68523D03*
G54D12*
X114527Y-65768D03*
X114527Y-66436D03*
G54D11*
X114527Y-63760D03*
X114527Y-64586D03*
X114527Y-59823D03*
X114527Y-60649D03*
X114527Y-55886D03*
X114527Y-56712D03*
G54D12*
X114527Y-53957D03*
X114527Y-54625D03*
G54D11*
X114527Y-51949D03*
X114527Y-52775D03*
X114527Y-48012D03*
X114527Y-48838D03*
G54D12*
X114527Y-42146D03*
X114527Y-42814D03*
G54D11*
X114527Y-44075D03*
X114527Y-44901D03*
X114527Y-40138D03*
X114527Y-40964D03*
X114527Y-36201D03*
X114527Y-37027D03*
G54D13*
X114842Y-45866D03*
X114212Y-45866D03*
X114842Y-35236D03*
X114212Y-35236D03*
X114842Y-47047D03*
X114212Y-47047D03*
X114842Y-58858D03*
X114212Y-58858D03*
X114842Y-69488D03*
X114212Y-69488D03*
X114842Y-57677D03*
X114212Y-57677D03*
G54D14*
X147834Y-71259D03*
X147834Y-33464D03*
X112401Y-33464D03*
X112401Y-71259D03*
G54D13*
X116259Y-57677D03*
X115629Y-57677D03*
X116259Y-69488D03*
X115629Y-69488D03*
X116259Y-58858D03*
X115629Y-58858D03*
X116259Y-47047D03*
X115629Y-47047D03*
X116259Y-35236D03*
X115629Y-35236D03*
X116259Y-45866D03*
X115629Y-45866D03*
G54D11*
X115944Y-36201D03*
X115944Y-37027D03*
X115944Y-40138D03*
X115944Y-40964D03*
X115944Y-44075D03*
X115944Y-44901D03*
G54D12*
X115944Y-42146D03*
X115944Y-42814D03*
G54D11*
X115944Y-48012D03*
X115944Y-48838D03*
X115944Y-51949D03*
X115944Y-52775D03*
G54D12*
X115944Y-53957D03*
X115944Y-54625D03*
G54D11*
X115944Y-55886D03*
X115944Y-56712D03*
X115944Y-59823D03*
X115944Y-60649D03*
X115944Y-63760D03*
X115944Y-64586D03*
G54D12*
X115944Y-65768D03*
X115944Y-66436D03*
G54D11*
X115944Y-67697D03*
X115944Y-68523D03*
M02*
