M48
METRIC,TZ
T1C0.400
T2C2.500
T3C4.000
%
G90
G05
T1
X290950Y-118000
X291050Y-148000
X292500Y-118000
X292500Y-148000
X293950Y-148000
X294050Y-118000
X294950Y-118000
X295050Y-148000
X296500Y-118000
X296500Y-148000
X297950Y-148000
X298050Y-118000
X298950Y-118000
X299050Y-148000
X300500Y-118000
X300500Y-148000
X301950Y-148000
X302050Y-118000
X302950Y-118000
X303050Y-148000
X304500Y-118000
X304500Y-148000
X305950Y-148000
X306050Y-118000
X306950Y-118000
X307050Y-148000
X308500Y-118000
X308500Y-148000
X309950Y-148000
X310050Y-118000
X310950Y-118000
X311050Y-148000
X312500Y-118000
X312500Y-148000
X313950Y-148000
X314050Y-118000
X314950Y-118000
X315050Y-148000
X316500Y-118000
X316500Y-148000
X317950Y-148000
X318050Y-118000
X318950Y-118000
X319050Y-148000
X320500Y-118000
X320500Y-148000
X321950Y-148000
X322050Y-118000
X322950Y-118000
X323050Y-148000
X324500Y-118000
X324500Y-148000
X325950Y-148000
X326050Y-118000
X326950Y-118000
X327050Y-148000
X328500Y-118000
X328500Y-148000
X329950Y-148000
X330050Y-118000
X330950Y-118000
X331050Y-148000
X332500Y-118000
X332500Y-148000
X333950Y-148000
X334050Y-118000
X334950Y-118000
X335050Y-148000
X336500Y-118000
X336500Y-148000
X337950Y-148000
X338050Y-118000
X338950Y-118000
X339050Y-148000
X340500Y-118000
X340500Y-148000
X341950Y-148000
X342050Y-118000
X342950Y-118000
X343050Y-148000
X344500Y-118000
X344500Y-148000
X345950Y-148000
X346050Y-118000
X346950Y-118000
X347050Y-148000
X348500Y-118000
X348500Y-148000
X349950Y-148000
X350050Y-118000
X350950Y-118000
X351050Y-148000
X352500Y-118000
X352500Y-148000
X353950Y-148000
X354050Y-118000
X354950Y-118000
X355050Y-148000
X356500Y-118000
X356500Y-148000
X357950Y-148000
X358050Y-118000
X358950Y-118000
X359050Y-148000
X360500Y-118000
X360500Y-148000
X361950Y-148000
X362050Y-118000
X362950Y-118000
X363050Y-148000
X364500Y-118000
X364500Y-148000
X365950Y-148000
X366050Y-118000
X366950Y-118000
X367050Y-148000
X368500Y-118000
X368500Y-148000
X369950Y-148000
X370050Y-118000
T2
X285500Y-093000
X285500Y-133000
X285500Y-173000
X375500Y-093000
X375500Y-133000
X375500Y-173000
T3
X285500Y-098000
X285500Y-168000
X375500Y-098000
X375500Y-168000
T0
M30
