M48
METRIC,TZ
T1C0.300
%
G90
G05
T1
X172500Y-085000
X172500Y-115000
X174100Y-085000
X174100Y-115000
X175700Y-085000
X175700Y-115000
X176500Y-085000
X176500Y-115000
X178100Y-085000
X178100Y-115000
X179700Y-085000
X179700Y-115000
X180500Y-085000
X180500Y-115000
X182100Y-085000
X182100Y-115000
X183700Y-085000
X183700Y-115000
X184500Y-085000
X184500Y-115000
X186100Y-085000
X186100Y-115000
X187700Y-085000
X187700Y-115000
X188500Y-085000
X188500Y-115000
X190100Y-085000
X190100Y-115000
X191700Y-085000
X191700Y-115000
X192500Y-085000
X192500Y-115000
X194100Y-085000
X194100Y-115000
X195700Y-085000
X195700Y-115000
X196500Y-085000
X196500Y-115000
X198100Y-085000
X198100Y-115000
X199700Y-085000
X199700Y-115000
X200500Y-085000
X200500Y-115000
X202100Y-085000
X202100Y-115000
X203700Y-085000
X203700Y-115000
X204500Y-085000
X204500Y-115000
X206100Y-085000
X206100Y-115000
X207700Y-085000
X207700Y-115000
X208500Y-085000
X208500Y-115000
X210100Y-085000
X210100Y-115000
X211700Y-085000
X211700Y-115000
X212500Y-085000
X212500Y-115000
X214100Y-085000
X214100Y-115000
X215700Y-085000
X215700Y-115000
X216500Y-085000
X216500Y-115000
X218100Y-085000
X218100Y-115000
X219700Y-085000
X219700Y-115000
X220500Y-085000
X220500Y-115000
X222100Y-085000
X222100Y-115000
X223700Y-085000
X223700Y-115000
X224500Y-085000
X224500Y-115000
X226100Y-085000
X226100Y-115000
X227700Y-085000
X227700Y-115000
X228500Y-085000
X228500Y-115000
X230100Y-085000
X230100Y-115000
X231700Y-085000
X231700Y-115000
X232500Y-085000
X232500Y-115000
X234100Y-085000
X234100Y-115000
X235700Y-085000
X235700Y-115000
X236500Y-085000
X236500Y-115000
X238100Y-085000
X238100Y-115000
X239700Y-085000
X239700Y-115000
X240500Y-085000
X240500Y-115000
X242100Y-085000
X242100Y-115000
X243700Y-085000
X243700Y-115000
X244500Y-085000
X244500Y-115000
X246100Y-085000
X246100Y-115000
X247700Y-085000
X247700Y-115000
X248500Y-085000
X248500Y-115000
X250100Y-085000
X250100Y-115000
X251700Y-085000
X251700Y-115000
X252500Y-085000
X252500Y-115000
X254100Y-085000
X254100Y-115000
X255700Y-085000
X255700Y-115000
X256500Y-085000
X256500Y-115000
X258100Y-085000
X258100Y-115000
X259700Y-085000
X259700Y-115000
X260500Y-085000
X260500Y-115000
X262100Y-085000
X262100Y-115000
X263700Y-085000
X263700Y-115000
X264500Y-085000
X264500Y-115000
X266100Y-085000
X266100Y-115000
X267700Y-085000
X267700Y-115000
T0
M30
