%FSLAX34Y34*%
G04 Gerber Fmt 3.4, Leading zero omitted, Abs format*
G04 (created by PCBNEW (2014-05-17 BZR 4870)-product) date Sun 18 May 2014 04:38:21 PM CEST*
%MOIN*%
G01*
G70*
G90*
G04 APERTURE LIST*
%ADD10C,0.005906*%
%ADD11C,0.003937*%
G04 APERTURE END LIST*
G54D10*
G54D11*
X135078Y-70078D02*
X136496Y-70078D01*
X136496Y-70078D02*
X136496Y-34645D01*
X136496Y-34645D02*
X135078Y-34645D01*
X135078Y-34645D02*
X135078Y-70078D01*
X132244Y-70078D02*
X133661Y-70078D01*
X133661Y-70078D02*
X133661Y-34645D01*
X133661Y-34645D02*
X132244Y-34645D01*
X132244Y-34645D02*
X132244Y-70078D01*
X133661Y-34645D02*
X133661Y-70078D01*
X135078Y-34645D02*
X133661Y-34645D01*
X135078Y-70078D02*
X135078Y-34645D01*
X133661Y-70078D02*
X135078Y-70078D01*
X137913Y-70078D02*
X139330Y-70078D01*
X139330Y-70078D02*
X139330Y-34645D01*
X139330Y-34645D02*
X137913Y-34645D01*
X137913Y-34645D02*
X137913Y-70078D01*
X136496Y-34645D02*
X136496Y-70078D01*
X137913Y-34645D02*
X136496Y-34645D01*
X137913Y-70078D02*
X137913Y-34645D01*
X136496Y-70078D02*
X137913Y-70078D01*
X139330Y-34645D02*
X139330Y-70078D01*
X140748Y-34645D02*
X139330Y-34645D01*
X140748Y-70078D02*
X140748Y-34645D01*
X139330Y-70078D02*
X140748Y-70078D01*
X143582Y-70078D02*
X145000Y-70078D01*
X145000Y-70078D02*
X145000Y-34645D01*
X145000Y-34645D02*
X143582Y-34645D01*
X143582Y-34645D02*
X143582Y-70078D01*
X140748Y-70078D02*
X142165Y-70078D01*
X142165Y-70078D02*
X142165Y-34645D01*
X142165Y-34645D02*
X140748Y-34645D01*
X140748Y-34645D02*
X140748Y-70078D01*
X142165Y-34645D02*
X142165Y-70078D01*
X143582Y-34645D02*
X142165Y-34645D01*
X143582Y-70078D02*
X143582Y-34645D01*
X142165Y-70078D02*
X143582Y-70078D01*
X145000Y-70078D02*
X145000Y-34645D01*
X146417Y-34645D02*
X145000Y-34645D01*
X146417Y-70078D02*
X146417Y-34645D01*
X145000Y-70078D02*
X146417Y-70078D01*
X130826Y-70078D02*
X132244Y-70078D01*
X132244Y-70078D02*
X132244Y-34645D01*
X132244Y-34645D02*
X130826Y-34645D01*
X130826Y-70078D02*
X130826Y-34645D01*
X127992Y-70078D02*
X129409Y-70078D01*
X129409Y-70078D02*
X129409Y-34645D01*
X129409Y-34645D02*
X127992Y-34645D01*
X127992Y-34645D02*
X127992Y-70078D01*
X126574Y-34645D02*
X126574Y-70078D01*
X127992Y-34645D02*
X126574Y-34645D01*
X127992Y-70078D02*
X127992Y-34645D01*
X126574Y-70078D02*
X127992Y-70078D01*
X129409Y-34645D02*
X129409Y-70078D01*
X130826Y-34645D02*
X129409Y-34645D01*
X130826Y-70078D02*
X130826Y-34645D01*
X129409Y-70078D02*
X130826Y-70078D01*
X125157Y-70078D02*
X126574Y-70078D01*
X126574Y-70078D02*
X126574Y-34645D01*
X126574Y-34645D02*
X125157Y-34645D01*
X125157Y-34645D02*
X125157Y-70078D01*
X122322Y-70078D02*
X123740Y-70078D01*
X123740Y-70078D02*
X123740Y-34645D01*
X123740Y-34645D02*
X122322Y-34645D01*
X122322Y-34645D02*
X122322Y-70078D01*
X123740Y-34645D02*
X123740Y-70078D01*
X125157Y-34645D02*
X123740Y-34645D01*
X125157Y-70078D02*
X125157Y-34645D01*
X123740Y-70078D02*
X125157Y-70078D01*
X119488Y-70078D02*
X120905Y-70078D01*
X120905Y-70078D02*
X120905Y-34645D01*
X120905Y-34645D02*
X119488Y-34645D01*
X119488Y-34645D02*
X119488Y-70078D01*
X118070Y-34645D02*
X118070Y-70078D01*
X119488Y-34645D02*
X118070Y-34645D01*
X119488Y-70078D02*
X119488Y-34645D01*
X118070Y-70078D02*
X119488Y-70078D01*
X120905Y-34645D02*
X120905Y-70078D01*
X122322Y-34645D02*
X120905Y-34645D01*
X122322Y-70078D02*
X122322Y-34645D01*
X120905Y-70078D02*
X122322Y-70078D01*
X116653Y-70078D02*
X118070Y-70078D01*
X118070Y-70078D02*
X118070Y-34645D01*
X118070Y-34645D02*
X116653Y-34645D01*
X116653Y-34645D02*
X116653Y-70078D01*
X113818Y-70078D02*
X115236Y-70078D01*
X115236Y-70078D02*
X115236Y-34645D01*
X115236Y-34645D02*
X113818Y-34645D01*
X113818Y-34645D02*
X113818Y-70078D01*
X115236Y-34645D02*
X115236Y-70078D01*
X116653Y-34645D02*
X115236Y-34645D01*
X116653Y-70078D02*
X116653Y-34645D01*
X115236Y-70078D02*
X116653Y-70078D01*
M02*
