%FSLAX34Y34*%
G04 Gerber Fmt 3.4, Leading zero omitted, Abs format*
G04 (created by PCBNEW (2014-05-23 BZR 4886)-product) date Sat 24 May 2014 05:15:10 PM CEST*
%MOIN*%
G01*
G70*
G90*
G04 APERTURE LIST*
%ADD10C,0.005906*%
%ADD11C,0.007874*%
%ADD12C,0.003937*%
%ADD13R,0.039370X0.098425*%
%ADD14R,0.059055X0.047244*%
%ADD15R,0.043300X0.039300*%
G04 APERTURE END LIST*
G54D10*
G54D11*
X79212Y-30669D02*
X79212Y-32322D01*
X79212Y-32322D02*
X78267Y-32322D01*
X78267Y-32322D02*
X78267Y-30669D01*
X78267Y-30669D02*
X79212Y-30669D01*
G54D12*
X78494Y-31299D02*
X78494Y-31692D01*
X78986Y-31299D02*
X78986Y-31692D01*
X78986Y-31692D02*
X78986Y-31889D01*
X78494Y-31889D02*
X78494Y-31692D01*
X78986Y-31102D02*
X78986Y-31299D01*
X78494Y-31102D02*
X78494Y-31299D01*
X78986Y-31299D02*
X78494Y-31299D01*
X78494Y-31692D02*
X78986Y-31692D01*
X78986Y-31889D02*
X78877Y-31889D01*
X78602Y-31889D02*
X78494Y-31889D01*
X78494Y-31102D02*
X78602Y-31102D01*
X78986Y-31102D02*
X78877Y-31102D01*
X78779Y-31535D02*
X78701Y-31535D01*
X78701Y-31535D02*
X78701Y-31613D01*
X78779Y-31613D02*
X78701Y-31613D01*
X78779Y-31535D02*
X78779Y-31613D01*
X78877Y-31889D02*
G75*
G03X78603Y-31889I-137J0D01*
G74*
G01*
X78603Y-31103D02*
G75*
G03X78877Y-31103I137J0D01*
G74*
G01*
G54D11*
X79212Y-26732D02*
X79212Y-28385D01*
X79212Y-28385D02*
X78267Y-28385D01*
X78267Y-28385D02*
X78267Y-26732D01*
X78267Y-26732D02*
X79212Y-26732D01*
G54D12*
X78494Y-27362D02*
X78494Y-27755D01*
X78986Y-27362D02*
X78986Y-27755D01*
X78986Y-27755D02*
X78986Y-27952D01*
X78494Y-27952D02*
X78494Y-27755D01*
X78986Y-27165D02*
X78986Y-27362D01*
X78494Y-27165D02*
X78494Y-27362D01*
X78986Y-27362D02*
X78494Y-27362D01*
X78494Y-27755D02*
X78986Y-27755D01*
X78986Y-27952D02*
X78877Y-27952D01*
X78602Y-27952D02*
X78494Y-27952D01*
X78494Y-27165D02*
X78602Y-27165D01*
X78986Y-27165D02*
X78877Y-27165D01*
X78779Y-27598D02*
X78701Y-27598D01*
X78701Y-27598D02*
X78701Y-27676D01*
X78779Y-27676D02*
X78701Y-27676D01*
X78779Y-27598D02*
X78779Y-27676D01*
X78877Y-27952D02*
G75*
G03X78603Y-27952I-137J0D01*
G74*
G01*
X78603Y-27166D02*
G75*
G03X78877Y-27166I137J0D01*
G74*
G01*
G54D11*
X79212Y-54291D02*
X79212Y-55944D01*
X79212Y-55944D02*
X78267Y-55944D01*
X78267Y-55944D02*
X78267Y-54291D01*
X78267Y-54291D02*
X79212Y-54291D01*
G54D12*
X78494Y-54921D02*
X78494Y-55314D01*
X78986Y-54921D02*
X78986Y-55314D01*
X78986Y-55314D02*
X78986Y-55511D01*
X78494Y-55511D02*
X78494Y-55314D01*
X78986Y-54724D02*
X78986Y-54921D01*
X78494Y-54724D02*
X78494Y-54921D01*
X78986Y-54921D02*
X78494Y-54921D01*
X78494Y-55314D02*
X78986Y-55314D01*
X78986Y-55511D02*
X78877Y-55511D01*
X78602Y-55511D02*
X78494Y-55511D01*
X78494Y-54724D02*
X78602Y-54724D01*
X78986Y-54724D02*
X78877Y-54724D01*
X78779Y-55157D02*
X78701Y-55157D01*
X78701Y-55157D02*
X78701Y-55235D01*
X78779Y-55235D02*
X78701Y-55235D01*
X78779Y-55157D02*
X78779Y-55235D01*
X78877Y-55511D02*
G75*
G03X78603Y-55511I-137J0D01*
G74*
G01*
X78603Y-54725D02*
G75*
G03X78877Y-54725I137J0D01*
G74*
G01*
G54D11*
X79212Y-50354D02*
X79212Y-52007D01*
X79212Y-52007D02*
X78267Y-52007D01*
X78267Y-52007D02*
X78267Y-50354D01*
X78267Y-50354D02*
X79212Y-50354D01*
G54D12*
X78494Y-50984D02*
X78494Y-51377D01*
X78986Y-50984D02*
X78986Y-51377D01*
X78986Y-51377D02*
X78986Y-51574D01*
X78494Y-51574D02*
X78494Y-51377D01*
X78986Y-50787D02*
X78986Y-50984D01*
X78494Y-50787D02*
X78494Y-50984D01*
X78986Y-50984D02*
X78494Y-50984D01*
X78494Y-51377D02*
X78986Y-51377D01*
X78986Y-51574D02*
X78877Y-51574D01*
X78602Y-51574D02*
X78494Y-51574D01*
X78494Y-50787D02*
X78602Y-50787D01*
X78986Y-50787D02*
X78877Y-50787D01*
X78779Y-51220D02*
X78701Y-51220D01*
X78701Y-51220D02*
X78701Y-51298D01*
X78779Y-51298D02*
X78701Y-51298D01*
X78779Y-51220D02*
X78779Y-51298D01*
X78877Y-51574D02*
G75*
G03X78603Y-51574I-137J0D01*
G74*
G01*
X78603Y-50788D02*
G75*
G03X78877Y-50788I137J0D01*
G74*
G01*
G54D11*
X79212Y-46417D02*
X79212Y-48070D01*
X79212Y-48070D02*
X78267Y-48070D01*
X78267Y-48070D02*
X78267Y-46417D01*
X78267Y-46417D02*
X79212Y-46417D01*
G54D12*
X78494Y-47047D02*
X78494Y-47440D01*
X78986Y-47047D02*
X78986Y-47440D01*
X78986Y-47440D02*
X78986Y-47637D01*
X78494Y-47637D02*
X78494Y-47440D01*
X78986Y-46850D02*
X78986Y-47047D01*
X78494Y-46850D02*
X78494Y-47047D01*
X78986Y-47047D02*
X78494Y-47047D01*
X78494Y-47440D02*
X78986Y-47440D01*
X78986Y-47637D02*
X78877Y-47637D01*
X78602Y-47637D02*
X78494Y-47637D01*
X78494Y-46850D02*
X78602Y-46850D01*
X78986Y-46850D02*
X78877Y-46850D01*
X78779Y-47283D02*
X78701Y-47283D01*
X78701Y-47283D02*
X78701Y-47361D01*
X78779Y-47361D02*
X78701Y-47361D01*
X78779Y-47283D02*
X78779Y-47361D01*
X78877Y-47637D02*
G75*
G03X78603Y-47637I-137J0D01*
G74*
G01*
X78603Y-46851D02*
G75*
G03X78877Y-46851I137J0D01*
G74*
G01*
G54D11*
X79212Y-42480D02*
X79212Y-44133D01*
X79212Y-44133D02*
X78267Y-44133D01*
X78267Y-44133D02*
X78267Y-42480D01*
X78267Y-42480D02*
X79212Y-42480D01*
G54D12*
X78494Y-43110D02*
X78494Y-43503D01*
X78986Y-43110D02*
X78986Y-43503D01*
X78986Y-43503D02*
X78986Y-43700D01*
X78494Y-43700D02*
X78494Y-43503D01*
X78986Y-42913D02*
X78986Y-43110D01*
X78494Y-42913D02*
X78494Y-43110D01*
X78986Y-43110D02*
X78494Y-43110D01*
X78494Y-43503D02*
X78986Y-43503D01*
X78986Y-43700D02*
X78877Y-43700D01*
X78602Y-43700D02*
X78494Y-43700D01*
X78494Y-42913D02*
X78602Y-42913D01*
X78986Y-42913D02*
X78877Y-42913D01*
X78779Y-43346D02*
X78701Y-43346D01*
X78701Y-43346D02*
X78701Y-43424D01*
X78779Y-43424D02*
X78701Y-43424D01*
X78779Y-43346D02*
X78779Y-43424D01*
X78877Y-43700D02*
G75*
G03X78603Y-43700I-137J0D01*
G74*
G01*
X78603Y-42914D02*
G75*
G03X78877Y-42914I137J0D01*
G74*
G01*
G54D11*
X79212Y-38543D02*
X79212Y-40196D01*
X79212Y-40196D02*
X78267Y-40196D01*
X78267Y-40196D02*
X78267Y-38543D01*
X78267Y-38543D02*
X79212Y-38543D01*
G54D12*
X78494Y-39173D02*
X78494Y-39566D01*
X78986Y-39173D02*
X78986Y-39566D01*
X78986Y-39566D02*
X78986Y-39763D01*
X78494Y-39763D02*
X78494Y-39566D01*
X78986Y-38976D02*
X78986Y-39173D01*
X78494Y-38976D02*
X78494Y-39173D01*
X78986Y-39173D02*
X78494Y-39173D01*
X78494Y-39566D02*
X78986Y-39566D01*
X78986Y-39763D02*
X78877Y-39763D01*
X78602Y-39763D02*
X78494Y-39763D01*
X78494Y-38976D02*
X78602Y-38976D01*
X78986Y-38976D02*
X78877Y-38976D01*
X78779Y-39409D02*
X78701Y-39409D01*
X78701Y-39409D02*
X78701Y-39487D01*
X78779Y-39487D02*
X78701Y-39487D01*
X78779Y-39409D02*
X78779Y-39487D01*
X78877Y-39763D02*
G75*
G03X78603Y-39763I-137J0D01*
G74*
G01*
X78603Y-38977D02*
G75*
G03X78877Y-38977I137J0D01*
G74*
G01*
G54D11*
X79212Y-34606D02*
X79212Y-36259D01*
X79212Y-36259D02*
X78267Y-36259D01*
X78267Y-36259D02*
X78267Y-34606D01*
X78267Y-34606D02*
X79212Y-34606D01*
G54D12*
X78494Y-35236D02*
X78494Y-35629D01*
X78986Y-35236D02*
X78986Y-35629D01*
X78986Y-35629D02*
X78986Y-35826D01*
X78494Y-35826D02*
X78494Y-35629D01*
X78986Y-35039D02*
X78986Y-35236D01*
X78494Y-35039D02*
X78494Y-35236D01*
X78986Y-35236D02*
X78494Y-35236D01*
X78494Y-35629D02*
X78986Y-35629D01*
X78986Y-35826D02*
X78877Y-35826D01*
X78602Y-35826D02*
X78494Y-35826D01*
X78494Y-35039D02*
X78602Y-35039D01*
X78986Y-35039D02*
X78877Y-35039D01*
X78779Y-35472D02*
X78701Y-35472D01*
X78701Y-35472D02*
X78701Y-35550D01*
X78779Y-35550D02*
X78701Y-35550D01*
X78779Y-35472D02*
X78779Y-35550D01*
X78877Y-35826D02*
G75*
G03X78603Y-35826I-137J0D01*
G74*
G01*
X78603Y-35040D02*
G75*
G03X78877Y-35040I137J0D01*
G74*
G01*
G54D11*
X79212Y-22795D02*
X79212Y-24448D01*
X79212Y-24448D02*
X78267Y-24448D01*
X78267Y-24448D02*
X78267Y-22795D01*
X78267Y-22795D02*
X79212Y-22795D01*
G54D12*
X78494Y-23425D02*
X78494Y-23818D01*
X78986Y-23425D02*
X78986Y-23818D01*
X78986Y-23818D02*
X78986Y-24015D01*
X78494Y-24015D02*
X78494Y-23818D01*
X78986Y-23228D02*
X78986Y-23425D01*
X78494Y-23228D02*
X78494Y-23425D01*
X78986Y-23425D02*
X78494Y-23425D01*
X78494Y-23818D02*
X78986Y-23818D01*
X78986Y-24015D02*
X78877Y-24015D01*
X78602Y-24015D02*
X78494Y-24015D01*
X78494Y-23228D02*
X78602Y-23228D01*
X78986Y-23228D02*
X78877Y-23228D01*
X78779Y-23661D02*
X78701Y-23661D01*
X78701Y-23661D02*
X78701Y-23739D01*
X78779Y-23739D02*
X78701Y-23739D01*
X78779Y-23661D02*
X78779Y-23739D01*
X78877Y-24015D02*
G75*
G03X78603Y-24015I-137J0D01*
G74*
G01*
X78603Y-23229D02*
G75*
G03X78877Y-23229I137J0D01*
G74*
G01*
G54D11*
X79094Y-28818D02*
X79094Y-30157D01*
X79094Y-30157D02*
X78385Y-30157D01*
X78385Y-30157D02*
X78385Y-28818D01*
X78385Y-28818D02*
X79094Y-28818D01*
X78570Y-29658D02*
X78570Y-29818D01*
X78570Y-29818D02*
X78910Y-29818D01*
X78910Y-29658D02*
X78910Y-29818D01*
X78570Y-29658D02*
X78910Y-29658D01*
X78570Y-29158D02*
X78570Y-29318D01*
X78570Y-29318D02*
X78910Y-29318D01*
X78910Y-29158D02*
X78910Y-29318D01*
X78570Y-29158D02*
X78910Y-29158D01*
X78600Y-29318D02*
X78600Y-29658D01*
X78880Y-29658D02*
X78880Y-29318D01*
X79094Y-52440D02*
X79094Y-53779D01*
X79094Y-53779D02*
X78385Y-53779D01*
X78385Y-53779D02*
X78385Y-52440D01*
X78385Y-52440D02*
X79094Y-52440D01*
X78570Y-53280D02*
X78570Y-53440D01*
X78570Y-53440D02*
X78910Y-53440D01*
X78910Y-53280D02*
X78910Y-53440D01*
X78570Y-53280D02*
X78910Y-53280D01*
X78570Y-52780D02*
X78570Y-52940D01*
X78570Y-52940D02*
X78910Y-52940D01*
X78910Y-52780D02*
X78910Y-52940D01*
X78570Y-52780D02*
X78910Y-52780D01*
X78600Y-52940D02*
X78600Y-53280D01*
X78880Y-53280D02*
X78880Y-52940D01*
X79094Y-40629D02*
X79094Y-41968D01*
X79094Y-41968D02*
X78385Y-41968D01*
X78385Y-41968D02*
X78385Y-40629D01*
X78385Y-40629D02*
X79094Y-40629D01*
X78570Y-41469D02*
X78570Y-41629D01*
X78570Y-41629D02*
X78910Y-41629D01*
X78910Y-41469D02*
X78910Y-41629D01*
X78570Y-41469D02*
X78910Y-41469D01*
X78570Y-40969D02*
X78570Y-41129D01*
X78570Y-41129D02*
X78910Y-41129D01*
X78910Y-40969D02*
X78910Y-41129D01*
X78570Y-40969D02*
X78910Y-40969D01*
X78600Y-41129D02*
X78600Y-41469D01*
X78880Y-41469D02*
X78880Y-41129D01*
%LPC*%
G54D13*
X79094Y-56496D03*
X78385Y-56496D03*
X79094Y-34055D03*
X78385Y-34055D03*
X79094Y-45866D03*
X78385Y-45866D03*
X79094Y-32874D03*
X78385Y-32874D03*
X79094Y-44685D03*
X78385Y-44685D03*
X79094Y-22244D03*
X78385Y-22244D03*
G54D14*
X78740Y-31083D03*
X78740Y-31909D03*
X78740Y-27146D03*
X78740Y-27972D03*
X78740Y-54705D03*
X78740Y-55531D03*
X78740Y-50768D03*
X78740Y-51594D03*
X78740Y-46831D03*
X78740Y-47657D03*
X78740Y-42894D03*
X78740Y-43720D03*
X78740Y-38957D03*
X78740Y-39783D03*
X78740Y-35020D03*
X78740Y-35846D03*
X78740Y-23209D03*
X78740Y-24035D03*
G54D15*
X78740Y-29154D03*
X78740Y-29822D03*
X78740Y-52776D03*
X78740Y-53444D03*
X78740Y-40965D03*
X78740Y-41633D03*
M02*
