%FSLAX34Y34*%
G04 Gerber Fmt 3.4, Leading zero omitted, Abs format*
G04 (created by PCBNEW (2014-06-23 BZR 4954)-product) date Fri 27 Jun 2014 03:43:35 PM CEST*
%MOIN*%
G01*
G70*
G90*
G04 APERTURE LIST*
%ADD10C,0.005906*%
%ADD11C,0.007874*%
%ADD12C,0.000100*%
%ADD13C,0.003937*%
%ADD14R,0.059055X0.047244*%
%ADD15R,0.043300X0.039300*%
%ADD16O,0.055118X0.098425*%
%ADD17R,0.055118X0.098425*%
G04 APERTURE END LIST*
G54D10*
G54D11*
X78295Y-48658D02*
X78279Y-48674D01*
X78263Y-48706D01*
X78263Y-48786D01*
X78279Y-48817D01*
X78295Y-48833D01*
X78327Y-48849D01*
X78359Y-48849D01*
X78407Y-48833D01*
X78598Y-48642D01*
X78598Y-48849D01*
X78263Y-49056D02*
X78263Y-49088D01*
X78279Y-49120D01*
X78295Y-49136D01*
X78327Y-49152D01*
X78391Y-49168D01*
X78470Y-49168D01*
X78534Y-49152D01*
X78566Y-49136D01*
X78582Y-49120D01*
X78598Y-49088D01*
X78598Y-49056D01*
X78582Y-49025D01*
X78566Y-49009D01*
X78534Y-48993D01*
X78470Y-48977D01*
X78391Y-48977D01*
X78327Y-48993D01*
X78295Y-49009D01*
X78279Y-49025D01*
X78263Y-49056D01*
X78598Y-49487D02*
X78598Y-49296D01*
X78598Y-49391D02*
X78263Y-49391D01*
X78311Y-49359D01*
X78343Y-49327D01*
X78359Y-49296D01*
X78375Y-49774D02*
X78598Y-49774D01*
X78247Y-49694D02*
X78486Y-49614D01*
X78486Y-49821D01*
X78810Y-48339D02*
X79145Y-48451D01*
X78810Y-48562D01*
X78810Y-48738D02*
X78810Y-48770D01*
X78826Y-48802D01*
X78842Y-48817D01*
X78874Y-48833D01*
X78938Y-48849D01*
X79017Y-48849D01*
X79081Y-48833D01*
X79113Y-48817D01*
X79129Y-48802D01*
X79145Y-48770D01*
X79145Y-48738D01*
X79129Y-48706D01*
X79113Y-48690D01*
X79081Y-48674D01*
X79017Y-48658D01*
X78938Y-48658D01*
X78874Y-48674D01*
X78842Y-48690D01*
X78826Y-48706D01*
X78810Y-48738D01*
X79113Y-48993D02*
X79129Y-49009D01*
X79145Y-48993D01*
X79129Y-48977D01*
X79113Y-48993D01*
X79145Y-48993D01*
X78842Y-49136D02*
X78826Y-49152D01*
X78810Y-49184D01*
X78810Y-49264D01*
X78826Y-49296D01*
X78842Y-49311D01*
X78874Y-49327D01*
X78906Y-49327D01*
X78954Y-49311D01*
X79145Y-49120D01*
X79145Y-49327D01*
X78810Y-49535D02*
X78810Y-49566D01*
X78826Y-49598D01*
X78842Y-49614D01*
X78874Y-49630D01*
X78938Y-49646D01*
X79017Y-49646D01*
X79081Y-49630D01*
X79113Y-49614D01*
X79129Y-49598D01*
X79145Y-49566D01*
X79145Y-49535D01*
X79129Y-49503D01*
X79113Y-49487D01*
X79081Y-49471D01*
X79017Y-49455D01*
X78938Y-49455D01*
X78874Y-49471D01*
X78842Y-49487D01*
X78826Y-49503D01*
X78810Y-49535D01*
X79113Y-49790D02*
X79129Y-49805D01*
X79145Y-49790D01*
X79129Y-49774D01*
X79113Y-49790D01*
X79145Y-49790D01*
X79129Y-50092D02*
X79145Y-50060D01*
X79145Y-49997D01*
X79129Y-49965D01*
X79113Y-49949D01*
X79081Y-49933D01*
X78986Y-49933D01*
X78954Y-49949D01*
X78938Y-49965D01*
X78922Y-49997D01*
X78922Y-50060D01*
X78938Y-50092D01*
G54D12*
G36*
X79270Y-37779D02*
X79267Y-37772D01*
X79258Y-37759D01*
X79245Y-37739D01*
X79230Y-37716D01*
X79214Y-37692D01*
X79201Y-37673D01*
X79192Y-37659D01*
X79189Y-37654D01*
X79190Y-37651D01*
X79196Y-37640D01*
X79204Y-37624D01*
X79209Y-37614D01*
X79215Y-37599D01*
X79217Y-37592D01*
X79215Y-37591D01*
X79203Y-37585D01*
X79184Y-37577D01*
X79158Y-37566D01*
X79128Y-37553D01*
X79096Y-37539D01*
X79063Y-37526D01*
X79032Y-37513D01*
X79003Y-37501D01*
X78980Y-37492D01*
X78964Y-37486D01*
X78957Y-37483D01*
X78956Y-37484D01*
X78949Y-37491D01*
X78939Y-37504D01*
X78916Y-37532D01*
X78882Y-37560D01*
X78843Y-37577D01*
X78799Y-37582D01*
X78759Y-37578D01*
X78721Y-37562D01*
X78686Y-37535D01*
X78660Y-37502D01*
X78644Y-37464D01*
X78639Y-37421D01*
X78643Y-37380D01*
X78659Y-37341D01*
X78685Y-37306D01*
X78702Y-37291D01*
X78738Y-37271D01*
X78775Y-37259D01*
X78784Y-37258D01*
X78826Y-37260D01*
X78866Y-37272D01*
X78901Y-37294D01*
X78930Y-37324D01*
X78933Y-37328D01*
X78944Y-37342D01*
X78951Y-37352D01*
X78957Y-37359D01*
X79084Y-37306D01*
X79104Y-37298D01*
X79139Y-37283D01*
X79169Y-37271D01*
X79193Y-37260D01*
X79209Y-37253D01*
X79215Y-37250D01*
X79215Y-37250D01*
X79216Y-37245D01*
X79213Y-37236D01*
X79204Y-37218D01*
X79198Y-37206D01*
X79192Y-37193D01*
X79189Y-37187D01*
X79192Y-37181D01*
X79200Y-37168D01*
X79213Y-37150D01*
X79228Y-37127D01*
X79243Y-37105D01*
X79256Y-37085D01*
X79266Y-37071D01*
X79269Y-37064D01*
X79269Y-37063D01*
X79266Y-37056D01*
X79256Y-37045D01*
X79240Y-37028D01*
X79216Y-37003D01*
X79212Y-36999D01*
X79192Y-36979D01*
X79174Y-36963D01*
X79162Y-36952D01*
X79157Y-36948D01*
X79157Y-36948D01*
X79150Y-36952D01*
X79135Y-36961D01*
X79115Y-36974D01*
X79091Y-36990D01*
X79030Y-37032D01*
X78973Y-37009D01*
X78955Y-37002D01*
X78933Y-36993D01*
X78918Y-36986D01*
X78911Y-36983D01*
X78909Y-36976D01*
X78905Y-36961D01*
X78901Y-36938D01*
X78896Y-36910D01*
X78891Y-36884D01*
X78886Y-36861D01*
X78883Y-36844D01*
X78882Y-36836D01*
X78880Y-36834D01*
X78877Y-36833D01*
X78869Y-36832D01*
X78854Y-36831D01*
X78832Y-36831D01*
X78799Y-36831D01*
X78796Y-36831D01*
X78765Y-36831D01*
X78740Y-36832D01*
X78725Y-36833D01*
X78718Y-36834D01*
X78718Y-36834D01*
X78716Y-36841D01*
X78713Y-36858D01*
X78708Y-36881D01*
X78703Y-36909D01*
X78703Y-36911D01*
X78697Y-36939D01*
X78692Y-36962D01*
X78689Y-36979D01*
X78686Y-36986D01*
X78684Y-36987D01*
X78673Y-36993D01*
X78656Y-37001D01*
X78635Y-37010D01*
X78613Y-37019D01*
X78593Y-37027D01*
X78579Y-37032D01*
X78572Y-37034D01*
X78572Y-37034D01*
X78565Y-37030D01*
X78551Y-37020D01*
X78531Y-37006D01*
X78507Y-36990D01*
X78505Y-36989D01*
X78481Y-36973D01*
X78461Y-36960D01*
X78447Y-36951D01*
X78441Y-36948D01*
X78440Y-36948D01*
X78433Y-36953D01*
X78420Y-36965D01*
X78402Y-36983D01*
X78381Y-37003D01*
X78375Y-37010D01*
X78352Y-37033D01*
X78338Y-37049D01*
X78330Y-37059D01*
X78328Y-37063D01*
X78328Y-37064D01*
X78332Y-37071D01*
X78342Y-37086D01*
X78356Y-37106D01*
X78372Y-37130D01*
X78373Y-37131D01*
X78389Y-37155D01*
X78403Y-37175D01*
X78412Y-37189D01*
X78415Y-37195D01*
X78415Y-37196D01*
X78413Y-37205D01*
X78407Y-37222D01*
X78399Y-37243D01*
X78390Y-37265D01*
X78382Y-37285D01*
X78375Y-37299D01*
X78371Y-37306D01*
X78371Y-37307D01*
X78362Y-37309D01*
X78344Y-37313D01*
X78320Y-37318D01*
X78291Y-37324D01*
X78287Y-37325D01*
X78258Y-37330D01*
X78235Y-37334D01*
X78219Y-37338D01*
X78212Y-37339D01*
X78212Y-37343D01*
X78211Y-37357D01*
X78210Y-37378D01*
X78210Y-37404D01*
X78210Y-37430D01*
X78210Y-37456D01*
X78211Y-37478D01*
X78212Y-37494D01*
X78214Y-37501D01*
X78214Y-37501D01*
X78223Y-37503D01*
X78240Y-37507D01*
X78265Y-37512D01*
X78294Y-37518D01*
X78299Y-37519D01*
X78327Y-37524D01*
X78350Y-37529D01*
X78366Y-37532D01*
X78372Y-37534D01*
X78373Y-37536D01*
X78379Y-37548D01*
X78386Y-37567D01*
X78396Y-37590D01*
X78418Y-37644D01*
X78372Y-37710D01*
X78368Y-37716D01*
X78352Y-37740D01*
X78339Y-37760D01*
X78330Y-37774D01*
X78327Y-37779D01*
X78327Y-37780D01*
X78333Y-37786D01*
X78345Y-37799D01*
X78363Y-37817D01*
X78383Y-37838D01*
X78399Y-37854D01*
X78417Y-37872D01*
X78430Y-37883D01*
X78438Y-37890D01*
X78443Y-37892D01*
X78446Y-37891D01*
X78453Y-37887D01*
X78467Y-37877D01*
X78488Y-37864D01*
X78511Y-37848D01*
X78531Y-37834D01*
X78553Y-37820D01*
X78569Y-37811D01*
X78576Y-37807D01*
X78580Y-37808D01*
X78593Y-37813D01*
X78612Y-37821D01*
X78636Y-37831D01*
X78688Y-37854D01*
X78695Y-37888D01*
X78699Y-37909D01*
X78704Y-37938D01*
X78710Y-37966D01*
X78718Y-38010D01*
X78877Y-38011D01*
X78880Y-38004D01*
X78882Y-37998D01*
X78886Y-37982D01*
X78890Y-37959D01*
X78895Y-37932D01*
X78900Y-37908D01*
X78904Y-37885D01*
X78907Y-37868D01*
X78909Y-37861D01*
X78911Y-37859D01*
X78923Y-37853D01*
X78941Y-37845D01*
X78962Y-37836D01*
X78985Y-37826D01*
X79005Y-37818D01*
X79021Y-37812D01*
X79029Y-37810D01*
X79035Y-37813D01*
X79049Y-37822D01*
X79069Y-37835D01*
X79092Y-37851D01*
X79115Y-37867D01*
X79135Y-37880D01*
X79149Y-37890D01*
X79156Y-37893D01*
X79160Y-37891D01*
X79171Y-37882D01*
X79189Y-37865D01*
X79215Y-37839D01*
X79219Y-37834D01*
X79239Y-37814D01*
X79255Y-37796D01*
X79266Y-37784D01*
X79270Y-37779D01*
X79270Y-37779D01*
G37*
X79270Y-37779D02*
X79267Y-37772D01*
X79258Y-37759D01*
X79245Y-37739D01*
X79230Y-37716D01*
X79214Y-37692D01*
X79201Y-37673D01*
X79192Y-37659D01*
X79189Y-37654D01*
X79190Y-37651D01*
X79196Y-37640D01*
X79204Y-37624D01*
X79209Y-37614D01*
X79215Y-37599D01*
X79217Y-37592D01*
X79215Y-37591D01*
X79203Y-37585D01*
X79184Y-37577D01*
X79158Y-37566D01*
X79128Y-37553D01*
X79096Y-37539D01*
X79063Y-37526D01*
X79032Y-37513D01*
X79003Y-37501D01*
X78980Y-37492D01*
X78964Y-37486D01*
X78957Y-37483D01*
X78956Y-37484D01*
X78949Y-37491D01*
X78939Y-37504D01*
X78916Y-37532D01*
X78882Y-37560D01*
X78843Y-37577D01*
X78799Y-37582D01*
X78759Y-37578D01*
X78721Y-37562D01*
X78686Y-37535D01*
X78660Y-37502D01*
X78644Y-37464D01*
X78639Y-37421D01*
X78643Y-37380D01*
X78659Y-37341D01*
X78685Y-37306D01*
X78702Y-37291D01*
X78738Y-37271D01*
X78775Y-37259D01*
X78784Y-37258D01*
X78826Y-37260D01*
X78866Y-37272D01*
X78901Y-37294D01*
X78930Y-37324D01*
X78933Y-37328D01*
X78944Y-37342D01*
X78951Y-37352D01*
X78957Y-37359D01*
X79084Y-37306D01*
X79104Y-37298D01*
X79139Y-37283D01*
X79169Y-37271D01*
X79193Y-37260D01*
X79209Y-37253D01*
X79215Y-37250D01*
X79215Y-37250D01*
X79216Y-37245D01*
X79213Y-37236D01*
X79204Y-37218D01*
X79198Y-37206D01*
X79192Y-37193D01*
X79189Y-37187D01*
X79192Y-37181D01*
X79200Y-37168D01*
X79213Y-37150D01*
X79228Y-37127D01*
X79243Y-37105D01*
X79256Y-37085D01*
X79266Y-37071D01*
X79269Y-37064D01*
X79269Y-37063D01*
X79266Y-37056D01*
X79256Y-37045D01*
X79240Y-37028D01*
X79216Y-37003D01*
X79212Y-36999D01*
X79192Y-36979D01*
X79174Y-36963D01*
X79162Y-36952D01*
X79157Y-36948D01*
X79157Y-36948D01*
X79150Y-36952D01*
X79135Y-36961D01*
X79115Y-36974D01*
X79091Y-36990D01*
X79030Y-37032D01*
X78973Y-37009D01*
X78955Y-37002D01*
X78933Y-36993D01*
X78918Y-36986D01*
X78911Y-36983D01*
X78909Y-36976D01*
X78905Y-36961D01*
X78901Y-36938D01*
X78896Y-36910D01*
X78891Y-36884D01*
X78886Y-36861D01*
X78883Y-36844D01*
X78882Y-36836D01*
X78880Y-36834D01*
X78877Y-36833D01*
X78869Y-36832D01*
X78854Y-36831D01*
X78832Y-36831D01*
X78799Y-36831D01*
X78796Y-36831D01*
X78765Y-36831D01*
X78740Y-36832D01*
X78725Y-36833D01*
X78718Y-36834D01*
X78718Y-36834D01*
X78716Y-36841D01*
X78713Y-36858D01*
X78708Y-36881D01*
X78703Y-36909D01*
X78703Y-36911D01*
X78697Y-36939D01*
X78692Y-36962D01*
X78689Y-36979D01*
X78686Y-36986D01*
X78684Y-36987D01*
X78673Y-36993D01*
X78656Y-37001D01*
X78635Y-37010D01*
X78613Y-37019D01*
X78593Y-37027D01*
X78579Y-37032D01*
X78572Y-37034D01*
X78572Y-37034D01*
X78565Y-37030D01*
X78551Y-37020D01*
X78531Y-37006D01*
X78507Y-36990D01*
X78505Y-36989D01*
X78481Y-36973D01*
X78461Y-36960D01*
X78447Y-36951D01*
X78441Y-36948D01*
X78440Y-36948D01*
X78433Y-36953D01*
X78420Y-36965D01*
X78402Y-36983D01*
X78381Y-37003D01*
X78375Y-37010D01*
X78352Y-37033D01*
X78338Y-37049D01*
X78330Y-37059D01*
X78328Y-37063D01*
X78328Y-37064D01*
X78332Y-37071D01*
X78342Y-37086D01*
X78356Y-37106D01*
X78372Y-37130D01*
X78373Y-37131D01*
X78389Y-37155D01*
X78403Y-37175D01*
X78412Y-37189D01*
X78415Y-37195D01*
X78415Y-37196D01*
X78413Y-37205D01*
X78407Y-37222D01*
X78399Y-37243D01*
X78390Y-37265D01*
X78382Y-37285D01*
X78375Y-37299D01*
X78371Y-37306D01*
X78371Y-37307D01*
X78362Y-37309D01*
X78344Y-37313D01*
X78320Y-37318D01*
X78291Y-37324D01*
X78287Y-37325D01*
X78258Y-37330D01*
X78235Y-37334D01*
X78219Y-37338D01*
X78212Y-37339D01*
X78212Y-37343D01*
X78211Y-37357D01*
X78210Y-37378D01*
X78210Y-37404D01*
X78210Y-37430D01*
X78210Y-37456D01*
X78211Y-37478D01*
X78212Y-37494D01*
X78214Y-37501D01*
X78214Y-37501D01*
X78223Y-37503D01*
X78240Y-37507D01*
X78265Y-37512D01*
X78294Y-37518D01*
X78299Y-37519D01*
X78327Y-37524D01*
X78350Y-37529D01*
X78366Y-37532D01*
X78372Y-37534D01*
X78373Y-37536D01*
X78379Y-37548D01*
X78386Y-37567D01*
X78396Y-37590D01*
X78418Y-37644D01*
X78372Y-37710D01*
X78368Y-37716D01*
X78352Y-37740D01*
X78339Y-37760D01*
X78330Y-37774D01*
X78327Y-37779D01*
X78327Y-37780D01*
X78333Y-37786D01*
X78345Y-37799D01*
X78363Y-37817D01*
X78383Y-37838D01*
X78399Y-37854D01*
X78417Y-37872D01*
X78430Y-37883D01*
X78438Y-37890D01*
X78443Y-37892D01*
X78446Y-37891D01*
X78453Y-37887D01*
X78467Y-37877D01*
X78488Y-37864D01*
X78511Y-37848D01*
X78531Y-37834D01*
X78553Y-37820D01*
X78569Y-37811D01*
X78576Y-37807D01*
X78580Y-37808D01*
X78593Y-37813D01*
X78612Y-37821D01*
X78636Y-37831D01*
X78688Y-37854D01*
X78695Y-37888D01*
X78699Y-37909D01*
X78704Y-37938D01*
X78710Y-37966D01*
X78718Y-38010D01*
X78877Y-38011D01*
X78880Y-38004D01*
X78882Y-37998D01*
X78886Y-37982D01*
X78890Y-37959D01*
X78895Y-37932D01*
X78900Y-37908D01*
X78904Y-37885D01*
X78907Y-37868D01*
X78909Y-37861D01*
X78911Y-37859D01*
X78923Y-37853D01*
X78941Y-37845D01*
X78962Y-37836D01*
X78985Y-37826D01*
X79005Y-37818D01*
X79021Y-37812D01*
X79029Y-37810D01*
X79035Y-37813D01*
X79049Y-37822D01*
X79069Y-37835D01*
X79092Y-37851D01*
X79115Y-37867D01*
X79135Y-37880D01*
X79149Y-37890D01*
X79156Y-37893D01*
X79160Y-37891D01*
X79171Y-37882D01*
X79189Y-37865D01*
X79215Y-37839D01*
X79219Y-37834D01*
X79239Y-37814D01*
X79255Y-37796D01*
X79266Y-37784D01*
X79270Y-37779D01*
G36*
X79295Y-25406D02*
X79293Y-25391D01*
X79289Y-25378D01*
X79286Y-25372D01*
X79277Y-25359D01*
X79266Y-25349D01*
X79254Y-25342D01*
X79240Y-25337D01*
X79226Y-25334D01*
X79211Y-25335D01*
X79197Y-25338D01*
X79183Y-25345D01*
X79177Y-25349D01*
X79170Y-25355D01*
X79164Y-25362D01*
X79159Y-25368D01*
X79158Y-25370D01*
X79152Y-25383D01*
X79149Y-25396D01*
X79148Y-25411D01*
X79148Y-25416D01*
X79149Y-25424D01*
X79151Y-25431D01*
X79155Y-25439D01*
X79159Y-25448D01*
X79169Y-25460D01*
X79181Y-25469D01*
X79194Y-25477D01*
X79200Y-25479D01*
X79208Y-25481D01*
X79213Y-25482D01*
X79214Y-25482D01*
X79214Y-25482D01*
X79211Y-25482D01*
X79211Y-25482D01*
X79201Y-25485D01*
X79192Y-25488D01*
X79183Y-25493D01*
X79172Y-25501D01*
X79162Y-25512D01*
X79154Y-25525D01*
X79149Y-25540D01*
X79148Y-25555D01*
X79148Y-25559D01*
X79149Y-25571D01*
X79152Y-25582D01*
X79153Y-25584D01*
X79160Y-25597D01*
X79169Y-25608D01*
X79181Y-25617D01*
X79193Y-25624D01*
X79206Y-25628D01*
X79207Y-25628D01*
X79210Y-25629D01*
X79212Y-25629D01*
X79212Y-25629D01*
X79210Y-25629D01*
X79206Y-25630D01*
X79205Y-25630D01*
X79192Y-25635D01*
X79179Y-25642D01*
X79168Y-25651D01*
X79161Y-25660D01*
X79154Y-25673D01*
X79149Y-25687D01*
X79148Y-25703D01*
X79149Y-25714D01*
X79152Y-25728D01*
X79159Y-25742D01*
X79168Y-25754D01*
X79180Y-25763D01*
X79182Y-25765D01*
X79187Y-25768D01*
X79192Y-25770D01*
X79195Y-25771D01*
X79202Y-25774D01*
X79208Y-25775D01*
X79213Y-25776D01*
X79214Y-25776D01*
X79214Y-25776D01*
X79211Y-25777D01*
X79203Y-25778D01*
X79193Y-25782D01*
X79184Y-25786D01*
X79172Y-25795D01*
X79162Y-25807D01*
X79154Y-25820D01*
X79149Y-25834D01*
X79148Y-25849D01*
X79149Y-25863D01*
X79153Y-25878D01*
X79160Y-25891D01*
X79170Y-25903D01*
X79177Y-25909D01*
X79185Y-25914D01*
X79194Y-25919D01*
X79202Y-25921D01*
X79217Y-25924D01*
X79231Y-25923D01*
X79245Y-25920D01*
X79258Y-25914D01*
X79269Y-25906D01*
X79279Y-25896D01*
X79287Y-25884D01*
X79292Y-25871D01*
X79295Y-25856D01*
X79295Y-25854D01*
X79295Y-25839D01*
X79291Y-25825D01*
X79285Y-25812D01*
X79281Y-25807D01*
X79273Y-25797D01*
X79262Y-25788D01*
X79251Y-25782D01*
X79247Y-25781D01*
X79241Y-25779D01*
X79234Y-25777D01*
X79229Y-25776D01*
X79226Y-25776D01*
X79229Y-25776D01*
X79232Y-25776D01*
X79238Y-25774D01*
X79246Y-25772D01*
X79252Y-25770D01*
X79259Y-25766D01*
X79271Y-25757D01*
X79281Y-25746D01*
X79289Y-25733D01*
X79294Y-25718D01*
X79294Y-25716D01*
X79295Y-25706D01*
X79295Y-25695D01*
X79293Y-25685D01*
X79290Y-25675D01*
X79283Y-25662D01*
X79273Y-25649D01*
X79272Y-25649D01*
X79262Y-25640D01*
X79249Y-25634D01*
X79237Y-25630D01*
X79236Y-25630D01*
X79233Y-25629D01*
X79231Y-25629D01*
X79232Y-25629D01*
X79235Y-25628D01*
X79236Y-25628D01*
X79244Y-25626D01*
X79252Y-25623D01*
X79260Y-25618D01*
X79269Y-25612D01*
X79280Y-25601D01*
X79288Y-25588D01*
X79293Y-25573D01*
X79294Y-25571D01*
X79295Y-25561D01*
X79295Y-25550D01*
X79294Y-25540D01*
X79291Y-25532D01*
X79285Y-25518D01*
X79276Y-25506D01*
X79265Y-25496D01*
X79252Y-25488D01*
X79248Y-25487D01*
X79241Y-25484D01*
X79234Y-25483D01*
X79229Y-25482D01*
X79229Y-25482D01*
X79229Y-25482D01*
X79232Y-25481D01*
X79232Y-25481D01*
X79241Y-25479D01*
X79251Y-25475D01*
X79260Y-25471D01*
X79263Y-25469D01*
X79274Y-25460D01*
X79283Y-25448D01*
X79290Y-25435D01*
X79294Y-25421D01*
X79295Y-25406D01*
X79295Y-25406D01*
G37*
X79295Y-25406D02*
X79293Y-25391D01*
X79289Y-25378D01*
X79286Y-25372D01*
X79277Y-25359D01*
X79266Y-25349D01*
X79254Y-25342D01*
X79240Y-25337D01*
X79226Y-25334D01*
X79211Y-25335D01*
X79197Y-25338D01*
X79183Y-25345D01*
X79177Y-25349D01*
X79170Y-25355D01*
X79164Y-25362D01*
X79159Y-25368D01*
X79158Y-25370D01*
X79152Y-25383D01*
X79149Y-25396D01*
X79148Y-25411D01*
X79148Y-25416D01*
X79149Y-25424D01*
X79151Y-25431D01*
X79155Y-25439D01*
X79159Y-25448D01*
X79169Y-25460D01*
X79181Y-25469D01*
X79194Y-25477D01*
X79200Y-25479D01*
X79208Y-25481D01*
X79213Y-25482D01*
X79214Y-25482D01*
X79214Y-25482D01*
X79211Y-25482D01*
X79211Y-25482D01*
X79201Y-25485D01*
X79192Y-25488D01*
X79183Y-25493D01*
X79172Y-25501D01*
X79162Y-25512D01*
X79154Y-25525D01*
X79149Y-25540D01*
X79148Y-25555D01*
X79148Y-25559D01*
X79149Y-25571D01*
X79152Y-25582D01*
X79153Y-25584D01*
X79160Y-25597D01*
X79169Y-25608D01*
X79181Y-25617D01*
X79193Y-25624D01*
X79206Y-25628D01*
X79207Y-25628D01*
X79210Y-25629D01*
X79212Y-25629D01*
X79212Y-25629D01*
X79210Y-25629D01*
X79206Y-25630D01*
X79205Y-25630D01*
X79192Y-25635D01*
X79179Y-25642D01*
X79168Y-25651D01*
X79161Y-25660D01*
X79154Y-25673D01*
X79149Y-25687D01*
X79148Y-25703D01*
X79149Y-25714D01*
X79152Y-25728D01*
X79159Y-25742D01*
X79168Y-25754D01*
X79180Y-25763D01*
X79182Y-25765D01*
X79187Y-25768D01*
X79192Y-25770D01*
X79195Y-25771D01*
X79202Y-25774D01*
X79208Y-25775D01*
X79213Y-25776D01*
X79214Y-25776D01*
X79214Y-25776D01*
X79211Y-25777D01*
X79203Y-25778D01*
X79193Y-25782D01*
X79184Y-25786D01*
X79172Y-25795D01*
X79162Y-25807D01*
X79154Y-25820D01*
X79149Y-25834D01*
X79148Y-25849D01*
X79149Y-25863D01*
X79153Y-25878D01*
X79160Y-25891D01*
X79170Y-25903D01*
X79177Y-25909D01*
X79185Y-25914D01*
X79194Y-25919D01*
X79202Y-25921D01*
X79217Y-25924D01*
X79231Y-25923D01*
X79245Y-25920D01*
X79258Y-25914D01*
X79269Y-25906D01*
X79279Y-25896D01*
X79287Y-25884D01*
X79292Y-25871D01*
X79295Y-25856D01*
X79295Y-25854D01*
X79295Y-25839D01*
X79291Y-25825D01*
X79285Y-25812D01*
X79281Y-25807D01*
X79273Y-25797D01*
X79262Y-25788D01*
X79251Y-25782D01*
X79247Y-25781D01*
X79241Y-25779D01*
X79234Y-25777D01*
X79229Y-25776D01*
X79226Y-25776D01*
X79229Y-25776D01*
X79232Y-25776D01*
X79238Y-25774D01*
X79246Y-25772D01*
X79252Y-25770D01*
X79259Y-25766D01*
X79271Y-25757D01*
X79281Y-25746D01*
X79289Y-25733D01*
X79294Y-25718D01*
X79294Y-25716D01*
X79295Y-25706D01*
X79295Y-25695D01*
X79293Y-25685D01*
X79290Y-25675D01*
X79283Y-25662D01*
X79273Y-25649D01*
X79272Y-25649D01*
X79262Y-25640D01*
X79249Y-25634D01*
X79237Y-25630D01*
X79236Y-25630D01*
X79233Y-25629D01*
X79231Y-25629D01*
X79232Y-25629D01*
X79235Y-25628D01*
X79236Y-25628D01*
X79244Y-25626D01*
X79252Y-25623D01*
X79260Y-25618D01*
X79269Y-25612D01*
X79280Y-25601D01*
X79288Y-25588D01*
X79293Y-25573D01*
X79294Y-25571D01*
X79295Y-25561D01*
X79295Y-25550D01*
X79294Y-25540D01*
X79291Y-25532D01*
X79285Y-25518D01*
X79276Y-25506D01*
X79265Y-25496D01*
X79252Y-25488D01*
X79248Y-25487D01*
X79241Y-25484D01*
X79234Y-25483D01*
X79229Y-25482D01*
X79229Y-25482D01*
X79229Y-25482D01*
X79232Y-25481D01*
X79232Y-25481D01*
X79241Y-25479D01*
X79251Y-25475D01*
X79260Y-25471D01*
X79263Y-25469D01*
X79274Y-25460D01*
X79283Y-25448D01*
X79290Y-25435D01*
X79294Y-25421D01*
X79295Y-25406D01*
G36*
X79148Y-26002D02*
X79147Y-25993D01*
X79147Y-25985D01*
X79144Y-25975D01*
X79138Y-25961D01*
X79129Y-25949D01*
X79118Y-25939D01*
X79105Y-25931D01*
X79091Y-25926D01*
X79076Y-25924D01*
X79061Y-25925D01*
X79047Y-25929D01*
X79034Y-25935D01*
X79022Y-25945D01*
X79012Y-25957D01*
X79010Y-25960D01*
X79004Y-25975D01*
X79000Y-25989D01*
X79000Y-26005D01*
X79003Y-26020D01*
X79008Y-26032D01*
X79017Y-26045D01*
X79028Y-26055D01*
X79041Y-26064D01*
X79056Y-26069D01*
X79063Y-26071D01*
X79073Y-26071D01*
X79082Y-26071D01*
X79090Y-26070D01*
X79093Y-26069D01*
X79108Y-26063D01*
X79121Y-26055D01*
X79132Y-26043D01*
X79140Y-26030D01*
X79143Y-26024D01*
X79146Y-26015D01*
X79147Y-26007D01*
X79148Y-26002D01*
X79148Y-26002D01*
G37*
X79148Y-26002D02*
X79147Y-25993D01*
X79147Y-25985D01*
X79144Y-25975D01*
X79138Y-25961D01*
X79129Y-25949D01*
X79118Y-25939D01*
X79105Y-25931D01*
X79091Y-25926D01*
X79076Y-25924D01*
X79061Y-25925D01*
X79047Y-25929D01*
X79034Y-25935D01*
X79022Y-25945D01*
X79012Y-25957D01*
X79010Y-25960D01*
X79004Y-25975D01*
X79000Y-25989D01*
X79000Y-26005D01*
X79003Y-26020D01*
X79008Y-26032D01*
X79017Y-26045D01*
X79028Y-26055D01*
X79041Y-26064D01*
X79056Y-26069D01*
X79063Y-26071D01*
X79073Y-26071D01*
X79082Y-26071D01*
X79090Y-26070D01*
X79093Y-26069D01*
X79108Y-26063D01*
X79121Y-26055D01*
X79132Y-26043D01*
X79140Y-26030D01*
X79143Y-26024D01*
X79146Y-26015D01*
X79147Y-26007D01*
X79148Y-26002D01*
G36*
X79148Y-25259D02*
X79146Y-25244D01*
X79141Y-25229D01*
X79132Y-25215D01*
X79130Y-25212D01*
X79119Y-25202D01*
X79106Y-25194D01*
X79092Y-25189D01*
X79084Y-25187D01*
X79075Y-25187D01*
X79065Y-25187D01*
X79058Y-25188D01*
X79054Y-25189D01*
X79039Y-25195D01*
X79027Y-25203D01*
X79016Y-25214D01*
X79008Y-25227D01*
X79003Y-25241D01*
X79000Y-25256D01*
X79000Y-25262D01*
X79002Y-25277D01*
X79006Y-25291D01*
X79014Y-25303D01*
X79023Y-25314D01*
X79035Y-25323D01*
X79048Y-25329D01*
X79062Y-25333D01*
X79077Y-25334D01*
X79086Y-25333D01*
X79094Y-25331D01*
X79103Y-25328D01*
X79114Y-25322D01*
X79126Y-25313D01*
X79135Y-25301D01*
X79142Y-25288D01*
X79146Y-25274D01*
X79148Y-25259D01*
X79148Y-25259D01*
G37*
X79148Y-25259D02*
X79146Y-25244D01*
X79141Y-25229D01*
X79132Y-25215D01*
X79130Y-25212D01*
X79119Y-25202D01*
X79106Y-25194D01*
X79092Y-25189D01*
X79084Y-25187D01*
X79075Y-25187D01*
X79065Y-25187D01*
X79058Y-25188D01*
X79054Y-25189D01*
X79039Y-25195D01*
X79027Y-25203D01*
X79016Y-25214D01*
X79008Y-25227D01*
X79003Y-25241D01*
X79000Y-25256D01*
X79000Y-25262D01*
X79002Y-25277D01*
X79006Y-25291D01*
X79014Y-25303D01*
X79023Y-25314D01*
X79035Y-25323D01*
X79048Y-25329D01*
X79062Y-25333D01*
X79077Y-25334D01*
X79086Y-25333D01*
X79094Y-25331D01*
X79103Y-25328D01*
X79114Y-25322D01*
X79126Y-25313D01*
X79135Y-25301D01*
X79142Y-25288D01*
X79146Y-25274D01*
X79148Y-25259D01*
G36*
X79000Y-26149D02*
X79000Y-26139D01*
X78998Y-26130D01*
X78995Y-26119D01*
X78988Y-26106D01*
X78978Y-26093D01*
X78969Y-26085D01*
X78956Y-26078D01*
X78942Y-26073D01*
X78936Y-26072D01*
X78927Y-26072D01*
X78918Y-26072D01*
X78911Y-26073D01*
X78906Y-26074D01*
X78892Y-26080D01*
X78879Y-26088D01*
X78868Y-26099D01*
X78860Y-26113D01*
X78858Y-26118D01*
X78854Y-26127D01*
X78853Y-26137D01*
X78853Y-26148D01*
X78853Y-26155D01*
X78854Y-26163D01*
X78856Y-26170D01*
X78860Y-26178D01*
X78863Y-26183D01*
X78872Y-26195D01*
X78883Y-26205D01*
X78897Y-26213D01*
X78912Y-26218D01*
X78915Y-26218D01*
X78924Y-26219D01*
X78933Y-26219D01*
X78941Y-26218D01*
X78946Y-26217D01*
X78960Y-26211D01*
X78973Y-26202D01*
X78984Y-26192D01*
X78992Y-26178D01*
X78998Y-26164D01*
X78999Y-26159D01*
X79000Y-26149D01*
X79000Y-26149D01*
G37*
X79000Y-26149D02*
X79000Y-26139D01*
X78998Y-26130D01*
X78995Y-26119D01*
X78988Y-26106D01*
X78978Y-26093D01*
X78969Y-26085D01*
X78956Y-26078D01*
X78942Y-26073D01*
X78936Y-26072D01*
X78927Y-26072D01*
X78918Y-26072D01*
X78911Y-26073D01*
X78906Y-26074D01*
X78892Y-26080D01*
X78879Y-26088D01*
X78868Y-26099D01*
X78860Y-26113D01*
X78858Y-26118D01*
X78854Y-26127D01*
X78853Y-26137D01*
X78853Y-26148D01*
X78853Y-26155D01*
X78854Y-26163D01*
X78856Y-26170D01*
X78860Y-26178D01*
X78863Y-26183D01*
X78872Y-26195D01*
X78883Y-26205D01*
X78897Y-26213D01*
X78912Y-26218D01*
X78915Y-26218D01*
X78924Y-26219D01*
X78933Y-26219D01*
X78941Y-26218D01*
X78946Y-26217D01*
X78960Y-26211D01*
X78973Y-26202D01*
X78984Y-26192D01*
X78992Y-26178D01*
X78998Y-26164D01*
X78999Y-26159D01*
X79000Y-26149D01*
G36*
X79000Y-25557D02*
X78999Y-25543D01*
X78995Y-25529D01*
X78991Y-25520D01*
X78982Y-25508D01*
X78971Y-25497D01*
X78958Y-25489D01*
X78944Y-25484D01*
X78941Y-25483D01*
X78929Y-25482D01*
X78918Y-25482D01*
X78905Y-25485D01*
X78890Y-25491D01*
X78878Y-25500D01*
X78868Y-25511D01*
X78860Y-25524D01*
X78854Y-25539D01*
X78852Y-25548D01*
X78851Y-25543D01*
X78851Y-25542D01*
X78848Y-25532D01*
X78843Y-25521D01*
X78837Y-25510D01*
X78835Y-25509D01*
X78825Y-25498D01*
X78812Y-25490D01*
X78798Y-25485D01*
X78784Y-25482D01*
X78770Y-25482D01*
X78756Y-25486D01*
X78742Y-25492D01*
X78741Y-25492D01*
X78729Y-25502D01*
X78719Y-25513D01*
X78712Y-25525D01*
X78708Y-25539D01*
X78706Y-25553D01*
X78707Y-25567D01*
X78710Y-25581D01*
X78717Y-25594D01*
X78726Y-25607D01*
X78733Y-25613D01*
X78744Y-25620D01*
X78755Y-25626D01*
X78766Y-25628D01*
X78769Y-25629D01*
X78770Y-25629D01*
X78769Y-25629D01*
X78766Y-25630D01*
X78756Y-25632D01*
X78746Y-25637D01*
X78736Y-25643D01*
X78731Y-25647D01*
X78721Y-25658D01*
X78713Y-25671D01*
X78708Y-25685D01*
X78706Y-25700D01*
X78707Y-25715D01*
X78709Y-25724D01*
X78715Y-25738D01*
X78723Y-25750D01*
X78734Y-25761D01*
X78747Y-25769D01*
X78762Y-25774D01*
X78769Y-25775D01*
X78784Y-25776D01*
X78798Y-25773D01*
X78812Y-25768D01*
X78825Y-25760D01*
X78835Y-25749D01*
X78844Y-25736D01*
X78847Y-25730D01*
X78849Y-25723D01*
X78851Y-25717D01*
X78852Y-25712D01*
X78852Y-25712D01*
X78852Y-25712D01*
X78853Y-25715D01*
X78855Y-25722D01*
X78859Y-25732D01*
X78863Y-25741D01*
X78866Y-25745D01*
X78875Y-25755D01*
X78885Y-25764D01*
X78896Y-25770D01*
X78909Y-25774D01*
X78922Y-25776D01*
X78935Y-25776D01*
X78937Y-25775D01*
X78953Y-25771D01*
X78966Y-25764D01*
X78978Y-25754D01*
X78986Y-25746D01*
X78994Y-25733D01*
X78998Y-25718D01*
X78999Y-25713D01*
X79000Y-25705D01*
X78999Y-25696D01*
X78999Y-25688D01*
X78997Y-25682D01*
X78996Y-25677D01*
X78989Y-25663D01*
X78979Y-25651D01*
X78967Y-25641D01*
X78961Y-25637D01*
X78951Y-25633D01*
X78941Y-25630D01*
X78941Y-25630D01*
X78937Y-25629D01*
X78936Y-25629D01*
X78936Y-25629D01*
X78916Y-25629D01*
X78916Y-25629D01*
X78915Y-25629D01*
X78911Y-25630D01*
X78910Y-25630D01*
X78897Y-25635D01*
X78884Y-25642D01*
X78873Y-25651D01*
X78864Y-25662D01*
X78858Y-25675D01*
X78857Y-25676D01*
X78855Y-25682D01*
X78854Y-25688D01*
X78852Y-25695D01*
X78851Y-25689D01*
X78849Y-25680D01*
X78843Y-25667D01*
X78835Y-25655D01*
X78824Y-25644D01*
X78812Y-25636D01*
X78806Y-25634D01*
X78798Y-25631D01*
X78792Y-25630D01*
X78789Y-25629D01*
X78788Y-25629D01*
X78789Y-25629D01*
X78792Y-25628D01*
X78797Y-25627D01*
X78805Y-25625D01*
X78812Y-25622D01*
X78820Y-25617D01*
X78831Y-25607D01*
X78840Y-25596D01*
X78847Y-25583D01*
X78851Y-25569D01*
X78852Y-25563D01*
X78854Y-25569D01*
X78854Y-25570D01*
X78855Y-25577D01*
X78858Y-25583D01*
X78858Y-25584D01*
X78865Y-25597D01*
X78874Y-25608D01*
X78885Y-25617D01*
X78898Y-25624D01*
X78911Y-25628D01*
X78911Y-25628D01*
X78915Y-25629D01*
X78916Y-25629D01*
X78936Y-25629D01*
X78936Y-25629D01*
X78938Y-25629D01*
X78941Y-25628D01*
X78951Y-25625D01*
X78964Y-25619D01*
X78976Y-25610D01*
X78986Y-25599D01*
X78993Y-25586D01*
X78993Y-25586D01*
X78998Y-25572D01*
X79000Y-25557D01*
X79000Y-25557D01*
G37*
X79000Y-25557D02*
X78999Y-25543D01*
X78995Y-25529D01*
X78991Y-25520D01*
X78982Y-25508D01*
X78971Y-25497D01*
X78958Y-25489D01*
X78944Y-25484D01*
X78941Y-25483D01*
X78929Y-25482D01*
X78918Y-25482D01*
X78905Y-25485D01*
X78890Y-25491D01*
X78878Y-25500D01*
X78868Y-25511D01*
X78860Y-25524D01*
X78854Y-25539D01*
X78852Y-25548D01*
X78851Y-25543D01*
X78851Y-25542D01*
X78848Y-25532D01*
X78843Y-25521D01*
X78837Y-25510D01*
X78835Y-25509D01*
X78825Y-25498D01*
X78812Y-25490D01*
X78798Y-25485D01*
X78784Y-25482D01*
X78770Y-25482D01*
X78756Y-25486D01*
X78742Y-25492D01*
X78741Y-25492D01*
X78729Y-25502D01*
X78719Y-25513D01*
X78712Y-25525D01*
X78708Y-25539D01*
X78706Y-25553D01*
X78707Y-25567D01*
X78710Y-25581D01*
X78717Y-25594D01*
X78726Y-25607D01*
X78733Y-25613D01*
X78744Y-25620D01*
X78755Y-25626D01*
X78766Y-25628D01*
X78769Y-25629D01*
X78770Y-25629D01*
X78769Y-25629D01*
X78766Y-25630D01*
X78756Y-25632D01*
X78746Y-25637D01*
X78736Y-25643D01*
X78731Y-25647D01*
X78721Y-25658D01*
X78713Y-25671D01*
X78708Y-25685D01*
X78706Y-25700D01*
X78707Y-25715D01*
X78709Y-25724D01*
X78715Y-25738D01*
X78723Y-25750D01*
X78734Y-25761D01*
X78747Y-25769D01*
X78762Y-25774D01*
X78769Y-25775D01*
X78784Y-25776D01*
X78798Y-25773D01*
X78812Y-25768D01*
X78825Y-25760D01*
X78835Y-25749D01*
X78844Y-25736D01*
X78847Y-25730D01*
X78849Y-25723D01*
X78851Y-25717D01*
X78852Y-25712D01*
X78852Y-25712D01*
X78852Y-25712D01*
X78853Y-25715D01*
X78855Y-25722D01*
X78859Y-25732D01*
X78863Y-25741D01*
X78866Y-25745D01*
X78875Y-25755D01*
X78885Y-25764D01*
X78896Y-25770D01*
X78909Y-25774D01*
X78922Y-25776D01*
X78935Y-25776D01*
X78937Y-25775D01*
X78953Y-25771D01*
X78966Y-25764D01*
X78978Y-25754D01*
X78986Y-25746D01*
X78994Y-25733D01*
X78998Y-25718D01*
X78999Y-25713D01*
X79000Y-25705D01*
X78999Y-25696D01*
X78999Y-25688D01*
X78997Y-25682D01*
X78996Y-25677D01*
X78989Y-25663D01*
X78979Y-25651D01*
X78967Y-25641D01*
X78961Y-25637D01*
X78951Y-25633D01*
X78941Y-25630D01*
X78941Y-25630D01*
X78937Y-25629D01*
X78936Y-25629D01*
X78936Y-25629D01*
X78916Y-25629D01*
X78916Y-25629D01*
X78915Y-25629D01*
X78911Y-25630D01*
X78910Y-25630D01*
X78897Y-25635D01*
X78884Y-25642D01*
X78873Y-25651D01*
X78864Y-25662D01*
X78858Y-25675D01*
X78857Y-25676D01*
X78855Y-25682D01*
X78854Y-25688D01*
X78852Y-25695D01*
X78851Y-25689D01*
X78849Y-25680D01*
X78843Y-25667D01*
X78835Y-25655D01*
X78824Y-25644D01*
X78812Y-25636D01*
X78806Y-25634D01*
X78798Y-25631D01*
X78792Y-25630D01*
X78789Y-25629D01*
X78788Y-25629D01*
X78789Y-25629D01*
X78792Y-25628D01*
X78797Y-25627D01*
X78805Y-25625D01*
X78812Y-25622D01*
X78820Y-25617D01*
X78831Y-25607D01*
X78840Y-25596D01*
X78847Y-25583D01*
X78851Y-25569D01*
X78852Y-25563D01*
X78854Y-25569D01*
X78854Y-25570D01*
X78855Y-25577D01*
X78858Y-25583D01*
X78858Y-25584D01*
X78865Y-25597D01*
X78874Y-25608D01*
X78885Y-25617D01*
X78898Y-25624D01*
X78911Y-25628D01*
X78911Y-25628D01*
X78915Y-25629D01*
X78916Y-25629D01*
X78936Y-25629D01*
X78936Y-25629D01*
X78938Y-25629D01*
X78941Y-25628D01*
X78951Y-25625D01*
X78964Y-25619D01*
X78976Y-25610D01*
X78986Y-25599D01*
X78993Y-25586D01*
X78993Y-25586D01*
X78998Y-25572D01*
X79000Y-25557D01*
G36*
X79000Y-25118D02*
X79000Y-25106D01*
X78998Y-25095D01*
X78996Y-25088D01*
X78989Y-25074D01*
X78980Y-25062D01*
X78969Y-25052D01*
X78956Y-25045D01*
X78942Y-25041D01*
X78926Y-25039D01*
X78920Y-25039D01*
X78905Y-25042D01*
X78891Y-25048D01*
X78877Y-25057D01*
X78875Y-25060D01*
X78866Y-25070D01*
X78859Y-25082D01*
X78854Y-25095D01*
X78854Y-25096D01*
X78853Y-25107D01*
X78853Y-25119D01*
X78854Y-25130D01*
X78855Y-25134D01*
X78861Y-25148D01*
X78870Y-25160D01*
X78880Y-25170D01*
X78892Y-25178D01*
X78905Y-25184D01*
X78920Y-25186D01*
X78935Y-25186D01*
X78950Y-25183D01*
X78961Y-25178D01*
X78973Y-25169D01*
X78984Y-25158D01*
X78992Y-25146D01*
X78998Y-25131D01*
X78998Y-25130D01*
X79000Y-25118D01*
X79000Y-25118D01*
G37*
X79000Y-25118D02*
X79000Y-25106D01*
X78998Y-25095D01*
X78996Y-25088D01*
X78989Y-25074D01*
X78980Y-25062D01*
X78969Y-25052D01*
X78956Y-25045D01*
X78942Y-25041D01*
X78926Y-25039D01*
X78920Y-25039D01*
X78905Y-25042D01*
X78891Y-25048D01*
X78877Y-25057D01*
X78875Y-25060D01*
X78866Y-25070D01*
X78859Y-25082D01*
X78854Y-25095D01*
X78854Y-25096D01*
X78853Y-25107D01*
X78853Y-25119D01*
X78854Y-25130D01*
X78855Y-25134D01*
X78861Y-25148D01*
X78870Y-25160D01*
X78880Y-25170D01*
X78892Y-25178D01*
X78905Y-25184D01*
X78920Y-25186D01*
X78935Y-25186D01*
X78950Y-25183D01*
X78961Y-25178D01*
X78973Y-25169D01*
X78984Y-25158D01*
X78992Y-25146D01*
X78998Y-25131D01*
X78998Y-25130D01*
X79000Y-25118D01*
G36*
X78558Y-25848D02*
X78556Y-25833D01*
X78551Y-25819D01*
X78548Y-25812D01*
X78543Y-25806D01*
X78537Y-25799D01*
X78529Y-25791D01*
X78516Y-25783D01*
X78502Y-25778D01*
X78498Y-25777D01*
X78488Y-25776D01*
X78478Y-25776D01*
X78469Y-25778D01*
X78456Y-25782D01*
X78443Y-25788D01*
X78432Y-25797D01*
X78431Y-25799D01*
X78425Y-25806D01*
X78420Y-25814D01*
X78416Y-25821D01*
X78415Y-25824D01*
X78413Y-25830D01*
X78412Y-25836D01*
X78411Y-25840D01*
X78411Y-25843D01*
X78410Y-25840D01*
X78409Y-25836D01*
X78408Y-25832D01*
X78407Y-25826D01*
X78401Y-25815D01*
X78395Y-25804D01*
X78387Y-25796D01*
X78385Y-25794D01*
X78372Y-25785D01*
X78358Y-25779D01*
X78344Y-25776D01*
X78329Y-25776D01*
X78325Y-25777D01*
X78310Y-25781D01*
X78297Y-25788D01*
X78284Y-25798D01*
X78277Y-25807D01*
X78269Y-25820D01*
X78264Y-25834D01*
X78264Y-25837D01*
X78263Y-25847D01*
X78263Y-25857D01*
X78265Y-25867D01*
X78267Y-25875D01*
X78274Y-25889D01*
X78283Y-25901D01*
X78294Y-25910D01*
X78307Y-25918D01*
X78321Y-25922D01*
X78323Y-25923D01*
X78326Y-25924D01*
X78328Y-25924D01*
X78326Y-25925D01*
X78323Y-25925D01*
X78317Y-25926D01*
X78310Y-25929D01*
X78304Y-25931D01*
X78300Y-25934D01*
X78287Y-25943D01*
X78277Y-25954D01*
X78269Y-25967D01*
X78265Y-25981D01*
X78263Y-25997D01*
X78264Y-26009D01*
X78267Y-26023D01*
X78274Y-26036D01*
X78279Y-26044D01*
X78290Y-26055D01*
X78302Y-26063D01*
X78316Y-26069D01*
X78330Y-26071D01*
X78345Y-26071D01*
X78359Y-26068D01*
X78373Y-26062D01*
X78385Y-26053D01*
X78396Y-26042D01*
X78404Y-26028D01*
X78409Y-26013D01*
X78411Y-26005D01*
X78411Y-26010D01*
X78412Y-26013D01*
X78415Y-26025D01*
X78421Y-26036D01*
X78429Y-26047D01*
X78438Y-26056D01*
X78446Y-26061D01*
X78456Y-26066D01*
X78466Y-26069D01*
X78474Y-26071D01*
X78483Y-26071D01*
X78493Y-26071D01*
X78500Y-26070D01*
X78509Y-26067D01*
X78523Y-26060D01*
X78535Y-26051D01*
X78545Y-26039D01*
X78553Y-26026D01*
X78557Y-26010D01*
X78558Y-26006D01*
X78558Y-25997D01*
X78557Y-25988D01*
X78556Y-25979D01*
X78554Y-25973D01*
X78547Y-25959D01*
X78538Y-25947D01*
X78527Y-25937D01*
X78514Y-25930D01*
X78499Y-25925D01*
X78498Y-25925D01*
X78494Y-25924D01*
X78495Y-25924D01*
X78474Y-25924D01*
X78474Y-25924D01*
X78471Y-25925D01*
X78470Y-25925D01*
X78460Y-25928D01*
X78450Y-25932D01*
X78440Y-25938D01*
X78435Y-25943D01*
X78424Y-25954D01*
X78417Y-25968D01*
X78412Y-25983D01*
X78410Y-25990D01*
X78409Y-25985D01*
X78408Y-25980D01*
X78407Y-25976D01*
X78406Y-25973D01*
X78400Y-25959D01*
X78390Y-25947D01*
X78379Y-25937D01*
X78366Y-25930D01*
X78352Y-25925D01*
X78349Y-25925D01*
X78347Y-25924D01*
X78348Y-25923D01*
X78352Y-25922D01*
X78353Y-25922D01*
X78361Y-25920D01*
X78369Y-25916D01*
X78377Y-25912D01*
X78382Y-25908D01*
X78389Y-25901D01*
X78396Y-25894D01*
X78401Y-25887D01*
X78401Y-25886D01*
X78406Y-25875D01*
X78409Y-25863D01*
X78410Y-25858D01*
X78412Y-25864D01*
X78415Y-25877D01*
X78422Y-25890D01*
X78431Y-25902D01*
X78442Y-25911D01*
X78446Y-25913D01*
X78453Y-25917D01*
X78461Y-25920D01*
X78468Y-25922D01*
X78473Y-25923D01*
X78473Y-25923D01*
X78474Y-25924D01*
X78495Y-25924D01*
X78495Y-25923D01*
X78498Y-25923D01*
X78502Y-25922D01*
X78507Y-25920D01*
X78514Y-25917D01*
X78527Y-25910D01*
X78538Y-25900D01*
X78547Y-25889D01*
X78553Y-25876D01*
X78557Y-25862D01*
X78558Y-25848D01*
X78558Y-25848D01*
G37*
X78558Y-25848D02*
X78556Y-25833D01*
X78551Y-25819D01*
X78548Y-25812D01*
X78543Y-25806D01*
X78537Y-25799D01*
X78529Y-25791D01*
X78516Y-25783D01*
X78502Y-25778D01*
X78498Y-25777D01*
X78488Y-25776D01*
X78478Y-25776D01*
X78469Y-25778D01*
X78456Y-25782D01*
X78443Y-25788D01*
X78432Y-25797D01*
X78431Y-25799D01*
X78425Y-25806D01*
X78420Y-25814D01*
X78416Y-25821D01*
X78415Y-25824D01*
X78413Y-25830D01*
X78412Y-25836D01*
X78411Y-25840D01*
X78411Y-25843D01*
X78410Y-25840D01*
X78409Y-25836D01*
X78408Y-25832D01*
X78407Y-25826D01*
X78401Y-25815D01*
X78395Y-25804D01*
X78387Y-25796D01*
X78385Y-25794D01*
X78372Y-25785D01*
X78358Y-25779D01*
X78344Y-25776D01*
X78329Y-25776D01*
X78325Y-25777D01*
X78310Y-25781D01*
X78297Y-25788D01*
X78284Y-25798D01*
X78277Y-25807D01*
X78269Y-25820D01*
X78264Y-25834D01*
X78264Y-25837D01*
X78263Y-25847D01*
X78263Y-25857D01*
X78265Y-25867D01*
X78267Y-25875D01*
X78274Y-25889D01*
X78283Y-25901D01*
X78294Y-25910D01*
X78307Y-25918D01*
X78321Y-25922D01*
X78323Y-25923D01*
X78326Y-25924D01*
X78328Y-25924D01*
X78326Y-25925D01*
X78323Y-25925D01*
X78317Y-25926D01*
X78310Y-25929D01*
X78304Y-25931D01*
X78300Y-25934D01*
X78287Y-25943D01*
X78277Y-25954D01*
X78269Y-25967D01*
X78265Y-25981D01*
X78263Y-25997D01*
X78264Y-26009D01*
X78267Y-26023D01*
X78274Y-26036D01*
X78279Y-26044D01*
X78290Y-26055D01*
X78302Y-26063D01*
X78316Y-26069D01*
X78330Y-26071D01*
X78345Y-26071D01*
X78359Y-26068D01*
X78373Y-26062D01*
X78385Y-26053D01*
X78396Y-26042D01*
X78404Y-26028D01*
X78409Y-26013D01*
X78411Y-26005D01*
X78411Y-26010D01*
X78412Y-26013D01*
X78415Y-26025D01*
X78421Y-26036D01*
X78429Y-26047D01*
X78438Y-26056D01*
X78446Y-26061D01*
X78456Y-26066D01*
X78466Y-26069D01*
X78474Y-26071D01*
X78483Y-26071D01*
X78493Y-26071D01*
X78500Y-26070D01*
X78509Y-26067D01*
X78523Y-26060D01*
X78535Y-26051D01*
X78545Y-26039D01*
X78553Y-26026D01*
X78557Y-26010D01*
X78558Y-26006D01*
X78558Y-25997D01*
X78557Y-25988D01*
X78556Y-25979D01*
X78554Y-25973D01*
X78547Y-25959D01*
X78538Y-25947D01*
X78527Y-25937D01*
X78514Y-25930D01*
X78499Y-25925D01*
X78498Y-25925D01*
X78494Y-25924D01*
X78495Y-25924D01*
X78474Y-25924D01*
X78474Y-25924D01*
X78471Y-25925D01*
X78470Y-25925D01*
X78460Y-25928D01*
X78450Y-25932D01*
X78440Y-25938D01*
X78435Y-25943D01*
X78424Y-25954D01*
X78417Y-25968D01*
X78412Y-25983D01*
X78410Y-25990D01*
X78409Y-25985D01*
X78408Y-25980D01*
X78407Y-25976D01*
X78406Y-25973D01*
X78400Y-25959D01*
X78390Y-25947D01*
X78379Y-25937D01*
X78366Y-25930D01*
X78352Y-25925D01*
X78349Y-25925D01*
X78347Y-25924D01*
X78348Y-25923D01*
X78352Y-25922D01*
X78353Y-25922D01*
X78361Y-25920D01*
X78369Y-25916D01*
X78377Y-25912D01*
X78382Y-25908D01*
X78389Y-25901D01*
X78396Y-25894D01*
X78401Y-25887D01*
X78401Y-25886D01*
X78406Y-25875D01*
X78409Y-25863D01*
X78410Y-25858D01*
X78412Y-25864D01*
X78415Y-25877D01*
X78422Y-25890D01*
X78431Y-25902D01*
X78442Y-25911D01*
X78446Y-25913D01*
X78453Y-25917D01*
X78461Y-25920D01*
X78468Y-25922D01*
X78473Y-25923D01*
X78473Y-25923D01*
X78474Y-25924D01*
X78495Y-25924D01*
X78495Y-25923D01*
X78498Y-25923D01*
X78502Y-25922D01*
X78507Y-25920D01*
X78514Y-25917D01*
X78527Y-25910D01*
X78538Y-25900D01*
X78547Y-25889D01*
X78553Y-25876D01*
X78557Y-25862D01*
X78558Y-25848D01*
G36*
X78558Y-25404D02*
X78556Y-25390D01*
X78551Y-25376D01*
X78543Y-25363D01*
X78533Y-25353D01*
X78521Y-25344D01*
X78507Y-25338D01*
X78502Y-25336D01*
X78498Y-25335D01*
X78497Y-25335D01*
X78494Y-25334D01*
X78494Y-25334D01*
X78474Y-25334D01*
X78472Y-25335D01*
X78467Y-25336D01*
X78458Y-25339D01*
X78445Y-25345D01*
X78433Y-25354D01*
X78424Y-25366D01*
X78416Y-25379D01*
X78412Y-25393D01*
X78410Y-25400D01*
X78409Y-25395D01*
X78409Y-25395D01*
X78406Y-25383D01*
X78401Y-25371D01*
X78398Y-25367D01*
X78391Y-25359D01*
X78384Y-25352D01*
X78377Y-25346D01*
X78371Y-25343D01*
X78361Y-25338D01*
X78353Y-25336D01*
X78349Y-25335D01*
X78347Y-25334D01*
X78348Y-25334D01*
X78352Y-25333D01*
X78362Y-25330D01*
X78376Y-25323D01*
X78388Y-25313D01*
X78397Y-25302D01*
X78405Y-25289D01*
X78409Y-25273D01*
X78410Y-25268D01*
X78412Y-25275D01*
X78414Y-25282D01*
X78420Y-25296D01*
X78429Y-25309D01*
X78440Y-25319D01*
X78444Y-25323D01*
X78451Y-25326D01*
X78459Y-25330D01*
X78464Y-25332D01*
X78470Y-25333D01*
X78470Y-25333D01*
X78473Y-25334D01*
X78474Y-25334D01*
X78494Y-25334D01*
X78495Y-25334D01*
X78499Y-25333D01*
X78504Y-25332D01*
X78515Y-25327D01*
X78525Y-25322D01*
X78531Y-25317D01*
X78542Y-25306D01*
X78550Y-25293D01*
X78556Y-25278D01*
X78557Y-25272D01*
X78558Y-25262D01*
X78557Y-25251D01*
X78556Y-25242D01*
X78556Y-25241D01*
X78550Y-25226D01*
X78541Y-25213D01*
X78530Y-25203D01*
X78517Y-25194D01*
X78502Y-25189D01*
X78496Y-25187D01*
X78485Y-25187D01*
X78475Y-25187D01*
X78466Y-25189D01*
X78458Y-25191D01*
X78448Y-25196D01*
X78438Y-25202D01*
X78431Y-25209D01*
X78424Y-25218D01*
X78418Y-25228D01*
X78416Y-25231D01*
X78414Y-25238D01*
X78412Y-25245D01*
X78411Y-25250D01*
X78411Y-25251D01*
X78410Y-25249D01*
X78409Y-25245D01*
X78406Y-25236D01*
X78402Y-25227D01*
X78398Y-25219D01*
X78396Y-25217D01*
X78388Y-25207D01*
X78377Y-25199D01*
X78366Y-25193D01*
X78361Y-25190D01*
X78346Y-25187D01*
X78331Y-25187D01*
X78316Y-25189D01*
X78313Y-25190D01*
X78299Y-25197D01*
X78287Y-25206D01*
X78277Y-25217D01*
X78269Y-25230D01*
X78264Y-25245D01*
X78264Y-25247D01*
X78263Y-25257D01*
X78263Y-25268D01*
X78265Y-25277D01*
X78265Y-25280D01*
X78271Y-25294D01*
X78279Y-25307D01*
X78291Y-25318D01*
X78304Y-25327D01*
X78308Y-25329D01*
X78315Y-25331D01*
X78321Y-25333D01*
X78326Y-25333D01*
X78327Y-25333D01*
X78327Y-25334D01*
X78325Y-25335D01*
X78321Y-25336D01*
X78311Y-25338D01*
X78298Y-25345D01*
X78287Y-25354D01*
X78277Y-25365D01*
X78269Y-25378D01*
X78269Y-25378D01*
X78265Y-25391D01*
X78263Y-25406D01*
X78264Y-25421D01*
X78268Y-25435D01*
X78272Y-25443D01*
X78280Y-25456D01*
X78291Y-25466D01*
X78304Y-25474D01*
X78319Y-25480D01*
X78322Y-25480D01*
X78334Y-25482D01*
X78345Y-25481D01*
X78359Y-25478D01*
X78373Y-25472D01*
X78385Y-25463D01*
X78396Y-25452D01*
X78404Y-25439D01*
X78409Y-25424D01*
X78410Y-25421D01*
X78411Y-25418D01*
X78411Y-25418D01*
X78411Y-25422D01*
X78414Y-25431D01*
X78418Y-25440D01*
X78423Y-25449D01*
X78429Y-25457D01*
X78440Y-25467D01*
X78454Y-25475D01*
X78456Y-25476D01*
X78470Y-25481D01*
X78485Y-25482D01*
X78501Y-25480D01*
X78515Y-25475D01*
X78522Y-25472D01*
X78528Y-25467D01*
X78535Y-25461D01*
X78536Y-25461D01*
X78546Y-25449D01*
X78553Y-25435D01*
X78557Y-25421D01*
X78557Y-25419D01*
X78558Y-25404D01*
X78558Y-25404D01*
G37*
X78558Y-25404D02*
X78556Y-25390D01*
X78551Y-25376D01*
X78543Y-25363D01*
X78533Y-25353D01*
X78521Y-25344D01*
X78507Y-25338D01*
X78502Y-25336D01*
X78498Y-25335D01*
X78497Y-25335D01*
X78494Y-25334D01*
X78494Y-25334D01*
X78474Y-25334D01*
X78472Y-25335D01*
X78467Y-25336D01*
X78458Y-25339D01*
X78445Y-25345D01*
X78433Y-25354D01*
X78424Y-25366D01*
X78416Y-25379D01*
X78412Y-25393D01*
X78410Y-25400D01*
X78409Y-25395D01*
X78409Y-25395D01*
X78406Y-25383D01*
X78401Y-25371D01*
X78398Y-25367D01*
X78391Y-25359D01*
X78384Y-25352D01*
X78377Y-25346D01*
X78371Y-25343D01*
X78361Y-25338D01*
X78353Y-25336D01*
X78349Y-25335D01*
X78347Y-25334D01*
X78348Y-25334D01*
X78352Y-25333D01*
X78362Y-25330D01*
X78376Y-25323D01*
X78388Y-25313D01*
X78397Y-25302D01*
X78405Y-25289D01*
X78409Y-25273D01*
X78410Y-25268D01*
X78412Y-25275D01*
X78414Y-25282D01*
X78420Y-25296D01*
X78429Y-25309D01*
X78440Y-25319D01*
X78444Y-25323D01*
X78451Y-25326D01*
X78459Y-25330D01*
X78464Y-25332D01*
X78470Y-25333D01*
X78470Y-25333D01*
X78473Y-25334D01*
X78474Y-25334D01*
X78494Y-25334D01*
X78495Y-25334D01*
X78499Y-25333D01*
X78504Y-25332D01*
X78515Y-25327D01*
X78525Y-25322D01*
X78531Y-25317D01*
X78542Y-25306D01*
X78550Y-25293D01*
X78556Y-25278D01*
X78557Y-25272D01*
X78558Y-25262D01*
X78557Y-25251D01*
X78556Y-25242D01*
X78556Y-25241D01*
X78550Y-25226D01*
X78541Y-25213D01*
X78530Y-25203D01*
X78517Y-25194D01*
X78502Y-25189D01*
X78496Y-25187D01*
X78485Y-25187D01*
X78475Y-25187D01*
X78466Y-25189D01*
X78458Y-25191D01*
X78448Y-25196D01*
X78438Y-25202D01*
X78431Y-25209D01*
X78424Y-25218D01*
X78418Y-25228D01*
X78416Y-25231D01*
X78414Y-25238D01*
X78412Y-25245D01*
X78411Y-25250D01*
X78411Y-25251D01*
X78410Y-25249D01*
X78409Y-25245D01*
X78406Y-25236D01*
X78402Y-25227D01*
X78398Y-25219D01*
X78396Y-25217D01*
X78388Y-25207D01*
X78377Y-25199D01*
X78366Y-25193D01*
X78361Y-25190D01*
X78346Y-25187D01*
X78331Y-25187D01*
X78316Y-25189D01*
X78313Y-25190D01*
X78299Y-25197D01*
X78287Y-25206D01*
X78277Y-25217D01*
X78269Y-25230D01*
X78264Y-25245D01*
X78264Y-25247D01*
X78263Y-25257D01*
X78263Y-25268D01*
X78265Y-25277D01*
X78265Y-25280D01*
X78271Y-25294D01*
X78279Y-25307D01*
X78291Y-25318D01*
X78304Y-25327D01*
X78308Y-25329D01*
X78315Y-25331D01*
X78321Y-25333D01*
X78326Y-25333D01*
X78327Y-25333D01*
X78327Y-25334D01*
X78325Y-25335D01*
X78321Y-25336D01*
X78311Y-25338D01*
X78298Y-25345D01*
X78287Y-25354D01*
X78277Y-25365D01*
X78269Y-25378D01*
X78269Y-25378D01*
X78265Y-25391D01*
X78263Y-25406D01*
X78264Y-25421D01*
X78268Y-25435D01*
X78272Y-25443D01*
X78280Y-25456D01*
X78291Y-25466D01*
X78304Y-25474D01*
X78319Y-25480D01*
X78322Y-25480D01*
X78334Y-25482D01*
X78345Y-25481D01*
X78359Y-25478D01*
X78373Y-25472D01*
X78385Y-25463D01*
X78396Y-25452D01*
X78404Y-25439D01*
X78409Y-25424D01*
X78410Y-25421D01*
X78411Y-25418D01*
X78411Y-25418D01*
X78411Y-25422D01*
X78414Y-25431D01*
X78418Y-25440D01*
X78423Y-25449D01*
X78429Y-25457D01*
X78440Y-25467D01*
X78454Y-25475D01*
X78456Y-25476D01*
X78470Y-25481D01*
X78485Y-25482D01*
X78501Y-25480D01*
X78515Y-25475D01*
X78522Y-25472D01*
X78528Y-25467D01*
X78535Y-25461D01*
X78536Y-25461D01*
X78546Y-25449D01*
X78553Y-25435D01*
X78557Y-25421D01*
X78557Y-25419D01*
X78558Y-25404D01*
G54D11*
X78267Y-30669D02*
X78267Y-32322D01*
X78267Y-32322D02*
X79212Y-32322D01*
X79212Y-32322D02*
X79212Y-30669D01*
X79212Y-30669D02*
X78267Y-30669D01*
G54D13*
X78986Y-31299D02*
X78986Y-31692D01*
X78494Y-31299D02*
X78494Y-31692D01*
X78494Y-31692D02*
X78494Y-31889D01*
X78986Y-31889D02*
X78986Y-31692D01*
X78494Y-31102D02*
X78494Y-31299D01*
X78986Y-31102D02*
X78986Y-31299D01*
X78494Y-31299D02*
X78986Y-31299D01*
X78986Y-31692D02*
X78494Y-31692D01*
X78494Y-31889D02*
X78602Y-31889D01*
X78877Y-31889D02*
X78986Y-31889D01*
X78986Y-31102D02*
X78877Y-31102D01*
X78494Y-31102D02*
X78602Y-31102D01*
X78701Y-31535D02*
X78779Y-31535D01*
X78779Y-31535D02*
X78779Y-31613D01*
X78701Y-31613D02*
X78779Y-31613D01*
X78701Y-31535D02*
X78701Y-31613D01*
X78603Y-31889D02*
G75*
G02X78877Y-31889I137J0D01*
G74*
G01*
X78877Y-31103D02*
G75*
G02X78603Y-31103I-137J0D01*
G74*
G01*
G54D11*
X78267Y-26732D02*
X78267Y-28385D01*
X78267Y-28385D02*
X79212Y-28385D01*
X79212Y-28385D02*
X79212Y-26732D01*
X79212Y-26732D02*
X78267Y-26732D01*
G54D13*
X78986Y-27362D02*
X78986Y-27755D01*
X78494Y-27362D02*
X78494Y-27755D01*
X78494Y-27755D02*
X78494Y-27952D01*
X78986Y-27952D02*
X78986Y-27755D01*
X78494Y-27165D02*
X78494Y-27362D01*
X78986Y-27165D02*
X78986Y-27362D01*
X78494Y-27362D02*
X78986Y-27362D01*
X78986Y-27755D02*
X78494Y-27755D01*
X78494Y-27952D02*
X78602Y-27952D01*
X78877Y-27952D02*
X78986Y-27952D01*
X78986Y-27165D02*
X78877Y-27165D01*
X78494Y-27165D02*
X78602Y-27165D01*
X78701Y-27598D02*
X78779Y-27598D01*
X78779Y-27598D02*
X78779Y-27676D01*
X78701Y-27676D02*
X78779Y-27676D01*
X78701Y-27598D02*
X78701Y-27676D01*
X78603Y-27952D02*
G75*
G02X78877Y-27952I137J0D01*
G74*
G01*
X78877Y-27166D02*
G75*
G02X78603Y-27166I-137J0D01*
G74*
G01*
G54D11*
X78267Y-54291D02*
X78267Y-55944D01*
X78267Y-55944D02*
X79212Y-55944D01*
X79212Y-55944D02*
X79212Y-54291D01*
X79212Y-54291D02*
X78267Y-54291D01*
G54D13*
X78986Y-54921D02*
X78986Y-55314D01*
X78494Y-54921D02*
X78494Y-55314D01*
X78494Y-55314D02*
X78494Y-55511D01*
X78986Y-55511D02*
X78986Y-55314D01*
X78494Y-54724D02*
X78494Y-54921D01*
X78986Y-54724D02*
X78986Y-54921D01*
X78494Y-54921D02*
X78986Y-54921D01*
X78986Y-55314D02*
X78494Y-55314D01*
X78494Y-55511D02*
X78602Y-55511D01*
X78877Y-55511D02*
X78986Y-55511D01*
X78986Y-54724D02*
X78877Y-54724D01*
X78494Y-54724D02*
X78602Y-54724D01*
X78701Y-55157D02*
X78779Y-55157D01*
X78779Y-55157D02*
X78779Y-55235D01*
X78701Y-55235D02*
X78779Y-55235D01*
X78701Y-55157D02*
X78701Y-55235D01*
X78603Y-55511D02*
G75*
G02X78877Y-55511I137J0D01*
G74*
G01*
X78877Y-54725D02*
G75*
G02X78603Y-54725I-137J0D01*
G74*
G01*
G54D11*
X78267Y-50354D02*
X78267Y-52007D01*
X78267Y-52007D02*
X79212Y-52007D01*
X79212Y-52007D02*
X79212Y-50354D01*
X79212Y-50354D02*
X78267Y-50354D01*
G54D13*
X78986Y-50984D02*
X78986Y-51377D01*
X78494Y-50984D02*
X78494Y-51377D01*
X78494Y-51377D02*
X78494Y-51574D01*
X78986Y-51574D02*
X78986Y-51377D01*
X78494Y-50787D02*
X78494Y-50984D01*
X78986Y-50787D02*
X78986Y-50984D01*
X78494Y-50984D02*
X78986Y-50984D01*
X78986Y-51377D02*
X78494Y-51377D01*
X78494Y-51574D02*
X78602Y-51574D01*
X78877Y-51574D02*
X78986Y-51574D01*
X78986Y-50787D02*
X78877Y-50787D01*
X78494Y-50787D02*
X78602Y-50787D01*
X78701Y-51220D02*
X78779Y-51220D01*
X78779Y-51220D02*
X78779Y-51298D01*
X78701Y-51298D02*
X78779Y-51298D01*
X78701Y-51220D02*
X78701Y-51298D01*
X78603Y-51574D02*
G75*
G02X78877Y-51574I137J0D01*
G74*
G01*
X78877Y-50788D02*
G75*
G02X78603Y-50788I-137J0D01*
G74*
G01*
G54D11*
X78267Y-46417D02*
X78267Y-48070D01*
X78267Y-48070D02*
X79212Y-48070D01*
X79212Y-48070D02*
X79212Y-46417D01*
X79212Y-46417D02*
X78267Y-46417D01*
G54D13*
X78986Y-47047D02*
X78986Y-47440D01*
X78494Y-47047D02*
X78494Y-47440D01*
X78494Y-47440D02*
X78494Y-47637D01*
X78986Y-47637D02*
X78986Y-47440D01*
X78494Y-46850D02*
X78494Y-47047D01*
X78986Y-46850D02*
X78986Y-47047D01*
X78494Y-47047D02*
X78986Y-47047D01*
X78986Y-47440D02*
X78494Y-47440D01*
X78494Y-47637D02*
X78602Y-47637D01*
X78877Y-47637D02*
X78986Y-47637D01*
X78986Y-46850D02*
X78877Y-46850D01*
X78494Y-46850D02*
X78602Y-46850D01*
X78701Y-47283D02*
X78779Y-47283D01*
X78779Y-47283D02*
X78779Y-47361D01*
X78701Y-47361D02*
X78779Y-47361D01*
X78701Y-47283D02*
X78701Y-47361D01*
X78603Y-47637D02*
G75*
G02X78877Y-47637I137J0D01*
G74*
G01*
X78877Y-46851D02*
G75*
G02X78603Y-46851I-137J0D01*
G74*
G01*
G54D11*
X78267Y-42480D02*
X78267Y-44133D01*
X78267Y-44133D02*
X79212Y-44133D01*
X79212Y-44133D02*
X79212Y-42480D01*
X79212Y-42480D02*
X78267Y-42480D01*
G54D13*
X78986Y-43110D02*
X78986Y-43503D01*
X78494Y-43110D02*
X78494Y-43503D01*
X78494Y-43503D02*
X78494Y-43700D01*
X78986Y-43700D02*
X78986Y-43503D01*
X78494Y-42913D02*
X78494Y-43110D01*
X78986Y-42913D02*
X78986Y-43110D01*
X78494Y-43110D02*
X78986Y-43110D01*
X78986Y-43503D02*
X78494Y-43503D01*
X78494Y-43700D02*
X78602Y-43700D01*
X78877Y-43700D02*
X78986Y-43700D01*
X78986Y-42913D02*
X78877Y-42913D01*
X78494Y-42913D02*
X78602Y-42913D01*
X78701Y-43346D02*
X78779Y-43346D01*
X78779Y-43346D02*
X78779Y-43424D01*
X78701Y-43424D02*
X78779Y-43424D01*
X78701Y-43346D02*
X78701Y-43424D01*
X78603Y-43700D02*
G75*
G02X78877Y-43700I137J0D01*
G74*
G01*
X78877Y-42914D02*
G75*
G02X78603Y-42914I-137J0D01*
G74*
G01*
G54D11*
X78267Y-38543D02*
X78267Y-40196D01*
X78267Y-40196D02*
X79212Y-40196D01*
X79212Y-40196D02*
X79212Y-38543D01*
X79212Y-38543D02*
X78267Y-38543D01*
G54D13*
X78986Y-39173D02*
X78986Y-39566D01*
X78494Y-39173D02*
X78494Y-39566D01*
X78494Y-39566D02*
X78494Y-39763D01*
X78986Y-39763D02*
X78986Y-39566D01*
X78494Y-38976D02*
X78494Y-39173D01*
X78986Y-38976D02*
X78986Y-39173D01*
X78494Y-39173D02*
X78986Y-39173D01*
X78986Y-39566D02*
X78494Y-39566D01*
X78494Y-39763D02*
X78602Y-39763D01*
X78877Y-39763D02*
X78986Y-39763D01*
X78986Y-38976D02*
X78877Y-38976D01*
X78494Y-38976D02*
X78602Y-38976D01*
X78701Y-39409D02*
X78779Y-39409D01*
X78779Y-39409D02*
X78779Y-39487D01*
X78701Y-39487D02*
X78779Y-39487D01*
X78701Y-39409D02*
X78701Y-39487D01*
X78603Y-39763D02*
G75*
G02X78877Y-39763I137J0D01*
G74*
G01*
X78877Y-38977D02*
G75*
G02X78603Y-38977I-137J0D01*
G74*
G01*
G54D11*
X78267Y-34606D02*
X78267Y-36259D01*
X78267Y-36259D02*
X79212Y-36259D01*
X79212Y-36259D02*
X79212Y-34606D01*
X79212Y-34606D02*
X78267Y-34606D01*
G54D13*
X78986Y-35236D02*
X78986Y-35629D01*
X78494Y-35236D02*
X78494Y-35629D01*
X78494Y-35629D02*
X78494Y-35826D01*
X78986Y-35826D02*
X78986Y-35629D01*
X78494Y-35039D02*
X78494Y-35236D01*
X78986Y-35039D02*
X78986Y-35236D01*
X78494Y-35236D02*
X78986Y-35236D01*
X78986Y-35629D02*
X78494Y-35629D01*
X78494Y-35826D02*
X78602Y-35826D01*
X78877Y-35826D02*
X78986Y-35826D01*
X78986Y-35039D02*
X78877Y-35039D01*
X78494Y-35039D02*
X78602Y-35039D01*
X78701Y-35472D02*
X78779Y-35472D01*
X78779Y-35472D02*
X78779Y-35550D01*
X78701Y-35550D02*
X78779Y-35550D01*
X78701Y-35472D02*
X78701Y-35550D01*
X78603Y-35826D02*
G75*
G02X78877Y-35826I137J0D01*
G74*
G01*
X78877Y-35040D02*
G75*
G02X78603Y-35040I-137J0D01*
G74*
G01*
G54D11*
X78267Y-22795D02*
X78267Y-24448D01*
X78267Y-24448D02*
X79212Y-24448D01*
X79212Y-24448D02*
X79212Y-22795D01*
X79212Y-22795D02*
X78267Y-22795D01*
G54D13*
X78986Y-23425D02*
X78986Y-23818D01*
X78494Y-23425D02*
X78494Y-23818D01*
X78494Y-23818D02*
X78494Y-24015D01*
X78986Y-24015D02*
X78986Y-23818D01*
X78494Y-23228D02*
X78494Y-23425D01*
X78986Y-23228D02*
X78986Y-23425D01*
X78494Y-23425D02*
X78986Y-23425D01*
X78986Y-23818D02*
X78494Y-23818D01*
X78494Y-24015D02*
X78602Y-24015D01*
X78877Y-24015D02*
X78986Y-24015D01*
X78986Y-23228D02*
X78877Y-23228D01*
X78494Y-23228D02*
X78602Y-23228D01*
X78701Y-23661D02*
X78779Y-23661D01*
X78779Y-23661D02*
X78779Y-23739D01*
X78701Y-23739D02*
X78779Y-23739D01*
X78701Y-23661D02*
X78701Y-23739D01*
X78603Y-24015D02*
G75*
G02X78877Y-24015I137J0D01*
G74*
G01*
X78877Y-23229D02*
G75*
G02X78603Y-23229I-137J0D01*
G74*
G01*
G54D11*
X78385Y-28818D02*
X78385Y-30157D01*
X78385Y-30157D02*
X79094Y-30157D01*
X79094Y-30157D02*
X79094Y-28818D01*
X79094Y-28818D02*
X78385Y-28818D01*
X78910Y-29658D02*
X78910Y-29818D01*
X78910Y-29818D02*
X78570Y-29818D01*
X78570Y-29658D02*
X78570Y-29818D01*
X78910Y-29658D02*
X78570Y-29658D01*
X78910Y-29158D02*
X78910Y-29318D01*
X78910Y-29318D02*
X78570Y-29318D01*
X78570Y-29158D02*
X78570Y-29318D01*
X78910Y-29158D02*
X78570Y-29158D01*
X78880Y-29318D02*
X78880Y-29658D01*
X78600Y-29658D02*
X78600Y-29318D01*
X78385Y-52440D02*
X78385Y-53779D01*
X78385Y-53779D02*
X79094Y-53779D01*
X79094Y-53779D02*
X79094Y-52440D01*
X79094Y-52440D02*
X78385Y-52440D01*
X78910Y-53280D02*
X78910Y-53440D01*
X78910Y-53440D02*
X78570Y-53440D01*
X78570Y-53280D02*
X78570Y-53440D01*
X78910Y-53280D02*
X78570Y-53280D01*
X78910Y-52780D02*
X78910Y-52940D01*
X78910Y-52940D02*
X78570Y-52940D01*
X78570Y-52780D02*
X78570Y-52940D01*
X78910Y-52780D02*
X78570Y-52780D01*
X78880Y-52940D02*
X78880Y-53280D01*
X78600Y-53280D02*
X78600Y-52940D01*
X78385Y-40629D02*
X78385Y-41968D01*
X78385Y-41968D02*
X79094Y-41968D01*
X79094Y-41968D02*
X79094Y-40629D01*
X79094Y-40629D02*
X78385Y-40629D01*
X78910Y-41469D02*
X78910Y-41629D01*
X78910Y-41629D02*
X78570Y-41629D01*
X78570Y-41469D02*
X78570Y-41629D01*
X78910Y-41469D02*
X78570Y-41469D01*
X78910Y-40969D02*
X78910Y-41129D01*
X78910Y-41129D02*
X78570Y-41129D01*
X78570Y-40969D02*
X78570Y-41129D01*
X78910Y-40969D02*
X78570Y-40969D01*
X78880Y-41129D02*
X78880Y-41469D01*
X78600Y-41469D02*
X78600Y-41129D01*
%LPC*%
G54D14*
X78740Y-31083D03*
X78740Y-31909D03*
X78740Y-27146D03*
X78740Y-27972D03*
X78740Y-54705D03*
X78740Y-55531D03*
X78740Y-50768D03*
X78740Y-51594D03*
X78740Y-46831D03*
X78740Y-47657D03*
X78740Y-42894D03*
X78740Y-43720D03*
X78740Y-38957D03*
X78740Y-39783D03*
X78740Y-35020D03*
X78740Y-35846D03*
X78740Y-23209D03*
X78740Y-24035D03*
G54D15*
X78740Y-29154D03*
X78740Y-29822D03*
X78740Y-52776D03*
X78740Y-53444D03*
X78740Y-40965D03*
X78740Y-41633D03*
G54D16*
X79094Y-56496D03*
G54D17*
X78385Y-56496D03*
G54D16*
X79094Y-45866D03*
G54D17*
X78385Y-45866D03*
G54D16*
X79094Y-44685D03*
G54D17*
X78385Y-44685D03*
G54D16*
X79094Y-34055D03*
G54D17*
X78385Y-34055D03*
G54D16*
X79094Y-32874D03*
G54D17*
X78385Y-32874D03*
G54D16*
X79094Y-22244D03*
G54D17*
X78385Y-22244D03*
M02*
